<svg version="1.1" id="Layer_1" xmlns="http://www.w3.org/2000/svg" x="0" y="0" viewBox="0 0 321.19 286.56" xml:space="preserve"><style>.st0{fill:#f4ba58}.st1{fill:#fbd996}.st4{fill:#e1a250}.st12{fill:#f5b850}.st17{fill:#d6d1cf}.st19{fill:#e4932f}.st23{fill:#f3aa31}.st29{fill:#d98b2b}.st37{fill:#ca7229}.st41{fill:#f5ba5f}.st45{fill:#bb8648}.st48{fill:#dedbdb}.st49{fill:#e1e1e4}.st50{fill:#eeeef0}.st55{fill:#e6cfb5}.st58{fill:#c5823b}.st66{fill:#f4b450}.st72{fill:#f5bb65}.st79{fill:#d09c6a}.st86{fill:#fac560}.st89{fill:#f7c366}.st104{fill:#da9036}.st116{fill:#f5ac42}.st139{fill:#f5b547}.st141{fill:#f2a843}</style><path class="st0" d="M11.95 29c2.47 2.14 4.98-.01 7.45.11 1.86.09 3.78-1.47 5.58.11 4.47 3.18 9.26 5.24 14.9 5.72 5.7.48 11.41 1.4 16.91 3.2 2.78.88 5.67.07 8.47.56 2.52.32 3.88 1.7 3.89 4.28-.6 2.91-2.81 6.29 2.17 7.63 1.76 1.51 2.07 3.36 1.01 5.34-1.36 2.54-.24 3.76 2.16 4.22 6.06 1.15 9.22 6.08 12.94 10.1 1.95 2.11 2.5 4.98-1.81 5.71-2.44-.43-5.2.06-6.96-2.36.03-1.99.24-4.15-2.12-5.06-4.01-1.55-8.05-3.16-11.8-5.17-5.28-2.84-11.46-1.29-16.8-4.41-2.15-1.25-6.13-.65-9.12-.81-5.33-.28-10.25-2.78-15.59-2.23-1.53-.43-2.82-1.24-3.89-2.4-.83-1.08-1.28-2.23-.6-3.56 2.4-1.98 5.1-1.2 7.6-.52 5.73 1.56 11.43.67 17.86.58-1.83-2.7-3.95-2.35-5.98-2.21-6.59.45-7.83-1.1-5.61-7.49-3.78 2.11-6.86 1.92-8.84-2.2-.46-.95-1.4-1.91-2.33-1.44-3.82 1.98-7.05-.78-10.56-1.04-2.73-.2-5.57-.91-5.12-3.94.43-2.95 3.19-3.89 6.19-2.72z"/><path class="st1" d="M11.95 29c-.97.19-2 .22-2.89.59-1.31.55-3.19 1.05-2.44 3.03.56 1.47 2.13 2.4 3.65 1.73 2.05-.91 3.33-.32 4.77 1.11 1.32 1.32 2.73 1.04 4.45.11 2.36-1.28 4.87-2.33 5.68 2.15.67 3.68 3.31 3.59 5.97 1.63 1.26-.93 2.61-1.91 3.92-.41 1.57 1.81-.24 2.54-1.44 3.35-1.07.73-1.62 1.6-.99 2.93.66 1.39 1.73 2.12 3.19 1.65 2.26-.73 4.56-1.28 6.78-.35 1.51.63 4.21.75 3.72 3.11-.46 2.24-2.74 2.39-4.9 2.31-6.52-.25-13.06-.04-19.43-1.9-.91-.27-1.98 0-2.97.03-3.07 2.46-4.74-1.7-7.26-1.64-1.19 1.11.02 2.62-.83 3.7-.63.53-1.26.48-1.89-.01-3.75-1.74-2.7-6.87-6.3-8.92-.67-.38 1.29-1.54 2.05-2.27 1.8-1.72 3.23-3.39 1.2-5.84-1.11-1.93-3.28-3.99-.33-5.89 1.85-1.16 4.1-3.47 6.29-.2z"/><path d="M176.85 23.13c.85-10.08 4.37-15.08 12.17-15.14 2.24-.02 4.23.28 5.82 1.96-.23.43-.57.74-1.01.94-1.91.28-3.95.17-3.41 3.3.41 2.42-1.68 3.33-3.54 4.12-1.69.72-2.86 1.82-2.31 3.78 1.36 4.88 2.46 9.9 6.42 13.56 1.29 3.17 2.67 6.32 2.5 9.85-1.4 2.26-3.26 1.44-5.05.68-1.31-.56-2.41-1.61-3.94-1.66-.96-.27-1.47-.98-1.83-1.85-.24-.66-.25-1.34-.25-2.02.32-2.58-.77-5.09-.05-7.75.5-1.85-.67-3.61-2.29-4.6-1.99-1.24-2.81-3.03-3.23-5.17z" fill="#f8c871"/><path d="M118.1 56.91c2.25-7.3-.89-14.03-2.45-20.85-1.45-6.37-3.03-12.51.02-18.87 1.58-3.29 3.21-5.87 7.47-4.4.59.2 1.33.26 1.93.11 6.31-1.59 9.83.45 11.87 6.93-.05.79-.48 1.31-1.2 1.61-2.55-.36-4.96-1.18-7.25-2.33-1.65-.97-3-2.54-4.87-3.02-1.47-.38-3.93-1.49-3.1 2.01 3.29 4.9 3.31 4.95-1.94 7.68-1.95 1.01-1.9 2.53-1.45 4.2 2.07 7.82 3.86 15.7 4.97 23.73 1.05 5.28.96 10.68 1.82 15.97.34 1.32.52 2.66.48 4.03.25 2.15 1.18 4.24.69 6.47-.19.84-.55 1.58-1.32 2.04-3.06-1.21-2.52-4.2-3.13-6.56-.52-2.02-.81-4.12-1.06-6.21.04-4.24-1.61-8.28-1.48-12.54z" fill="#eec480"/><path class="st4" d="M55.94 39.13c-6.13-1.25-12.32-2.17-18.48-3.23-4.61-.79-10.27-.87-12.48-6.67 11.32 1.96 23.2.72 33.97 5.89 1.28 3.04-1.05 3.38-3.01 4.01z"/><path d="M211.63 34.28c-.33 1.23-1.6 2.47.09 3.65 3.83 9.43 6.44 19.22 9.09 29.03 1.64 6.07.12 11.97.87 17.9.57 7.82-1.06 15.19-4.57 22.18-.76.54-1.55.57-2.37.13-1.27-3.89-.41-7.63.78-11.35 1.5-4.55 2.1-9.27 2.72-13.99.27-5.64.11-11.14-1.78-16.64-2.9-8.45-4.66-17.27-8.03-25.58-.7-1.72-1.14-3.49-.12-5.27.4-.49.89-.62 1.47-.37.62.11 1.23.21 1.85.31z" fill="#b3754e"/><path d="M55.94 39.13c.49-1.72 3.05-1.89 3.01-4.01C69.72 37.55 80.26 40.54 89 47.77c3.53 2.92 8.43 3.98 10.96 8.22 1.15 1.33 3.58 1.81 2.91 4.35-1.78 1.04-3.09.2-4.21-1.13-1.26-1.49-2.6-2.88-4.27-3.91-8.29-4.63-17-8.54-24.82-14.01-1.31-1.28-2.62-2.51-4.61-1.21-3.01-.33-6.19.97-9.02-.95z" fill="#cc8f4e"/><path d="M142.82 40.13c.73 3.34 1.46 6.69 2.19 10.03.5 1.25 1.78 2.02 2.05 3.4.79 4.75 1.42 9.52 2.14 14.29.19 2.47.5 4.92.93 7.36-.45 2.11 1.16 6.23-3.83 3.99-3.82-7.25-6.87-14.69-6.07-23.17.45-4.78-.59-9.57-.16-14.37.54-1.18 1.33-1.93 2.75-1.53z" fill="#bf8041"/><path d="M209.78 33.97c-.38.08-.77.16-1.15.25-1.59.98-1.25 3.49-3.28 4.12-2.52-1.24-1.87-3.74-2.32-5.8.67-3.56-.22-6.45-2.44-9.52-2.61-3.62-4.18-7.98-7.2-11.42-.08-.5 0-.96.25-1.39.4-.09.79-.17 1.19-.26 2.97.78 4.6 3.17 5.86 5.57 3.21 6.06 6.09 12.29 9.09 18.45z" fill="#be8652"/><path d="M182.93 40.67l-1.08.09c-1.16-4.2-2.16-8.44-4.09-12.4-.78-1.61-1.32-3.36-.91-5.23 1.19.81 1.2 2.43 2.83 3.19 3.91 1.81 5.63 4.91 3.51 9.18-.86 1.73 1.32 3.53-.26 5.17z" fill="#f3d091"/><path d="M142.82 40.13l-1.83.87c-.56-.37-1.1-.87-1.14-1.51-.43-6.34-3.74-12.03-4.06-18.38.38-.42.77-.84 1.15-1.26 5.69 5.67 5.49 13.06 5.88 20.28z" fill="#c19169"/><path d="M107.87 60.35c.03 1.16.05 2.31.08 3.47-3.83 1.58-4.97-.42-5.06-3.8-.98-1.34-1.95-2.68-2.93-4.02 3.2.41 4.35 4.56 7.91 4.35z" fill="#bf8b60"/><path class="st12" d="M223.77 113.02c1.4-1.33 3.15-1.21 4.88-1.16 7.8.61 14.98 3.88 22.61 5.23 1.14.2 2.28.87 2.72 1.99.67 1.73 1.41 1.91 2.79.7.63-.55 1.65-.59 2.37-.17 5.65 3.25 12.62 2.6 18.15 6.31 3.87 2.59 8.79 2.86 12.81 5.26 1.45.87 2.87-.15 4.23-.74.76-.22 1.44-.04 2.07.4 2.65 1.24 5.2 2.74 8.17 3.15 3.8.37 5.85 3.45 8.56 5.51.29.41.51.85.68 1.32.5 2.97-1.09 4.28-3.77 4.72-13.25.3-25.13-4.8-37.41-8.84-8.97-2.95-17.61-6.89-26.8-9.15-1.61-.4-3.27-.62-4.64-1.67-2.52-3.25-6.19-3.49-9.76-3.25-6.51.45-7.49-.07-9.43-6.47-.03-1.4.84-2.29 1.77-3.14z"/><path d="M294.65 130.92c-1.39 2.93-3.12 2.7-5.99 1.57-7.69-3.02-14.57-8.21-23.25-8.7-1.69-.1-3.43-1.17-4.93-2.13-1.93-1.24-3.3-2.08-4.36.97-.44 1.26-3.07 1.75-2.9.28.87-7.29-5.78-5.51-8.36-5.94-5.76-.96-10.83-3.4-16.21-5.11 7.18-3.47 14.69-1.27 22.06-1.16 1.16.02 2.2.5 3.07-.59 11.89 4.01 23.29 9.08 33.99 15.67 2.04 2.05 6.44.95 6.88 5.14z" fill="#f5c678"/><path d="M64.88 70.94c2.93-1.02 5.83.51 8.76.14 1.08-.14 2.65.35 2.79-1.25.11-1.2-1.03-2.03-2.17-2.44-7.91-2.84-16.01-5.28-24.33-6.18-5.76-.62-11.08-3.24-16.93-2.97-1.64-.4-3.29-.8-4.93-1.2-1.55-1.05-3.39-.05-5-.7-.29-.45-.28-.89 0-1.34 6.52 1.48 13.52.19 19.74 3.4 4.24-4 7.39 1.67 10.63 1.34 9.47-.98 16.11 5.49 24.2 7.93 1.36.41 5.74 2.5 1.34 5.47-3.16 2.48-6.56 1.12-9.91.65-1.32-.46-2.84-.32-3.99-1.32-.45-.47-.51-.98-.2-1.53z" fill="#f4c37e"/><path d="M40.99 75.99c2.25-4.08 5.99-4.35 10.01-3.89.26 1-.4 1.48-1.09 1.94-5.48 3.67-5.48 3.67-1.22 8.52.55.62 1.01 1.29 1.3 2.08.47 2.43.83 4.84-1.17 6.84-1.49.93-3.05 1.35-4.76.65-.06-.71-.12-1.43-.18-2.14-.82-1.96-1.34-3.98-2.88-5.67-2.39-2.62-2.85-5.55-.01-8.33z" fill="#efddbc"/><path d="M35.46 84.51c-.34-.94.52-1.5 1.48-1.26 1.78.45 2.63 1.79 2.99 3.17" fill="#e4e8eb"/><path class="st17" d="M108.18 285.47c-4.49-1.89-9.91-1.56-13.44-5.7 7.68-1.18 12.59-7.15 18.79-10.89.99-.6 2.08-1.27 2.54-2.31 2.61-5.87 7.67-10.21 10.02-16.22 1.52-.56 2.49.28 3.44 1.3 3.97 4.22 10.47 3.75 14.23-1.01.34-.62.79-1.14 1.35-1.57 2.63-1.38 4.81-3.2 5.87-6.1 2.12-4.07 6.17-5.96 9.63-8.52 2.32-1.9 5.24-2.67 7.79-4.14 1.97-1.14 4.16-1.04 5.95.61 2.12 1.96 3.53 1.58 5.02-.88 2.74-4.51 5.29-4.81 9.98-1.54 1.07 1.97.95 4.12.89 6.24-.06 2.27.58 4.18 2.55 5.49.27.42.36.89.3 1.38-1.53 1.88-3.61 2.54-5.7 1.52-2.54-1.23-1.52-3.83-1.51-6.08-2.29 4.85-4.75 9.3-10.74 9.91-6.88.3-13.84-.47-20.42 2.75-1.96.96-3.63 1.77-5.14 3.45-9.14 10.15-17.63 20.93-28.27 29.88 1.79 2.03 4.65.23 6.73 1.49.27.45.23.88-.08 1.29-5.73 1.92-11.37-.53-17.07-.31-.92.98-1.82.93-2.71-.04z"/><path d="M178.94 279.75c-10.6 2.44-21.25 4.64-32.07 5.96-6.31-.86-12.61.3-18.92.11-.02-.37-.04-.74-.07-1.11.87-1.2 2.18-1.35 3.49-1.49 2.98.02 5.97.2 8.92-.45 1.46-.32 3.2-.4 4.12-1.57 6.33-8.04 15.58-12.79 22.48-20.16 3.6-3.37 4.07-8.8 7.89-12.03 3.51-1.54 7.12-1.61 9.34 1.71 2.21 3.29.67 6.69-1.64 9.59-1.89 2.37-4.4 4.01-6.92 5.6-7.7 4.84-14.74 10.65-22.66 15.49 2.84.2 5.54-.52 8.26-1.02 4.23-.79 8.45-1.73 12.75-2.05 1.81-.14 3.72-.29 5.03 1.42z" fill="#cdcbcc"/><path class="st19" d="M68.98 72.11c3.23 1.3 6.64.91 9.99 1.02 2.01 1.76 4.94.19 6.95 1.94 2.72.99 5.76 1 8.23 2.78 1.44 1.04 3.23 1.79 2.8 4.08-.73.86-1.69.93-2.7.76-.49-.08-1.01-.47-1.42-.38-7.7 1.7-15.06-1.08-22.62-1.82 6.49 1.61 13.07 2.7 18.74 6.52 1.12.75 2.62.03 3.91.4 1.24.47 2.11 1.33 2.7 2.5.27.71.34 1.44.2 2.19-1.07 3.02-3.47 3.12-6.07 2.71-1.46-.23-2.93-.46-4.39-.69-2.98-.47-4.8.07-3.12 3.61.52 1.11.75 2.18-.05 3.25-4.61.68-8.08-1.02-10.3-5.43-1.22-2.42-2.49-3.97-5.31-2.31-2.4 1.41-4.78 2.75-6.78-.53-2.05-3.35-.74-5.61 2.41-7.24.32-.17.5-.43.54-.84-1.11-.64-2.17.33-3.28.11-2.6-.52-4.17-2.09-4.31-4.7-.13-2.44 1.38-3.57 3.74-3.62 1.05-.02 1.85-.67 2.75-1.07 2.64-.63 5-1.97 7.39-3.24z"/><path d="M96.9 82.04c-1.6-3.29-5.07-3.67-7.92-4.92-1.2-.53-2.42-.78-3.06-2.05 4.37-3.29-.04-5.31-1.6-6.49-3.8-2.9-6.48-7.6-12.39-7.58-2.46.01-3.21-3.22-1.46-4.73 2.26-1.95 1.14-3.4.46-5.18 4.79-.79 8.64 1.84 12.65 3.65 1.58.72 3.01 1.88 4.73 2.41.42.24.77.57 1.06.96-1.39 4.04 1.98 7.37 1.68 11.43-.16 2.21 2.15 4.32 4.45 5.58 1.94 1.06 3.41 2.65 4.2 4.72.84 2.19.09 3.19-2.32 2.68-.14-.17-.31-.32-.48-.48z" fill="#f1aa3c"/><path d="M88.94 58.05c-5.16-.41-8.93-4.41-13.9-5.34-1.41-.27-2.73-1.07-4.09-1.62-5.69-.56-6.25-1.88-2.95-6.99.84-1.23.53-3.04 1.98-3.97 6.43 3.71 12.96 7.26 19.23 11.24 1.84 1.17 4.07 1.23 5.68 2.68-1.15 1.48-2.86 1.49-4.38 1.23-3.47-.61-.96 1.91-1.57 2.77z" fill="#df9132"/><path d="M11 52.09c-.59-1.66-3.23-3.07-1.13-5.05 2.33-2.19 3.74.28 5.18 1.62 1.17 1.09 2.47 1.46 3.97 1.43.32.99.63 1.99.95 2.98-3.11.83-6.04-.07-8.96-.97l-.01-.01z" fill="#f5cc74"/><path class="st1" d="M11.02 52.1c3.07-.49 5.97.73 8.96.97 1.03.64 2.05 1.28 3.08 1.92-.02.3-.03.59-.03.89-3.53-2.76-8.65-.46-12.01-3.78z"/><path class="st4" d="M69.98 40.12c-.21 1.55-.7 2.96-1.99 3.97.04-2.13.08-4.26-3.04-4 1.69-1.84 3.36-.73 5.03.03z"/><path class="st23" d="M192.87 46.05c-1.01-3.33-2.02-6.65-3.03-9.98-.69-4.01-5.18-6.28-4.71-11.01.23-2.34-.6-4.88 2.47-5.5 3.03-.62 3.19 2.14 3.91 4.08.11.31.25.61.4.9.88 1.82 1.94 3.55 2.77 5.39 2.23 8.12 6.59 15.21 10.83 22.35.46.58.85 1.21 1.18 1.87 1.24 3.24 3.02 6.33 2.62 10-1.38 3.73.42 7.07 1.12 10.59.57 2.87 2.67 6.44-1.77 8.4-1.94-2.4-1.33-5.76-3.1-8.22-1.01-1.97-1.62-4.07-1.88-6.26.6-2.67-.31-4.74-2.54-6.27-4.46-4.59-6.07-10.61-8.27-16.34z"/><path d="M192.87 46.05c2.25 1.3 3.35 3.04 3.48 5.85.19 4.1 4.41 6.33 5.48 10.14.63 1.28 2.02 2.18 1.98 3.81-.05 1.17-.39 2.9-1.36 2.84-3.09-.18-4.62 2.23-6.85 3.45-3.35-9.48-6.51-19.03-10.8-28.15.22-1.64.99-1.38 1.89-.52 1.74 1.64 3.68 2.76 6.18 2.58z" fill="#f9ce85"/><path d="M190.87 26.06c-.97-.6-.98-1.58-1.08-2.57-.13-1.34.39-3.36-1.99-3.03-1.83.25-2.01 1.93-1.98 3.45.04 2.38-.54 4.94 2.3 6.44 2.37 1.25 1.55 3.7 1.73 5.73-4.97-3.86-5.49-9.86-6.87-15.25-1.09-4.28 3.75-3.12 5.67-4.71 2.1-1.74-2-5.58 2.15-6.55.86-.2 1.91.41 2.86.65.11.35.23.7.34 1.06-.87.86-.91 2.2-.15 3.5.59 1.02.83 2.09.37 3.24-2.84 1.95-1.23 5.77-3.35 8.04z" fill="#f6b951"/><path d="M135.79 21.1c3.42 6.19 5.31 12.79 5.2 19.9.28 2.26.97 4.56.78 6.78-.93 10.85 1.08 21.15 5.15 31.15 1.46 2.77 3.79 5.2 3.32 8.71-3.63 2.28-5.53-1.39-8.23-2.37-.56-.56-.97-1.22-1.29-1.94-5.61-12.46-7.88-25.41-7.4-39.15.22-6.46-2.59-12.91-4.24-19.31-.45-1.75-1.32-3.41-1.04-5.31.13-.56.42-1.02.84-1.4 2.08 1.49 5.36.21 6.91 2.94z" fill="#f5bb5b"/><path d="M120.87 53.07c-1.3-5.91-2.74-11.79-3.84-17.74-.37-2-1.15-3.77-1.73-5.66-.84-2.73-.06-4.98 2.86-5.93 1.05-.34 2.4 1.9 3.36-.16.93-1.99-.86-2.96-1.84-4.21-.3-.39-.53-.83-.8-1.25 2.46-1.21 4.12.3 4.65 2.18 2.45 8.8 5.77 17.51 4.62 26.92-.54 4.44-2.66 6.04-7.28 5.85z" fill="#f9c979"/><path d="M120.87 53.07c5.98-2.44 7.98-9.02 5.46-17.04-1.36-4.32-2.48-8.73-3.32-13.17-.49-2.6-1.4-4.33-4.13-4.74-1.26-1.17-1.13-2.37.18-3.28 1.61-1.12 3.59-1.02 5.18-.24 1.71.85 3.11 2.34 4.64 3.54-.04.38-.07.76-.11 1.15-3.54 2.34-1.94 5.59-1.28 8.45 2.43 10.51 3.69 21.08 2.56 31.86-1.03 4.43-4.21 7.38-7.23 10.44-1.4-5.56-1.79-11.25-1.95-16.97z" fill="#f6b952"/><path class="st29" d="M123.98 79.76c-.33-1.92-.65-3.84-.98-5.76 5.18-1.08 7.76.08 10.91 4.87 1.01 5.85 3.47 11.21 5.76 16.61 1.3 3.05 1.24 5.67-1.05 8.15-1.44.75-2.9.75-4.36.07-2.48-6.73-6.6-12.85-7.68-20.13-.18-1.21.13-2.77-1.77-2.98-.44-.12-.71-.4-.83-.83z"/><path d="M132.93 78.99c-2.27-3.74-6.07-4.43-9.93-4.98-.06-1.32-.11-2.64-.17-3.96.13-4.47 4.5-6.38 6.04-10.01 3.12 4.07 5.74 8.42 6.8 13.49.48 2.32 1.1 5.12-2.74 5.46z" fill="#f0a943"/><path d="M112.14 69.22c2.85 0 5.7.01 8.55.01 1.01 4.29 2.03 8.57 3.05 12.85 1.49 1.42 1.47 2.98-.09 4.15-1.55 1.16-3.12.39-4.41-.78-1.99-1.81-2.74-4.4-4.11-6.61-.63-3.31-5-5.48-2.99-9.62z" fill="#e6cbb8"/><path d="M115.97 77.95c1.03 1.84 1.99 3.73 3.1 5.52.78 1.25 1.79 2.69 3.43 2.32 2.03-.46 1.23-2.31 1.23-3.7.08-.77.15-1.55.23-2.32.24.16.49.27.77.35 2.94 3.48 2.65 7.69 2.64 11.83-.12 2.79.05 5.6-.15 8.39-.1 1.42-.01 3.39-1.92 3.44-1.54.04-1.53-1.83-1.93-3.03-.16-.47-.32-.93-.51-1.38-.75-1.95-1.55-3.89-2.06-5.92-.17-3.31-1.91-5.9-3.9-8.38-.91-2.3-3.1-4.43-.93-7.12z" fill="#ca966e"/><path d="M208.77 83.02c1.74-3.17.93-6.2-.08-9.45-.95-3.05-3.37-6.39.1-9.5 2.36 1.18 2.96 3.54 3.81 5.72.44 1.26.55 2.65 1.46 3.73.89 1.45.97 3.1 1.21 5.04 1.11-.91.75-3.13 2.72-2.7 2.27 1.6.55 4.26 1.66 6.17-.38 4.81-1.05 9.55-2.92 14.05-3.07-.19-2.55-2.82-3.26-5.83-.58 3.27.02 5.63-1.04 7.62-.75 1.41-1.54 3.81-3.65 1.04-.24-5.31-2.85-10.6-.01-15.89z" fill="#dd8d31"/><path d="M209.72 99.95c2.79-2.24 1.95-5.37 1.97-8.26.01-1.37-1.05-3.31 1.32-3.42 2.13-.1 2.82 1.96 2.48 3.48-.42 1.88-.01 3.11 1.24 4.32l-1.77 11.07c.67.81.76 1.74.51 2.72-1.11 2.03-2 4.2-3.34 6.11-.4.26-.84.36-1.32.29-1.33-2.28-4.36-.16-5.78-2.21 1.01-4.88.61-10.23 4.69-14.1z" fill="#c36e2a"/><path d="M219.66 82.03l-1.89-6c-1.01-.78-1.54-1.86-1.92-3.04-.24-.7-.38-1.42-.47-2.15-.51-6.5-4.39-12.03-5.32-18.42-.17-1.16-1.4-1.78-2.15-2.65-1.45-1.6-2.38-3.43-2.54-5.61.36-2.02-1.16-4.12.25-6.09.26-1.87-.27-4.35 3.01-3.85 2.2 7.24 4.47 14.45 6.6 21.71 2.5 8.52 5.79 16.92 4.43 26.1z" fill="#bf7630"/><path d="M214.65 109.84c.1-.9.21-1.8.31-2.7.58-.03 1.16-.06 1.74-.1 2.61 1.3 3.18 4.67 5.9 5.86.48 2.26-1.3 1.75-2.46 2.02-2.63-.81-7.35.59-5.49-5.08z" fill="#c3a8a1"/><path class="st37" d="M115.97 77.95c-.54 2.7 1.71 4.58 2.07 7.02-4.06-.71-7.85-2-10.82-5.75 2.46 3.71 4.94 6.74 7.72 9.54 1.61 1.62 2.54 3.6 1.12 5.84-1.47 2.31-3.69 2.63-6.15 2-4.3-1.11-7.35-4.38-11.12-6.43-1.91-1.04-3.59-2.41-5.93-2.1-2.51 1.2-4.27.75-6.79-1.02-4.27-2.99-9.59-4.12-14.93-4.17-1.96-.02-4.09.11-3.89-2.41.17-2.2 2.17-1.79 3.91-1.59 2.61.29 5.18.34 7.72 1.43 3.25 1.39 6.48 2.63 10.15.03 2.62-1.86 4.98 2.11 7.87 1.71h.01c2.11.91 4.52 1.17 6.63 3.46-.59-2.81-1.55-4.68-3.14-6.33-5.43-5.64-5.18-7.74 1.48-11.73-2.53-2.73-5.29-5.11-8.78-6.25-1.88-.61-3.31-1.38-4.17-3.14l-.01-.01c-.75-.6-1.52-1.17-2.24-1.79-.59-.52-1.39-1.09-1.02-1.97.48-1.14 1.48-.78 2.48-.66 2.23.26 4.48.29 6.72.41 3.48.91 3.92 5.87 8 5.98 1.28 1.81 2.04 4.31 5.06 3.81 1.4 1.8 2.79 3.6 4.19 5.39.18 3.4 3.28 5.51 3.86 8.73z"/><path d="M147.96 68.05c1.65.04 3.34.32 4.95.08 8.76-1.3 16.42 1.9 23.95 5.66 2.21 1.89 1.18 3.96.15 5.85-2.11 3.88-2.62 7.6-.68 11.87 1.63 3.59.53 8.13 4.68 11.01 1.44 1-.76 4.5 1.14 6.5-1.01 3.58-3.2 3.52-5.43 1.38-1.49-1.43-2.86-2.48-5-2.76-2.41-.32-4.01-2.13-3.74-4.51.53-4.73-2.52-8.48-3.05-12.9-.29-2.38-1.73-2.76-3.13-.54-1.35 2.14-2.65 4.53-5.69 3.72-2.9-.77-3.95-3.35-4.56-6-.52-2.28-2.01-4.17-2.41-6.48.05-1.97.75-3.96-.27-5.88-1.1-2.23-1.26-4.58-.91-7z" fill="#cebfb8"/><path d="M148.88 75.04c1.65 1.76.69 3.97 1.02 5.96.92 2.79 1.98 5.55 2.94 8.31 1.65 4.74 1.88 10.68 8.28 12.53 1.34.39 2.06 2.09 2.03 3.72-.3.82-.97 1.08-1.76 1.18-.75 0-1.45-.22-2.1-.57-2.45-1.33-5.33-2.03-6.91-4.66-.27-.41-.48-.85-.66-1.31-1.26-3.97-3.43-7.8-1.97-12.21-.7-3.1-2.93-5.72-2.82-9.07 3.7.25.87-2.8 1.95-3.88z" fill="#d5ac83"/><path d="M193.78 18.13c-.36-1.08-.43-2.43-1.14-3.19-2.16-2.33-.22-2.88 1.36-3.68 5.73 3.17 5.85 10.31 10.25 14.56 1.29 1.25 1.32 4.4-.6 6.38-1.01.43-1.9.09-2.79-.39-3.3-4.07-5.06-8.94-7.08-13.68z" fill="#cb7d30"/><path class="st41" d="M201.82 31.12c.61.36 1.22.72 1.83 1.09 1.65 1.62.59 4.15 1.97 5.86.39 2.02 1.66 3.87 1.18 6.06-2.13.34-3.09 1.22-2.14 3.57.69 1.7 1.86 3.57.1 5.4-4.8-7.11-9.47-14.28-11.01-22.95 3.94-.38 3.5 3.67 5.36 5.45 1.92-.97 1.02-3.52 2.71-4.48z"/><path d="M219.65 113.8c1.07-.03 2.28.45 2.95-.89.39.04.77.08 1.16.11l-1.05 2.94c-3.9 2.46-6.45 6.56-10.58 8.76-5.88-.94-2.32-4.82-2.38-7.58.24-.52.61-.92 1.09-1.22.27.03.53.08.8.12 3.05.59 4.94-2.92 8.01-2.24z" fill="#e09d4d"/><path d="M240.73 124.93c11.26 1.02 21.18 6.63 31.7 9.99 8.71 2.79 17.68 5.18 26.27 8.49 3.9 1.5 8.27-.76 12.09 1.47.54.67.53 1.39.22 2.15-.29.43-.65.79-1.07 1.09-5.93 2.22-12.18 2.65-18.41 3.19-12.05-2.24-23.54-6.21-34.7-11.2-3.58-1.76-7.67-2.11-11.2-4.02-1.28-.76-2.85-.85-4.09-1.72-1.48-1.39-2.43-3.15-3.19-4.97-.78-1.88-.66-3.59 1.62-4.44.26-.02.51-.03.76-.03z" fill="#f8c068"/><path d="M212.71 123.89c2.71-3.43 4.8-7.64 10.01-7.92 1.94 3.84 3.35 8.34 9.32 4.65 1.96-1.21 8.46 2.47 8.7 4.31-2.69 1.39-5.45 2.07-8.57 1.63-3.08-.44-5.77.87-8.14 2.61.59 2.3 4.42.99 3.73 4.09-1.69 1.52-3.77 1.9-5.94 2-4.75.21-6.03-.9-4.99-5.54.9-3.96-3.02-3.73-4.12-5.83z" fill="#e5972f"/><path class="st45" d="M312.71 140.83c2.27.62 4.25 1.28.79 3.29-1.12.65-1.33 2.35-2.87 2.54.05-.59.11-1.19.16-1.78.76-1.29 2.9-1.93 1.92-4.05z"/><path d="M48.95 84.04c-1.07-.73-2.22-1.38-3.21-2.21-3.06-2.56-2.4-6.41 1.3-7.95 1.33-.56 2.64-1.18 3.96-1.77 4.63-.39 9.26-.77 13.88-1.16.03.33.03.66.01.99-.25.42-.59.75-1.01.99-7.54.25-12.44 4.07-14.93 11.11z" fill="#f7d69a"/><path class="st0" d="M63.97 72.08c.31-.04.61-.09.91-.15 1.36.06 2.72.12 4.09.18-1.66 2.51-3.65 4.43-7 3.95-1.39.96-2.88 1.05-4.43.49-1.79-3.09 1.18-2.47 2.39-2.79 1.47-.38 3.28.32 4.04-1.68z"/><path d="M63.97 72.08c.4 1.77.57 3.4-2.11 2.92-1.78-.32-3.59-.91-4.89 1.02-1.88 1.91-3.12 4.24-3.89 6.74-1.05 3.4-1.76 6.83 2.53 8.86 1.1.52 2.46 1.44.88 2.98-1.32.54-2.5.38-3.48-.72-1.7-.89-3.4-1.79-5.1-2.68 1.76-2.18.85-4.74 1.03-7.15-.99-4.4 2.35-7.75 4.39-10.27 1.7-2.08 6.97-1.24 10.64-1.7z" fill="#f6bf6a"/><path class="st48" d="M80.62 279.73c-5.41-2.08-11.32.01-16.74-1.99.72-1.09 1.88-1.47 3.03-1.4 11.61.63 21.98-4.01 32.56-7.68 6.06-2.1 10.92-6.22 15.76-10.23 2.62-2.16 2.68-5.43 1.44-8.28-1.95-4.5-1.52-9.49-3.36-13.97-.52-1.26-.47-2.69.73-3.65 1.18-.94 2.56-.71 3.75-.03 2.44 1.39 4.91 2.75 7.34 4.16.94 3.94-.49 7.98.43 11.92.25.71.35 1.44.32 2.19 1.58 2.27.68 3.99-1.15 5.59-2.14 1.87-4 3.97-5.03 6.7-1.6 4.26-4.44 7.22-8.81 8.79-3.29 1.18-3.96 5.34-7.82 6.54-2.84.88-5.4 1.83-8.35 1.38-4.69-.01-9.39-.03-14.1-.04z"/><path class="st49" d="M178.94 279.75c-8.1-.77-15.7 2.15-23.55 3.21-.82.11-1.61.55-2.42.54-1.23-.01-2.99.8-3.5-.85-.45-1.49 1.1-2.29 2.25-2.88 9.05-4.62 16.7-11.34 25.3-16.63.98-.61 1.95-1.27 2.83-2.02 2.94-2.54 5.34-5.81 3.5-9.55-1.62-3.29-5.44-2.11-8.5-1.83-1.15-1.33-.8-2.67-.02-4.01 7.64-.44 8.13-7.98 11.88-12.35 1.62.84 1.12 2.1.96 3.07-1.03 6.3-1.06 6.29 4.91 5.3.33-.4.74-.52 1.24-.36 1.6 1.23 1.56 2.77.79 4.54 1.15-.29 1.55-1.5 2.61-1.8 1.17-.33 2.35-.53 3.25.41 1.08 1.13.05 2.11-.49 3.09-2.89 5.23-2.62 6.13 2.55 8.57 6.95 3.27 6.95 3.27 3.34 9.97-1.45 2.8-4.04 4.02-6.83 5.05-1.96.73-3.89 1.62-5.28 3.32-2.33 1.89-4.82 3.34-8 2.94-2.57-.12-4.37 2.05-6.82 2.27z"/><path class="st50" d="M174.82 245.72c.94 1.33.03 2.68.02 4.01-2.42 3.94-3.1 8.89-6.99 11.97-5.91 5.28-12.49 9.71-18.57 14.79-4.97 4.16-11.23 6.18-17.41 8.05-1.32.05-2.65.11-3.97.17-.95.27-1.93.84-2.84.75-2.32-.22-5.77.6-6.56-1.66-.83-2.4 2.73-2.58 4.32-3.81 3.11-2.42 6.15-4.95 8.41-8.26 4.12-6.04 10.16-10.34 14.68-16.03.5-.63 1.4-1.01 1.74-1.7 1.66-3.36 4.27-4.38 7.81-5.91 6.57-2.85 12.9-1.9 19.36-2.37z"/><path d="M188.67 228.75c-3.5-.91-7.6-3.49-8.05 3.32-.15 2.23-2.62 1.53-4.01 2.19-1.53.73-2.42.04-2.84-1.61-.66-2.61-3.07-2.47-4.29-1.42-2.59 2.23-6.14 2.34-8.64 4.52-.62-.55-.81-1.26-.76-2.06 6.25-8.8 13.65-16.49 22.44-22.78 1.6-1.14 3.33-2.22 5.46-2.17 2.28.3 4.07 1.67 3.58 3.86-1.06 4.69-.83 9.47-1.56 14.17-.13.81-.61 1.5-1.33 1.98z" fill="#d3c5be"/><path d="M188.67 228.75c.79-5.33-.94-10.84 1.79-16.11 1.13-2.18-1.65-2.71-3.42-3.14.06-1.91 1.62-1.69 2.81-1.99 8.82 1.3 10.89 5.34 6.66 13.07-.75 1.37-1.14 2.74-.84 4.25.6 3.02.34 5.89-1.25 8.58-1.41 2.38.18 4.43.68 6.6-.48 1.28-1.31 1.49-2.43.8-2.75.01-3.82-1.45-3.8-4.09.02-2.66-.13-5.32-.2-7.97z" fill="#f7c97b"/><path d="M192.66 240.81c.85-.1 1.67-.24 2.14-1.09.93-9.73 4.22-18.85 7.38-27.98.63-1.82 2.2-3.72 4.51-2.95 2.32.77 1.71 3.03 1.15 4.7-.87 2.58-.36 5.27-.95 7.84-.72 2.39-1.49 4.77-2.1 7.18-1.43 2.93-2.1 6.13-3.25 9.16-.48 1.28-1.5 3.34 1.38 3.62 1.82.15 3.79-.23 5.07 1.59-.29 1.61-1.66 2.28-2.86 2.08-3.85-.62-8.16.38-11.34-2.88-.4-.11-.8-.23-1.21-.34.07-.3.1-.62.08-.93z" fill="#fad68d"/><path d="M160.79 233.79c.02.65.04 1.3.05 1.95-3.19 2.42-6.91 4.23-9.13 7.79-1.35 2.63-3.43 4.56-5.95 6.04-.36.32-.71.64-1.07.97-1.15 1.9-2.94 2.86-5.04 3.33-1.31.23-2.63.26-3.93.02-1.53-.28-2.87-.93-3.23-2.62-.34-1.58.84-2.38 1.89-3.17 1.71-1.29 3.38-2.63 5-4.02 1.89-1.92 3.34-4.41 6.31-4.95.49.04.93.21 1.32.51.57.58-.88 3.3 1.82 1.65 2.84-1.74 5.29-3.78 6.76-6.87 1.35-2.86 3.14-3.09 5.2-.63z" fill="#dc9b4a"/><path class="st55" d="M139.76 252.82c1.65-.76 3.29-1.52 4.94-2.28.35 1.66-.27 2.73-1.75 3.64-2.71 1.68-5.66 1.34-8.6 1.59-3.33.28-5.26-.96-6.31-4.07-.17-.49-1.39-.63-2.13-.93-.35-.34-.7-.69-1.05-1.03.17-.19.33-.38.5-.57.43-.27.89-.45 1.39-.53 1.75-.18 3.4.27 4.36 1.71 2.23 3.34 5.29 3.33 8.65 2.47z"/><path class="st48" d="M107.75 283.62c-1.45-.11-3.01.01-3.07-1.45-.05-1.46 1.29-2.38 2.72-2.34 1.61.04 3.06 1.06 2.94 2.72-.13 1.68-1.94.61-2.59 1.07z"/><path class="st55" d="M145.76 249.57c1.98-2.01 3.97-4.03 5.95-6.04-.55 3.42-2.62 5.35-5.95 6.04z"/><path class="st49" d="M131.86 284.54c1.58-2.51 4.51-2.76 6.85-3.7 10.01-4.02 17.7-11.33 26.09-17.66.94-.71 1.78-1.49 3.05-1.48-3.99 5.87-10.78 8.54-15.56 13.58-1.89 1.99-4.26 3.42-5.62 6.05-1.61 3.12-5.14 2.52-7.9 3.12-2.2.47-4.6.09-6.91.09z"/><path d="M258.8 240.68c-1.48 3.52-4 5.71-7.92 6.06-1.1-2.36.43-4.67.12-7.02 1.06-3.36-.46-6.56-.83-9.78-.78-6.85-.64-13.83-2.69-20.51-.6-1.46-1.06-2.95-1.18-4.53-.01-3.78-1.09-7.4-1.67-11.09-.63-2.6-2.7-4.27-4.14-6.35-.99-1.29-1.99-2.55-3.44-4 .26 3.61.97 6.63.93 9.8-.05 3.91-.53 7.22-4.64 8.89-2.04.83-1.47 2.6-1.4 4.25.18 3.93.86 8-2.51 11.15-.65.46-1.34.67-2.11.33-2.07-1.53-2.62-3.88-2.51-6.12.28-5.57-1.65-10.6-3.22-15.75-2.07-7.26-2.14-14.81-3.2-22.21-.19-1.3-.3-2.6-.69-3.85-1.36-8.14-4.67-15.6-7.97-23.07-.22-3.08 1.7-4.14 4.3-4.55 2.97-.16 4.68 1.82 6.67 3.99-.24-2.05-.85-4.34 2.34-4.08 1.48.29 3.23.63 3.96 1.85 2.98 5.03 8.2 6.26 13.07 8.11 7.65 2.91 12.91 8.65 16.87 15.36 2.05 3.47 2.29 7.96 2.09 12.19-5.78 1.22-7.9-3.56-11.04-6.68-1.05-.82-1.95-1.77-2.67-2.91-1.25-1.98.39-5.23-2.02-6.36-5.28-2.49-8.58-7.87-14.54-9.52 5.91 7.36 11.6 14.75 17.46 22 .08.45.07.9-.05 1.34-.54 4.01.39 7.48 3.7 10.09 2.36 2.73 2.64 6.35 3.94 9.52 1.35 3.31 1.44 7.05 3.3 10.28.96 1.66.15 3.54-.36 5.29-2.08 4.32-.9 8.88-.25 13.12.52 3.44.94 7.16 2.74 10.38.31 1.51-2.35 2.72-.44 4.38z" fill="#ae6028"/><path d="M248.76 208.7c2.2 6.58 1.6 13.55 2.86 20.27.44 2.36-.08 4.8 1.6 7.01 1.49 1.96-.81 3.17-1.62 4.64-1.03 3.27-2.42 6.35-4.84 8.86-1.2.02-2.39.04-3.59.07-1.08-.27-2.12-.73-3.25-.84-1.22-.43-1.85-1.33-2.1-2.55-.07-1.37-1.13-3.01.72-3.94 4.77-2.38 4.23-5.91 2.27-9.82-.45-.89-.7-1.84-.31-2.84 1.12-1.18 2.05-2.6 3.71-3.17 2.53.23 3.72 2.3 5.12 3.82-1.13-4.52-1.69-9.25-2.72-13.87-.59-2.7-.3-5.58 2.15-7.64z" fill="#f3b84f"/><path class="st58" d="M303.66 204.92c-1.29-.53-2.58-1.05-3.88-1.58.04-.5.28-.87.69-1.15 3.26-.12 5.74-.74 7.71-4.21 1.49-2.64 4.49-5.23 8.4-5.09 3.17.49 6.71.76 3.07 5.24-2.68-.64-5.39-.17-5.99 2.62-1.42 6.55-5.63 5.29-10 4.17z"/><path d="M246.76 249.49c.65-3.48 1.88-6.64 4.84-8.86 1.89 2.29-.18 4.11-.71 6.11-1.11 1.31-1.82 3.23-4.13 2.75z" fill="#c47d34"/><path d="M92.86 88.06c.8-1.54 2.13-2.57 3.53-1.21 2.94 2.86 7.24 3.58 9.95 6.74 1.64 1.92 4.14 1.86 6.35 2.14 1.38.17 2.36-1.13 2.89-2.37.63-1.47-.25-2.64-1.32-3.43-3.9-2.85-5.6-7.61-9.32-10.61-.8-.65-1.3-1.61-.48-2.57.52-.61 1.35-.37 1.71.18 2.83 4.38 8.35 4.74 11.88 8.05 2.81 1.96 4.19 4.58 3.72 8.06-1.5.48-2.97.91-1.56 3 1.02 1.52 1.86 3.21 1.75 5.1-.12 2.23-.8 4.26-3.63 2.86-2.82-1.39-2.85.44-2.67 2.17.31 2.97.66 5.92.54 8.92-.09 2.12 1.37 3.27 3.11 4.08 1.81.84 3.84 1.07 5.62 1.99 2.15 1.49 4.35 2.89 6.43 4.49 1.77 2.37 2.39 5.3 3.84 7.85 1.59 2.79-.73 4.87-1.88 7.12-1.46 1.68-3.27.73-4.97.68-1.58-.18-2.94-.77-3.95-2.04-.58-.83-1.2-1.93-.96-2.76 1.89-6.44-3.11-7.36-7.12-8.62-3.65-1.15-6.17-2.69-6.81-6.86-.42-2.77-3.33-2.91-5.54-3.46-4.49-1.12-7.15-5.66-5.92-10.06 1.07-3.83 4.59-1.46 6.75-2.72-.3-2.26-2.06-3.8-2.75-5.81-1.16-3.96-5.13-5.65-7.19-8.88-.67-.7-1.34-1.36-2-2.03z" fill="#ba5c27"/><path d="M102.91 97.99c1.02 1.66 1.9 3.45 3.13 4.95.84 1.02 2.3 1.77 1.35 3.25-.83 1.29-2.41.63-3.69.76-1.6.16-4.88-2.41-4.35 1.05.4 2.55-1.92 7.93 3.95 7.85 2.72-.04 4.51 1.96 6.99 2.21.97.1 1.4.8 1.09 1.79-1.46 4.68 1.54 5.76 5.13 6.45 2.9.56 5.18 2.85 8.34 2.9 1.16.02 2.44 1.67 1.32 2.45-3.06 2.14-.93 4.79-1.23 7.16-4.07-.78-9.02 2.27-12.13-2.75-.5-.46-1.12-.69-1.73-.97-1.58-.73-3.12-1.69-2.62-3.69.54-2.16 2.37-2.45 4.29-2.13-3.77-2.74-7.58-4.22-12.66-4.01-3.65.16-7.66-.86-11.56-1.08-1.48-.08-2.79-1.01-4.09-1.77-2.35-1.37-3.34-3.45-2.17-5.89 1.67-3.48 4.13-1.41 6.35-.53 1.22.8 2.44 1.53 3.45-.28.64-.79 1.34-1.53 1.57-2.57-1.91-5.7-6.6-8.68-11.29-11.67l-.39-.57c.87-2.64-4.28-3.28-2.07-6.55 1.16-1.72 1.51-2.71 4.32-2.12 3.33.69 7.3 3.95 10.7-.24 4.28-.13 5.66 3.58 8 6z" fill="#dd8228"/><path d="M56.9 94.12c-.13-.3-.19-.79-.4-.86-3.13-1.07-6.07-1.91-5.61-6.47.47-4.64 1.43-8.64 6.08-10.76 1.67.01 3.34.02 5.01.04-.61 1.05-1.38 1.97-2.71 1.82-1.33-.15-2.7-.64-3.15 1.27-.36 1.5.44 2.46 1.44 3.45 1.05 1.04 1.95 1.82 3.32.51 2.03-1.93 3.22-.66 4.19 1.19.71 1.35 1.05 2.89-1.22 2.46-2.4-.45-3.82.91-4.04 2.57-.18 1.33.89 3.35 2.05 4.19 1.68 1.22 3.11-.73 4.2-1.74 2.98-2.79 6.13-.5 6.38 1.31.85 6 5.61 6.2 9.54 7.83l-.04.09c5.17 1.58 5.47 2.19 5.54 11.17-1.18 3.18-4.31 3.08-6.65 3.14-6.53.17-13.12 1.33-19.61-.41-2.97.16-4.92 2.31-7.25 3.74-3.92-2.06-3.81-3.09.78-7.26 5.84-1.76 11.77-.81 17.69-.62 2.66.08 6.39 1.38 7.38-1.84.95-3.1-2.13-5.19-4.68-6.88-3.24-2.16-6.85-3.11-10.66-3.72-2.94-.47-6.43-.37-7.58-4.22z" fill="#f2ad43"/><path class="st37" d="M102.91 97.99c-2.86-1.73-4.59-4.96-7.98-5.98-.03-.65-.05-1.3-.08-1.95 3.63 1.68 6.74 3.9 8.06 7.93z"/><path class="st19" d="M88.94 58.06c4.86 1.33 9.04 3.92 12.91 7.06 1 .81 2.45 1.64 2.33 2.98-.14 1.55-1.83 1.73-3.12 1.89-1.55.19-3.05.21-3.11 2.33-.06 1.88-.02 3.62 1.96 4.71 4.16 2.28 4.84 6.3 5.46 11.27-3.23-2.39-5.85-4.32-8.47-6.25.8-.33 2.89.57 1.88-1.52-.98-2.03-2.62-3.44-4.67-4.8-2.96-1.97-6.9-4.34-4.2-9.34.92-1.71.34-2.03-4.51-2.41.7-2.33 4.5-2.83 3.54-5.92z"/><path d="M181.76 108.98c-.74-.33-1.47-.66-2.21-.99 2.59-5.39-3.36-8.06-4.29-12.69-1.49-7.35-1.68-13.63 1.92-20.09.18-.32-.2-.94-.32-1.43 5.83 1.34 10.19 5.14 14.69 8.71 1.4 1.11 2.87 2.14 4.31 3.21 2.81.94 1.91 2.96 1.38 4.85-1.67 5.97-5.73 10.38-9.7 14.85-.28.35-.59.68-.91 1-.77.75-1.58 1.46-2.49 2.05-.73.44-1.52.62-2.38.53z" fill="#d9d2cf"/><path d="M195.6 72.14c.63-3.21.81-6.93 5.81-3.87.75.46 1.22-1.25 1.38-2.23 1.92-.52 1.16 1.47 1.92 2.04.82 1.94.61 4.24 2.06 5.96 1.02 3.49 1.16 7.07.94 10.66-.1 1.64-1.32 3.57-2.62 1.79-2.3-3.18-3.82-1.37-5.78-.09-.58.38-1.27.04-1.82-.38-.39-1.02-.27-2.01.16-2.98-1.39-3.51-1.62-7.23-2.05-10.9z" fill="#fac66b"/><path d="M197.65 83.03c.07 1.01.14 2.03.21 3.04 3.52 7.54-.27 17.25-7.85 20.13-1.43.54-2.84.98-4.16-.22 3.13-5.34 8.55-9.17 10.07-15.63.39-1.67 1.05-3.09-.05-4.64.59-.89 1.18-1.79 1.78-2.68z" fill="#efbc72"/><path class="st66" d="M185.85 105.98c8.19-1.72 11.36-5.67 11.93-14.95.1-1.65.05-3.3.08-4.95 2.83-.76 3.26-3.72 5.09-6.19 1.03 2.48 1.81 4.36 2.59 6.25.41 0 .82 0 1.24.01V74.07c1.77 2.75 2.01 5.83 2 8.98.05 5.66 1.75 11.23.95 16.93-1.37 4.98-2.74 9.97-4.11 14.95-.12 2.34-1.21 4.16-3 5.62-.48.2-.97.29-1.49.29-3.49-.83-3.69-3.2-2.7-5.99 1.03-2.89 2.16-5.75 3.17-8.65 1.23-4.46 1.22-9.08 1.94-13.75-3.21 2.89-3.6 6.57-3.82 10.31-2.01 4.63-6.37 7.71-8.16 12.49-.75 1.03-1.63 1.9-2.88 2.33-2.92.25-4.64-1.6-6.29-3.59-.8-3.49 2.71-5.11 3.45-7.93l.01-.08z"/><path d="M201.82 31.12c0 .66.08 1.33-.02 1.97-.3 1.87 1.12 4.67-2.34 4.94-3.15.25-2.46-2.29-2.78-4.11-.31-1.74-1.74-2.68-2.93-3.77l-2.88-4.08c-.01-2.07 0-4.14-.05-6.21-.06-2.42 1.04-2.75 2.96-1.72 4.28 3.33 4.57 9.14 8.04 12.98z" fill="#fbcb7c"/><path class="st41" d="M208.88 48.95c4.44 4.17 3.71 10.55 6.54 15.46 1.06 1.84.86 4.41 1.23 6.65-2.02 1.59-3.61 1.01-4.91-.98-.98-2-1.96-4-2.95-6-1.01-3.32-2.03-6.64-3.04-9.97 1.04-1.72 1.51-3.79 3.13-5.16z"/><path d="M208.88 48.95c-.4 2.11.92 5.26-3.13 5.16l-.99-1.02c.32-2.26-1.39-3.95-1.72-5.98-.24-1.51-1.77-3.38-.4-4.52 1.62-1.36 2.72 1.06 4.17 1.53-.33 2.05 1.09 3.35 2.07 4.83z" fill="#fdcd80"/><path class="st66" d="M204.71 68.08l-1.92-2.04c-.32-1.33-.64-2.66-.96-4 3.03 1.03 4.43 2.83 2.88 6.04z"/><path d="M132.93 78.99c4.05-3.06.68-6.21.01-9.24-.76-3.45-4.63-5.65-4.08-9.7.22-11.72-.19-23.36-3.72-34.69-.43-1.37-.23-2.95-.22-4.43.03-3.41 1.78-2.92 3.84-1.63 3.39 7.23 3.71 15.32 6.35 22.79.86 2.43-.18 5.5-.2 8.28-.09 10.03 1.57 19.72 6 28.81.75 1.54 1.06 3.12 1.03 4.79-1.29 2.07-2.07 4.24-.52 6.46 2.5 3.59 3.29 7.86 4.96 11.8-.03.55-.2 1.03-.52 1.48-2.62 1.9-5.07 2.54-7.01-.89 2.1-5.5-2.53-9.38-3.61-14.13-.72-3.21-2.42-6.24-2.31-9.7z" fill="#e99a27"/><path class="st29" d="M145.92 102.07c-4-3.78-4.11-9.49-6.85-13.95-1.05-1.72-.34-4.31 2.88-4.16.33.35.65.7.98 1.04 3.92 5.03 7.33 10.33 8.89 16.62-1.84 1.87-3.8 2.03-5.9.45z"/><path d="M151.79 100.95c-4.35-4.54-6.47-10.32-8.87-15.95 2.8-.2 4.28 2.61 6.82 2.99 1.01 4.34 2.01 8.67 3.02 13.01-.34.23-.66.21-.97-.05z" fill="#e3a64f"/><path d="M125.95 91.92c.49-4.03-.67-7.88-1.2-11.8 1.59-2.86 2.71-1.05 2.98.59.9 5.6 1.58 11.09 5.58 15.74 1.21 1.4.55 4.41.74 6.68.26.41.37.85.31 1.33-.18.46-.52.73-1.01.81-2.38-.66-3.31-2.52-3.77-4.69-.52-2.44-1.79-4.56-2.76-6.81-.31-.62-.47-1.29-.87-1.85z" fill="#be6e2d"/><path class="st72" d="M134.13 104.11c-.03-.33-.06-.66-.08-.99 1.6-.1 3.21-.21 4.81-.31 2.29 1.53 4.61 1.51 6.96.13 2.31-1.01 2.99.35 2.25 2.06-1.15 2.65.11 4.34 1.41 6.35 1.61 2.51 3.2 5.26-.31 7.67-1.3-.62-1.61-1.99-2.3-3.07-3.27-5.01-6.17-10.4-12.74-11.84z"/><path d="M124.78 121.95c-1.76-.36-3.62-.48-5.26-1.15-3.06-1.24-6.03-2.56-4.73-7.05.73-2.54-.29-5.19-.79-7.78-.36-1.88.23-3.85 1.69-4.94 1.74-1.3 1.9 1.04 2.76 1.78.49.42 1.05 1.08 1.68.53.41-.36.64-1.1.68-1.7.16-2.11-.98-3.74-2.07-5.42-.85-1.32-2.56-2.99-1.28-4.36 1.4-1.51 2.83.74 4.3 1.15.77 1.66 1.54 3.31 2.31 4.97.54 6.17 2.95 12.1 2.13 18.45-.25 1.94.4 4.02-1.42 5.52z" fill="#974021"/><path d="M124.78 121.95c-.24-7.99-.47-15.98-.71-23.96 1.52 1.26.46 3.16 1.88 4.66V91.92c.29.34.59.68.88 1.02 2.31 7.74 3.19 15.74 4.34 23.69-.06 3.1 1.51 6.27-.34 9.31-2.72-.28-4.6-1.8-6.05-3.99z" fill="#af775a"/><path class="st41" d="M216.78 72.97c1.04.79.99 1.93 1 3.05-.59.44-.83 1.04-.59 1.73.64 1.87.17 3.71-1.72 3.87-2.31.19-1.41-2.1-1.57-3.4-.18-1.45.23-3.02-.99-4.23.62-2.82 2.28-1.76 3.87-1.02z"/><path class="st23" d="M216.78 72.97c-1.34.19-2.88-.39-3.89 1.02-1.56-.96-.96-2.56-1.15-3.92 1.54.82 3.18 1.12 4.91.98.04.65.08 1.28.13 1.92z"/><path d="M202.72 119.86c.33-2.02 1.09-3.79 2.88-4.96 2.35-2.73 4.29-3.37 5.25 1.03-.04.4-.07.8-.11 1.2-1.89 2.41-.16 6.53-3.83 8.1-2.02-1.3-4.32-2.39-4.19-5.37z" fill="#aa5626"/><path d="M219.65 113.8c-1.89.38-2.96 1.92-4.32 3.05-1.52 1.25-2.91 1.6-3.67-.79.32-2.4.89-4.68 3-6.21-.67 4.25 3.24 2.74 4.99 3.95z" fill="#c29378"/><path d="M181.76 108.98c.46-.76 1.18-.94 2-.92.82 4.5-3.03 4.86-5.63 5.96-6 2.53-13.82-1.71-15.33-8.06-1.29-2.15-2.5-4.15-5.59-4.19-2.16-.03-2.8-2.23-3.25-3.96-1.45-5.58-2.73-11.2-4.08-16.8 2.06 2.12 2.66 4.84 3.38 7.58.46 1.76 1.37 3.68 3.35 3.98 2.19.33 2.99-1.48 3.67-3.31.63-1.68 1.43-3.86 3.48-3.76 2.62.13 2.86 3.09 2.74 4.63-.36 4.84 5.24 8.44 2.61 13.66-.21.43 1.41 2.28 1.45 2.25 5.33-3.19 5.58 6.25 10.34 4.13.41-.16.59-.78.86-1.19z" fill="#c3a896"/><path d="M148.87 118.96c1.85-2.76 1.25-5.16-.94-7.45-2.05-2.15-4.5-4.27-.71-7.21.7-.54-.63-1.17-1.41-1.36.03-.29.06-.58.11-.87 2-.14 4.07.07 5.87-1.12.32.02.65.04.97.06l.11-.04c1.27 3.15 4.17 3.46 6.94 4 .34.34.68.68 1.02 1.03.97 1.03 1.19 2.21.67 3.52-3.64 1.26-5.7 4.14-7.42 7.35-2.3 1.47-1.55 4.11-2.38 6.14-.92 2.24-1.62 5.01-5.02 2.7-.14-2.27.9-4.23 1.63-6.28.18-.16.37-.31.56-.47z" fill="#ecab53"/><path class="st79" d="M160.83 110v-4.01c.66-.01 1.32-.02 1.98-.04 2.22 3.85 5.38 5.87 9.92 6.78 4.29.86 8.9-.42 11.04-4.68.44-.92 1.04-1.69 2.06-2.04 1.01 3.38-2.61 4.99-3.01 7.83-1.74 2.21-4.17 3.21-6.8 3.86-4.69-.01-13.03-4.25-15.19-7.7zM159.81 104.97c-3.14.09-6.3.23-6.94-4 1.93 2 4.55 2.8 6.94 4z"/><path d="M206.71 124.85c2.93-1.75 1.23-5.91 4.03-7.73.21 1.52-.19 2.92-.6 4.37-.62 2.22.89 2.47 2.57 2.39 1.29.29 2.57.6 3.86.85 2.93.57 3.29 1.99 2.05 4.63-2.09 4.41-1.66 4.93 3.27 4.52 1.97-.16 3.91-.67 5.86-1.03 1.82-1.7 3.75-1.51 5.74-.36.84.94.23 1.54-.48 2.13-3.98 1.22-8.07 1.97-12.18 2.68-1.8.09-3.61-.07-5.4.36-2.57.61-4.55-.07-5.56-2.7-.21-2.7-2.14-3.31-4.36-3.71-2.33-.42-4.09-1.4-3.3-4.29 1.04-1.67 2.39-2.71 4.5-2.11z" fill="#d37f2c"/><path d="M250.69 149.94c4.38 1.74 8.22 4.66 12.84 5.87-3.68 1.73-5.7 3.77-1.38 7.09.5.39 1 1.17.65 1.75-2.78 4.69 1.03 8.38 1.89 12.5.64 3.1 2.59 5.26 5.63 6.42 2.93 1.12 5.05 3.08 6 6.16.09.76-.05 1.44-.61 2-.84.13-1.6 0-2.16-.71-3.21-3.46-7.84-4.81-11.44-7.71-1.29-1.04-2.86-1.72-3.35-3.49-1.5-8.24-4.2-15.98-10.93-21.42-3.94-3.18-8.52-5.52-13.53-6.78-2.72-.69-5.36-1.14-6.29-4.63-.63-2.37-3.55-2.74-5.39-4.07 1.86-4.53 6.34-6.14 9.85-8.83.42-.3.83-.6 1.25-.9 2.89-2.81 5.44-1.27 7.95.64 1.37.27 2.95-.33 4.09.96-.67 1.24-1.86 1.57-3.1 1.8-3.05.16-6.24-.98-9.07 1.18-3.2 2.45-3.09 4.36.62 5.96 5.39 2.32 11.03 4.03 16.48 6.21z" fill="#c17531"/><path class="st12" d="M241.69 133.82c-2.7.39-5.2-1.67-7.95-.64-2-.1-4-.21-5.99-.31-.26-.21-.49-.46-.77-.61-1.82-.96-5.22.74-5.57-1.95-.41-3.09 3.31-3.1 5.3-4.25 4.43-2.56 9.43.3 14.04-1.13-1.58 1.42-2.69 2.82-.75 4.89.98 1.06 1.63 2.45 1.69 4z"/><path class="st45" d="M305.66 151.93c-4.65-.66-9.43-.41-13.93-2.1 6.25-.79 12.57-1.1 18.63-3.01-.31.66-.62 1.33-.93 1.99-1.25 1.04-2.51 2.08-3.77 3.12z"/><path class="st50" d="M46.98 101c.22-.08.45-.14.69-.18 2.24-.93 3.05.43 3.49 2.24.43 1.78.76 3.57 1.31 5.32.78 2.51-.21 3.9-2.61 5.04-6.3 2.97-7.59 17.49-1.81 21.37 3.11 2.09 6.97 1.76 10.58 1.06 3.81-.74 5.91.42 6.49 3.85.59 3.48-1.09 5.93-4.54 6.43-2.93.43-5.62-.04-7.65-2.54-1.21-1.49-2.72-2.82-4.63-1.21-1.79 1.51-1.24 3.28.2 4.77 1.82 1.88 2.28 3.97 1.25 6.38-1.27 2.97-.38 5.58 1.61 7.84 2.98 3.39 5.06 7.42 7.78 10.94 3.64 4.71 8.52 8.4 13.73 11.27 6.8 3.75 13.66 7.41 20.55 11.01.59.31 1.17.64 1.72 1.01 1.42.97 2.82 2.04 2.11 4.02-.65 1.8-2.29 2.25-4.03 2.38-1.35.1-2.65-.19-3.94-.52-1.55-.39-2.9-.5-3.67 1.41-1.31 3.23-3.62 2.87-6.11 1.46-.58-.33-1.11-.73-1.67-1.09-5.84-3.69-7.1-3.18-8.42 3.61-.43 2.2-1.27 4.09-2.77 5.74-6.72 7.32-10.21 16.67-15.63 24.81-.43.65-.84 1.45-.49 2.33 6.95-.17 8.89 2.35 5.72 8.61-2.58 5.09-5.29 10.45-11.41 12.56-2.15.74-3.21 2.79-4.66 4.38-3.41 3.77-6.91 2.94-8.51-1.85-2.23-6.67-3.53-13.47-3.02-20.53.54-7.42-1.28-14.94.97-22.29 3.47-3.86 2.98-10.31 8.45-12.87 1.45-1.36 1.2-3.35 1.86-5.01.45-4.47 2.57-8.56 2.88-13.06.82-4.24 1.1-8.57 1.96-12.78.73-3.57-.69-5.52-3.58-7.28-9.21-5.64-9.16-5.71-6.06-15.84-.1-.32-.13-.65-.11-.99-.82-5.06-.67-10.13-.12-15.2-.03-.92-.07-1.84-.1-2.76-.59-.9-.7-1.84-.24-2.83 3.93-8.48 6.17-17.55 9.18-26.35.61-1.8 1-3.9 3.25-4.66z"/><path d="M34.87 137.64c.04 5.07.08 10.13.12 15.2-.34-.64-.67-1.29-1.01-1.93.09-4.43-.7-8.93.89-13.27z" fill="#f7f4f0"/><path d="M31.89 270.76c-2.75-6.02-1.82-12.61-2.69-18.91-1.06-7.68-.81-15.53-1.18-23.31-.15-3.12.45-5.92 2.86-8.12-1.49 14.68-2.17 29.32 2.2 43.71.37 1.22.9 2.13 2.2 2.39 1.45.29 2.74-.08 3.43-1.41 1.86-3.57 5.43-4.8 8.39-6.99 4.59-3.41 8.33-8.38 9.12-14.71.33-2.67-1.24-2.77-3.02-2.51-1.58.23-3.11.8-4.99 1.3.12-4.07 1.92-7.01 3.94-9.78 5.15-7.06 7.54-15.93 14.45-21.82 1.6-1.37 1.23-3.3 1.38-5.1.59-6.75 3.42-8.16 9.14-4.57 1.26.79 2.28 1.97 3.57 2.68 1.88 1.03 3.86 2.21 3.47-1.85-.27-2.81 1.66-3.29 4.01-2.31.77.32 1.49.84 2.28.99 2.09.39 4.8 1.31 5.8-1.1 1.09-2.62-2.07-2.42-3.44-3.18-7.17-3.94-14.68-7.43-21.53-11.74-5.45-3.43-11.8-6.77-14.78-13.4-1.15-2.56-2.79-4.89-4.79-6.93-3.42-3.46-6.23-7.07-2.81-12.15 1.14-1.69.08-2.88-1.31-3.66-1.97-1.1-3.37-2.55-2.2-4.77.79-1.5 1.3-3.89 3.39-3.89 2.2 0 4.36.32 5.49 3.24 1.36 3.51 4.9 2.1 7.48 1.75 2.65-.36 2.44-2.96 2.08-4.86-.47-2.45-1.25-3.64-4.77-2.81-9.95 2.34-15.93.76-16.02-11.47-.02-2.95.63-5.91 1.02-8.85.27-2.06 1.91-2.89 3.43-3.97 1.36-.97 5.2-.53 3.98-2.37-2-3.03.48-7.65-3.81-9.45 1.33-2.66 5.07-3.47 5.35-6.94 1.3.08 2.59.16 3.89.24 2.13 2.23 4.94 2.64 7.78 2.67 6.02.08 10.71 3.3 15.2 6.64 2.07 1.54 2.46 4.78 2.48 7.16.02 2.35-2.97 1.26-4.58 1.51-7.58 1.17-15.18-1.06-22.78-.04-.96.79-2.02 1.42-3.16 1.92-4.58 2.41-6.23 5.96-5.2 11.5.8 4.27 3.52 6.3 7.76 7.18 3.69.76 7.65.13 11.1 2.1 4.64 4.88 7.55 11.35 13.65 14.91.56.33.97.98 1.57 1.2 7.03 2.7 9.19 9.01 11.42 15.28.28 3.45.7 6.97.05 10.34-1.51 7.84.27 13.99 7.8 17.73 1.6.97 2.58 2.42 3.22 4.14.68 1.82 1.72 1.65 2.93.52.51-.51 1.03-1 1.61-1.41 2.9-1.62 5.45-.15 8.04.91.67.08-.19.12.47.14 5 .13 9.84-.72 12.29 6.08 1.69 4.71 3.64 8.76 2.86 14.07-.66 4.53-.79 9.13-2.26 13.53-.23 1.01-.68 1.93-1.25 2.79-.79.94-1.42 2.15-2.98 1.83-3.56 1.98-4.73-2.06-7.19-2.89-1.04-.35-1.94-1.59-3.09-.68-1.2.95-.38 2.12.12 3.14 2.39 4.86 1.75 10.47 3.94 15.48 1.15 2.62.44 5.94-2.44 7.97-4.32 3.03-8.25 7.17-13.04 8.84-6.14 2.13-12.35 4.47-18.49 6.54-7.08 2.39-13.9 1.82-20.84 2.53h.04c-1.98-2.02-4.86-.78-7.08-1.94l.07.04c-8.33-1.83-16.7-3.38-25.03-5.1z" fill="#e5e3df"/><path class="st48" d="M31.89 270.76c8.55.64 16.88 2.39 25.02 5.07-7.44.26-14.31-3.19-21.69-3.32-1.11-.58-2.22-1.17-3.33-1.75z"/><path class="st48" d="M56.84 275.8c2.43.38 5.82-2.75 7.08 1.94-2.54.01-5.03-.15-7.08-1.94z"/><path class="st55" d="M124.92 236.81c.65-.68 1.31-1.35 1.96-2.03 1.84 5.26-.69 9.96-1.9 14.83l-.13.12c-2-4.31-.99-8.61.07-12.92z"/><path d="M228.75 254.69l-11.97 9.12c-6.77 2.04-12.87 5.66-19.39 8.28-1.49.6-2.78 1.85-4.57 1.6 1.33-2.7 4.19-3 6.52-4.04 2.13-.96 4.31-1.72 5.46-3.97 6.1-6.62 7.1-15.51 10.3-23.4 1.29-3.17-1.13-4.26-3.76-4.79-1.05-2.17.03-3.87 1.2-5.55 1.12-1.08 1.76-3.17 3.85-2.4 1.55.57 1.73 2.28 2.2 3.69.52 1.56.25 3.29 1.42 5.58.38-4.68-1.22-8.11-2.49-11.58-.62-1.71-1.59-3.32-1.24-5.22.37-2-.02-4.91 3.18-4.53 2.51.3 4.27 2.27 3.81 4.94-.93 5.49.91 10.34 2.88 15.22 1.71 3.97 2.5 8.19 3.31 12.4.29 1.59.62 3.26-.71 4.65z" fill="#bcb6bb"/><path class="st17" d="M211.95 237.68c1.02-.54.96-2.45 2.39-2.24 1.54.23 1.76 1.87 2.12 3.07.33 1.08.62 2.46.21 3.41-3.18 7.48-3.82 16.1-9.92 22.26-.57.58-1.3 1-1.96 1.5.29-.76.37-1.73.89-2.25 2.58-2.56 2.31-4.22-1.36-5.02-.16-.04-.31-.12-.46-.19-8.31-3.5-10.72-4.57-3.75-13.08-3.84-1.48-4.8 4.81-8.83 2.93.58-2.07 4.3-3.04 2.5-5.99 4.54 1.67 9.12 2.58 13.84.74.72-2.33 1.87-4.28 4.33-5.14z"/><path d="M160.79 233.79c-1.79-.36-3.27-1.52-4.29 1.73-1.46 4.64-6.29 6.4-10.17 8.8-.42.26-1.37.14-1.78-.18-.57-.45-.25-1.17.19-1.71.71-.89 1.42-1.79 2.13-2.69.21-2.09 1.6-3.62 2.76-5.14 8.14-10.66 15.41-22.03 25.29-31.29.74-1.07 1.39-2.38 2.61-2.84 3.11-1.18 4.52-3.29 4.74-6.62.17-2.62 3.03-3.72 4.12-5.9.45-1.07.79-2.26 2.26-2.36 2.68 2.69.71 5.5.27 8.3-.16 1-1 2.45.7 2.86 1.13.27 1.42-1.08 2.1-1.71 5.43-4.98 3.45-11.26 3.18-17.25.21-.46.52-.85.93-1.15.88-.05 1.42.44 1.86 1.12.91 1.9 1.35 3.94 1.67 6 .39 2.25.88 4.47.94 6.78.1 3.59-.46 6.78-3.58 9.14-1.43 1.09-2.41 2.66-2.64 4.56-.51 2.25-2.1 3.48-4.1 4.33-.98.33-2.18-.04-2.95.93-8.25 5.73-16.14 11.84-21.98 20.22-1.09 1.58-2.82 2.72-4.26 4.07z" fill="#cb742c"/><path class="st86" d="M189.99 208.57c.96-1.25 1.91-2.5 2.87-3.75 1.83-2.86 4.3-3.7 7.08-1.63 3.14 2.33 3.95.12 4.93-2.12.82-6.91.72-13.82.02-20.71-.12-1.16-.35-2.28-.03-3.41 1.21-1.69 2.82-3.1 2.8-5.54-.01-1.13.22-2.86 2.29-2.38 3.12 4.11 3.34 9.16 3.07 13.75-.65 11.33-.11 22.86-3.73 33.87-.66 2-.27 4.88-3.6 5.01-.25-4.07.7-8.03 1.61-12.62-5.73 2.36-4.6 7.66-6.44 11.32-3.08 6.12-2.03 13.54-6.06 19.37-2.69-1.75-4.76-3.62-1.76-6.88.65-.71 1.38-1.74 1.36-2.6-.12-5.09.07-9.58 2.9-14.58 2.22-3.95-3.11-6.35-7.31-7.1z"/><path d="M205.7 221.65c3.04-6.08 4.11-12.73 4.55-19.31.7-10.58 2.57-21.26-.55-31.8-.18-.6-.59-1.14-.89-1.71l-.54-.45c-.62-5.65-3.43-10.46-5.92-15.39-.22-.41-.4-.83-.57-1.26-.6-2.55-2.45-4.31-3.99-6.27-.8-1.66-2.82-2.83-2.02-5.12 1.4-1.85 3.04-2.9 5.4-1.69 3.8 6.08 7.79 11.76 10.1 18.98 2.23 6.98 4.14 13.81 4.96 21.02-.47 3.69 2.21 6.53 2.69 9.97.2 1.46 1.29 3.1.43 4.34-5.52 7.89-3.75 17.6-6.7 26.13-.91 2.62-.93 5.6-2.3 8.08-1.76 3.2-1.14 6.39-.48 9.65-.73 4.79-4.22 5.38-8.13 5.36-1.17-.31-1.69-1.14-1.22-2.2 1.61-3.61 1.46-7.71 3.24-11.26-.15-2.58.69-4.88 1.94-7.07z" fill="#de8f29"/><path d="M201.68 241.64c3.47-.08 6.26-1.15 7.15-4.95 1.24-3.36 1.93-6.9 3.16-10.25.67-1.82 1.03-4.37 4.11-3.53 1.23 3.77-1.76 6.42-2.56 9.65-1.26 1.48-1.74 3.21-1.59 5.12-1.19 1.92-2 4.16-4.32 5.14-1.95-.12-3.9-.24-5.85-.37-.35-.14-.48-.31-.39-.51.09-.2.18-.3.29-.3z" fill="#c08d54"/><path class="st86" d="M201.68 241.64c.07.27.1.54.1.82-1.53.29-2.52.28-2.11-1.89.79-4.17 1.73-8.24 4.1-11.85-.7 4.3-1.39 8.61-2.09 12.92z"/><path class="st89" d="M139.76 252.82c-3.48 1.81-6.78 1.29-9.4-1.43-1.32-1.37-2.66-1.75-4.32-1.86-1.58-1.87-.66-4.51.15-5.5 3.28-4.01 3.94-9.32 7.56-13.23 3.88-4.19 7.2-9.06 8.38-14.92.69-3.44 4.05-4.7 5.77-7.29 4.4-4.32 8.21-9.27 13.42-12.75.93-.33 1.86-.6 2.73.15-.55 4.79-5.24 8.04-4.9 13.17-5.35 3.18-8.09 8.51-11.25 13.51-.61.96-1.52 1.73-2.33 2.55-3.24 2.6-4.87 6.62-8.17 9.21-1.88 1.48-.93 3.24.05 4.85.75 2.03 2.15 3.67 3.36 5.42-1.58 1.41-3.22 2.77-4.72 4.27-.85.85-3.15.44-2.64 2.29.48 1.71 2.38 1.39 3.84 1.47.83.03 1.65.05 2.47.09z"/><path d="M175.9 203.9c-5.58 6.37-11.24 12.66-16.32 19.46-4.13 5.53-7.18 11.92-12.71 16.38-.36-.02-.71-.04-1.07-.06.09-3.53 2.3-5.98 4.41-8.43 1.84-2.13 2.51-4.2.38-6.51 2.53-6.67 7.59-11.49 12.57-16.21 2.48-2.35 4.84-4.43 5.52-7.89 3.48-.71 4.11-4.02 5.8-6.37 1.26-2.39.09-5.65 2.73-7.54 2.75 3.28 3.5 9.54 1.1 12.46-1.22 1.48-1.8 3.05-2.41 4.71z" fill="#f9b95d"/><path d="M150.85 224.74c4.22 1.04 3.17 4.61 1.58 6.01-2.94 2.59-3.93 6.35-6.63 8.93-1.66 1.67-3.32 3.33-4.98 5-2.91-.39-4.01-2.23-3.96-4.97-.12-3.35 2.81-4.66 4.71-6.42 2.56-2.37 4.93-4.8 6.7-7.8.74-.67 1.51-1.25 2.58-.75z" fill="#fdd38c"/><path d="M148.94 208.84c-.12 1.48-.98 2.38-2.25 3.04-1.37.71-2.63 1.81-2.91 3.27-1.49 7.82-7.39 13.08-10.89 19.63-2.48 4.64-7.22 8.68-6.85 14.75-.36.03-.71.06-1.07.08-.87-5.14 1.23-9.89 1.9-14.83.36-.66.72-1.31 1.07-1.97 5.11-7.03 9.86-14.31 14.96-21.35 1.13-1.56 2.59-3.03 4.76-3.26.51.07.93.29 1.28.64z" fill="#f8d699"/><path d="M316.58 192.89c-3.09 3.12-8.05 4-9.2 9.63-.65 3.2-4.24-.31-6.5.13-5.51-2.14-11.59-2.9-16.39-6.81-2.01-1.64-4.31-2.89-6.49-4.29-3.39-4.98-7.87-9.24-9.89-15.14-.66-1.91-2.92-3.68-.59-5.68 1.96-1.68 4.02-.76 5.88.55 1.21.85 2.36 1.79 4.03 2.16-1.16-2.25-4.97-2.42-4.29-5.6.46-2.15 2.22-3.12 4.47-3 3.21-.6 5.04 2.18 7.22 3.48 4.39 2.62 9.36 4.47 13.02 8.27 2.38 3.77 7.13 3.63 10.25 6.23 1.99 1.66 4.45 2.8 4.93 5.72-.26 1.21-2.08 2.97 1.17 2.86.88-.03 1.64.87 2.36 1.48l.02.01z" fill="#eba746"/><path d="M277.61 164.83c-.88.71-1.71 1.49-2.65 2.12-1.64 1.11-1.47 2.01.2 2.83.44.22 1.08.26 1.33.6 1.21 1.6 4.98 2.42 3.57 4.4-1.07 1.5-4.49.22-6.43-1.51-.49-.44-.93-.94-1.43-1.37-1.24-1.09-2.77-1.53-4.08-.55-1.99 1.48.25 2.59.76 3.71 2.57 5.68 5.9 10.92 9.82 15.77-1.39.78-2.18-.23-3.03-1.03-2.03-2.34-3.9-4.42-7.28-5.48-4.83-1.52-4.94-6.94-6.57-10.97-.3-.74.04-2.08-.41-2.37-4.02-2.59-2.82-4.57.79-5.95-1.48-2.94-5.99-3.48-4.78-7.28.96-3 4.02-1.36 6.11-1.93 3.67 2.13 7.34 4.25 11.01 6.38 1.03.87 2.05 1.75 3.07 2.63z" fill="#d38934"/><path d="M312.62 188.79c-3.43-3.47-6.37-7.54-11.85-8.21-1.87-.23-3.13-1.8-2.92-4.01 5.07 2.54 10.12 5.12 15.21 7.59 2.51 1.22 3.17 3.12 2.59 5.67-1.42.86-1.45-2.32-3.03-1.04z" fill="#d0975b"/><path class="st58" d="M312.62 188.79c1.49-1.03 2.11.43 3.03 1.05.3 1.01.61 2.02.91 3.03-.96-.21-1.92-.59-2.88-.59-1.25 0-2.5 2.8-3.6.51-.86-1.79.38-3.48 2.54-4z"/><path d="M213.54 232.56c-.24-3.43 1.53-6.42 2.12-9.67-.98-1.13-.79-2.46-.53-3.74 1.33-6.59 2.17-13.27 3.45-19.86.34-1.74-.19-5.8 4.12-3.78 2.11 4.88 3.47 9.87 3.48 15.28.01 2.33-.05 5.02 1.91 6.98 1.16 1.39 1.08 3.02.89 4.67-2.47 4.78-2.76 10.15-4.16 15.23-3.05-3.34-1.33-8.42-4.35-11.81-.62-.7.22-1.56.81-2.12 1.3-1.25 1.6-2.5.11-3.78-.83-.72-1.5-2.24-2.79-1.59-1.59.8-1.27 2.92-1.03 4.02.75 3.47 2.05 6.83 3.29 10.17.77 2.08 1.04 4.17.82 6.34-.15 1.46-.83 2.69-2.45 2.55-1.56-.13-1.52-1.58-1.44-2.71.21-2.88-.65-5.54-1.45-8.23-1.94-.67-1.35 2.06-2.8 2.05z" fill="#bba9a6"/><path d="M222.71 195.51c-3.3.14-2.55 2.92-2.79 4.71-1.05 7.62-2.16 15.23-4.25 22.66-2.35 1.25-2.21 3.75-2.88 5.83-.93 2.86-1.03 6.12-3.95 7.98-1.78-3-1.59-5.72-.29-9.14 3.58-9.37 4.92-19.33 6.25-29.24.11-.81-.18-2.08.25-2.4 5.95-4.35 1.28-8.78.24-13.2-.3-1.26-.3-2.59-.44-3.9 2.06-.08 2.6-1.23 2.58-3.16-.02-2.01-.48-4.24 1.38-5.85.92 3.75 1.07 7.73 1.84 11.33 1 4.81.14 9.81 2.06 14.38z" fill="#e29c45"/><path d="M218.79 169.82c-.01 2.59.03 5.17-.07 7.76-.05 1.22.65 2.94-.73 3.55-1.91.84-1.94-1.71-3.16-2.3-1.55-6.62-2.78-13.29-4.71-19.87-2.2-7.48-7.59-12.86-9.4-20.1 1.29-3.1 3.18-1.21 4.56-.32 2.97 1.93 4.41 5.04 5.52 8.29 4.32 7.09 7.23 14.67 7.99 22.99z" fill="#efae54"/><path d="M245.8 176.67c-6.32-4.74-9.65-12.01-14.94-17.63-1.59-1.69-3.08-3.47-4.53-5.28-.52-.65-.78-1.56.02-2.22.6-.5 1.16.01 1.78.26 6.34 2.56 10.39 8.62 16.86 11.01 1.28.47 1.73 1.85 1.13 3.39-1.06 2.74.43 4.4 2.64 5.68 2.16 4.5 1.89 4.94-2.96 4.79z" fill="#843f1d"/><path d="M210.81 146.83c-1.62-2.01-3.09-4.16-4.89-5.98-1.33-1.35-2.55-3.72-5.18-1.99-2.16-.58-3.06 1.9-4.92 2.04-2.78-.77-5.9-.65-8.09-3.02-1.73-5.46-.49-7.32 5.26-7.94.75.14 1.46.42 2.14.75 5.35.41 10.21 3.23 15.65 3.23.29 2.21 1.44 3.38 3.7 2.58 2.1-.75 4.22-.49 6.34-.55.07 2.55-2.04 2.98-3.66 3.01-3.28.06-2.97 1.78-2.34 3.91-1.14 1.54-4.72.59-4.01 3.96z" fill="#bf712c"/><path d="M248.76 208.7c-2.79 8.25 2.65 15.93 1.74 24.7-2.61-2.32-4.02-5.22-6.73-6.7-1.57-.97-2.31-2.58-2.28-4.22.13-6.73-1.59-13.52.46-20.2 3.42-2.61 4.28.62 5.73 2.51-.04 1.42.3 2.73 1.08 3.91z" fill="#f6be67"/><path d="M214.8 142.87c-.35-.32-.7-.66-1.06-.97-1.01-.86-3.21-.88-2.6-2.88.48-1.56 2.2-.96 3.42-1.06 2.25-.19 4.58-.06 6.24-2.03 3.82-1.12 7.68-1.99 11.69-1.87-2.09 4.28-6.54 5.92-9.85 8.83-3.19 2.15 1.11 3.99.24 6.44-3.64-1.13-4.79-5.21-8.08-6.46z" fill="#843e1d"/><path d="M228.8 216.78c2.85-3.45 2.31-7.5 1.57-11.35-.39-2.04.13-3.76 1.58-4.19 7.5-2.19 4.01-8.2 4.44-12.65.25-2.64-.81-5.4-1.43-8.97 3.3 2.28 4.89 4.91 6.7 7.3.05 3.13-.01 6.15-1.79 9.01-1.16 1.86-.78 4.14-.42 6.31.94 5.73.13 6.5-5.37 5.36-.46 1.48.2 2.95.09 4.42 0 1.3-.14 2.57-.6 3.8-1.24 2.05-2.53 3.89-4.77.96z" fill="#c7762b"/><path class="st104" d="M232.77 211.79c-.06-.99-.01-2-.2-2.97-.28-1.4-1.52-3 .1-4.08 1.53-1.02 2.15.96 3.16 1.62.66.44 1.27 1.39 2.12.8 1.34-.94.94-2.49.5-3.63-2.41-6.25 1.63-11.18 3.21-16.62 1.22 2.06 3.87 3.14 4.02 5.92-.58 1.66-1.7 3.04-2.47 4.61-2.49 4.25-2.19 8.8-1.46 13.39.38 2.38 1.77 5.7-.55 6.78-2.17 1-4.46-1.61-5.72-3.85-.66-1.16-1.65-1.53-2.71-1.97z"/><path d="M245.8 176.67c2.5-.66 4.6-1.56 2.96-4.78 2.66 3.5 5.8 6.38 10.01 7.92 5.2 3.37 10.87 6.12 14.79 11.2-6.35-3.35-12.74-6.63-19.02-10.11-1.86-1.03-3.75-1.02-5.68-1.21-1.38-.31-2.88-.46-3.13-2.3-.01-.24.02-.48.07-.72z" fill="#8e552f"/><path d="M255.82 212.71c2.59 7.77 3.02 15.76 2.59 23.86-3.56-7.67-5.54-15.5-2.59-23.86z" fill="#ab7044"/><path class="st104" d="M228.8 216.78c1.78 1.37 2.83.21 3.84-1.1 2 1.56 1.33 3.86 1.64 5.9.01 4.17.94 8.76-4.63 10.47-2.65-.97-2.38-3.21-2.24-5.33.09-1.44.95-2.8.54-4.32.05-1.54.1-3.08.14-4.62.25-.34.48-.67.71-1z"/><path d="M242.72 196.8c-.35-2.31 1.19-3.22 2.96-3.96 1.31 3.88 2.09 7.85 2.02 11.96-1.65-.99-3.3-1.99-4.95-2.98-1.69-1.67-.97-3.35-.03-5.02z" fill="#eaa44f"/><path d="M245.73 177.39c1.32.39 2.77.6 3.13 2.3-.17 2.64-2.12 5.25-.16 7.94-1.98-1.03-5.6-8.69-4.79-10.37.09-.2 1.19.07 1.82.13z" fill="#b38776"/><path d="M275.68 189.79c1.01.34 2.02.69 3.03 1.03 6.64 5.34 14.85 7.75 22.17 11.82-.36.23-.73.46-1.09.69-6.16-1.71-12.25-3.58-17.57-7.32-2.12-1.49-4.33-2.86-6.5-4.29-.02-.64-.03-1.28-.04-1.93z" fill="#c48549"/><path d="M229.64 231.41c3.9-2.27 3.05-6.1 3.17-9.61 1.32-1.23-.93-4.61 2.33-4.43 2.72.15 3.78 2.51 3.66 4.95-.13 2.75 1.26 4.99 1.89 7.48 2.11 3.29 4.73 6.29 2.2 10.77-.86 1.53-.25 3.43-3.17 2.69-3.03-.77.98 2.59-1.28 2.64-1.95 1.25-3.62.35-4.81-1.05-3.29-3.86-5.47-8.13-3.99-13.44z" fill="#f9ca6e"/><path d="M240.68 229.8c-2.72-1.21-4.07-3.25-3.28-6.21.64-2.4.26-4.61-2.11-5.2-2.37-.59-.89 2.77-2.48 3.41-.06-2.04-.11-4.08-.17-6.13.04-1.3.09-2.59.13-3.89 1.72-1.39 3.79-4.67 3.69 1.07-.04 2.43 3.07 2.54 4.44 4.47 1.85-3.08.51-5.87-.41-8.14-1.34-3.31.69-6.42-.29-9.64-.34-1.11 1.35-2.1 2.52-2.74.01 1.67.02 3.35.03 5.02-.38 8.33-.53 16.64 1.03 24.89.17 2.23-.88 3.24-3.1 3.09z" fill="#f0aa3c"/><path d="M130.83 125.94c-.89-2.94-1.29-5.92-.99-8.99 3.04-1.52 4.53.74 5.9 2.67.95 1.34 1.69 2.77 3.15 3.62 1.58 1.6 2.47 3.87 4.72 4.83 1.25.86 2.07 1.97 2.05 3.56-.73 3.04-.23 5.46 3.13 6.63 1.08.37 1.92 1.21 2.56 2.19.24.4.43.83.58 1.27.46 1 .37 3.4 2.27 1.14 1.42-1.67 2.96-3.14 4.74-4.38 1.11-.77 2.55-1.81 3.65-.99 3.95 2.94 5.61.01 7.88-2.44 3.31-3.57 7.71-5.69 11.97-7.94.41-.28.87-.47 1.3-.71 1.63-.92 3.47-1.99 4.84.01 1.46 2.13.3 4.08-1.32 5.71-.47.47-1.06.81-1.67 1.05-3.75 1.49-6.53 3.49-4.5 8.16-.72 3.37-4.59 4.65-5.32 8.02-.86 1.56-1.8 2.99-3.92 2.73-2.02-2.41 1.2-4.64.29-7.06-2-.57-2.68 1.02-3.38 2.2-1.8 3.06-4.06 4.18-7.41 2.41-2.86-1.5-4.1-.47-5.5 2.5-2.04 4.33-2.17 7.55 2.22 10.15-.55 1.49-1.83 1.7-3.16 1.84-4.68-.44-7.47-2.88-8.11-7.62.09-1.36.81-2.45 1.53-3.54.45-.67 1.1-1.96.36-2.1-4.25-.84-3.9-6.4-7.87-7.36-2.97-.49-6.36-.04-7.93-3.59-1.47-1.42.04-1.87.83-2.55 1.18-1.02 1.53-2.38.42-3.43-2.35-2.2-2.32-5.28-3.31-7.99z" fill="#793117"/><path d="M132.89 139.93c2.77 1.58 5.72 2.36 8.92 2.13 1.66.64 1.89 2.13 1.95 3.58.06 1.57.48 2.8 1.89 3.66 2.9 1.78 2.58 4.14 1.11 6.67-.59 1.06-1.47 1.87-2.37 2.64-2.33 1.31-3.76 2.85-2.75 5.91.86 2.63-.57 4.73-2.65 6.36-2.11 1.44-4.35 1.16-6.62.52-2-.14-4.06.1-5.9-.97-1.02-2.35-1.27-4.92-2.16-7.34-1.23-3.34 1.46-5 3.68-6.76.97-.77 2.87-1.16 2.44-2.71-.51-1.84-2.16-.68-3.37-.6-3.79.28-5.96-2.31-5.3-6.24.29-1.72 1.27-3 2.48-4.16 1.26-1.32 3.29-1.29 4.54-2.62 1.37-.38 2.77 1.56 4.11-.07z" fill="#d17529"/><path d="M128.79 140.02c.7 3.56-2.6 1.9-3.84 2.94-3.17.73-3.13 3.11-3.06 5.66.04 1.6 1.84 2.77.97 4.51-3.82.18-5.97-1.36-5.63-5.46.44-5.19-.68-6.01-6.32-4.58-1.4.64-2.29 2.56-4.28 1.76-.28-.42-.45-.87-.51-1.37.45-2.93 2.53-4.97 4.09-7.25.79-1.16 1.9-2.46 3.68-1.27 1.76 1.03 2.23 5.81 5.89 1.86.46-.5 3.39 1.28 5.18 2 1.27.4 2.55.8 3.83 1.2z" fill="#f1a643"/><path d="M113.88 134.96c-3.82 1.8-4.72 5.91-7.04 8.9-3.07.42-5.62-.79-8-2.55-.25-.42-.34-.88-.3-1.37.57-2.43 2.79-2.82 6.01-3.75-5.04-1-7.75-3.06-9.1-6.71-.28-.77-1.03-.59-1.67-.41-1.55.64-2.89 1.66-4.43 2.28-1.69.67-4.17.69-4.33-.93-.54-5.37-6.63-3.88-8.51-7.49-.67-1.28-2.42-.63-3.69-.22-3.31 1.07-6.85.2-9.75-.57-3.02-.8-3.91-4.71-3.1-8.18.84-1.07 2.1-1.25 3.14-.83 6.79 2.76 13.78-.18 20.62.82 1.58.23 2.21-1.21 3.19-2.01.42-1.63-.03-3.91 2.45-4.13 1.87-.16 2.88 1.38 3.57 2.87.55 1.19 1.43 2.15 2.01 3.31-.67.65-1.34 1.31-2.01 1.96-1.41.09-2.41 1.91-4.07 1-1.89 1.53-4.35-3.8-5.73.24-1.37 4 2.81 4.13 4.89 5.55 1.22.83 2.82.8 4.32.22 2.04-.78 4.11-1.66 5.67.92.69 1.15 1.78.59 2.68.22 6.5-2.66 10.08 3.23 15.01 5.15.21.08.32.88.2 1.26-.2.66-.77 1.24-1.49.95-1.71-.69-3.96-2.95-4.9.01-1.01 3.25 3.43 1.58 4.36 3.49z" fill="#e9962a"/><path class="st116" d="M94.95 114c-1.3-.07-2.69.01-2.95-1.76-.25-1.67-.73-3.46-2.62-3.52-1.79-.06-1.03 2.56-2.45 3.22-.73-1.34-1.15-2.77-.98-4.3.36-3.25-1.17-5.33-4-6.64 5.51.46 13.25 8.19 13 13zM88.88 116.96c1.25-.75 2.07-3.26 4.07-1-.16 1.4-.62 2.59-2.23 2.8-1.31.17-1.63-.79-1.84-1.8z"/><path d="M59.98 113.96c-.08 2.85 3.58 4.33 2.05 8.52 2.82-2.41 5.36-.66 6.77-1.03 5.6-1.49 9.56.15 13.38 3.97 1.64 1.64 3.16-1.16 4.94-1 .91 1.3-.18 1.83-.91 2.38-1.11.83-1.52 1.8-.67 2.95.95 1.28 2.2 1.37 3.48.45 1.49-1.07 2.99-2.09 4.88-2.28 2.37 3.32.01 5.13-2.23 6.98-1.25.8-2.69.87-3.72-.06-3.38-3.07-7.43-3.32-11.63-3.06-6.36.39-12.2-2.99-18.56-2.47-1.52-.11-2.94-.58-4.07-1.62-1.74-1.61-3.08-3.47-.25-5.16 2.01-1.2 2.12-2.7 1.52-4.59-.84-4.51 3.36-2.64 5.02-3.98z" fill="#f2ab32"/><path d="M54.96 117.93c4.26 2.94 4.23 3.01-2.32 6.51.77 2 2.22 3.17 4.31 3.58 3.49 2.72 8.02.78 11.8 2.68 1.54.77 3.39 1.05 4.86 2.16 2.03 1.53 4.19 1.58 6.51.62 1.58-.66 3.64-2.23 4.87-.26 1.37 2.19-.36 3.96-2.22 5.27-4.08.41-8.12.31-12.06-1-4.02-1.87-7.92-3.94-12.62-3.69-4.43.23-6.22-3.3-7.93-6.49-2.56-4.76-1.52-12.05 1.81-14.35.94-.53 1.83-1.25 3.03-.89-.09 1.28-1.26 1.72-1.93 2.56-1.94 2.45-.7 3.31 1.89 3.3z" fill="#f8c562"/><path d="M160.83 110c5.06 2.25 9.57 5.72 15.09 6.98 1.08.37 2.37.25 3.25 1.08 3.67 3.47 6.76 2.21 9.63-1.11.64-.67 1.29-1.35 1.93-2.02 1.41-1.14 2.03-3.05 3.77-3.89 1.25-.61 2.48-1 3.73-.08 1.24.91 1.53 2.16.96 3.53-1.31 3.15-1.15 6.41-.83 9.69.29 1.98-.72 3.28-2.26 4.3-5.19.49-5.22.45-4.68-7.4-3.73 2.21-6.58 5.12-9.88 7.38-2.51 1.12-4.42-.07-6.3-1.57-1.9-1.51-3.73-3.27-6.87-2.88.19 2.98 1.17 5.84.79 8.77-.31 2.35-1.18 4.69-3.93 3.75-3.84-1.31-5.87.29-7.77 3.19-.55.85-1.48 1.9-2.9 1.18-.99-1.36-.8-2.88-.42-4.32 1.02-3.88.63-7.19-1.78-10.76-2.1-3.12-1.4-6.93 1.41-9.91 1.62-2.84.91-8.45 7.06-5.91z" fill="#cb762c"/><path d="M197.93 124.04c-.82-.47-3.54.56-1.76-1.95 1.54-2.18 1.35-4.74 2.12-7.07.46-1.37.63-2.66-.82-3.49-1.34-.76-2.06.6-3.05 1.08-1.32.64-1.94 2.39-3.7 2.32.96-5.14 5.08-8.17 8.01-12 .92-1 1.57-2.97 3.37-1.76 1.74 1.17 1.42 3.06.71 4.81-.39 3.43-1.99 6.46-3.31 9.57-1.12 2.64-.3 4.01 2.4 4.5-.11 2.52-.68 4.61-3.97 3.99z" fill="#e28c27"/><path d="M197.93 124.04c2.35-.31 2.68-2.63 3.98-3.99.27-.05.54-.11.8-.18 1.19 1.78 3.6 2.58 3.99 5-1.31.69-2.62 1.39-3.93 2.08-1.24 3.94-3.34 6.52-8 5.05-.35-.34-.71-.67-1.06-1.01-.82-1.97 1.32-2.11 1.96-3.17.72-1.3 2.17-2.14 2.26-3.78z" fill="#7f3519"/><path d="M188.8 116.95c-2.68 6.06-3.82 6.45-9.05 2.95-1.33-.89-2.56-1.94-3.83-2.91 2.35-.92 4.05-3.3 6.9-3.11 2.52-.02 3.42 3.13 5.98 3.07z" fill="#dc9438"/><path d="M202.83 105.97c-.12-2.68.32-6.1-4.08-3.05-1.84-5.92 2.88-9.62 5.37-15.51 1.39 7.13.05 12.85-1.29 18.56z" fill="#f1a730"/><path d="M134.13 104.11c4.88-.45 8.58 1.06 10.36 6.01 1.12 3.1 5.27 4.72 4.38 8.84h-.01c-2.37 5.28-5.46 6.36-10.77 3.74-2.02-1.37-2.51-4.15-4.96-5.2-.88-.38-1.42-1.6-1.04-2.53 1.31-3.2.52-6.73 1.67-9.93.13-.31.25-.62.37-.93z" fill="#fddfad"/><path d="M133.78 105.04c.4 1.23 1.51 2.85 1.08 3.62-3.28 5.93.27 9.59 4.03 13.26.53.71.61 1.4-.13 2.03-1.97.2-3.06-.87-3.61-2.6-.83-2.63-2.82-3.81-5.31-4.41-1.4-7.95-3.84-15.77-3.01-24.01 2.5 1.4 3.45 3.99 3.81 6.4.36 2.49 1.6 4.09 3.14 5.71z" fill="#9a4e23"/><path d="M153.78 115.92c-1.65 4.49-2.41 8.72 2.11 12.27 1.88 1.48.66 3.59.23 5.49-.54 2.38-.85 4.82-1.26 7.23-.62 3.26-1.98 3.45-3.99.96-.02-.29-.05-.58-.08-.87-.03-4.36-3.22-6.64-6.05-9.17.26-1.62-.7-2.42-2.01-2.97-.11-2.84.45-4.97 4.08-3.87 4.5 2.02 3.31-2.23 3.86-3.87.69-2.05-.2-4.77 3.11-5.2z" fill="#ee9427"/><path class="st72" d="M146.81 124.99c-2.59-.01-3.02 2.26-4.08 3.87-3-.28-3.2-2.83-3.98-4.9.04-.68.09-1.35.13-2.03 4.35 2.47 7.24-.01 9.98-2.96-.11 2.2.64 4.69-2.05 6.02z"/><path d="M194.78 131.99c4.18.71 5.85-2.55 8-5.05-.24 2.98 1.89 2.64 3.86 3.15 1.79.46 5.81-.64 4.13 3.83-3 1.49-5.78 2.72-8.62-.67-1.85-2.22-5.21 1.16-7.37-1.26z" fill="#a85b26"/><path d="M242.34 135.56c2.09 2.81 4.19 5.62 6.28 8.43.69 1.98 1.38 3.97 2.07 5.95-7.44.54-13.36-3.95-20-6.08-1.13-.36-2.24-1.52-1.69-2.66 1.28-2.67 3.02-5.36 6.05-6.05 2.32-.53 4.93-.86 7.29.41z" fill="#b9a9aa"/><path class="st50" d="M71.06 260.63c-.98-.47-2.74-.74-3.16-1.64-.66-1.41 1.03-2.18 2.09-2.94 2.98-2.15 4.41-4.59 2.54-8.4-1.47-3.01-.54-6.23.68-9.18.96-2.32 1.86-4.54 1.81-7.15-.07-3.22 1.69-4.15 4.57-2.8 2.09.98 4.14 2.06 6.18 3.14 1.53.81 3.23 1.59 4.64.25 2.58-2.47 4.86-.72 7.17.23 2.47 1.02 3.29 2.44.39 4.05-3.48 1.92-3.42 4.52-1.54 7.51.7 1.12 1.53 2.19 2.1 3.38 2 4.16 2.76 8.32-1.29 11.72-2 1.68-2.12 4.02-2.97 6.12-.51 1.24-1.13 2.58-2.73 2.53-1.67-.05-1.98-1.56-2.42-2.79-2.4-6.62-3.78-7.37-10.51-5.73-2.42.59-4.85 1.1-7.55 1.7z"/><path d="M147.81 208.7c-4.87 3.18-7.36 8.32-10.32 12.98-2.68 4.21-5.55 8.12-9.54 11.14 1.5-5.66 1.16-11.58 2.28-17.26.57-2.92-.67-4.95-1.41-7.42-2.16-7.28-7.2-9.07-13.96-8.26 2.94-2.16 2.12-6.41 4.86-8.68 1.38-1.06 3.14-1.61 4.18-3.13.66-.92 1.09-2.02 2.05-2.72.92-.47 1.86-.46 2.82-.14.45.19.86.45 1.24.76 4.89 4.38 10.98 3.97 16.9 4.26 2.26 1.32 4.38 2.77 7.04 3.47 4.07 1.07 4.78 3.79 1.89 6.98-2.54 2.78-5.09 5.61-8.03 8.02z" fill="#eddfd6"/><path d="M70.83 136.09c3.82 1.9 8.22.16 12.07 1.88 2.31.61 2.78 2.59 3.29 4.48.64 2.38 1.32 4.73 2.69 6.82 2.14 4.34 3.86 8.86 5.6 13.38.16 1.55-.17 2.96-1.2 4.16-1.22.76-1.76-.14-2.34-.95-1.23-2.65-3.1-4.97-3.63-7.99-.17-.99-1.08-2.25-1.98-2.67-8.98-4.18-15.11-11.27-20.29-19.37 1.95-.55 3.9-.89 5.79.26z" fill="#f6dfcb"/><path class="st50" d="M122.14 231.39c-1.15-1.58-2.01-2.76-2.87-3.95-2.03-2.81-4.24-3.61-6.87-.71-.55.61-1.17 1.2-1.88 1.61-1.12.65-2.37 1.81-3.63 1-1.51-.97-.04-2.41.06-3.61.61-7.29 6.52-9.63 11.9-12.35 1.8-.91 3.16.28 4.13 1.76 2.74 4.11 2.46 11.79-.84 16.25z"/><path d="M107.59 198.77c-.23.35-.47.7-.7 1.05-1.51.97-3.01.96-3.74-.79-1.36-3.27-3.89-5.76-5.48-8.84-1.23-2.38-2.28-4.88-1.37-7.64 2.52-7.61.76-14.73-2.4-21.71-.96-2.93-2.78-6.18 2.52-6.78 1.8.42 2.89 1.48 3.04 3.39.24 3.14 1.62 6.05 1.87 9.19-1.3 5.65 2.11 10.53 2.66 15.89.16 1.53 1.74 1.86 2.82 2.56 3.29 2.13 3.66 4.49.57 7.12-2.51 2.27-.42 4.39.21 6.56z" fill="#f9c86b"/><path d="M94.59 160.68c4.7 6.79 5.78 14.1 3.13 21.93-.21.62-.73 1.33-.58 1.84 1.66 5.68 4.27 10.87 8.29 15.27.24.26.96.08 1.46.1-2.24 2.89-3.95 2.54-4.9-.92-.36-1.31-.77-2.44-2.01-3.12-7.78-8.31-9.22-18.16-7.05-28.89-.08-1.43.2-2.77.95-4-.68-1.04-.49-1.79.71-2.21z" fill="#fbda9c"/><path d="M70.83 136.09c-1.93-.09-3.87-.17-5.8-.26-4.04-1.51-8.36-1.22-12.53-1.91-4.34-.71-7.49-4.83-7.58-10.08-.12-7.03 1.74-9.89 7.05-10.9-1.3 2.16-4.46 4.08-.79 6.87.37.28.43 1.2.37 1.78-.83 7.26 1.9 10.43 9.17 11.46 3.45.51 7.02 1.12 10.11 3.04z" fill="#f9d793"/><path d="M107.59 198.77c-2.83-1.79-5-3.73-1.7-7.01 3.04-1.33 6.27-2.03 9.48-2.73 2.26-.5 4.73-.66 5.46 2.52-1.65 1.01-1.75 2.65-1.69 4.32.12 3-1.51 4.09-4.27 4-2.25-1.52-4.51-3.02-7.28-1.1z" fill="#e99e42"/><path d="M92.93 166.88c.29 10.13 1.24 20.11 7.05 28.9-6.37-3.06-11.01-7.62-9.82-15.16.78-4.96.54-9.84.78-14.76.66.34 1.32.68 1.99 1.02z" fill="#f8ebd8"/><path class="st50" d="M71.95 231.77c-.21.53-.36 1.63-.98 2.29-2.72 2.9-5.57 5.67-8.38 8.5-.96.96-1.94 1.16-3.05.2-1.04-.9-1.5-2.16-.49-3.01 3.52-2.99 4.98-7.83 9.21-10.12 1.93-1.05 3.57-1.26 3.69 2.14z"/><path class="st48" d="M62.63 268.08c-.5.92-.58 2.46-2.14 2.09-1.09-.26-2.09-1.08-1.83-2.47.19-1 .77-1.91 1.92-1.85 1.27.06 2.09.79 2.05 2.23z"/><path d="M198.74 144.94c1.97 1.94 4.19 3.74 4.08 6.92-1.86.92-2.72-1.59-4.77-1.22.59 4.47 5.59 7.78 3.62 12.85-3.52 3.05-1.06 6.39-.38 9.57.96 4.53.12 5.76-3.93 5.06-.14-.02-.24-.22-.36-.33-.39-.33-.78-.65-1.16-.98-.38-.25-.68-.58-.89-.99-.8-2.38-.28-5.38-3.18-6.78-2.09-1.31-2.86-3.54-3.94-5.56-.32-.6-.52-1.27-1.03-1.77-6.66-2.91-6.91-3.35-4.63-8.07 2.95-1.4 5.75-3.15 8.95-4.08.65-.85-.09-1.5-.38-2.19-.68-1.63-.99-3.22.57-4.5 1.53-1.25 3.12-.86 4.48.32.91.78 2.12.94 2.95 1.75z" fill="#f9c25e"/><path d="M205.8 202.8c-1.85 2.62-3.18 6.4-6.79 1.17-1.53-2.22-4.1.23-6.16.85-.15-1.85-.24-3.96 1.41-4.99 6.68-4.18 4.57-10.2 3.66-16.01 1.14-.71 2.63-.3 3.73-1.14 1.11-.85 1.9-2.77 3.59-1.99 1.9.88 1.01 2.95.97 4.45-.13 5.89.63 11.8-.41 17.66z" fill="#eda234"/><path d="M188.66 162.91c1.59 1.43 1.46 4.15 3.75 5.06 2.8 2 2.62 5.21 3.29 8.08-.04.27.01.52.13.76-.03.34-.06.68-.1 1.02-1 5.52-1.4 5.85-6.61 5.6-2.53-3.43-3.64-7.68-6.44-10.96-4.92-6.28-2.9-8.35 3.21-10.79 1.21-.48 2.27-.12 2.77 1.23z" fill="#873a1c"/><path class="st139" d="M205.8 202.8v-21.15c-2.45 2.66-4.01 6.32-7.88 2.16-.31-2.01-.61-4.02-.92-6.03 3.36.22 4.98-1.02 2.86-4.2-1.58-2.38-.94-5.04-1.7-7.52-.83-2.69 1.38-3.19 3.56-3.16 2.39 4.01 4.98 7.95 4 12.99 1.47 7.35 1.01 14.8 1.04 22.22.01 1.61.46 3.36-.96 4.69z"/><path d="M188.91 182.76c3.66.26 5.76-1.63 6.84-4.93.36 2.28.56 4.6 1.12 6.83.86 3.38 1.69 6.55-2.76 8.11-1.62.57-.42 2.01-.66 3-.79 3.35-3.89 3.15-6.02 2.77-2.77-.5.09-2.18-.04-3.31-.4-3.28 2.41-6.08 1.3-9.42-.83-1.08-.75-2.09.22-3.05z" fill="#b35d27"/><path class="st141" d="M175.9 203.9c-.07-2.12.59-3.83 1.53-5.85 1.58-3.38.9-7.51-.66-11.17l-.36-.6c-.08-.78.18-1.36.97-1.64 1.54.24 3.14 1.17 3.86-1.42.51-1.83 1.42-4.17 4.02-3.34 2.68.85 3.17 3.07 2.35 5.65-.35 1.09-.67 2.24.2 3.28-2.39 2.63-5.49 4.8-4.7 9.21.18 1.01-1.11 2.61-2.6 2.61-2.46-.03-3.32 1.84-4.61 3.27z"/><path d="M187.8 188.79c-1.51-1.33-1-2.99-.68-4.58.38-1.88-.95-3.08-2.16-3.42-1.76-.49-2.7 1.73-2.71 2.71-.05 8.18-3.19 2.75-5.42 1.32-.09-.2-.18-.4-.28-.6.44-2.41 1.69-4.46 2.93-6.5 1.12-1.17.03-2.51.28-3.76.49-2.5 1.73-3.46 4.18-2.22 2.03 3.5 5.37 6.41 4.97 11.01-.07 1.02-.14 2.03-.22 3.05-1 .79-.87 1.92-.89 2.99z" fill="#db822c"/><path d="M205.73 175.9c-1.09-4.41-4.03-8.24-4-12.99-1.5-3.2-1.86-6.94-4.65-9.54-1.56-1.45-1.85-3.33-.22-4.7 1.99-1.68 3.15-.06 4.18 1.61.4.65 1.18 1.06 1.79 1.57l-.01.01c2.04 5.64 5.61 10.75 5.99 16.97v-.02c0 2.08.02 4.15-.01 6.23-.07 3.72-1.68 1.93-3.07.86z" fill="#fed27e"/><path d="M198.74 144.94c-1.22-.1-2.62 1.09-3.62-.47-.83-1.29-1.87-2.02-3.23-.89-1.64 1.36-.39 2.73.33 3.94.65 1.1 1.54 2.06 3.44 4.53-5.88-2.94-8.51 2.44-12.78 1.89-2.81-1.42-6.94-.76-7.95-5.03-.92-4.29 5.04-4.08 5.06-7.75 2.32-2.8 5.06-4.44 8.84-3.22 1.99 1.78 6.01-1.21 6.98 2.96 1.15 1.23 2.48 2.32 2.93 4.04z" fill="#f5ae44"/><path class="st86" d="M208.81 168.84c-1.58-5.8-5.04-10.95-5.99-16.97 3.21 5.23 6.85 10.31 5.99 16.97z"/><path d="M150.85 224.74c-.62.36-1.24.72-1.86 1.09-.97 1.12-2.04 2.12-3.64 1.28-1-.52-1.13-1.41-.52-2.37 4.54-5.36 6.26-13.06 13.45-16.25.85-.38 1.21-1.17.79-2.04-1.96-3.96-.04-6.19 3.41-7.69 1.38-.6 1.33-1.7 1.35-2.85.19-.17.38-.34.58-.51 3.98-.21 4.89 2.03 4.33 5.44 2.3 2.79.4 4.67-1.64 6.09-6.79 4.72-10.87 11.85-16.25 17.81z" fill="#efa32c"/><path d="M176.77 186.87c.24 3.02.01 5.98-.98 8.86-2.72 1.8-5.39 2.16-8.18.01-1.08-.83-2.46-1.01-3.68.03l-.1.12c-.63.28-1.26.56-1.9.84-1.76-2.37 1.61-5.45-1.1-7.69-1.58-3.34-.53-5.81 2.68-7.31 2.21-1.04 3.81-2.47 4.71-4.77.54-1.38 1.3-2.84 3.18-2.53 1.87.3 2.65 1.82 3.24 3.4 1.08 2.92-.04 6.34 2.1 9.02l.03.02z" fill="#fbd587"/><path d="M161.93 189.7c4.07 2.35-.2 4.7 0 7.05-4.33 4.03-8.66 8.06-13 12.1-.38-.05-.75-.09-1.13-.14 1.45-3.48 4.51-5.61 6.9-8.32.98-1.11 2.1-2.38 1.68-3.92-.49-1.8-2.25-1.71-3.72-1.63-2.96.16-4.29-2.08-5.97-3.84.45-.81 1.19-1.18 2.04-1.4 4.13-.32 8.26-.36 12.39-.02.27.03.54.07.81.12z" fill="#e5c3aa"/><path d="M144.84 224.74c.63 3.23 2.59 1.42 4.16 1.09-1.35 5.89-7.05 8-10.5 12.06-.53.62-1.09 1.21-1.64 1.82-2.83-2.18-4.23-4.33-.04-6.59 3.56-1.93 4.03-6.84 8.02-8.38z" fill="#f4b849"/><path class="st89" d="M163.93 195.78c1.02-2.29 2.86-2.39 4.47-1.09 2.37 1.92 4.8 1.67 7.4 1.05-.69 1.28-2.83 1.56-2.77 3.19.15 4.48-2.15 2.89-4.29 1.9-1-2.27-1.57-4.92-4.81-5.05z"/><path d="M188.82 137.94c-2.95 1.07-5.89 2.15-8.84 3.22-.11-.88.92-2.01-.39-2.61-1.02-.46-3.03.89-3.04-1.28 0-1.32 1.82-1.1 2.75-1.7 1.65-1.07 3.12-2.64 4.91-3.22 2.82-.91 4.86-2.81 3.65-5.25-1.31-2.64-3.13 1.39-5.03.85-.39.43-.76.42-1.1-.05 2.24-2.36 4.48-4.72 6.74-7.06 1.17-1.22 2.55-2.5 4.26-1.5 1.95 1.14.91 2.91.17 4.32-1.7 3.21-.92 4.62 2.77 4.15-.65 1.06-1.31 2.11-1.96 3.17-5.68.43-6.6 1.74-4.89 6.96z" fill="#a45725"/><path d="M129 186.81c-.19-.21-.3-.45-.33-.74.5-3.77 1.54-7.46 1.76-11.27.11-1.88.69-3.57 2.34-4.71 2.07.98 4.1.95 6.08-.24 3.49-2.12 5.98-4.67 4.29-9.23-.35-.94.05-1.94.67-2.77.66-.67 1.31-1.34 1.97-2.01.66-.53 1.33-.57 1.99 0 .53 4.17 2.82 6.59 7.06 7.03 1.86 3.47.57 6.14-2.16 8.43-2.9 1.06-5.79 2.14-7.98 4.47-4.57 3.37-7.36 8.59-12.15 11.74-1.24.14-2.45.01-3.54-.7z" fill="#974621"/><path d="M157.78 161.82c-5.69-.56-5.8-2.44-4.26-7.55 2-6.65 4.28-9.11 10.64-4.88 1.21.8 2.04-.51 2.67-1.54.86-1.4 1.72-2.81 2.69-4.14.89-1.22 2-1.51 3.46-.75 1.69.89 1.2 2.11.79 3.39-.61 1.87-1.23 3.74-1.85 5.61.75.94.38 1.87-.04 2.8-1.47 3.08-1.95 6.91-6.06 8-2.67-.33-5.43-.01-8.04-.94z" fill="#46180d"/><path d="M181.74 127.9c.37.02.74.03 1.1.05-2.42 2.81-6.48 3.13-8.96 5.91-1.09 1.22-3.02 1.93-3.63 3.29-1.91 4.25-3.9 5.81-7.43 1.48-.76-.93-1.89-.3-2.6.47-1.44 1.58-3.68 2.19-4.73 4.3-.63 1.28-1.76 3.07-3.22 2.73-2.05-.48-1.35-2.68-1.41-4.27 1.64.98 3.11 1.22 3.99-.96 1.38-.58 1.57-1.96 2.22-3.08 1.67-2.86 3.62-5.31 7.46-2.79 2.43 1.59 3.26.27 3.26-2.1 0-2.3-.07-4.55-.68-6.84-1.15-4.28-.35-4.81 4.05-3.56 2.01.57 3.58 1.61 4.89 3.15 1.52 1.78 3.34 2.67 5.69 2.22z" fill="#a45024"/><path d="M170.96 154.04l.96-2.07c1-1.02 2-2.05 3-3.07 1.78 3.04 6.75 1.06 7.95 5.03-1.82 2.97-1.16 4.83 2.37 5.6 1.18.26 2.73-.09 3.35 1.49-1.15.62-2.56.55-3.66 1.29-3.08 2.1-5.24 1.29-6.37-2.13-.84-2.54-2.42-3.23-4.88-2.6-1.13.29-2.28.26-3.15-.74-.16-.97-.53-1.99.43-2.8z" fill="#e69736"/><path d="M157.78 161.82c2.71-1.46 5.35-.96 7.98.26.27.47.2.89-.16 1.28-1.06.95-2.94 1.29-2.86 3.13.18 4.27-2.69 4.76-5.88 4.96-1.73-.01-3.6 1.03-5.1-.67 2.63-2.02 2.65-5.05 3.09-7.92 1.05-.14 2.25.11 2.93-1.04z" fill="#c46f2b"/><path d="M144.75 131.83c.24.22.45.58.72.64 6.07 1.21 6.7 2.2 5.32 8.53-.94-.61-1.82-1.61-2.84-1.78-5.01-.84-4.79-3.78-3.2-7.39z" fill="#ce7229"/><path d="M147.8 155.84h-1.99c1.43-2.7 1.8-5-1.96-6.11-1.7-.5-2.31-1.88-1.56-3.52.71-1.54.49-2.86-.49-4.14 2.41-.02 2.52 2.18 3.41 3.6.59.94.93 2.74 1.58 2.84 9.13 1.32 2.23 4.7 1.01 7.33z" fill="#af5425"/><path d="M122.9 152.87c-1.5-2.58-2.33-5.21-1.84-8.34.5-3.17 1.89-2.8 3.89-1.57-.67 1.28-1.63 2.49-1.95 3.85-.37 1.57-.24 3.26 1.01 4.64 1.42 1.57 2.77.61 3.95-.16 2.92-1.93 3.95.75 4.87 2.28 1.3 2.16-1.12 1.98-2.26 2.6-5.94 3.24-6.12 4-2.66 9.97 1.32 2.28-2.12 2.09-1.99 3.77l-.54.57c-2.45.86-4.91 1.69-7.52.64-.84-2.37-1.17-4.88-3.12-6.87-1.33-1.36-1.23-3.25.28-4.76 3.4-1.29 7.63-1.58 7.88-6.62z" fill="#e99c3f"/><path d="M132.78 170.09c-.64 4.21-1.36 8.42-1.86 12.65-.19 1.62-.43 2.93-2.25 3.33-.85-.1-1.7-.21-2.56-.31-2.02.14-3.11-1.02-3.39-2.82-.47-3.08-.78-6.18-.98-9.3-.2-3.05 2.19-3.16 4.17-3.75l.01.01c2.29.07 4.58.13 6.86.19z" fill="#782f17"/><path d="M143.83 157.85c.1.81.07 1.65.32 2.41 2.12 6.38 1.6 7.35-5.29 9.59.98-1.62 2.99-3.29 1.66-5.21-3.16-4.56.24-5.5 3.31-6.79z" fill="#b85827"/><path d="M106.83 144.7c1.04-.9 2.07-1.81 3.11-2.71 1.84-1.15 3.16-.58 4.11 1.22.76 8.03 2.17 16.16-3.18 23.37-.98 1.32-1.08 2.78-.22 4.15 1.33 2.09 1.33 4.76 3.02 6.68 1.18 2 2.6 3.9 3.09 6.22.38 1.77-.05 3.33-1.84 4.18-1.58.76-2.9.14-4.1-.91-1.45-1.27-2.08-2.98-2.46-4.79-.83-3.94-2.35-7.6-4.29-11.12-.85-3.56-2.03-7.04-2.61-10.67-1.77-5.52 3.06-9.41 3.53-14.39.42-.73.94-1.26 1.84-1.23z" fill="#fdda97"/><path d="M112.96 143.86c-.22-1.89-1.58-1.95-3.02-1.87 2.79-2.1 5.73-1.42 8.23.2 2.62 1.69.58 3.98.16 6.13-.68 3.41 2.92 3.13 4.56 4.55 1.58 2.77.27 5.85-3.07 6.78-1.24.35-2.63.16-3.95.21-1.14-3.61-3.59-6.95-1.22-11.13.87-1.53-.26-3.53-1.69-4.87z" fill="#f8bc57"/><path d="M106.83 144.7c-.33.4-.66.79-.98 1.19-2.22 2.79-3.19 6.47-6.17 8.73-4.38-2.57-4.7-8.48-.75-13.7 2.78.6 5.55 1.24 7.92 2.94-.04.28-.05.56-.02.84z" fill="#8a361d"/><path d="M98.93 140.92c-.48 3.22-1.24 6.39-1.14 9.7.07 2.18.63 3.5 3.08 3.25.4.49.37.95-.1 1.38-1.34.63-2.6.2-3.87-.24-5.31.05-1.82 3.66-2.31 5.67-.24.73-.48 1.47-.72 2.2-3.05-3.86-3.98-8.7-6.02-13.03-.84-1.96-1.52-3.99-2.1-6.02-1.25-4.38-.04-5.97 4.86-6.88 2.72 1.07 5.96.76 8.21 3.07.05.3.09.6.11.9z" fill="#c76729"/><path d="M98.82 140.03c-2.79-.28-5.68-.12-8.07-2.01.99-1.32 2.04-2.63.19-4.08 2.03-1.49 3.54-3.24 2.97-6.01 1.36-3.1 2.45-1.52 2.85.37.79 3.73 2.52 5.89 6.65 5.8 1.77-.04 2.61 1.44 2.35 3.14-.3 1.99-1.79 1.79-3.01 1.05-2.3-1.43-2.21 2.11-3.93 1.74z" fill="#f6b03f"/><path d="M90.94 133.93c1.49.05 3.43-.1 3.51 1.84.1 2.38-2.14 1.99-3.7 2.24-4.25.1-5.41 2.25-4.3 6.17.53 1.86 1.73 3.58 1.4 5.67-3.09-3.36-2.52-8.25-4.96-11.88-.31-1.71 2.03-2.61 1.44-4.46-1.61-.52-2.4.72-3.46 1.4-2.64 1.69-5.49 1.78-7.69-.4-3.13-3.1-6.82-3.7-10.89-3.59-2.28.06-4.86.47-5.33-2.89 6.54-1.25 12.47 2.8 18.98 2.14 5.15-.52 10.05.19 13.8 4.37.08.08.79-.39 1.2-.61z" fill="#f7bd57"/><path d="M104.98 170.76c3.12 3.05 4.03 7.09 4.79 11.12.29 1.5.41 2.93 1.62 4.03 1.01.92 1.94 1.92 3.42.81 1.32-.99 1.36-2.31.62-3.53-1.02-1.71-2.29-3.27-2.57-5.33-2.09-3.94.16-5.85 3.4-7.3 3.35 5.88 6.75 11.73 8.67 18.29-.64 2.01-2.46 2.23-4.12 2.7-3.83-4.09-7.63 1.24-11.5.06-1.04-.31-2.29.08-3.44.15 3.76-3.32 3.62-4.2-1.14-5.91-1.14-.41-2.65-.77-2.52-1.94.66-5.9-3.82-11.08-2.28-17.05 2.11-.18 2.04 1.6 2.35 2.82.45 1.77 1.33 1.87 2.7 1.08z" fill="#f7bc55"/><path d="M124.94 188.85c-.56-.3-1.45-.46-1.64-.91-1.81-4.35-2.84-9.06-6.59-12.45-1.51-1.37.1-3.06.29-4.61l.34-.35.45.2c2.7-.39 5.34-1.33 8.13-.84-2.33 1.04-3.76 2.43-2.53 5.27 1.46 3.37-.95 7.76 2.73 10.59-.39 1.04-.78 2.07-1.18 3.1z" fill="#d57329"/><path d="M129 186.81c1.31.03 2.62.05 3.94.08 5.62.23 11.43-.35 16.14 3.77-.8.11-1.59.21-2.39.32-6.46 1-12.56.46-17.69-4.17z" fill="#e5b599"/><path d="M104.98 170.76c-.15 1.42.1 3.44-1.75 3.54-1.87.1-1.53-2.16-2.1-3.38-.59-1.27.15-2.98-1.21-4.07L96.89 155c1.36-.02 2.72-.04 4.08-.05.73 1.6 1.14 3.32 1.85 4.92.31 3.72 2.49 7.06 2.16 10.89z" fill="#f6b734"/><path d="M170.91 156.88c1.6.25 2.72-.91 4.07-1.32 2.34-.72 4.54.39 4.66 2.86.23 4.73 2.22 4.71 5.63 2.87.9-.48 2.21-.21 3.33-.28.02.63.05 1.26.07 1.89-3.34-1.41-5.69 1.32-7.19 2.96-1.62 1.78 1.39 3.93 2.46 5.89-6.63 1.02-1.36 4.96-1.56 7.43-1.54.41-1.68-1.11-2.62-1.31-.32.13-.74.27-.94.08-4.54-4.33-8.88-8.82-12.07-14.29 2.42-2.03 5.38-.19 8.24-1.08-.88-2.35-6.88-1.08-4.08-5.7z" fill="#cb6e29"/><path class="st139" d="M195.71 176.05c-1.1-2.69-2.19-5.39-3.29-8.08 3.7 1.63 3.48 4.86 3.29 8.08z"/><path d="M176.73 186.86c-2.03-.85-3.14-2.2-2.98-4.58.1-1.45-.15-2.96-.5-4.39-.27-1.09-.77-2.43-2.08-2.53-1.6-.12-1.48 1.56-1.85 2.52-.67 1.79-.58 3.96-3.23 4.36-4.48.69-5.63 3.37-4.17 7.44l-.41.01c-1.95.33-3.44-.27-4.27-2.15-.13-.5-.15-1-.08-1.51.76-1.72.94-3.42.26-5.26-.75-2.02-.44-4.22 1.25-5.46 3.33-2.44 7.37-4.26 11.27-4.54 3.35-.24 5.44 3.2 6.16 6.67.5 2.42 0 4.95.71 7.36l.02.02c-.03.69-.06 1.37-.1 2.04z" fill="#f9c467"/><path class="st141" d="M176.81 184.81c-2.35-1.06-2.28-3.26-1.91-5.12.66-3.36-1.7-5.08-3.32-7.24-.28-.38-.75-.91-1.1-.89-3.19.18-5.14 3.13-8.53 3.47-4.46.44-4.36 3.62-2.58 6.95 1.14 2.13-.76 3.31-1.58 4.83-.49.21-1.29.16-1.32-.16-.41-4.25-3.52-7.07-5.43-10.52-1.14-2.06-1.06-3.87 1.85-4.33 1.51-.24 2.73-1.13 4.02-1.86 2.72.02 5.23.42 4.14-4.09-.91-3.78 2.57-2.71 4.68-2.84.49.12.86.4 1.09.85 5.57 3.51 8.5 9.47 12.94 14.02.35 2.87-1.6 4.77-2.95 6.93z"/><path d="M157.88 187.78c1.21.64 2.43 1.29 3.64 1.93-3.91 3.32-8.32.24-12.43.96-5.26-1.76-11.16-.82-16.14-3.77 3.11-4.49 6.42-8.79 11.03-11.89 3.51.63 3.56 3.95 4.06 6.22 1.04 4.67 3.47 6.44 8.04 5.83.6-.11 1.28.26 1.8.72z" fill="#bd692c"/><path d="M157.88 187.78c-1.29.26-2.69.98-3.85.7-2.71-.63-6.8.91-6.49-4.83.15-2.81-2.3-5.77-3.57-8.65 2.06-2.41 4.3-4.47 7.81-4.2 1.71-.29 3.42-.57 5.13-.86-.73.66-1.36 1.69-2.2 1.9-5.05 1.32-2.79 5.2-1.11 6.19 3.56 2.1 4.29 4.37 3.1 7.91-.05.15.72.58 1.1.87.06.32.08.64.08.97z" fill="#d88333"/><path d="M166.82 163.85c-.36-.28-.73-.57-1.09-.85.04-.3.05-.61.03-.91 3.35-1.64 3.29-5.48 5.2-8.04-.02.95-.04 1.89-.06 2.84-.39 3.12 1.78 2.96 3.84 3.03 1.69.06 2.98.77 2.88 2.68-.11 1.98-1.73 1.33-2.95 1.64-2.71.66-5.21-.93-7.85-.39z" fill="#a34f24"/><path d="M117.79 170.74c-.26.04-.53.09-.79.15-2.45 1.69-4.44 3.65-4.14 6.98-5.48-5.36-5.8-9.72-1.07-14.28.44-.42 1.01-1.08.97-1.58-.54-6.06 1.51-12.09.19-18.15 1.46.12 2.89.7 2.37 2.34-1.46 4.67 1.34 9.08.54 13.66-1.49 1.72-1.36 3.64.56 4.5 3.67 1.66 2.58 3.91 1.37 6.38z" fill="#fccc74"/><path d="M102.83 159.88c-1.48-1.32-1.84-3.06-1.85-4.92-.04-.36-.08-.72-.11-1.08-1.32-4.52 1.56-6.42 4.98-7.99.21 2.31.39 4.9-1.35 6.48-2.52 2.27-2 4.82-1.67 7.51z" fill="#f4bd73"/></svg>