<?xml version="1.0" encoding="utf-8"?>
<!-- Generator: Adobe Illustrator 25.2.1, SVG Export Plug-In . SVG Version: 6.00 Build 0)  -->
<svg version="1.1" id="Layer_1" xmlns="http://www.w3.org/2000/svg" xmlns:xlink="http://www.w3.org/1999/xlink" x="0px" y="0px"
	 viewBox="0 0 500.5 349.8" style="enable-background:new 0 0 500.5 349.8;" xml:space="preserve">
<style type="text/css">
	.st0{fill:#9B3320;}
	.st1{fill:#9A3320;}
	.st2{fill:#D0572A;}
	.st3{fill:#BD3E27;}
	.st4{fill:#E59A25;}
	.st5{fill:#994627;}
	.st6{fill:#FECC4A;}
	.st7{fill:#CF572A;}
	.st8{fill:#FBB64C;}
	.st9{fill:#B73A26;}
	.st10{fill:#FBB74C;}
	.st11{fill:#FDCB4C;}
	.st12{fill:#7B1F16;}
	.st13{fill:#97C649;}
	.st14{fill:#A85134;}
	.st15{fill:#9C4933;}
	.st16{fill:#FBB54E;}
	.st17{fill:#9B3421;}
	.st18{fill:#983521;}
	.st19{fill:#9A3823;}
	.st20{fill:#88251B;}
	.st21{fill:#9B3321;}
	.st22{fill:#973722;}
	.st23{fill:#B53926;}
	.st24{fill:#FECC4B;}
	.st25{fill:#E69A25;}
	.st26{fill:#FAB94F;}
	.st27{fill:#C3664D;}
	.st28{fill:#FCB74B;}
	.st29{fill:#E17229;}
	.st30{fill:#E89024;}
	.st31{fill:#A92923;}
	.st32{fill:#B43926;}
	.st33{fill:#4B1D0D;}
	.st34{fill:#FAB54D;}
	.st35{fill:#9E2521;}
	.st36{fill:#CE582A;}
	.st37{fill:#65290F;}
	.st38{fill:#8F2C1D;}
	.st39{fill:#FBB54B;}
	.st40{fill:#C86028;}
	.st41{fill:#FDDE65;}
	.st42{fill:#E7862A;}
	.st43{fill:#FDCC4B;}
	.st44{fill:#96C84D;}
	.st45{fill:#94C64C;}
	.st46{fill:#97C751;}
	.st47{fill:#75A140;}
	.st48{fill:#739D40;}
	.st49{fill:#9CC74D;}
	.st50{fill:#76A140;}
	.st51{fill:#739E40;}
	.st52{fill:#A1C44C;}
	.st53{fill:#A6C64A;}
	.st54{fill:#78A140;}
	.st55{fill:#78A340;}
	.st56{fill:#97C750;}
	.st57{fill:#77A441;}
	.st58{fill:#9FC649;}
	.st59{fill:#FBB64B;}
	.st60{fill:#BB4D28;}
	.st61{fill:#8F2F1E;}
	.st62{fill:#65280F;}
	.st63{fill:#AE3C25;}
	.st64{fill:#FCB64B;}
	.st65{fill:#8F1D1C;}
	.st66{fill:#9C2720;}
	.st67{fill:#F5B655;}
	.st68{fill:#96C74C;}
	.st69{fill:#77A140;}
	.st70{fill:#769F40;}
	.st71{fill:#74A541;}
	.st72{fill:#9BC64B;}
	.st73{fill:#76A340;}
	.st74{fill:#99C74E;}
	.st75{fill:#75A441;}
	.st76{fill:#9AC648;}
	.st77{fill:#799F3F;}
	.st78{fill:#79A03F;}
	.st79{fill:#93C454;}
	.st80{fill:#BEC851;}
	.st81{fill:#759D40;}
	.st82{fill:#B63B26;}
	.st83{fill:#A02A21;}
	.st84{fill:#CB5B28;}
	.st85{fill:#C85D28;}
	.st86{fill:#8F2B1D;}
	.st87{fill:#8D2B1D;}
	.st88{fill:#DB7232;}
	.st89{fill:#C34C27;}
	.st90{fill:#652810;}
	.st91{fill:#4B1B0D;}
	.st92{fill:#672811;}
	.st93{fill:#662910;}
	.st94{fill:#672810;}
	.st95{fill:#921C1D;}
	.st96{fill:#B03925;}
	.st97{fill:#9AC54C;}
	.st98{fill:#749D3F;}
	.st99{fill:#9DC44B;}
	.st100{fill:#C8B546;}
	.st101{fill:#72A542;}
	.st102{fill:#78A03F;}
	.st103{fill:#9BC54A;}
	.st104{fill:#92371F;}
	.st105{fill:#AB3C24;}
	.st106{fill:#92381F;}
	.st107{fill:#CE572A;}
	.st108{fill:#CC5C30;}
	.st109{fill:#DE722B;}
	.st110{fill:#9EC54D;}
	.st111{fill:#759E40;}
	.st112{fill:#6E9F41;}
	.st113{fill:#9EC54E;}
	.st114{fill:#A39C39;}
	.st115{fill:#98C851;}
	.st116{fill:#99C850;}
	.st117{fill:#73A541;}
	.st118{fill:#9FC950;}
	.st119{fill:#9DC74E;}
	.st120{fill:#79A441;}
	.st121{fill:#7AA340;}
	.st122{fill:#92361F;}
	.st123{fill:#91381F;}
	.st124{fill:#692811;}
	.st125{fill:#682811;}
	.st126{fill:#AD3B25;}
</style>
<path class="st0" d="M23,250.6l38-65.8L258.5,82.3l157.4-30.5l26-7.3L491.3,72l-41.9,59.3L291.8,328.5l-44,8.1l-28.1,2.8l-29.1-13.2
	l-6.2-45l18.5-28.9l-38.2,21.6l-32.9,20.7c0,0-11.1,6.1-14.5,8c-3.4,1.9-27.5-0.3-27.5-0.3L23,250.6z"/>
<path class="st0" d="M228.5,349.7c-8.1-2-15.1-6.2-21.9-10.9c-4.7-3.2-10.5-3.5-15.9-4.5c-3.8-0.7-7.5-1.5-10.7-3.8
	c-4.1-2.8-5.7-6.6-4.9-11.5c0.8-4.7,2.7-9.1,4.2-13.6c0.9-2.5,1.7-5.1,2.3-7.7c1.8-8.2-3.1-14.5-11.6-15.1c-0.7,0-1.4,0-2.2-0.1
	c-1.7-1.1-2.9,0.5-4.3,0.8c-0.7,0.1-1.5,0.6-1.9-0.2c-0.4-0.8,0.3-1.4,0.9-1.8c1.9-1.1,3.8-2.1,5.8-2.9c5.1-1.9,8.9-5.4,12.2-9.7
	c0.6-0.8,1.6-1.7,1-2.7c-1-1.9-2.4-3.5-1.3-6c0.3-0.7-1.9-0.5-2.1-1.8c0-0.6,0.3-1.2,0.7-1.6c2.4-3.2,6.9-4.2,8.6-8.1
	c0.2-0.5,1.1-0.4,1.6,0.1c-0.7,3.4-0.7,7.1-2.8,10.1c-0.8,1.1-0.6,1.8,0.4,2.5c0.7,0.5,1.4,1.1,1.5,1.9c0.2,5.2,3.3,9.6,3.5,14.8
	c0,1.2-0.3,2.2-0.8,3.2c-4.3,4.2-3.9,9.2-2.6,14.4c0.8,3,0.9,5.8,0.4,8.9c-0.7,4-0.5,8,0.4,12c0.8,3.1,2.6,5.3,5.9,6.1
	c4.8,1.3,9.6,2.4,14.2,4.2c3,1.2,5.9,2.5,8.4,4.5c4.3,3.4,9.1,5.5,14.7,5.8c3.2,0.2,6.2,1.3,9.5,1.1c2.2-0.1,4.5-0.4,6.2-1.8
	c4-3.1,8.6-4.4,13.4-5.3c4.4-0.9,8.6-2.2,12.6-4.1c3.5-1.6,7.1-2.9,10.8-3.7c1.9-0.4,3.1-1.4,3.2-3.5c0.1-2.7,2.1-4.4,3.7-6.3
	c2.6-2.9,5.7-5.4,8.1-8.5c0.8-1.1,1.8-2,2.8-3c4.4-4.1,8.3-8.8,13.1-12.5c2.4-2.7,4.8-5.4,7.4-7.9c0.8-0.8,1.5-1.7,2.7-2
	c0.3,0,0.6,0,0.9,0.1c1.7,1.3,2.3,3.6,4.2,4.7c0.2,0.2,0.4,0.4,0.5,0.6c0.5,1.7,1.9,1.6,3.2,1.8c4.3,2.1,8.8,1.7,13.3,1.6
	c1.6-0.1,2.9-0.9,4.3-1.6c5.7-3,10.5-7.2,15.3-11.4c4.2-4.4,9-8.2,13.6-12.2c4.1-2,8.5-3.2,12.7-4.8c6.5-2.6,13.1-5.1,19.6-7.8
	c5.4-2.2,11.2-2.7,17-3.4c18.1-2.2,30.2-13.2,40.3-27.1c3-4.2,3.8-9.1,1.7-14.1c-0.3-0.8-0.6-1.6-0.4-2.4c0.3-1.3,0.9-2.5,1.5-3.7
	c3.3-6.3,3.6-12.8,1.8-19.5c-0.7-2.8-1.4-5.6-2.1-8.4c-2.2-9.6-0.5-18.6,4.8-26.9c1.5-2.3,3.3-4.5,5-6.7c1-1.3,1.9-2.7,2.4-4.3
	c1.4-4.4-1.2-9-5.7-9.9c-2.6-0.5-5.1-0.3-7.7,0.3c-1.6,0.4-3.1,1.1-4.8,0.8c-0.4-0.2-0.7-0.5-0.6-0.9c0.2-2.2,4.5-6.7,7-7.4
	c3.5,1.2,7.1,2,10.4,3.7c6.4,3.3,8.6,8.5,6.8,15.5c-1.4,5-4.7,8.6-7.7,12.6c-1.3,1.7-2.6,3.4-3.8,5.3c-2.8,4.3-3.2,8.9-1.6,13.6
	c0.5,1.6,1.1,3.1,1.8,4.6c4.1,8.6,4.1,17.3,0.3,26c-2.3,5.1-3.8,10.5-3.8,16.1c-0.1,11.1-5.6,19.1-14.5,24.8
	c-12.5,8-25.8,14.1-40.4,17.4c-11.3,2.6-22.2,6.2-33.1,10.2c-7,2.6-12.4,6.8-17.1,12.3c-0.6,0.7-1.2,1.4-1.8,2.1
	c-7.3,9.4-16.7,14.2-28.7,13.4c-2.6-0.2-5.1,0.3-7.7,0.4c-6.5,0.5-12,3-16.7,7.8c-6.1,6.2-10.6,13.4-14.8,20.9
	c-2.1,3.8-4.5,7.4-7.4,10.7c-4.6,5.1-10.2,7.3-17,6.2c-10.2-1.7-19.7,0.3-28.8,4.7c-3.8,1.9-7.9,2.9-11.9,4.2
	C233.5,349.7,231,349.7,228.5,349.7L228.5,349.7z"/>
<path class="st1" d="M153.4,289.6c-3.2,2.9-6.6,5.7-9.4,9c-2.3,2.8-4.7,5.8-5.1,9.4c-1.1,9.3-14.7,14.9-21.8,12.4
	c-11.5-4.2-22.9-3.3-34.3,0.3c-1.3,0.4-2.6,0.7-3.9,1.1c-6.8,1.8-12.6,0.5-16.8-5.4c-5.4-7.5-12.8-12-21.2-15.3
	c-7.6-2.9-12.7-7.9-13.2-16.6c-0.4-6.6-4-11.5-8.5-16c-3.7-3.6-7.8-6.8-11-10.9c-1.8-2.2-3.2-4.7-4.8-7.1v-6.8
	c1.5-0.1,1.5,1.2,1.8,2.1c1.8,5.1,5.3,8.2,10.5,9.5c0.5,0.1,1,0.3,1.5,0.4c13.6,4,10.4,2.7,22.2,12.5c0.2-0.8-0.1-1.6,0.6-2.2
	c2.2,0.5,1.3,2.3,1.4,3.5c0.5,5.5,2.1,10.5,5.6,14.8c2.3,2.8,5.5,4.4,8.5,6.1c2.4,1.3,4.2,3,5.2,5.5c1.4,3.5,3.6,6.2,7.3,7.5
	c2,0.8,3.7,2.2,5.2,3.8c2,2.2,2.5,2.2,4.7,0.1c1.2-1.1,2.4-2.3,3.5-3.5c2.5-2.8,5.4-3.1,8.7-1.5c3.6,1.8,6.9,4.2,10.3,6.4
	c2.2,1.4,4.4,2.2,6.8,2.8c2.9,0.8,5.6,0.2,7.3-2.5c2.8-4.6,6.7-5.4,11.5-3.4c1.1,0.4,2.2,0.7,3.3,0.9c4,0.5,7.1-2.2,7.3-6.1
	c0.1-1.2,0.1-2.5,0-3.7c-0.1-2.4,0.7-4,3-4.8c3.6-1.8,6.9-4.1,10.2-6.4c1.3-0.9,2.4-2.3,4.2-2.4c0.2,0,0.4,0,0.6,0.1
	c1.1,0.6,2.9,0.6,3.2,1.9c0.4,1.6-1.6,1.8-2.5,2.6C154.5,288.1,153.8,288.7,153.4,289.6L153.4,289.6z"/>
<path class="st2" d="M39.9,266c-0.2,0.9,0.2,1.8-0.5,2.8c-3.2-1.6-5.8-4.2-8.4-6.5c-4.2-3.7-9.4-4.6-14.4-5.8
	c-6.7-1.7-11.2-5.3-12.9-12.1c-0.1-0.3-0.4-0.5-0.5-0.7v-5c0.9-6.2,4.9-10.5,9.3-14.6c8.8-6.6,18.4-11.8,28.8-15.5
	c0.3-0.1,0.6-0.1,0.9-0.2c1.3,1.3,0.3,2.5-0.3,3.6c-1.8,3.7-3.5,7.4-4.6,11.4c-1.2,4.3-1.2,8.5-0.8,12.8c0.2,2.2,0.8,4.5,2.7,6
	c1.1,0.9,1.4,2.2,1.5,3.6c0.2,4.5-1,8.9-0.6,13.5c0.1,1.3,0,2.7,0.4,4C40.6,264.3,40.7,265.2,39.9,266L39.9,266z"/>
<path class="st3" d="M284.3,0.4c7.8,3,12.1,9.2,15,16.6c1.2,3.2,2.7,6.2,4.9,8.9c2.2,1,3.5,3.2,5.6,4.5c2.7,2.3,5.4,4.5,7.2,7.5
	c3.6,6.2,9,10,15.8,12.1c1.8,0.6,3.5,1.3,5.2,2c4.5,1.7,8.6,4.1,11.4,8.3c0.8,1.2,1.6,2.4,1.2,3.9c-1.3,2.1-3.1,3.7-5.6,4.2
	c-5.7-0.3-11.4,0.1-17-0.8c-1.9-0.3-3.7-0.7-5.3-1.7c-2.3-1.3-2.5-2.5-0.4-4.2c0.9-0.8,2-1.5,2.8-2.5c2.2-2.7,1.4-5.2-2-6
	c-8.1-1.9-8.1-1.9-9.4-10c-0.3-1.6-0.2-3.3-1.2-4.8c-0.9-1.3-2-2.1-3.7-1.7c-1.7,0.5-1.7,1.9-1.5,3.3c0.7,4.1-0.2,8-1.2,12
	c-0.9,3.4-2.1,4.2-5.4,3.2c-2.5-0.8-2.8,0.4-3.1,2.3c-1.4,10.7-3,21.4-5.6,32c-0.5,2.2-1.5,4.3-1.7,6.6c-0.1,1.2-0.7,2.4-2.2,2.6
	c-3-2.3-2.9-5.7-3.3-8.9c-0.7-6.4,1.1-12.3,4-17.9c1.6-3.1,2.3-6.4,3.1-9.7c0.6-2.5,0.1-4.9-1.9-6.8c-0.7-0.6-1.5-1.2-1.6-2.2
	c1.2-2.3,3.4-1.5,5.2-1.3c3.3,0.2,3.9,0,4-3.3c0.3-8.8,0.7-17.6-2.9-26.2c-3.9-9.1-13.2-15.5-23.2-14.9c-1.3,0.1-3.1,1.1-4-0.9
	c3.1-3.6,7.7-4.6,11.9-6.2C281,0.4,282.7,0.4,284.3,0.4z"/>
<path class="st4" d="M448.9,45c12,1,23.3,4.8,34.5,9c2.6,1,5.2,1.9,7.8,2.9c3.1,1.2,6,2.7,8.5,4.9v9.9c-3.4,4.9-5.9,10.4-9.9,14.9
	c-2.3,0.2-2.8-1.9-3.9-3.2c-0.1-0.7,0.1-1.2,0.4-1.8c0.8-2.1,0.9-4.2,0.9-6.4c-0.1-6.1-3.5-9.7-9.6-10.1c-2.6-0.2-5.1-0.1-7.7,0
	c-0.8,0-1.6,0.2-2.4,0c-7.3-5.8-15-10.9-22.9-15.7c-1.2-0.7-2.5-1-3.6-1.7c-1.2-0.7-2.8-1.2-2-3.2h3.2
	C444.2,45.2,446.6,44.4,448.9,45z"/>
<path class="st5" d="M12.6,224.1c-0.9,2.3-3.2,3.5-4.6,5.3c-2.3,2.8-3.1,6.2-4.7,9.3V235C5.7,230.8,7.9,226.4,12.6,224.1z"/>
<path class="st6" d="M159.8,89.7c8.1-6.2,15.1-13.6,22.6-20.5c0.4-0.4,0.9-0.8,1.4-1.2c7-4.4,14.9-7,22.4-10.4
	c3.9-1.8,7.3-4.3,10.5-7.1c3.7-3.2,7.4-6.3,12.2-7.8c0.3-0.1,0.7-0.2,0.8-0.4c2.3-3.8,6.8-3.8,10.1-5.8c3.3-0.3,5,0.8,6.3,4.1
	c1.5,3.6,2.1,7.5,3.4,11.2c1,2.9,2.2,5.5,4.8,7.4c2.6,1.8,5.1,2.1,8.1,1.1c3.7-1.3,6.6-4.3,10.5-5.1c1.5,1.5,1.3,2.8-0.8,4.2
	c-2,1.4-4.3,2.4-6.6,3.4c-4.4,2-8.3,4.9-11.9,8.1c-1,0.9-1.2,1.8-0.2,2.9c0.4,0.4,0.8,1,0.5,1.7c-1.7,1.1-4.1,0.3-5.5,2.2
	c-1,1.3-1.1,2.6-0.3,4.2c0.9,1.8,1.4,3.8,1,5.8c-0.9,0.8-1.8,1.5-1.9,2.9c-0.4,4.9-2.4,9-6.1,12.2c-1,0.8-0.9,2-1.4,3
	c-1.9,0.8-2.1-1.7-3.6-1.7c-1.4-0.1-2.7-0.1-4,0.4c-1,0.4-1.6,0.9-1.2,2.1c1.5,3.7,0.1,7.3-0.5,11c-2.3-0.7-1.4-2.7-1.4-4.1
	c0-2.3-0.8-2.6-2.8-1.9c-8.2,3.1-16.1,7.1-24.1,10.5c-4.8,2-7.4,5.7-6.9,11.2c0.2,2.9-0.2,5.8-2.2,8.2c-1.8,0.7-3.6,0.6-5.4,0.2
	c-0.2-0.1-0.4-0.2-0.5-0.3c-0.9-0.6-0.9-2.7-2.2-2.2c-1.5,0.5,0.2,1.7,0.1,2.6c-0.1,0.9-0.4,1.6-1.2,2c-0.8,0.4-1.7,0.3-2.3-0.4
	c-1.3-1.4-2.9-2.3-4.4-3.4c-2.5-1.8-5.1-1.7-7.1,0.6c-1.3,1.6-3.1,1.5-4.7,1.9c-1.1,1.3-2.8,0.6-4.1,1.2c-0.8,0.7-1.5,1.5-1.9,2.4
	c-0.7,1.4-0.8,2.6,0.9,3.3c1.6,0.6,2.1,1.9,2.8,3.2c0.9,2.8-0.1,4.7-3,5.6c-0.8,0.2-1.6,0.2-2.4,0.3c-0.8,0.1-1.6-0.2-2.4,0.2
	c7.1-0.2,11.8,6,9.5,12.5c-0.7,2.1-2.6,3.2-4.6,2.7c-2.4-0.6-1.8-2.4-1.4-4.2c-1.8,0.5-3.4,0.7-4.9,1c-1.3,0.2-2.5,0.2-3.5-0.8
	c-0.7-0.7-1.5-1-2.5-1c-2.6,0.1-3.9-1.5-4.4-3.9c-1.1-5-4.1-6.9-9-5.6c-1.7,0.5-3.6,0.9-5-0.5c-1.5-1.5-0.7-3.3-0.2-4.9
	c0.2-0.6,0.5-1.1,0.7-1.7c1.4-3.5,1-4.4-2.7-5.6c-0.3-0.1-0.6-0.2-0.9-0.3c-1.5-0.5-2.1-1.6-1.6-3.1c0.6-1.7,0.6-3.6,2.1-5
	c8.1-1.6,16.3-3.3,24.3,0.1c3.7,1.6,6.8,0.8,9.9-1.1c1.2-0.8,2.5-1.4,3.6-2.4c0.3-0.4,0.6-0.8,0.9-1.1c0.2-0.2,0.5-0.4,0.8-0.4
	c5.9-0.5,11.9-1,17.1-4.5c2-1.3,2.8-2.8,2.4-5.1c-0.6-3.5-1.1-7,0.9-10.2c1.1-1.8,2.1-3.6,4.2-4.4c1.6-0.1,2.2,1.3,3,2.3
	c1.7,1.9,3,4.3,5.3,5.7c1.3-3.2,2.4-6.5,1.4-10.1c-0.5-1-0.5-2.1,0.2-2.9c3.8-4.7,4.7-10.6,7.4-15.8c1.4-2.9,2.5-6.1,5.6-7.9
	c1.9-0.6,3.4,0.1,5.1,1.2c2.5,1.6,4.9,3.7,8.3,3.4c1.2-0.1,2.5-0.1,3.4-1c0.9-5.8-0.3-7.8-5.8-9.1c-2.2-0.5-4.3-1.3-6.4-1.9
	c-2.9-0.6-3.7-2.5-3.7-5.3c0-4.4-1.1-5.1-5.4-4.2c-2.6,0.5-5.1,1.4-7.8,1.9c-2.5,0.5-4,1.8-5,4c-0.9,2-1.7,4.3-4.3,4.8
	c-1.6,0.1-3,0.5-3.2,2.4c-0.2,1.5-1.2,2.3-2.6,2.7c-5,2.5-9.6,5.5-12.1,10.8c-1.5,3.1-2.6,6.4-4,9.6c-0.6,1.4-1.1,2.9-3,3.2
	c-1.2-0.5-2.4-1-2.2-2.6c0.2-0.4,0.5-0.7,0.8-0.9c1.2-0.7,1.7-1.6,1.3-3.1c-0.5-1.8-1.9-1.6-3.2-1.4
	C162.1,93.5,161.8,90.9,159.8,89.7L159.8,89.7z"/>
<path class="st7" d="M45.4,204.5c0.6-0.8,1.1-1.6,1.7-2.5c5.3-6.7,10.5-13.5,16.8-19.3c2.9-3,6-5.9,8.8-8.9
	c6.3-5.6,12.6-11.3,18.8-16.9c1-0.9,2-1.8,3-2.7c1.2,0.4,0.7,1.4,0.4,2c-0.8,1.8-0.9,3.8-1,5.7c-1.6,4.1-5.5,5.7-8.8,7.8
	c-3,1.8-5.9,3.7-8.3,6.4c-1.2,1.3-2.3,2.9-1.5,4.7c0.8,1.8,2.6,1.8,4.3,1.9c9.7,0.3,19.3-1.1,28.9-2.8c4-0.7,7.2-3.2,10.3-5.4
	c7.1-5,14.8-7.1,23.4-5.7c0.5,0.2,0.9,0.5,1.1,0.9c0.6,1.7,0.8,3.6,1.3,5.4c1.1,4.5,3.8,7.4,8.4,8.3c1.1,0.2,2.2,0.4,3.1,1.2
	c1.2,1.6,0.1,3.9,2.1,5.5c0-2.1-1.8-4.2,0.4-5.8c2.9-1,5.9-1.6,9-1.6c1.4,1.2,1,2.8,0.7,4.3c-0.4,1.6-0.8,3.2-2.9,1.2
	c-1.2-1.2-3.2-0.4-4.8-0.9c-0.5,1.7,2,2.7,0.8,4.4c-2,1.4-4,1.2-6.1,0.4c-1-4.9-4.5-4.9-8.6-5c-14.3-0.4-28.4,1.8-42.5,3.5
	c-11.4,1.3-22.8,2.6-33.9,5.7c-7.5,2.1-14.8,4.4-21.7,8.2C47.6,204.7,46.6,205.4,45.4,204.5L45.4,204.5z M267.5,6.6
	c3.2,0.8,6.5-0.4,9.9,0.5c8.2,2.1,14.2,6.4,17.8,14.3c4.3,9.6,3.9,19.6,2.9,29.7c-0.2,2.5-1.6,2.3-3.2,2c-2.1-0.4-4.2-1-6.2,0.2
	c-0.8,0.4-1.5,0.1-2.3,0c-2.5-0.8-5-0.2-7.4,0c-1.5-0.1-2.1-1-1.6-2.3c1.8-4.3,2.1-9,3.3-13.5c0.9-3.6,3.7-5.7,6.6-6.9
	c5.9-2.5,5.1-9.7,0.7-12.8c-4.2-3-8.8-4.6-13.8-5.1c-2.7-0.2-5.3,0.6-7.6,2.2c-2.2,1.5-4.4,3.2-6,5.4c-3.4,4.5-7.5,8-12.8,9.9
	c-4.2,1.5-6.7,5-10.1,7.5c-1.5,0.3-2.9,0.8-4.4,0.9c-0.9,0.1-2,0.6-2.6-0.7c3.9-3.9,8.5-6.8,12.4-10.6c4.4-4.2,8.4-8.8,12.4-13.4
	c2.5-2.8,5.2-4.9,8.9-5.7C265.6,7.8,266.6,7.2,267.5,6.6L267.5,6.6z"/>
<path class="st8" d="M93.3,161.7c-0.6-2.7,0.9-5,1.2-7.6c9.9-12,19.1-24.8,30.8-35.2c8.4-7.5,16.9-15.1,25.9-21.9
	c1-0.7,1.5-2.1,2.8-2.3c2.2,1.1,1.7,3.1,0.7,4.2c-5.2,5.7-9.7,11.8-13.6,18.4c-3.9,4.2-7.8,8.4-12.2,12.1c-2.2,1.6-3.4,3.7-3.3,6.6
	c0,2.8-2.2,4.3-4,6c-6.2,6.3-13.3,11.6-20.5,16.7c-2.2,1.6-4,4.1-7,4.6C93.4,163,93.7,162.2,93.3,161.7z"/>
<path class="st9" d="M45.4,204.5c2.8-0.2,4.7-2.3,7.2-3.4c12.8-5.7,26.3-8.4,40.1-10.4c10.2-1.5,20.6-2.4,30.8-4
	c9.2-1.4,18.7-1,28.1-0.9c4.2,0.1,3.2,3.1,3.6,5.5c-1.1,1.3-2.6,0.9-4,1c-2.4,0.2-4.9-0.3-7.3,0.6c-6.6-0.9-13.2,0.6-19.8,0.1
	c-3.6,0.1-7.2-0.3-10.7,0.3c-0.3,0.1-0.7,0.2-1,0.2c-2.4,0.3-4.8-0.2-7.2,0.4c-1.5,0.4-2.9,0.9-4.4,0.9c-13.7,1.3-27.3,3-39.7,9.6
	c-10.4,5.6-17.5,13.9-19.8,25.9c-0.2,1.2-0.4,2.4-0.8,3.6c-0.3,0.9-0.6,2-2.1,1.6c-0.8-1.1-0.7-2.3-0.7-3.5c0-6.9,0.8-13.7,3.9-20
	c0.6-1.2,1.2-2.4,1.2-3.8C43.7,207,44.6,205.7,45.4,204.5L45.4,204.5z"/>
<path class="st10" d="M230.7,37.7c2.4-0.2,4.7-0.5,7.1-0.8c0.7-0.3,1.3-0.5,1.9,0.1c-1.9,1.2-3.6,2.7-6.1,2.5
	c-0.7,0-1.3,0.1-1.5,0.8c-0.7,2.5-2.8,2.8-4.9,3.6c-3.2,1.3-6.2,3.4-8.7,5.8c-5.2,4.9-11.1,8.3-17.7,10.9
	c-5.5,2.2-11.1,4.3-16.1,7.7c-0.4,0.3-0.8-0.1-1-0.4c6-6.4,12.9-11.8,19.8-17C211.7,44.7,220.7,40.2,230.7,37.7L230.7,37.7z"/>
<path class="st11" d="M140.4,117.1c3.1-6.5,8.2-11.6,12.2-17.5c1.2-1.8,2.7-2.6,1.4-4.8c1.4-1.6,3-2.9,5-3.8c1.3,1.6,0.8,3.3,0.5,5
	c-0.3,2.1-0.8,4.2-0.9,6.4c0.9,1.7,1.6,0.1,2.3-0.1c1.4-0.4,2.3-2.3,4.2-1.7c0.1,1.2,1.6,1.2,1.9,2.3c-0.1,3.6-3.3,4.8-5.4,6.7
	c-2.2,2.2-5.2,3.3-8.4,3.4c-3.7,0.1-7,1.7-10.1,3.5C142.3,116.9,141.5,117.9,140.4,117.1L140.4,117.1z"/>
<path class="st12" d="M42.8,208.2c0.7,1.2-0.1,2.1-0.5,3.1c-3.1,7.8-4,15.9-3.7,24.1c1.6,0.6,1.9,2,2.4,3.3c0.4,1.1,1.2,1.9,2,2.6
	c1.1,1,1.4,2.1,0.8,3.5c-1.2,1.1-2.3,2.7-3.9,0.6c-0.3-1.2-0.8-2.1-1.9-3.1c-2-1.8-2.3-4.7-2.5-7.4c-0.6-8.1,1.6-15.6,5.3-22.7
	c0.6-1.2,1.8-2.3,1.4-3.9C42.4,208.4,42.6,208.3,42.8,208.2z"/>
<path class="st13" d="M157.9,103.4c-0.6-4.2,1.6-8.2,1.1-12.5c0.2-0.4,0.5-0.9,0.8-1.3c3.4,0.1,2.9,3.4,4.2,5.2
	C162.7,98.2,161.8,101.8,157.9,103.4z"/>
<path class="st14" d="M64.1,182.9c-5.5,5.9-11,11.8-15.7,18.4c-0.3,0.4-0.8,0.5-1.3,0.8c4.4-7.2,10-13.4,16.1-19.3
	C63.5,182.5,63.8,182.6,64.1,182.9L64.1,182.9z"/>
<path class="st15" d="M64.1,182.9c-0.3,0-0.6-0.1-0.9-0.1c2.9-3.2,6-6.3,9.5-9C70.5,177.5,67.1,179.9,64.1,182.9L64.1,182.9z"/>
<path class="st16" d="M486,83.6c1.7,0.4,2.1,2.5,3.7,3.1c4.1,5.2,0.6,8.9-2.5,12.7c-4.1,5-8.2,10.1-12.3,15.1
	c-0.6,0.8-1.5,1.5-1.4,2.7c-3,2-4.8,5.1-6.8,7.9c-0.1,1.1-1,1.9-1.5,2.8c-0.4,0.6-0.9,1.2-1.5,1.5c-1.4,0.7-2.3,0.4-2.2-1.2
	c0.2-2.2-0.1-4.3-0.4-6.4c1.1-4.3,4-7.6,6.8-10.9c2-2.3,3.9-4.8,6.1-7c4.8-4.9,6.5-11.6,9.9-17.4C484.5,85.5,484.8,84.2,486,83.6
	L486,83.6z"/>
<path class="st17" d="M360.6,307.5c-4,0-7.3-2.9-7.4-6.5c-0.1-3.8,3.4-7.5,7.2-7.5c4,0,7.5,3.1,7.6,6.7
	C368.1,303.9,364.5,307.5,360.6,307.5z"/>
<path class="st18" d="M391.8,273.3c0.4,2.6-1.3,3.3-3.5,3.3c-2,0-4.1-0.1-4.1-2.9c0.1-2,1-3.7,3.1-4
	C389.2,269.4,391.7,271.5,391.8,273.3z"/>
<path class="st19" d="M402.8,271.3c-2.6,0.4-3.4-0.6-3.3-2.5c0-2.5,1.4-3.8,4.4-4c1.8-0.1,3.8,2,3.4,4
	C406.7,271.4,404.1,270.9,402.8,271.3L402.8,271.3z"/>
<path class="st20" d="M153.4,289.6c0-2.6,2.9-2.7,4.1-4.7c-1.4-0.3-2.5-0.8-3.5-1.6c0-2.2,1.9-3,3.3-4.2c6.1-5,10.8-11.3,16.4-16.8
	c0.4-0.4,0.4-0.9,0.5-1.4c0.1-0.3,0.2-0.6,0.3-0.8c1.1-1.1,2-2.4,3.9-1.5c0.6,0.2,1.2,0.6,1.7,0.5c2.1-0.5,2,0.2,1,1.6
	c-1,1.3-1,2.6,0.4,3.8c1.6,1.3,1.4,2.5,0.3,4.2c-4.3,6.5-10.8,9.8-17.6,12.7c-0.9,0.4-1.8,0.6-2.1,1.8c1.6,0.2,2.7-1,4-1.3
	c0.7-0.2,2.1-1.5,1.9,0.8C162.4,283.8,157.8,286.5,153.4,289.6L153.4,289.6z"/>
<path class="st21" d="M167.3,301.4c-2.9-0.1-5.6-0.7-7-3.5c-0.9-2-0.6-4,0.9-5.8c3-3.5,11.7-2.6,13.9,1.5c1.4,2.5-0.2,5.8-3.6,7
	C170.2,301.1,168.8,301.5,167.3,301.4L167.3,301.4z"/>
<path class="st22" d="M147.7,307.9c-1.5,0.1-2.6-0.5-2.5-2.6c0.1-2.5,1.8-3.8,4.8-4c3.2-0.2,2.1,2.8,3,4.1
	C153.7,306.3,150.6,307.9,147.7,307.9z"/>
<path class="st23" d="M461.7,121.4c0.5,2.6,1.3,5.1-0.1,7.9c2-0.1,2.4-1.6,3.3-2.3c3.4-1.5,7-1.8,10.6-1.3c3,0.4,4.6,2.8,4.3,5.8
	c-0.1,1-0.3,2.1-0.9,2.9c-5.9,7.7-8.4,17.5-15.4,24.5c-3.6,3.6-4.1,8.6-4.6,13.5c-0.1,1.4,0.2,3-1.7,3.5c-4.5-0.4-8.6,0.5-11.6,4.3
	c-0.4,0.6-1,1.1-1.8,0.8c-0.4-5.1,1.2-9.7,3.9-13.9c3.1-5.1,7.3-9.1,11.1-13.6c4-4.8,6.1-10.2,5.4-16.5c-0.1-0.9-0.2-1.8-0.4-2.7
	c-0.6-2.2-1.7-2.4-3.2-0.8c-6,7.4-12.4,14.6-18.6,21.9c-5.9,7-11.9,14-18,20.8c-2.2,2.4-3.9,5.1-5.5,7.9
	c-4.6,8.4-10.9,15.5-17.3,22.5c-6.5,7.1-13,14.1-19.4,21.2c-4.8,5.3-9.6,10.5-14.5,15.7c-9.3,9.9-18.9,19.7-28.5,29.2
	c-2.4,1.8-4.5,3.9-6.7,6c-1.5,1.4-3.1,2.8-5.4,1.6c-0.2,0-0.5,0-0.7,0c-2.8-1.8-2.1-4.5-1.6-7c0.5-2.5,1.7-4.9,2.3-7.4
	c1.1-5.1-0.4-7.9-5.3-9.1c-9.5-2.1-13-9.2-13.9-16.9c-0.6-4.7-0.1-9.2,2.4-13.5c2.9-5.1,7.5-7.2,13-6.8c12.2,1,23.7-0.6,34.3-6.9
	c2.5-1.5,4.4-1.2,6.8,0.5c4,2.9,8.4,5,13.6,3.7c4.3-1.1,6.5-3.7,6.7-8.1c0.2-3.6,0.1-7.2-0.9-10.8c-0.6-2.3,0-4.2,1.9-5.8
	c7.6-6.3,14.3-13.5,21.1-20.5c6.5-6.6,12.5-13.7,16.6-22.2c1-2,2.4-3,4.7-2.4c0.8,0.2,1.6,0.2,2.5,0.1c3.6-0.3,5-1.7,4.9-5.3
	c-0.1-3.9-1.4-7.5-3.3-10.9c-2.2-4-4.1-8.1-6.1-12.2c-3.9-7.8-2.5-15.5,0.5-23.1c0.8-2,1.5-4.1,2.5-6c0.3-0.4,0.7-0.8,1.2-0.9
	c2.9-0.1,3.8-1.8,3.9-4.5c0.3-9.1,1.3-18.1,0-27.2c-1.1-7.4-2.6-14.8-5.9-21.7c-2.6-5.4-7-8.5-13-9.4c-4.8-0.8-9.6-0.8-14.5-0.5
	c-1,0-2.3,0.7-2.9-0.8c6.7-4.3,14.1-6.3,22-5.1c6.9,1,11.2,5.2,13.3,11.8c1.4,4.4,2.5,8.9,4.4,13.1c1.6,1.6,1.7,3.7,2,5.7
	c-1.3,3.5-0.9,7-0.2,10.7c1.2,7.1,2.3,14.3,1.1,21.5c-0.2,1.1-0.5,2.2,0.5,3.4c1.6-1,2-2.5,2-4.2c0.1-2.3-0.1-4.6,0.2-6.8
	c0.5-3.7,2-6.7,6-7.7c0.4,0,0.7,0.1,1,0.2c1.6,2.1,1.8,4.8,2.6,7.2c0.9,2.8,2.7,4.2,5.5,4.8c11,2.5,13.7,7.6,9.8,18.4
	c-1.4,3.8-2.6,7.6-4.2,11.3C461.4,113.1,461.1,117.2,461.7,121.4L461.7,121.4z"/>
<path class="st24" d="M369.8,48.8c0.7-0.7,1.6-0.5,2.5-0.6c0.5,0.1,0.9,0.2,1.3,0.4c2,1.2,3.4,2.9,4.5,5c3.1,5.6,5.2,11.7,6.9,17.8
	c1.2,4.5,3.2,8,8.1,9.1c0.6,0.8,0.8,1.7,0.6,2.6c-1.4,6.9-3.9,13.2-11.3,15.7c-4.4,1.5-8,3.6-10,8.1c-1,2.2-1.4,4.4-1.5,6.6
	c-0.2,4.5-0.8,9.1,0.6,13.5c-1.1,2.4-0.2,4.9-0.7,7.3c-2.3,2.1-2.9,5.2-5,7.6c-2.9,3.2-5.8,6.3-9.6,8.4c-1.1,0.6-2,1.4-2.9,2.2
	c-1.3,1.2-2.9,2-4.6,2.2c-1.1,0.2-2.1,0.2-2.1-1.4c0.4-1.9,2.2-0.9,3.2-1.6c2.2-2.6,2.2-2.8-0.1-4.8c-1.3-1.1-2.5-2.4-3.9-3.5
	c-1.7-1.4-3.6-1.9-5.7-0.8c-1,4.3-0.5,5.4,3.3,7.4c1.3,0.7,2.9,1.1,3.1,3c0.4,2.1-0.8,3.1-2.4,4.1c-4.1,2.7-8.8,3.8-13.2,5.8
	c-8.5,3.9-13,10.7-12,19.9c0.5,4.1-0.1,8.2,1.1,12.3c0.6,2-0.7,4.1-2.3,5.5c-1.5,1.4-3.3,2.7-5.3,3c-8.1,1.3-16.3,2.7-24.5,0.6
	c-0.3-0.1-0.6-0.3-0.8-0.6c-0.7-2.4-1-4.8-1.2-7.3c-0.4-4.1-2.3-6.1-6.4-6.6c-2.3-0.3-4.7-0.3-6.8,0.4c-4.6,1.6-9.4,2.4-13.9,4.3
	c-5.6,2.3-11.3,2.1-17,0.7c-1.6-0.4-3.3-0.8-4-2.6c0.1-3,3.1-7.6,5.7-8.6c0.9-0.3,1.6-0.4,2,0.5c-0.6-3.7,0.6-7,2.7-10
	c1.4-2.1,2.5-4.2,3.1-6.7c3.3-3.9,5.9-8.5,10.7-10.9c0.8,0.1,1.6,0.4,1.9,1.2c-0.1,1.7-1.2,3.1-1.6,4.7c-0.5,2,0.2,3,2.3,2.9
	c2.7-0.1,5.3-0.7,7.9-1.3c2.7-0.7,5.4-1.4,8.2-0.9c1.4,0.3,2.4,0.9,2.1,2.5c-0.8,3.6,0.9,6.1,3.5,8.3c0.4,0.3,0.7,0.8,0.9,1.3
	c0.3,4.4-0.6,8.9-0.3,13.3c0,0.5,0.2,1.1,0.9,0.6c0.8-0.5,1.5-1.1,2.2-1.6c0.3-0.3,0.7-0.5,1-0.7c1.2-0.8,2.4-1.6,3.7-2.2
	c2.3-1.2,3.3-2.7,1.7-5.1c-0.3-0.5-0.4-1.1-0.8-1.7c-1.1-0.1-1.6,1.6-2.9,1c-0.7-0.5-1-1.2-1.1-2c-0.1-0.8-0.1-1.6,0.1-2.4
	c0.1-0.5,0.4-0.9,0.7-1.4c2.3-3.7,2.2-3.5,5.7-1.5c2.8,1.6,5.7,2.9,9.1,2.6c3.5-0.3,5.4-2.8,4.4-6.3c-0.9-3.1-2.5-5.9-4-8.7
	c-1.8-3.2-2.5-6.5-0.3-9.9c1.1-1.8,3.1-2.3,4.6-3.5c4.9-2.2,7.3-6.4,8.6-11.3c4-6,8.4-7,14.8-3.1c1.8,1.1,3.5,2.2,5.1,3.5
	c1.1,0.9,2.3,1.4,3.5,1.9c3.9,1.2,5.8,0.6,8.7-3.1c0.4-0.4,0.9-0.8,1.4-1.1c1.8-1.4,2.9-2.5,0.7-4.8c-1.7-1.8-3.6-3.7-5-5.8
	c-3.2-5.3-4.7-11.2-5.3-17.3c-0.4-4.2,3.6-9.1,7.6-10.2c1-0.3,1.9-0.3,2.2,0.9c0.1,1.4-1,2.1-1.8,3c-0.7,0.9-1.5,1.6-1.5,2.8
	c3,1.3,6.1,0.7,9.2,0.4c1.9-0.2,1.9-2,0.1-3.8c-1.1-0.5-1.4-1.4-1-2.5c0.3-1,0.6-2,0.6-3c0.7-4.7,0.7-4.7-3.8-6.7
	c-4.7-2.1-6.1-4.3-6-9.6c0-1.3,0.4-2.7-0.5-3.9c-0.2-2,1.3-2.9,2.4-4c5.2-5.1,9.8-10.8,15.7-15.2C368.8,51.9,370,50.7,369.8,48.8
	L369.8,48.8z"/>
<path class="st2" d="M373.1,48.8c-0.3-0.2-0.5-0.5-0.8-0.7c0.2-0.2,0.5-0.4,0.7-0.6c2.4-2.5,5.9-3.7,7.4-7
	c4.5-4.3,7.7-10.1,13.2-13.5c1.2-0.8,2.4-1.5,3.6-2.2c3.9-0.1,7.7-0.3,11.6-0.1c2.6,0.1,5.3,0.5,7.9,1c7.9,1.7,11.5,7.6,13.9,14.7
	c3.6,10.8,4.9,21.9,4.5,33.3c-0.1,4.3-0.5,8.6-0.9,12.9c-0.2,3-2,3.6-4.5,2.7c-1.2-1.3-0.4-2.8-0.1-4.1c1.4-6.3-1.5-10.8-6-14.6
	c-2.4-2-5.2-1.9-7.8-0.1c-1.9,1.3-3.7,2.6-5.5,4c-4.1,3.1-8.5,5.4-13.6,6.3c-2.5-0.8-2.7-1.5-1.3-4c3.8-6.4,9-11.2,15.3-14.9
	c1.2-0.7,2.6-1.3,3.9-1.9c7.1-3.3,8.8-7.4,6.1-14.8c-1.5-4.2-4-7.7-7-10.8c-5.1-5.3-14.7-4-19,2.8c-2.5,4-5.8,6.5-10.3,7.8
	c-2.8,0.8-5.4,2-8,3.4C375.5,48.8,374.4,49.5,373.1,48.8z"/>
<path class="st25" d="M309.2,30.7c-2-1.3-3.6-3-5-4.8c14-1.4,27.1,1.6,39.7,7.4c4.6,2.1,9.3,4,13.8,6.3c5.2,2.7,6.4,6.9,3.9,12.2
	c-0.8,1.6-1.8,3-2.6,4.5c-1.6,4.1-4.6,6.7-8.7,8c-1-4.8-4.5-7.4-8.4-9.7c-1.3-0.8-2.7-1.4-4.1-2.1c-8-9-18.1-15.2-27.9-21.8
	C309.6,30.6,309.4,30.7,309.2,30.7z"/>
<path class="st26" d="M350.2,64.3c3.3-2.2,6.4-4.7,8.7-8c0.3,1.9,1.4,1,2.2,0.5c2.4-1.3,4-3.5,5.8-5.5c0.9-1,1.6-2.1,2.9-2.7
	c1.2,0.5,1,1,0.5,2.1c-1.2,2.3-3.5,3.5-5.3,5.1c-5.6,4.9-10.3,10.5-15.5,15.9c0.2,1.5-1,1.9-1.9,2.5c-7.1,4.6-13.6,10-19.8,15.8
	c-2.8,2.6-5.4,5.4-7.9,8.3c-7.5,8.9-15.1,17.8-22.5,26.8c-5.6,6.9-12.1,12.8-19,18.3c-4.7,3.7-9,7.8-12.6,12.7
	c-0.5,0.8-1.1,1.5-2,1.8c-0.7-0.2-1.3-0.4-2-0.7c0.1-1.7,1.3-2.8,2.3-3.9c5.5-6.1,11.1-12.1,16.8-18c3.3-3.5,6.3-7.4,9.9-10.6
	c1.6-1.1,2.1-3,3.4-4.4c5.7-4.9,10.5-10.8,15.7-16.2c5.9-6.2,11.6-12.6,17.4-18.9c4.4-4.7,8.5-9.6,13.2-13.9
	c1.4-1.3,2.8-2.8,4.8-3.3C346.8,66.9,348.5,65.6,350.2,64.3L350.2,64.3z"/>
<path class="st26" d="M0,0"/>
<path class="st27" d="M380.4,40.5c0.1,0.8,0.2,1.7-0.5,2.3c-2.2,1.8-4.3,3.5-6.9,4.7C375.3,45,377.7,42.7,380.4,40.5z"/>
<path class="st28" d="M448.9,45c-2.3,0-4.7,0.6-6.9-0.5C444.3,44.4,446.6,44.2,448.9,45z"/>
<path class="st29" d="M428.9,89.8c-0.9,4.8-3.4,9-4.5,13.7c-1.1,5.2-0.5,10.1,1.7,14.7c2.5,5.3,5.2,10.5,7.8,15.8
	c1.2,2.5,1.9,5.2,1.9,8.1c0,4.1-1.7,6.4-5.7,5.8c-4.5-0.6-6.3,1.1-8.2,4.8c-4,7.8-9.8,14.2-15.9,20.4c-6.7,6.8-13.3,13.8-20.7,20
	c-1.5,1.3-2,2.5-1.4,4.2c1,3.4,1,6.9,1.1,10.4c0.1,8.3-6,10.9-12.3,10.2c-3.9-0.4-7.3-2.2-10.2-4.7c-1.5-1.2-2.5-1.4-4.1-0.4
	c-11,6.8-23.1,8.9-35.9,7.4c-5.1-0.6-10.5,2.8-13.1,8.1c-3.4,6.9-1.3,18.6,4.3,23.9c1.7,1.6,3.7,2.8,6.2,3.2c8.6,1.7,9,6.7,6.7,13.2
	c-1.3,3.8-3.2,7.5-0.7,11.5c-3.3,3.3-6.6,6.6-9.9,9.9c-2.1,0.2-3.1,2.3-4.9,3.1c-2.4,1.2-3.1,0.9-3.3-1.8c-0.2-2.1-0.1-4.1,0-6.2
	c0.3-16.1-2.2-31.7-9.7-46.2c-3.1-6.1-4.4-12.4-2.2-19.2c0.4-1,1.2-1.2,2.1-1.3c16.5-0.4,32.5-3.7,48.1-8.9c2.1-0.7,4.2-1.6,6.3-2.5
	c0.7-0.3,1.7-0.5,1.2-1.7c-2.1-4.5-5.7-8.1-7.9-12.6c-0.3-0.6-0.8-1-0.7-1.7c1-1.6,2.8-1.6,4.3-2c7.6-2.2,15.1-4.9,22.4-7.9
	c2.7-1.1,4.9-3.5,8.1-3.7c1.6,2.8,1.4,6.1,2.4,9.1c1,3.1,0.8,3.1,3.3,1.1c9.7-7.5,17.4-16.9,24.8-26.6c3.1-4.1,6-8.4,8.9-12.6
	c1.6-2.3,1.4-3.6-0.7-5.4c-2.9-2.5-5.5-5.3-8.5-7.7c-2.5-2-5.8-2.1-8.2-4.1c-0.3-7.6-1.6-15.1-0.2-22.7
	c1.9-10.7,13.5-20.9,24.2-19.9C426.9,89,428.1,88.8,428.9,89.8L428.9,89.8z"/>
<path class="st30" d="M443.8,181c2.5-3.3,5.6-5.9,10-6c1,0,2-0.1,3,0.4c3.4,0.4,5.4,2.6,5.7,6.7c0.2,2.2,0.5,4.3,0.7,6.5
	c0.4,3.6,1.9,6.7,4.5,9.3c1.8,1.8,3.9,3.5,4.6,6.1c4.2,8,1.4,14.7-3.8,21c-7.5,9.1-16.3,16.6-27.4,21c-4.5,1.8-9.4,2.2-14.2,2.8
	c-7.7,0.9-14.8,3.5-21.8,6.4c-7.9,3.2-16,6-24,9c-3.1,1.8-6.5,1.6-9.9,1.3c-2.4-1-2.1-2.8-1.5-4.7c1.2-3.6,4.2-5.8,6.7-8.4
	c4.2-4.6,9.7-7.3,15.2-10.1c8.2-4.1,16.3-8.6,24-13.5c2.4-1.5,4.3-3.5,6.2-5.6c2.3-2.4,1.5-4.7-1.7-5.8c-1.2-0.4-2.5-0.1-3.6-0.8
	c-0.7-1.3,0.3-2.1,0.9-2.9c2.4-3.2,4.6-6.4,7.1-9.5c4.4-3.1,8.5-6.5,11.9-10.8c3-3,5.3-6.3,6-10.6C442.7,182,442.9,181.3,443.8,181
	L443.8,181z"/>
<path class="st30" d="M0,0"/>
<path class="st31" d="M178.2,258.5c-1.5,0.1-2.5,1.1-3.6,1.9c-1.6-1.8-0.4-3.5-0.1-5.3c1.7-3.6,2.9-7.4,4.4-11.2
	c0.7-1.9,0.9-4.1-1-5.7c-3-2.5-5.6-5.3-8.3-8.1c-1.2-1.2-2.3-2.6-2-4.6c4.3-5.9,10.4-9.6,16.5-13.2c6.6-3.9,14-6,21.1-8.5
	c5.9-2.1,11.2-5.1,16.1-8.9c1.2-0.9,2.5-1.8,3.8-2.7c0.4-0.2,0.8-0.1,1.2,0.2c0.5,0.9,0.9,2,1.7,2.7c0.1,0.3,0.2,0.5,0.1,0.8
	c-3.9,5-8.3,9.7-12.3,14.6c-6.2,7.6-12.4,15.1-17.8,23.4c-1.1,1.5-1.3,3.6-3.2,4.5c-2.6,1.7-2.8,4.5-3.8,7.1c-0.5,1.2-0.1,3-2.1,3.1
	c-0.2,0-0.5,0-0.6,0.1C186.2,253.3,180.8,254.5,178.2,258.5L178.2,258.5z"/>
<path class="st32" d="M416.6,216.3c1.7,0.2,3.5-0.1,5.1,0.8c3.2,1.9,3.5,3.6,1.1,6.4c-3.9,4.5-9.1,7.4-14.1,10.4
	c-7.2,4.4-14.9,8-22.3,12c-5.9,3.1-10.4,7.7-14.6,12.6c-1.4,1.7-2.5,3.8-1.2,6.2c1,0.7,2.2,0.2,3.3,0.3c0.7,0.1,1.5-0.3,1.9,0.7
	c0.3,0.8-0.4,1.3-0.9,1.8c-2.3,2.7-4.7,5.4-6.8,8.4c-5.2,5.3-10.9,10.1-17.7,12.8c-5.2,2.1-11.1,1.5-16.4-1c-1.2-0.6-2.6-1-3.1-2.5
	c-0.8-1.1,0.2-1.7,0.7-2.3c2.9-3.2,5.7-6.4,9-9.1c0.3-0.1,0.5-0.2,0.8-0.3c9.7-0.7,16.4-6.8,23.1-12.7c5-4.5,9-9.9,13.2-15.2
	c4.8-6,11.2-9.4,17.7-12.7c6-3.1,11.7-6.6,16.1-11.8c1.2-1.4,2.6-2.9,0.7-4.8C413.7,215.3,415.1,215.2,416.6,216.3L416.6,216.3z"/>
<path class="st2" d="M472.3,203.9c-2.4-2.6-5.1-5.1-7.2-8c-2.8-3.8-3-8.4-3.3-13c-0.2-3.5-1.3-6.4-5-7.6c0.9-0.1,1.3-0.6,1.2-1.4
	c-0.3-7.7,2.6-14.1,8-19.6c3.6-3.7,5.4-8.6,7.5-13.3c1-2.2,2.7-4.1,4.1-6.1c1.3-1.9,2-3.9,1-6.1c-1-2.1-3-2.6-5.2-2.4
	c-2.9,0.2-5.7,0.4-8.6,0.7c0.4-0.8,0.9-1.5,1.7-1.9c4.5-0.9,8.8-2.7,13.6-1.4c4.7,1.2,7.7,6.7,5.8,11.2c-1.4,3.3-3.8,5.9-5.9,8.7
	c-6.5,8.6-8.5,18.2-6.2,28.8c0.9,4,2,7.9,2.8,12C478.1,191.6,475.8,197.9,472.3,203.9L472.3,203.9z"/>
<path class="st33" d="M300.5,305.1c-0.9,0.2-1.6,1.9-2.6,0.7c-1-1.1-3-1.7-2.4-3.9c0.3-1.2,0.5-2.4,0.7-3.6c0.3-3.4-0.3-6.7-1.6-9.9
	c-1-2.4-0.1-4.7,1.8-6.4c2.2-1.9,2.8-4.4,2.9-7.2c0.1-1.7-0.5-2.5-2.1-2.8c-1.5-0.3-3.1-0.5-4.5-0.9c-2.1-0.6-3.3-2.1-2.3-3.9
	c3.1-5.8,1.6-10.9-1.4-16.1c0.4-2.4,1.7-4.6,1.9-7.1c0.4-3.6-0.6-6.4-3.8-8.4c-4.3-2.7-8.9-4.4-13.8-5.3c-6.2-1.2-12.3-2.6-18.1-5
	c-1.1-0.4-2.9-0.4-2.8-1.9c0.1-1.1,1.8-1.1,2.9-1.5c7.3-1.3,14.6-1.8,22-2.1c2-0.1,3.9-0.4,5.8-0.5c2-0.1,4.1-0.4,5.9,1
	c1.5,1.8,2.3,3.9,3.2,6c5.8,13.7,10,27.8,11.6,42.6c1.1,10.4,1.3,20.8,0.1,31.2c-0.1,0.8-0.4,1.6-0.7,2.4
	C302.5,303.5,301.5,304.4,300.5,305.1L300.5,305.1z"/>
<path class="st34" d="M303.1,302.4c-0.4-3.6,0.3-7.2,0.4-10.8c1-24.9-4.2-48.5-14.9-70.9c1.7-1.9,4.2-2.1,7.5-0.7
	c0.8,0.5,0.6,1.2,0.3,1.9c-2,5.4-0.6,10.6,1.7,15.5c5.3,11,9,22.3,9.9,34.7c0.5,7.1,0.1,14.2,0.5,21.8c1.6-1,3-2,4.5-2.9
	c0.9-0.5,1.5-1.8,2.9-0.8C311.6,294.2,307.4,298.3,303.1,302.4z"/>
<path class="st20" d="M188.8,248.6c2-2.5,1.5-5.9,3.3-8.4c0.6-0.9,0.6-2.5,2.3-2.1c0.5,1.6-0.6,2.7-1.2,4
	c-3.4,7.5-3.1,15.5-3.4,23.4c0.6-1.1,0.4-2.4,1.4-3.3c0.7-0.2,1.4,0,2-0.6c2.5-3.4,7.1-4.7,8.9-8.8c0.2-0.4,0.6-0.6,1-0.7
	c0.3,0,0.6,0.1,0.8,0.3c0.9,1.9,0.3,3.5-1.1,4.7c-2.5,2.2-3.5,4.9-2.8,8.2c-0.4,0.5-1,0.6-1.6,0.7c-1.3,0.2-2.4,0.6-2.6,2.2
	c-0.2,1.5,0.1,2.9,1.2,4c1.2,1.2,2,0.2,2.8-0.6c1.2-1.1,1-3.2,2.7-4c1.9,1.2,2,3.1,1.3,4.9c-0.7,2-2.3,3.4-4.4,3.2
	c-2.4-0.2-3.9,0.8-5.1,2.7c-0.9,0.9-1.5,2.2-2.4,3.1c-0.6-0.2-1.2-0.4-1.8-0.6c1.3-3.7,0.1-7.2-1.2-10.5c-0.6-1.5-1.4-2.9-1.3-4.6
	c0.2-2.1-0.4-3.6-2.4-4.5c-1.4-0.6-1.7-1.4-0.2-2.4c1.6-1,2.3-2.5,2.1-4.5C186.6,252.2,188.6,250.7,188.8,248.6L188.8,248.6z"/>
<path class="st35" d="M340.8,274c-3,4-7.3,6.8-9.9,11.1c-2.7-0.6-3.1-3.1-4.4-5c2.1-0.1,3.9-0.9,5.3-2.5c1.9-2.1,3.9-4.1,6.4-5.6
	C339.3,272.6,340.4,272.9,340.8,274z"/>
<path class="st36" d="M368.1,275.9c-0.2-0.5-0.5-1-0.1-1.4c2.8-2.5,4.1-6.2,7.4-8.4c-1.4-1.6-3.6,0.2-4.8-1.4
	c3.5,0.4,7-0.2,10.5-0.6C376.8,268,372.4,272,368.1,275.9L368.1,275.9z"/>
<path class="st35" d="M330.9,285.2c1,0.9,2.4,1.2,3.1,2.5C332.2,287.8,330.7,287.5,330.9,285.2z"/>
<path class="st37" d="M39.9,266c0-0.8,0-1.6-0.1-2.5c-0.6-3.3-0.1-6.6-0.2-9.9c-0.1-1.8,0.9-1.9,2.2-1.3c1.3,0.6,2.5,1.6,3.2,2.8
	c3.3,5.4,7.4,10.2,10.6,15.6c0.4,0.7,0.9,1.4,1.7,1.7c1.5,0.6,1.9,1.8,2,3.2c0.1,2.4,1.3,4.1,3.2,5.4c1.7,1.1,2.9,2.6,3.5,4.5
	c0.7,2.2,2.3,3.6,4.3,4.6c3.1,1.5,6.2,2.7,8.9,4.9c2.2,1.8,4.9,0.4,5.5-2.7c0.8-4.2,2.4-8.1,3.6-12.1c1.2-3.8,3.7-6.4,6.8-8.5
	c0.3-0.1,0.6-0.3,0.9-0.3c1.4-0.3,2.9-0.3,4.3,0c1.9,0.3,3.1,1.5,3.4,3.5c0.2,1.9-0.6,3.3-2.4,3.9c-2.6,0.8-2.3,1.8-0.9,3.6
	c2.6,3.3,3.9,7.2,4.7,11.3c0.7,3.4,0.9,3.5,3.9,1.7c3.5-2.1,7.2-3.7,11.4-2.9c2.1,0.8,3.9-0.4,5.8-0.7c3.9,0.3,7.4-1.6,11.3-2
	c1.1,0.4,1.8,1.2,2.3,2.2c-2.1,1-3,2.6-2.6,4.9c0.1,0.7-0.1,1.5,0.1,2.2c1.1,5.7-5.1,9.4-9.9,7.6c-0.4-0.1-0.8-0.3-1.2-0.4
	c-6-1.7-6.9-2.8-11.5,3.4c-2.2,3-5.1,3.4-8.8,2.3c-3.7-1.1-6.8-3.3-10.1-5.3c-1.3-0.8-2.6-1.7-3.9-2.6c-5.1-3.3-7.1-3.1-11.3,1.2
	c-0.4,0.4-0.7,0.7-1.1,1.1c-4.1,4.1-4,4-8.1,0.2c-1.2-1.2-2.8-2.3-4.4-2.8c-3.3-1.2-5.9-3.3-6.8-6.6c-1.3-4.7-5.4-6.4-8.9-8.3
	c-7.7-4.3-10.1-11.4-11-19.5C40.3,268.3,40.9,267,39.9,266L39.9,266z"/>
<path class="st33" d="M139.8,292.1c-1.2-0.1-1.9-0.7-1.9-1.9c5.7-7.4,5-16.9,8.2-25.2c0.8-2.1,1.8-4.2,2.4-6.4
	c1-3.9,0.5-5.5-2.9-7.5c-2.3-1.3-3.2-3.1-2.4-5.6c1.8-5.9,2.1-11.9,1.1-18c-0.2-1-0.3-2-0.1-3.1c0.2-1.1,0.5-2.2,0.8-3.3
	c1.9-7.5,1.4-8.9-4.9-13.6c-2.6-2-5.3-4-7.5-6.4c-1.8-1.9-3.8-2.8-6.3-2.5c-2.8,0.3-5.5,0-8-1.7c-1.3-0.9-2.9-0.8-4.5-0.8
	c-3.8,0-7.6,0.1-11.4-0.1c-0.9-0.1-3,0.2-1.4-1.9l4.3-0.7c2.4-0.8,5.1,0.3,7.5-0.6c0.2,0,0.4-0.1,0.6,0c3.7-0.8,7.5,0.3,11.2-0.6
	c6-0.1,11.9-0.1,17.9-0.2c0.9,0,1.3,0.3,1.8,0.9c1.5,0.7,1.9,2.1,2.5,3.4c5.5,11.8,8.2,24.1,8.5,37.1c0.3,13.7-1.1,27.2-2.9,40.7
	c-0.3,2.4-0.2,4.9-0.8,7.6c1.9-0.2,2.6-1.7,3.7-2.5c5.3-5,11.1-9.6,15.6-15.4c0.9-1.2,1.9-2.8,3.9-2.7c1.4,1.5-0.4,2-1,2.6
	c-5.9,5.9-10.9,12.7-17.6,17.7c-0.7,0.5-1.2,1.3-1.9,2c-3.8,2.5-7.7,5-11.4,7.6C141.7,291.5,140.9,292.1,139.8,292.1L139.8,292.1z"
	/>
<path class="st38" d="M95.7,272.2c-4.8,3.3-7,8-8.2,13.5c-0.6,2.5-1.6,5-2.1,7.6c-0.8,3.7-4.3,4.9-7,2.3c-2.5-2.4-5.8-3.1-8.6-4.8
	c-1.1-0.6-2.6-1-3-2.1c-1.4-4-4.3-6.7-7.3-9.5c-0.8-0.7-1.2-1.7-1-2.8c0.2-1.7,0-3-2.2-3.3c-0.5,0-1-0.7-1.3-1.2
	c-2.9-6.1-7.7-11-11.1-16.9c0-0.1-0.1-0.2-0.2-0.2c-0.9-1-2.2-2.3-3.2-2c-1.3,0.4-0.6,2.2-0.6,3.3c-0.1,2.5-0.1,5-0.1,7.4
	c-1.1-3.8-0.7-7.7-0.4-11.6c0.2-2.1,0.3-4.3,0.5-6.4c1.4,1.1,2.4-0.2,3.6-0.6c1.1,1,0.6,2.3,0.9,3.5c0.6,2.1,1.7,2.6,3.7,1.6
	c3.3-1.7,3.6-1.7,5.7,1.4c1.1,1.6,2.5,2.8,4.3,3.3c2.8,0.8,3.8,2.6,3.3,5.4c-0.3,1.6,0,3.1,1.7,4.8c0.3-5.1,4.6-8.1,5.2-12.8
	c0.4-3,2.9-4,5.6-2.6c1.9,1,4.5,1.3,5,4.1c-1.8,0.8-3.8,0.4-5.7,0.9c-2.2,0.6-2.6,1.7-1.4,3.6c0.6,0.9,1.3,1.8,2.2,2.6
	c1.1,1,2.4,1.6,3.9,1.1c1.5-0.5,1.8-1.8,2-3.2c0.1-0.8,0-1.7,1-2.1c1.7,1,1.2,2.7,1.2,4.2c0,2.9,0.2,5.8,1.4,8.5
	c1.5,3.5,3.7,4.5,7.4,3.5C92.6,272.3,94,270.9,95.7,272.2L95.7,272.2z"/>
<path class="st29" d="M294.3,121.1c-0.7,1.6-1.5,3.2-3.1,4.1c-1.2,0.3-2.4,1.1-3.6,0.8c-3.3-0.9-4.7,0.9-6.3,3.4
	c-7.5,12.2-18.1,21.5-28.8,30.8c-1.7,1.5-3,3.4-5.2,4.2c-1.5,0.1-2.6,1-3.7,1.9c-0.7,0.6-1.5,1.5-2.4,1c-1.3-0.7,0-1.8,0-2.7
	c2.5-3.2,6-5.4,9-8c7.7-6.8,14.6-14.3,20.7-22.5c2.3-3.2,5.1-6,7.1-9.4c0.6-1.1,1.1-2-0.1-3c-3.8-3.1-6.8-7-10.6-9.9
	c-1.7-1.3-3.6-2-5.6-2.4c-3.5-0.7-6.6,2-7.5,6.2c-1,4.8-0.2,9.4,0.9,14.1c0.2,0.8,0.5,1.6,0.6,2.4c0.5,6,0,9.1-6.8,10.7
	c-2.1,0.5-4.3,0.7-6.4,1.2c-3.9,1-5.6,3.3-5.1,7.2c0.6,5,1.7,10,3.1,14.8c-0.1,3.1-0.3,6.1-0.1,9.2c0.1,1.7-0.5,3-2.1,3.8
	c-1.6,0.8-2.2-0.4-3-1.4c-0.3-0.4-0.9-0.8-1.4-0.5c-2,1.2-4.7,1.2-5.9,3.5c-1.2,2.3-2.8,4.3-3.2,7c-0.2,1.3-0.8,2.5-2.4,2.3
	c-1.5-0.2-1.6-1.5-1.6-2.6c0-3.8-1.4-6.7-4.9-8.6c-2-1.1-3.9-1.2-5.9-0.6c-1.2,0-1.9-0.8-2.4-1.6c-1.9-3.4-4.2-6.6-5.6-10.4
	c0-0.3,0.1-0.6,0.3-0.9c5.2-3.9,10.9-7.1,16-11.1c9.9-7.7,19.2-16,26.1-26.6c3.3-5.1,4.2-10.9,4.9-16.8c0.6-5.1,3.1-9.1,6.9-12.4
	c5.1-4.3,7.9-10,9.2-16.4c0.8-3.9,1.3-7.9,2.5-11.8c3-9.5,9.1-15.5,18.9-17.6c0.6,0.2,1.2,0.4,1.9,0.6c4.5,3.6,5,5.8,3.6,11.5
	c-1.2,5.1-4,9.4-5.5,14.3c-1.9,6.6-2,13.1,1.2,19.4c0.5,0.4,0.8,1,0.9,1.7c2.7,5.2,4.8,10.6,5.5,16.5
	C294.5,118.1,294.5,119.6,294.3,121.1L294.3,121.1z"/>
<path class="st31" d="M288.2,100.3c0-0.6-0.1-1.2-0.1-1.9c1-0.4,1.2-1.3,1.4-2.2c1.8-8.1,4.1-16.2,5.2-24.4c0.7-5,2-9.9,2.1-15
	c0-2.9,1.2-3.5,3.8-2.3c2.7,1.2,3.9,0.8,4.5-2c1-4.3,2.4-8.5,1-13c-0.4-1.4,0-2.9,1.5-3.3c1.7-0.5,3.4-0.7,4.8,0.9
	c2.1,2.2,1.8,5,2.2,7.5c1,6.8,0.9,6.9,7.8,7.9c2.1,0.3,4,0.5,4.6,2.8c0.6,2.4-0.6,4.2-2.3,5.7c-0.2,0.1-0.3,0.3-0.5,0.4
	c-1,0.9-3.2,1.3-2.9,2.7c0.4,1.5,2.5,1.9,4.1,2.3c4.4,1,8.9,1.2,13.5,1.2c2.1,0,4.2-0.4,6.2,0.6c-13.8,12.5-25.5,27-38.4,40.4
	c-3.5,3.7-7,7.5-10.5,11.2c-0.6,0.6-1.1,1.3-2,1.4c-1.3-1.4-0.5-3.1-0.6-4.7c8.2-9.5,12.6-21,16.6-32.6c2.1-5.9,3.9-12,6.7-17.7
	c0.9-1.8,0.4-2.9-1.2-3.8c-2.5-1.5-5.1-2.7-7.7-4c-2.8-1.5-3.8-1.1-4.8,2c-2.6,7.8-5.3,15.6-6.2,23.9c-0.5,4.5-2.3,8.8-3.3,13.2
	C293.1,100.8,291.8,101.3,288.2,100.3z"/>
<path class="st39" d="M309.2,30.7c1.1-1,1.7,0.3,2.3,0.7c9.5,5.6,18.7,11.8,26.1,20.2c0.3,0.3,0.6,0.6,0.1,1
	c-3.2-1.2-6.4-2.3-9.5-3.6c-4-1.6-7.4-4.2-9.8-7.8C315.8,37.2,312.6,33.9,309.2,30.7L309.2,30.7z"/>
<path class="st29" d="M449.3,67.5c1.1-0.4,2.3-1.2,3.4-1.2c4.9,0.2,9.7-1.2,14.6-1.4c0.6-0.2,1.3-0.3,1.9-0.5
	c3.6,3.9,8,6.8,11.5,10.7c2.1,2.3,4.2,4.5,5.8,7.2c-0.2,0.4-0.4,0.9-0.6,1.3c-4.6,11.6-11.3,21.8-20,30.7c-1.9,2-3.2,4.5-4.3,7.1
	c-1.7-3.2-1.5-6.4-0.4-9.8c2.1-6.3,5-12.4,6.4-18.9c1.5-6.9-1.8-11.4-8.8-12.2c-4-0.4-7-2-7.9-6.4C450.6,71.9,449.9,69.7,449.3,67.5
	z"/>
<path class="st40" d="M486.6,82.3c-2,0.1-2.2-2-3.1-3.1c-4-4.7-8.5-8.9-13.4-12.7c-0.8-0.6-1.6-1.1-0.9-2.2c2.9,0,5.8-0.2,8.6,0
	c7.5,0.3,11.8,7.1,9.8,15.2C487.4,80.4,487.5,81.6,486.6,82.3L486.6,82.3z"/>
<path class="st28" d="M286.8,52.6c-0.7,1-1.9,1.3-2.9,1.6c-10,3.3-14.5,10.9-16.3,20.7c-1.2,6.7-2.2,13.4-6.3,19.2
	c-2.3,3.2-5.6,5.4-8,8.6c-2.5,3.3-3.3,7.1-3.6,11c-0.7,8.3-4.3,15.1-9.6,21.3c-10.4,12.2-22.9,21.8-36.5,30.2
	c-0.3,0.2-0.8,0.3-1.2,0.4c-1.6,0-1.8-1.5-2.5-2.4c-4.4-5.9-8.9-6.3-14-0.7c-3.3,3.6-5.7,7.9-8.4,11.9c-2.2,3.2-4.8,6.2-8.1,8.3
	c-0.5,0.2-1.1,0.4-1.7,0.3c-3.1,0.6-6.2,1.3-9.4,2c-0.8,0.4-1.6,0.6-2.4,0c-0.8-0.3-1.5-0.7-2.3-0.8c-5.6-0.6-8.7-3.9-9.9-9.1
	c-0.4-1.7-0.6-3.4-0.8-5.2c2.7-0.4,5.3,0.4,7.7,1.3c2.6,1,5.1,2.1,7.8,2.9c5.7,1.6,7.5-1,7.4-6.4c0-1.5-0.8-2.9-1.6-4.3
	c-1.9-3.2-0.4-6.2,3.3-6.7c0.2,0,0.4-0.1,0.6,0c3.7,0.9,6.2,0.2,6.8-4.1c0.2-1.1,1.5-1.6,2.6-1.9c1.3-0.3,2.6-0.6,3.8-1.3
	c2.2-1.4,3.6,0.8,5.5,1.1c2.5,0.4,4,3,6.6,3.3c0.6-3-0.6-5.9-0.7-8.9c-0.1-1.2-0.5-2.5,0.5-3.5c0.9-3.7,1.4-7.4,1.3-11.3
	c0-3,1.9-5,4.3-6.8c3.5-2.5,7.5-3.7,11.4-5.4c5.3-2.2,10.3-5.2,15.8-6.9c1.1-0.4,2.2-1.1,3.6-0.8c0.9,2.4-0.6,5.1,0.9,7.5
	c1.8,1.1,2.6,3.4,4.8,4c4.9-2,6.3-4.4,4.9-9.2c-0.6-2.2-0.9-4.4-0.4-6.6c-1-1.6-0.4-2.6,1-3.6c3.9-2.8,5.2-7,5.9-11.5
	c0.2-1.6-0.2-3.6,2.5-2.9c2.4,1.2,4.8,2.6,7.6,1.1c1.7-3.1,0.3-5.7-1.4-8.3c-1.1-1.6-2.7-3-1.4-5.2c-3-3.2-2.8-2.9,0.6-6
	c4.7-4.4,10.5-7,16.2-9.8c1.6-0.8,3.4-1.6,2.5-4c0.8-3,3.4-2.7,5.6-3.1C281.4,51.9,284.1,51.4,286.8,52.6L286.8,52.6z"/>
<path class="st41" d="M140.4,117.1c3.9-2.1,7.7-4.7,12.4-4.9c2.7-0.1,5-0.8,7.2-2.3c2.7-2,5.3-4.1,7.1-7c3.1-2.3,3.5-6.1,4.8-9.2
	c2-4.8,4.5-9.1,8.9-11.9c1.6-1,3.3-2,4.9-3c1.1,1.6,0.6,3.1-0.2,4.6c-1.3,2.5-1.3,5-0.1,7.6c4.1,1.2,6.9-0.1,8.4-3.7
	c1-2.4,0.8-5.3,3.3-7c0.1-0.1-0.2-0.1-0.3-0.1c-1.4-0.6-1.2-2-1.6-3.1c-0.7-1.6-3.1-1.2-3.4-3.2c2.6-0.4,2.9-2.7,3.8-4.5
	c1.2-2.5,2.6-3.9,5.6-4.5c3-0.6,6.1-1.2,8.9-2.3c2.7-1,4.1-0.1,4.9,2.4c0.1,0.4,0.4,0.8,0.4,1.2c-0.2,2.9-0.3,5.7,3.2,6.9
	c-0.6,1-1.9,0.8-2.7,1.6c-1.1,1.1-1.4,2.4-1.5,3.9c0,1,0,2.1-0.9,2.8c-3,3.3-4.6,7.4-6.4,11.4c-1.8,4.2-2.5,8.9-6,12.3
	c-0.8,0.8-0.5,1.5-0.1,2.2c-1.1,1.1-3.4-0.3-4.1,1.8c-0.9,0.8-1.7,0.3-2.6,0c-1.2-0.4-2.4-0.5-3.3,0.6c-5.2,3.8-6,8.9-4.6,14.7
	c0.6,2.6-0.6,3.7-2.5,5.2c-4.4,3.4-9.8,3.2-14.7,4.8c-1.2,0.4-2.4,0.2-3.6-0.5c-3.2-0.3-4.5-3.3-6.8-4.9c-0.9-0.6-1.6-1.7-2.9-1.2
	c-2.1,0.8-2.2,2.2-1,3.9c-0.1,1.2-1.2,1.6-1.9,2.2c-0.4,0.4-1,0.9-0.7,1.6c0.3,0.7,1,0.6,1.6,0.5c2.9-0.5,5.8-1.2,8.8-1.2
	c0.8,0,1.6-0.4,2.3,0.4c-1.3,2.2-3.9,2.8-5.8,4.2c-3.6,2.6-6.9,0.8-10.2-0.6c-3.7-1.5-7.4-1.4-11.2-1.1c-3.8,0.3-7.5,0.7-11.3,1.1
	c-1.9-1.6-2.2-4.9-0.5-7.2c0.7-1,1.7-1.7,2.3-2.8C132.7,125.1,136.6,121.2,140.4,117.1L140.4,117.1z"/>
<path class="st42" d="M278.7,52.6c-1.9,0.9-4.1,1.4-5.6,3.1c-3.6,1.3-6.4,3.9-10.1,5.2c-5.2,1.9-9.6,0.6-12.5-4.4
	c-2.8-4.8-3.2-10.3-5.2-15.4c-1-2.7-2.6-4.4-5.7-4l-1.9-0.1c3-4.1,7.1-6.9,11.8-8.6c3.9-1.5,6.7-4.2,9.4-7.4
	c3.2-3.9,6.5-7.7,11.9-8.9c6.1-1.3,11.5,0.8,16.5,4c3.3,2.1,5.6,4.8,5.2,9.1c-0.2,2.1-1.1,4-2.9,4.8c-5.8,2.4-8.9,6.6-9.3,12.9
	c-0.2,2.8-1,5.5-2.2,8C277.6,51.7,277.4,52.4,278.7,52.6z"/>
<path class="st43" d="M128.6,128.9c0,1-0.8,1.6-1.3,2.3c-2.3,2.6-2.4,4.6-0.5,7.6c-0.4,1.5-0.6,3-1.2,4.4c-0.7,1.6,0.1,2.4,1.2,3.1
	c-0.9,0.9-1,2.1-1.7,3.1c-1.6,0.8-2.4-0.8-3.6-1.3c-0.8-0.4-1.6-0.8-2.3-0.2c-0.7,0.7,0.2,1.3,0.5,1.9c1.9,3.3,3.3,6.9,6,9.6
	c1.8-2.5,2.6-5.5,3.7-8.2c0.4-1,0.1-2-0.8-2.7c-0.7-0.6-1.9-1-1.8-2.2c4.3,0.1,5.7,2.2,4.2,5.9c-0.4,0.9-0.8,1.7-1.1,2.6
	c-0.5,1.4-1.3,2.9,0.1,4c1.2,1,2.8,0.7,4.1,0.2c5.4-1.7,9.2,0.6,10.1,6.1c0.3,2.1,1.2,3.8,3.9,3.1c0.6-0.2,1.4-0.3,1.7,0.2
	c2.2,3.5,5.1,1.1,7.7,1c0.8-0.1,1.6-0.9,2.3-0.2c0.9,0.9-0.1,1.5-0.6,2c-0.7,0.9-0.4,1.7,0.4,2c1.4,0.6,2.9,0.5,3.9-0.9
	c1.7-2.3,1.3-6.6-0.8-8.6c-0.4-0.4-0.8-0.7-1-1.2c-1.4-2.6-3.3-3.9-6.3-2.9c-0.8,0.3-1.7,0.2-2.2-0.6c-0.3-0.4-0.2-0.8,0.1-1.1
	c0.6-0.8,1.3-0.2,2-0.1c2.6,0.4,5,0.3,7-1.9c1-1.1,0.7-2-0.1-2.9c1.5-0.9,2.2,0.4,3.1,1.1c2.3,1.6,4.7,2.4,7.4,1.4
	c2.1-4.1,1.2-7-3.2-9.1c-2.1-1-4-2-4.8-4.4c2.5-0.1,4.4-1.1,6.1-3.2c1.1-1.4,4.1-1.2,5.6,0c1.7,1.4,4.1,2,5.2,4.2
	c0.4,0.8,1.3,1,2.1,0.4c0.7-0.5,0.7-1.2,0.4-1.9c-0.4-0.9-2.2-1.4-1-2.8c0.6-0.7,1.5-0.6,2.3-0.4c1.7,0.4,1.3,1.8,1.4,3
	c0.8,0.8,1.2,1.8,1.1,2.9c-0.8,1.8-2.3,0.7-3.5,0.9c-0.8,0.1-1.8-0.1-2.1,0.9c-0.4,1.1,0.7,1.3,1.3,1.8c1.3,1,3,1.5,3.4,3.3
	c-0.2,0-0.5,0.1-0.6,0c-3-3-5.9-0.2-8.9,0.2c-1.4,0.2-2.2,1.1-2.4,2.7c-0.5,3.4-1.5,3.9-5,3.4c-1.8-0.2-3.7-0.6-5.2,1.1
	c-1.2,1.3-1.7,2.5-0.3,4c2.9,3.3,2.7,7,1.1,10.6c-1.1,2.5-3.9,2.6-6.2,1.9c-2.4-0.7-4.8-1.1-7-2.4c-2.9-1.9-6.5-1.6-9.6-2.9
	c-0.2-0.2-0.4-0.4-0.6-0.6c-0.2-0.2-0.4-0.5-0.5-0.8c-2.5-6.2-4.4-7.1-11.1-6.2c-9.2,1.2-18.2,3.6-27.3,5.5
	c-2.6,0.5-5.2,0.8-7.5-0.6c-1.4-0.9-3.2-1.9-1.9-4.1c0.4-0.1,0.9-0.1,1.2-0.4c6.7-5.8,14.2-10.4,20.8-16.1c2.9-2.5,5.7-5.2,8.2-8.1
	c0.6-0.7,0.9-1.6,0.8-2.6C124.5,132.6,126.1,130.5,128.6,128.9L128.6,128.9z"/>
<path class="st44" d="M213.6,81.2c-0.1-2.7-0.4-5.4,1.8-7.5c4.2,3,8.7,5.4,13.1,8.2c1.2,0.8,2.5,1.5,3,2.9c-3.3,1.9-6.3,1.7-9.7-0.1
	C219.2,83.3,217.1,80.3,213.6,81.2z"/>
<path class="st45" d="M234.7,122.6c-1.9-1.3-3.5-2.7-4.3-4.9c0.5-2.8-1-5.9,0.9-8.7c0.1-0.2-0.3-0.9-0.6-1.3c-1.7-2.4-1.5-3,1.3-3.9
	c1.5-0.5,3-0.6,4.6-0.2c0.8,2.5,0.1,4.9-0.1,7.3c-0.3,2.5-0.1,4.9-0.2,7.4C236.1,119.9,236,121.4,234.7,122.6L234.7,122.6z"/>
<path class="st46" d="M185,91.6c-1.9-2.9-1.9-6-0.1-8.8c0.9-1.4,0.6-2.7,0.8-4.1c1.3-0.1,2.6-0.4,2.4-2.1c-0.3-3,1.6-3,3.6-2.9
	l4.4,2.4c-3.7,3.5-5.5,8.4-8.3,12.5C187,89.8,186.7,91.3,185,91.6L185,91.6z"/>
<path class="st47" d="M231.5,84.8c-4.1-2.6-8.3-5.2-12.4-7.8c-1.4-0.9-3.3-1.3-3.7-3.3c0.9-1.1,2.2-0.3,3.2-0.8
	c0.4-0.3,0.8-0.6,1.1-0.9c1.8,2.4,4.9,1.7,7.2,2.9C231.7,77.3,232.2,78.3,231.5,84.8z"/>
<path class="st48" d="M234.7,122.6c1.2-5.2,0.1-10.6,1.2-15.8c0.2-1.1-0.1-2.2,0.6-3.2c1.9-0.3,1.3,2.6,3.1,2.3
	c0.3,0.1,0.8,0.3,0.8,0.4c-0.9,2.6,0.4,5,0.8,7.4C241.9,118.4,239.2,121.7,234.7,122.6z"/>
<path class="st49" d="M173.2,156.2c-3.2,1.2-6,0.6-8.5-1.6c-0.8-0.7-1.4-1.6-2.6-1.6c-0.6-0.8-0.5-2.1-1.8-2.6
	c-2.9-1.2-3.2-2.5-1.4-5.2c0.5-0.7,1.2-1.3,1.9-2c4.1,3.3,7.3,7.5,11.4,10.8C172.8,154.6,173.2,155.3,173.2,156.2L173.2,156.2z"/>
<path class="st50" d="M173.2,156.2c-3.5-3.4-7-6.9-10.5-10.3c-0.8-0.8-1.8-1.4-1.9-2.7c1-1.4,3.2,1.4,3.8-1.2
	c1.6,1.7,3.4,2.9,5.6,3.8C174.5,147.4,175.6,152.1,173.2,156.2L173.2,156.2z"/>
<path class="st51" d="M257,89.8c-3.5,1.3-5.8,0.7-8-1.9c-0.9-2.3-0.6-5-2.5-7.1c-0.5-0.5,0.5-2.5,1.3-3.6c0.9-0.3,1.8-0.1,2.2,0.7
	C252.4,81.8,255.3,85.4,257,89.8z"/>
<path class="st52" d="M257,89.8c-2.6-2.8-4.3-6.3-6.3-9.6c-0.7-1.2-1.3-2.6-2.9-2.9c1.7-1.8,3.8-1.9,6.1-1.7c0,1.9,0.8,3.4,2.1,4.9
	C258.5,83.1,258.9,87.6,257,89.8z"/>
<path class="st51" d="M187.6,144.4l-0.6-3.1c2.1,0,4.1,0,6.2,0l1.4,12.2c0.1,0.6,0.4,1.3-0.7,1.1
	C191.2,151.5,188.4,148.5,187.6,144.4z"/>
<path class="st53" d="M243.4,67.5c1.2,1.9,0.6,2.7-1.6,2.2c-3.8-0.8-7.4-2.2-11.3-2.4c-0.7,0-1.9-0.4-1.7-1.3
	c0.3-1.3,1.4-2.2,2.7-2.7c0.9-0.4,2.4,0.3,2.6-1.4c2.6,0.4,3.8,2.9,5.9,3.9C241.1,66.3,241.7,68,243.4,67.5z"/>
<path class="st54" d="M243.4,67.5c-0.3,0.3,0.6,1.8-0.9,0.9c-3.1-1.8-5.8-4-8.4-6.5c-1.1-0.8-1.9-1.7-0.1-2.4c1.6-0.6,3.4-2.8,5,0
	C240.5,62.1,241.9,64.8,243.4,67.5z"/>
<path class="st55" d="M157.9,103.4c2.9-2.2,3.7-5.9,6.1-8.5c0.9-0.4,1.7-2.4,2.9-0.4c0.9,1.5,2.3,3.2,0.5,4.9
	c-0.6,0.5-1.4,0.8-2.1,1.1l-6,3.7C158.3,104.7,157.8,104.6,157.9,103.4L157.9,103.4z"/>
<path class="st56" d="M165.2,135.1c-3.8,0.6-7.7,1.2-11.5,1.7c-0.8,0.1-2,0.6-2.5-0.5c-0.4-1,0.4-1.9,0.9-2.8
	c0.6-1.1,2.5-0.6,2.7-2.2c3.9,0.1,7.5,1.1,10.8,3.1C165.5,134.7,165.3,134.9,165.2,135.1z"/>
<path class="st57" d="M165.6,134.4c-3.6-0.9-7.3-1.7-10.8-3.1c-0.7-0.6-1.8-0.5-2.2-1.5c4-3.8,4-3.8,8.1-0.3
	c1.7,1.5,3.4,2.9,5.2,4.4C165.7,134.1,165.7,134.2,165.6,134.4z"/>
<path class="st58" d="M191.2,109.6c-0.6-2.6,1.3-1.9,2.5-1.8c1.1,0.1,2.1,0.7,3.1,1.1c2.1,2.8,3.2,5.8,2.5,9.4
	c-2.8-1-3.7-3.8-5.6-5.7C192.8,111.7,192,110.6,191.2,109.6L191.2,109.6z"/>
<path class="st54" d="M199.3,118.3c-0.8-3.1-1.7-6.2-2.5-9.4c-0.2-4.6,2.9-1.4,4.4-1.8c1.5,2.8,0,5.4-0.5,8
	C200.4,116.2,201.6,118.1,199.3,118.3z"/>
<path class="st42" d="M93.9,163c0.7,3.3,2.5,4.6,6.7,4.2c5.2-0.4,10.2-2.1,15.4-3.2c6-1.3,12.1-2.3,18.2-2.9
	c4.9-0.5,8.6,3.3,8.2,8.1c-3.3,0-6.6-0.1-9.9,0.1c-4.7,0.4-8.8,2.6-12.3,5.3c-5.9,4.6-12.6,6.8-19.9,7.5c-7,0.6-13.9,1.7-20.9,1.4
	c-2.1-0.1-4.2-0.2-5-2.3s0.3-3.9,1.7-5.6c3.4-4,8.4-5.9,12.4-9c1.8-1.4,4.4-2.1,4.9-4.9C93.5,162.1,93.7,162.6,93.9,163L93.9,163z"
	/>
<path class="st59" d="M156,279c-1.5,2-3.5,3.4-6,5.4c0.9-7.4,1.7-14.1,2.4-20.8c2-17.6,3.1-35.2-1.5-52.6c-1.7-6.3-4.2-12.3-7-18.2
	c0.3-1.6,1.6-0.9,2.5-1c2.9-0.2,5.9-0.2,8.8-0.3c2.1,0,4.2,0.4,6.2-0.6c2.4-1.6,5.1-0.4,7.6-1.1c0.5,0,1,0,1.5,0.3
	c0.3,0.2,0.4,0.5,0.4,0.8c-0.1,0.6-0.5,1.2-1,1.5c-4.1,2.7-6,6.6-6.8,11.3c-0.1,0.8-0.5,1.6-0.9,2.3c-1.5,2.4-3.2,4.6-4.8,6.9
	c-1.5,2.1-1.9,4.2-1.3,6.7c1.9,8.3,2.6,16.8,2.3,25.2c-0.4,10.3-0.6,20.6-1.7,30.9C156.7,276.8,156.5,277.9,156,279L156,279z"/>
<path class="st60" d="M169.5,190.3c-2.6,1.1-5.4,0.4-8.1,0.6c-0.4-0.5-0.8-0.9-1.1-1.4c-0.7-0.9-1.6-1.9-1.1-3
	c0.8-1.7,1.7,0.2,2.5,0.2c1.7,0.1,4.4-1.5,5,1.9c1.3-1.8,1-3.8,1-5.7c0.2-0.6,0.6-0.7,1.2-0.8C171,183.9,171.3,187,169.5,190.3
	L169.5,190.3z M155.9,184.9c0.8,0,1.6,0,2.4,0c-0.9,2.3,0.5,4,1.5,5.8c-2.8,1-3.7-0.5-3.9-2.7C155.8,186.9,155.9,185.9,155.9,184.9
	L155.9,184.9z M0,0"/>
<path class="st61" d="M40.5,230c2.8-0.1,7.4-3.5,8.2-5.8c1.2-3.2,2.9-6.1,5.4-8.4c0.3,0.2,0.4,0.5,0.5,0.8c-0.2,3.1-1.4,5.8-3.2,8.2
	c-1.2,1.6-1.6,3.1-0.8,4.9c1.5,3.2,0.9,6.9,2.6,10.1c0.8,1.5-0.3,3-1.7,3.9c-1.6,1.1-3.3,1-4.9,0c-2.2-1.4-2.8-3.7-3.2-6.1
	c-0.1-0.9,0.4-2.1-0.6-2.9c-1.8,0.8-0.1,3.6-2.3,4.1l-1.9-3.2C40.6,234.1,39.8,231.8,40.5,230L40.5,230z"/>
<path class="st62" d="M124.2,192.1c-3.7,1.3-7.5,0.4-11.2,0.6C116.7,191.6,120.5,192.4,124.2,192.1z M112.4,192.8
	c-2.4,1.3-5,0.4-7.5,0.6C107.4,192.3,109.9,192.9,112.4,192.8z"/>
<path class="st63" d="M40.5,238.7c1-1,0.5-2.4,0.6-3.5c0.1-1.4,0.7-2.1,2.2-2c1.4,0.2,1.4,1,1.2,2.2c-0.5,2.9,0.1,5.5,2.5,7.4
	c1.6,1.2,3.2,1.2,4.8-0.2s1.7-2.7,0.2-4.2c-1.2-1.2-0.2-2.9-0.9-4.1c-3-5.6-0.2-10.2,2-15c0.5-1,1.4-1.8,1.2-3.1
	c0.7-2.3,1.9-3.9,4.7-4.2c2.5-0.3,4.7-1.6,6.5-3.4c1.3-1.3,2.7-1.8,4.5-1.1c1.3,0.5,2.9,0.2,4.3,0.6c1.2,0.3,3,0.2,3.2,1.9
	c0.2,1.4-1.1,2.1-2.2,2.7c-2.3,1.4-4.3,3.1-6.2,5.1c-2.3,2.3-2.5,4.8-1.4,7.6c1.2,3.1,1,3.4-2.4,3.9c-1.2,0.2-2.4,0.5-3.5,1.1
	c-1.8,1-2.6,2.4-1.7,4.4c0.8,1.6,1.5,3.2,0.6,4.4c0.2-1.2,1.2-2.2,2.8-2.7c8.7-2.7,17.6-4,26.6-2.9c4.9,0.6,9,3.7,11.3,9.1
	c0.8-2.7,0.7-5-0.1-7.2c-0.5-1.6-1.9-1.6-3.3-1.9c-6.1-1-10.3-6.4-9.8-12.3c0.3-3.3,2.3-4.8,5.5-4.2c2,0.4,4,1,5.8,2.2
	c1.4,0.9,2.6,1,2.7-1.2c0.1-1.3,0.8-2.1,2-2.5c2.8-0.8,5-2.4,7-4.4c0.7-0.7,1.5-1.5,2.7-0.7c2.3,1.7,4.9,1.3,7.4,1.2
	c1.2-0.8,2.5-0.9,3.9-0.6c7.1,2.1,13.3,5.6,17.4,12.1c2.9,4.6,1.1,10.2-3.9,12.5c-2.4,1.1-4.7,2.2-7.1,3.1
	c-6.5,2.4-9.6,7.2-10.1,13.9c-0.2,2.4-0.8,3.7-3.5,4c-3.4,0.4-3.8,1.7-1.6,4.2c1.2,1.4,1.2,3,1.6,4.6c0.2,0.8,0.3,1.8,1.3,2
	c1.1,0.3,1.7-0.6,2.2-1.4c0.5-0.8,0.9-1.6,1.4-2.4c1.6-2.5,2.7-2.6,4.9-0.5c1,0.9,1.8,2,2.7,3c3.2,3.8,3.1,3.8-0.1,7.6
	c-2.3,2.7-2.4,3.7-0.1,6.4c1.2,1.4,1.6,2.8,0.9,4.5c-1.2,2.9-2.3,5.7-4.9,7.7c-1.8,0.3-3.5,2.1-5.6,0.6c-2.7-0.6-3.9-2.5-4.3-5
	c-0.4-2.9-0.4-5.8,0-8.6c0.2-1.3,0.4-2.7,0.3-4c-0.6-6.2-5.6-9.5-11.5-7.5c-3.2,1.1-6.2,2.8-9.3,4.1c-1.6-0.2-2.7,0.8-4.1,1.3
	c-4.6,1.5-7.4,0.1-9.1-4.5c-0.9-2.6-1.2-5.4-1.2-8.2c0-1.4,0.6-2.9-0.6-4.1c-1.1-0.8-1.8-1.7-1.8-3.1c-1.6-2.1-4.1-3.1-6.4-3.9
	c-2.2-0.8-3.4,1.1-3.4,3.1c-0.1,1.5-0.3,2.9-1.3,4c-2.5,2.7-3.5,5.9-3.9,10c-2.3-2.1-4-3.8-3-6.9c0.6-2,0-3.7-2.3-4.2
	c-2.6-0.5-4.4-1.9-5.6-4.3c-0.9-1.9-2.2-2.8-4-0.8c-0.9,1-1.9,1.8-3.2,1c-1.3-0.7-2.2-1.8-2.1-3.5c0.1-1,0-2.1,0-3.1
	c0.1-1.4,0-2.5-1.5-3.3C40.9,241,40.3,240,40.5,238.7L40.5,238.7z"/>
<path class="st29" d="M156,279c0.5-10,0.9-20.1,1.6-30.1c0.4-6.9-0.3-13.8-0.8-20.6c-0.3-3.8-1.3-7.4-1.9-11.2
	c-0.5-3.1,2.3-4.6,3.5-7c0.9-1.8,2.4-3.3,3.7-4.9c1,0.9,0.9,2.1,0.9,3.2c-0.2,5.3,1.1,10.2,3.9,14.8c0.5,0.8,1,1.6,0.8,2.6
	c2.6,4.8,6.7,8.1,10.6,11.8c0.8,1,0.3,2-0.1,2.9c-2.3,4.6-2.9,9.4-2.9,14.5c0.2,1.9-0.9,3.7-0.5,5.6c-0.1,0.2-0.2,0.4-0.2,0.6
	c-5.3,5.2-10.2,10.9-15.8,15.8C157.7,277.5,156.9,278.2,156,279z"/>
<path class="st64" d="M428.9,89.8c-14.4-1.9-24.6,9.2-26.4,18.7c-0.7,3.8-1.1,7.7-0.5,11.7c0.6,3.8,0.2,7.8,0.2,11.8
	c-0.1,0.1-0.2,0.3-0.3,0.4c-3.7,2.2-7.1,4.8-7.4,9.6c-0.2,2.3,0.4,4.5,0.7,6.7c1,7.5-0.5,10.5-7.2,14c-1.2,0.6-2.3,1.3-3.5,1.9
	c-2.1,1-3.5,2.5-4,4.8c-0.7,2.3-0.4,4.6-0.2,6.8c0.1,0.3,0.1,0.6,0,0.9c-0.1,0.3-0.2,0.6-0.5,0.8c-10.4,6.4-22,9.7-33.5,13.2
	c-0.4,0.1-0.7,0.3-1.1,0.5c-0.5,0.3-0.8-0.1-1.1-0.4c-3.2-6.4-8.6-7.3-13.7-2.3c-4.1,4-6.4,9.1-8.9,14c-0.4,0.6-0.9,1.2-1.5,1.7
	c-5.5,3.3-11.2,6.4-16,10.6c-1,0.9-2.1,1.7-3.5,1.9c-2.2,0.1-3.9-1.1-5.7-2c-1.9-1.5-3.7-3.2-5.2-5.1c-1.3-1.6-2.8-3.3-1.6-5.7
	c1.8-0.6,3.5,0.6,5.3,0.6c6-0.1,11.9-0.3,17.8-1.4c3.5-0.6,6.6-2.1,8-5.9c0.5-1.2,0.9-2.2-0.1-3.4c-0.4-0.4-0.4-1.2-0.4-1.8
	c0.2-5.3-0.9-10.6,0-15.9c1.1-6.8,5.5-11.1,11.6-13.8c4.7-2.1,9.4-4.1,14.1-6.2c1.4-0.6,2.4-1.5,2-3.3c0.4-0.3,0.6-0.3,0.9,0.1
	c2,1.4,3.8,0.5,5.2-0.8c3.4-3,7.6-5,10.8-8.3c2.1-2.2,3.8-4.8,5.3-7.4c0.5-0.9,0.1-2.8,2.2-2.2c1.3,0.4,2.2,1.3,2.6,2.4
	c0.8,2.1,2.3,2.6,4.3,2.6c2.2-0.2,3-1.3,2.5-3.6c-0.9-4-1.8-8-5.9-10.2c-1.1,0-1.4,2-2.9,1.2c-0.3-0.4-0.7-0.8-0.9-1.3
	c-2.4-5.9,0.5-20.6,5.2-24.7c1.5-1.3,3.9-1.8,5.8-2.6c0.9-0.4,1.8-0.6,2.6-1c6.1-2.8,9.3-10.9,9-16.8c1.1-1.3,2.6,0.2,3.8-0.6
	c4.8-1,9.1-3.1,13-6c1.8-1.3,3.6-2.8,5.4-4.1c3.7-2.6,7.1-1.9,10.5,1.2c5.6,5.2,5.8,11.4,4,18.1C429.4,89.4,429.2,89.6,428.9,89.8
	L428.9,89.8z"/>
<path class="st35" d="M412.1,216.9c0.7,0,1.5,0,2.2,0.1c0.2,0,0.3,0.2,0.7,0.4c-3.3,5.4-7.8,9.5-13.1,12.7
	c-4.2,2.4-8.3,4.9-12.7,6.9c-5.5,2.5-9.3,6.8-12.8,11.3c-6.9,8.8-14.4,16.9-24.1,22.7c-3.4,2-7.1,2.6-10.9,3c0.2-1.9,1.7-3,2.9-4.2
	c6.3-6.3,11.8-13.2,18-19.6c7.4-7.7,14.2-15.8,21.7-23.4c7.3-7.3,15-14.2,21.6-22.1c6.7-8,13.3-16.1,19.5-24.4
	c4.9-6.6,11-11.9,16.7-17.7c6.9-7,14.3-13.7,17.3-23.7c0.6-1.9,0.7-3.8,0.9-5.8c0.7-1,1.4-2.4,2.7-2.2c1.4,0.2,1.5,1.7,1.8,2.9
	c1.7,7.8-0.2,14.6-5.6,20.5c-3,3.3-5.8,6.7-8.7,10.1c-4,4.8-5.3,10.6-6.4,16.5c-0.2,0.6-0.4,1.2-0.7,1.8c-2,3.8-3.7,7.6-6.3,11.1
	c-3.1,4.4-7.2,7.8-11.8,10.6c-1.8,1.2-3.8,2.1-5.8,2.8c-3.8,1.4-7.3,3.2-9.9,6.4c-0.5,0.6-1.5,1.1-1.2,2c0.3,0.8,1.2,0.5,1.9,0.6
	C410.9,216.3,411.6,216.4,412.1,216.9L412.1,216.9z"/>
<path class="st65" d="M459.9,133.2c1.7,4.5-0.8,8.3-2.6,11.9c-2.9,5.5-7.2,10-11.6,14.5c-3.9,4.1-7.9,8.2-11.9,12.1
	c-8.8,8.5-14.9,19.1-23.1,28c-4.6,5.1-8.7,10.7-13.8,15.4c-6.3,5.7-11.8,12.1-17.8,18c-4.5,4.4-8.1,9.6-12.6,13.9
	c-5.3,5.1-9.5,11.3-15,16.2c-3.6,3.3-6.7,7.2-10.1,10.8c-0.2,0-0.4,0-0.6,0c-0.8-0.7-2.4-0.3-2.5-1.9c5.4-5.5,11-10.9,16.2-16.6
	c7.3-7.8,14.8-15.4,21.8-23.5c5.2-6.1,10.8-11.8,16.3-17.6c7.6-8.1,15.2-16.2,21.9-25.1c1.6-2.1,2.6-4.6,3.9-6.9
	c4.5-7.7,11.2-13.6,16.8-20.4c5.4-6.7,11.1-13.2,16.8-19.8C454.6,139.2,457.3,136.2,459.9,133.2L459.9,133.2z"/>
<path class="st2" d="M438.3,50c3.5,1,4.4,4.4,6,7c2,3.2,3.6,6.7,4.5,10.4c-4.2,1.7-5.8,5-5.6,9.3c0,1.8,0,3.5,0,5.3
	c0,0.5,0.1,1.1,0,1.6c-0.4,2-1.9,3.9-3.5,3.9c-1.7,0-0.9-2.4-0.8-3.6c1-9,0-17.8-1.9-26.6C436.5,54.7,437.3,52.3,438.3,50L438.3,50z
	"/>
<path class="st2" d="M0,0"/>
<path class="st42" d="M396.7,79.9c-1.1,1.1-2.5,0.3-3.8,0.6c-3.8,0-6.1-1.9-7.4-5.4c-2.1-5.8-3.5-11.8-6.1-17.4
	c-1.6-3.3-3.1-6.7-6.3-8.9c5.2-2.4,10.5-4.6,15.8-6.6c2-0.8,3.5-2.8,4.6-4.8c3.8-7.1,13.2-9.8,19.5-4.8c6,4.7,9.7,11.1,9.6,19.1
	c0,4.4-3,6.8-6.8,8.3c-8.4,3.5-15,9.2-19.8,17C395.6,77.9,393.5,79.5,396.7,79.9L396.7,79.9z"/>
<path class="st2" d="M287.9,204c0.3,3.4,2.4,5.8,4.7,8c0.8,0.8,1.6,1.6,2.3,2.4c-0.9,1.3-2.2,1.5-3.6,1.3c-7.6-1-15,0.3-22.5,1.1
	c-16.1,1.8-32,4.8-47.7,8.9c-6.9,1.8-13.7,4-20.1,7.2c-1.1,0.6-2.3,1.6-3.7,0.8c3.1-5.9,7.4-11,11.6-16.2
	c6.1-7.6,12.2-15.2,18.8-22.3c2.1-2.2,2.5-5.6,5.1-7.6c0.5-0.4,0.8-1.2,1.5-1.4c0.3-0.1,0.6,0,0.9,0.1c0.2,0.2,0.4,0.5,0.6,0.8
	c0.4,1.9,0.3,3.8,0.2,5.7c-0.2,1.5-1,2.7-2,3.8c-0.8,0.9-1.5,1.7-2.1,2.7c-3,5-1.2,8.2,4.5,8.5c7.3,0.3,14.4-0.8,21.6-1.9
	c8.5-1.3,16.9-3.2,25.5-3.1c1.3,0,2.7-0.1,3.8,0.9C287.6,204,287.8,204,287.9,204L287.9,204z"/>
<path class="st42" d="M287.5,203.9c-10.6-0.4-21,1.8-31.4,3.5c-6.9,1.1-13.8,1.9-20.9,1.5c-5.1-0.3-6.9-4.1-4.7-8.7
	c1.3-2.7,4.3-4.2,4.9-7.4c0.7-0.6,1-1.6,1.9-2c1-0.1,0.7,1,1.2,1.4c2.2,2.7,5.4,2.8,8.5,3.1c8.6,0.8,16-3.4,23.9-5.5
	c3.6-0.9,7-1.3,10.6-0.6c3.1,0.6,4.8,2.9,5.2,5.8C287.2,197.9,287.2,200.9,287.5,203.9z"/>
<path class="st66" d="M247.1,164.1c13.3-11.3,26.7-22.5,35.5-38c0.4-0.7,0.8-1.6,1.9-1.2c2.3,0.8,4.6,0,6.8,0.3
	c-9.8,10.7-19.6,21.4-29.4,32.2c-3.5,3.3-6.7,6.9-9.8,10.5c-2.1,3.3-4.8,6.1-7.5,8.9c-0.8,0.8-1.6,1.6-2.9,1.5c-1-0.2-1.2-1-1.4-1.8
	C238.9,170.6,240.6,167.5,247.1,164.1L247.1,164.1z"/>
<path class="st67" d="M242.2,178c3.3-3.4,6.6-6.7,9.9-10.1c-0.4,2.4-1.2,4.6-2.8,6.6c-2.6,3.3-3.2,7.3-3.4,12.5
	c-0.5-2.4-0.9-3.1-2.5-1.8c-2.3,1.9-4.1,4-4.9,7c-0.4-0.4-0.8-0.9-1.1-1.3c-2-0.8-1.3-2.9-2-4.2l0,0c-0.5-0.5-0.5-1.1-0.3-1.7
	C237.7,182.9,239,179.5,242.2,178L242.2,178z"/>
<path class="st68" d="M374.4,92.2c-0.7-2.1,0.7-5.3,2.8-6.7c2.4-1.5,5.1-2.5,6.8-5c0.6-0.9,1.6-0.8,2.4-0.1c1.1,1,2.3,2.1,2.8,3.6
	c-3.9,3.1-8.1,5.5-12.3,8.2C376.2,92.8,375.2,93,374.4,92.2L374.4,92.2z"/>
<path class="st69" d="M374.4,92.2c2.9-0.1,4.6-2.3,6.9-3.6c2.6-1.5,4.9-3.7,7.9-4.5c-0.1,2.2,0.8,4.5-2.1,5.8
	c-0.9,0.4-1.6,1.6-2.3,2.4C381.7,96.1,376.5,96,374.4,92.2z"/>
<path class="st70" d="M377.4,139.9c-1.9,0.1-3.7,0.3-4.5-2.2c-0.4-1.2-1.5-2.3-2.4-3.4c0-2.5-1.5-5.2,0.7-7.5
	c1.2-0.2,1.2-1.9,2.5-2.1c1.8,1.5,1.6,3.7,2.1,5.6C376.4,133.5,377.9,136.6,377.4,139.9L377.4,139.9z"/>
<path class="st71" d="M320.2,135.1c0.2,0,0.4,0.1,0.5,0.1c-0.6,5.5-3.3,9.3-8.6,11.2c-1.2-1.1-3.1-0.3-4.3-1.5
	c-0.1-1.5,1.1-2.1,2-2.9c2.4-2.2,5.1-4.2,7.7-6.1C318.3,135.2,319,134.2,320.2,135.1L320.2,135.1z"/>
<path class="st72" d="M339.6,141.9c4.3-2.3,6.7,1.2,9.5,3.2c0.4,0.3,0.5,0.9,0.9,1.2c3.1,2.4,3.1,3.4,0,6.1c-2.9-2.7-6-5.2-8.9-8
	C340.5,143.7,339.7,143,339.6,141.9z"/>
<path class="st73" d="M339.6,141.9c2.7,2.5,5.5,4.9,8.1,7.4c0.9,0.9,2.2,1.6,2.3,3.1c-0.8,1.2-2.4-0.8-3.1,0.8
	c-0.3,0-0.6-0.1-0.9-0.1c-0.4-1.6-2-1.9-3.2-2.4C338.8,148.9,337.7,146.1,339.6,141.9z"/>
<path class="st74" d="M345.3,122.1c1.8-1.6,3.6,0.2,5.4-0.1c2,2.3,4,4.6,6.1,6.8c0.7,0.8,0.8,1.4,0.2,2.1c-0.7,0.8-1.4,1.8-2.5,2.3
	C350.6,130.1,348,126.1,345.3,122.1z"/>
<path class="st75" d="M345.3,122.1c2.4,1.2,3.1,3.8,4.9,5.6c1.7,1.6,2.9,3.7,4.3,5.5c-0.2,0.6-0.8,0.7-1.3,0.8
	c-2.7-0.4-4.5-2.4-6.7-3.9C343.3,128,344.5,124.9,345.3,122.1z"/>
<path class="st76" d="M353.8,96c1.6-0.9,2.3-2.5,3.5-3.8c1.2-1.3,2.2-1.7,3.4,0c0.1,1.3-0.1,2.5-0.8,3.6c-0.5,0.9-0.1,1.3,0.7,1.5
	c-3.1,2.2-6.2,4.5-10.4,4.2C350,98.7,352.7,97.9,353.8,96L353.8,96z"/>
<path class="st77" d="M293,179.1c1.4,0.2,1.6-3.4,3.4-1.1c2.8,3.6,2.7,5-0.1,6.9c-1.7,1.1-3.2,2.4-5.2,3
	C290.7,184.7,289.5,181.4,293,179.1z"/>
<path class="st78" d="M350.2,101.5c3.7-0.8,6.8-3.2,10.4-4.2c1.6-0.3,2.1,0.5,1.9,1.9c-0.2,1.3,0.5,3.4-1.5,3.6
	c-3.6,0.3-7.2,0.1-10.8,0C349.5,102.7,350,101.9,350.2,101.5z"/>
<path class="st79" d="M293,179.1c-2.2,2.6-1.2,5.8-1.9,8.7c-0.2,0.2-0.4,0.4-0.6,0.6c-1-0.9-0.7-2-0.5-3c-0.7,0.6-0.7,2.8-2.6,1
	c-0.7-2.9-0.1-5.8,0-8.6c0-1.4,0-2.8,1.9-3.1c1.9-0.3,2.8,0.8,3.1,2.5C292.6,177.9,292.8,178.5,293,179.1L293,179.1z"/>
<path class="st80" d="M292.4,177.2c-0.7-1.3-1.6-2.4-3.3-1.8c-1.6,0.5-1,1.9-1,2.9c0,3,0,6,0,8.9c1,2,0.4,3-1.8,3
	c-0.5-5,0.4-9.9,0.6-14.9c0.7-0.5,0.6-1.2,0.5-1.9c-0.5-1.3,0-1.7,1.3-1.3c0.2,0,0.4,0,0.6,0.1c0.5,0.3,1.1,0.5,1.3,1.2
	c0.3,0.9,1,1.2,1.8,1.3C292.4,175.6,292.4,176.4,292.4,177.2L292.4,177.2z"/>
<path class="st81" d="M286.2,190.3c1.4-0.5,2-1.6,1.8-3c0.7-0.9,1.3-1.8,2.5-3.2v4.4c-1.1,0.9-2.1,1.8-3.3,2.6
	C286.4,191.6,286.3,191,286.2,190.3z"/>
<path class="st23" d="M379.8,177.8c0-0.2,0.1-0.4,0.1-0.5c1.8-2.8,4.8-4.5,7-7c8.1-9.4,13.4-20,14-32.6c0.1-1.9,0.2-3.9,1.4-5.6
	l0-0.1c5.1-0.1,8.5,3.3,12,6.2c2.4,2,4.2,4.5,6.8,6.4c1.7,1.3,0.1,2.5-0.5,3.4c-2.7,4.1-5.5,8.2-8.4,12.2
	c-5.6,7.8-11.8,15.1-18.6,21.8c-2.9,2.9-6.2,5.4-9.3,8.1c-1.3,1.1-2.1,0.9-2.3-0.7C381.3,185.4,379.6,181.8,379.8,177.8L379.8,177.8
	z"/>
<path class="st82" d="M197.4,233.7c7.7-3.9,15.7-6.9,24.1-8.9c8.5-2,16.9-4.4,25.5-5.7c8.3-1.3,16.5-2.9,25-3.4
	c5.3-0.3,10.6-1.1,16-1.2c2.3,0,4.6,1.2,7,0c1.9,0.5,3.5,1.9,5.5,2c0.2,0.2,0.2,0.5,0.1,0.8c-0.6,1-1.6,1.6-2.6,2.2
	c-0.6,0.1-1.4-0.1-1.9,0.5c-2.5,0.4-5.1-0.4-7.5,0.7c-1.1-0.9-2.4-0.6-3.6-0.6c-10.2,0.7-20.4,1.2-30.5,2.5
	c-11.4,3.1-23.4,3.6-34.5,7.8c-9.4,3.6-17.6,8.5-22.5,17.8c-2.2,3.8-3.3,8-4.7,12.2c-0.2,0.7-0.3,1.4-0.9,1.9
	c-1.1,1.7-0.5,4-2.4,5.9c-0.9-10.7-0.5-20.8,4.9-30.1C196.1,237.1,196,234.9,197.4,233.7L197.4,233.7z"/>
<path class="st23" d="M344.5,190.9l0.6,0.5c3,4.5,6.4,8.7,8.7,13.6c0.7,1.3-0.1,1.8-1.2,2.3c-11.6,5-23.9,7.3-36.5,8
	c-0.9,0.1-1.9,0-2.7-0.3c-1.3-0.7-0.8-1.6-0.1-2.2c2.8-2.5,4.2-5.9,6.4-8.9c0.4-0.4,0.8-0.9,1.2-1.3c1-1.5,2.7-1.9,4.1-2.6
	c5.4-2.7,10.2-6.9,16.6-7.5C342.5,192.5,343,190.6,344.5,190.9L344.5,190.9z"/>
<path class="st83" d="M312.8,214.4c8.2,0.1,16.2-1.3,24.3-2.7c5.4-0.9,10.3-3.3,15.5-4.8c0.9-0.3,1.3-1,1.3-1.9
	c1.7,1.1,2,1.7-0.3,2.6c-14.9,6.1-30.4,9.6-46.3,11.2c-3.1,0.3-6.2,0.5-9.2,0.5c0.4-1.3,1.4-2.1,2.6-2.6c3.7-1.1,7.6-1,11.1-2.8
	C312,213.9,312.5,214.1,312.8,214.4L312.8,214.4z"/>
<path class="st84" d="M412.1,216.9c-1.8-0.2-4.4,1-5.2-0.6c-0.9-2,1.8-3.1,3-4.4c4-4.4,9.7-5.7,15.1-7.5l-8.5,11.8
	C415.1,216.6,413.5,215.8,412.1,216.9L412.1,216.9z"/>
<path class="st85" d="M436.9,193.9c1.8-3.9,3.1-8,6.3-11.1C442.7,187.4,440.2,190.9,436.9,193.9z"/>
<path class="st63" d="M199.9,265.4c-1.7-2.6-1.2-5.8,1.6-8c1.8-1.4,2.3-3,2.1-5c-0.4-2.5,1.5-3.9,2.8-5.5c2.3-2.5,4.7-4.6,8.3-5
	c2.2-0.2,4.1,0.1,5.4,2.1c1.3,1.8,0.4,3.3-0.6,4.8c-1.4,1.9-1.3,3.7-0.3,5.8c1.8,3.8,1.7,4-2.5,5.2c-1.5,0.5-2.9,1-4.1,2
	c-1.3,1-1.7,2.3-0.8,3.8c0.8,1.5,2,1.6,3.4,1.2c1-0.3,1.9-0.7,2.8-1.2c3.1-1.7,6.6-0.4,9.6-1.3c3.2-1,6.1-1.9,9.5-1.1
	c2.2,0.5,4.4,0.5,6.4,1.9c2.2,1.6,4.3,3.1,5.2,5.9c0.4,1.1,1.2,2.5,2.7,1.7c1.4-0.7,1.5-2.2,0.8-3.5c-1.6-2.9-3.8-5.2-6.7-6.6
	c-2.2-1.1-3.9-2.7-5.4-4.6c-1.2-1.6-1.2-3.2,0.3-4.7c0.3-0.3,0.6-0.6,0.9-0.8c4.1-4,4.1-4,9.1-2.2c-0.7-5.2-0.1-5.7,6-5
	c3.9,0.6,7.5,0.9,11.3-1.4s11.3,1.5,12.6,5.7c0.4,1.2,0.2,2.3-0.5,3.2c-2.7,3.7-3.9,7.8-3.6,12.5c0.1,2.2-1.1,4.4,1,6.3
	c0.4,0.7,0.6,1.5,0.9,2.3c0.9,4-0.1,7.8-1.6,11.5c-1.3,3.2-2.8,6.2-4.6,9.1c-3.5,5.7-8.7,5.6-12-0.2c-3.9-6.8-8.8-7.5-14.6-1.9
	c-0.2,0.2-0.4,0.5-0.7,0.6c-5.4,4-7.5,9.3-6.7,16c0.4,2.9,0.1,5.7-2.2,8c-2.8,2.8-6.5,2.9-8.7-0.2c-1.6-2.2-3.3-2.9-5.8-2.1
	c-1.9,0.6-3.8,0.7-5.8,0c-5.2-1.8-6.6-5-4.3-10.1c1.1-3.1,0.9-6.2,0-9.3c-1-1.2-0.9-2.5-0.5-3.8c0.5-1.9-0.3-3.1-2.1-3.4
	c-2.6-0.5-4.2-2.1-5.3-4.3c-1-2.2-2.2-2.3-4-0.8c-1.2,1-2.6,2-4.2,0.7c-1.6-1.4-2.6-3-1.2-5.1c1-2.4,2.1-4.1,5.5-3.4
	c3.4,0.8,5-2.9,3.2-7.2C201.5,267.1,200.4,266.5,199.9,265.4L199.9,265.4z"/>
<path class="st86" d="M276.9,271.6c-1.9-1.2-2.6-2.8-1.6-5c0.2-0.5,0.4-1.2,0.3-1.8c-0.9-5,1.1-8.9,3.8-12.9
	c1.8-2.8-0.7-4.7-2.5-5.8c-3.2-1.9-6.7-3.6-10.6-0.9c-3.2,2.2-6.6,1.1-9.9,0.3c-0.4-0.5-1.8-0.3-1.2-1.6c0.4-0.7,1.1-1.2,1.5-1.9
	c1.5-2.6,3.5-3.3,6.2-2c1,0.5,2.2,0.9,3.2,0c4.1-3.8,8.6-2.4,13-1c3.9,1.2,6.8,3.9,8,8c0.5,1.5,1.7,2.6,2.1,4.1
	c3.8,4.9,5,10,1.8,15.7c-1,1.8-0.6,3.2,1.7,3.5c0.6,0.1,1.2,0.2,1.8,0.4c2.1,0.7,5.8-0.9,5.4,3.4c-0.2,2.4,0.6,5.2-2,7.1
	c-3.4,2.5-4,5.7-1.9,9.5c1.4,2.4,1.6,5,0,7.6c-1.8,1.3-1.9,3.4-1.8,5.3c0.2,4.4-0.2,5.4-4.5,6.5c-2.5,0.7-5,1.5-6.9,3.3
	c-2,1.8-3.9,2-6.2,1c-2.6-1.2-4.7-1.1-5.7,2.2c-0.6,2-3,2-4.6,2.8c-2.6,1.3-4.9,2.7-6.8,5c-2.2,2.6-3.4,2.3-5.1-0.6
	c-0.7-1.3-1.5-2.5-1.8-3.9c-0.7-3.7-2.3-6.7-5.3-9.1c-1.6-1.3-1-2.5,0.4-3.5c1.6-1.2,4.1-2.2,3.8-4.4c-0.4-2.4-3.3-2.8-5.1-4.1
	c-1.1-0.8-4.7,2.4-4.9,4.5c-0.3,3.1-1.1,6.4-2.2,8.8c-2.1,4.3-4.2,8.3-4.5,13.3c-0.2,2.8-4.8,4.2-6.7,2.3c-2.5-2.5-5.9-2.7-8.7-4.3
	c-2.5-1.4-4.4-3-5.2-5.7c-0.5-1.7-1.5-3-3.2-3.6c-2.2-0.8-3.1-2.1-3.1-4.6c0.1-2.5,0.8-4.2,3.2-4.9c0.5,1.9-1.1,3.8-0.1,5.7
	c1.5,3,5.4,5,8.6,3.9c3.9-1.4,6.5-0.9,8.8,2.9c1.6,2.7,6.8,1.2,8.2-2.2c0.9-2.2,0.9-4.5,0.6-6.7c-1.5-9.5,4.7-14.4,11.1-19.1
	c3.9-2.9,8.6-1.5,11.2,2.6c0.8,1.2,1.3,2.6,2.1,3.8c1.7,2.7,5.5,3.2,7.7,0.9c3.5-3.5,5-8.2,7-12.6c1.4-3.2,1.6-6.7,1.3-10.2
	c1-0.8,2,0,3,0.1c2.2,0.1,3.5-1.6,2.8-3.6c-0.4-1.1-1.2-1.9-2-2.7c-0.8-0.8-1.8-1.1-2.8-0.7c-1.3,0.5-1.2,1.5-1,2.6
	C277.5,269.9,277.7,270.8,276.9,271.6L276.9,271.6z"/>
<path class="st0" d="M193.7,278.4c0,0.4,0,0.8,0,1.2c-0.1,1.7,0.8,3.1,2.2,3.8c1.3,0.6,2.4-0.6,3.1-1.4c2.1-2.2,3.3-2.2,4.5,0.9
	c1,2.4,2.6,4.2,5.7,4.5c2,0.2,2.9,1.9,2.2,4c-0.4,1.3-0.7,2.5-0.4,3.9c-2.5-3.9-6.5-4.8-10.6-5.6c-4.4-0.9-7.7-3.2-8.6-8
	C191.7,280,192.4,279,193.7,278.4L193.7,278.4z"/>
<path class="st87" d="M245.6,332.4c-5.1,0-8.4-5.4-6.1-10.2c1.2-2.5,3.4-2.7,5-0.5c1.5,2.1,3,4.2,4.4,6.3c0.6,1,1.7,1.8,0.8,3.3
	c-0.8,1.3-1.9,1-3,1C246.4,332.4,246,332.4,245.6,332.4z"/>
<path class="st87" d="M0,0"/>
<path class="st88" d="M225.4,192.3c-1-0.5-2.1-0.9-3.1-1.4c-2.2-0.1-3.5-1.7-4.9-3.1c-0.5-2.1-1.7-1.9-3.3-1.2
	c-6,2.5-12.1,4.9-18.6,4.9c-4.7,0-9.3-0.8-13.9-1.7c-0.1,0-1.4,0.4-0.5-0.6c0.2-0.2,0.6-0.1,0.9-0.1c2.2-0.9,4.5-1.3,6.8-1.7
	c7.2-1.1,14.2-3.3,21.4-5.9c-2.4-1.3-2.2-2.4-0.4-3.5c4.9-2.5,11.2,1.7,11.8,7.7c0.1,1.3-0.9,3.5,0.9,3.8c2.1,0.3,0.9-2.3,1.7-3.2
	c2.3-2.8,2-7.9,7.1-8.4c0.5,0,0.8-0.9,1.4-1.2c1.4-0.8,2.7-1,3.7,0.7c0.3,0.6-0.1,1.8,1,1.6c0.9-0.2,2-0.8,2.2-2
	c0.1-0.8,0.2-1.7,0.1-2.5c-0.4-2.8-0.2-5.6,0.6-8.2c0.2-0.5,0.5-0.8,1.1-0.7c1,0.6-0.4,1,0.1,1.7c2-0.6,2.9-3.6,5.6-3.1
	c-1.7,1.4-3.4,2.9-5.2,4.3c-2.3,2-2.2,7.3,0.3,9.5c-2.2,2.3-3.6,5.5-6.8,6.8c-1.2-0.3-1.7-2.3-3.2-1.4c2.4-0.3,2.7,1.3,2.5,3.2
	c-1,2.8-4.7,4-4.6,7.6c0,1.1-1.3,1.1-2.3,1.1l0,0c0.3-1.4-0.4-2.2-1.7-2.5C225.8,192.6,225.6,192.4,225.4,192.3L225.4,192.3z"/>
<path class="st89" d="M175.1,254.8c-1.3-3.7-0.8-7.2,0.5-10.8c0.8-2.2,1.7-4.4,2.5-6.6c1.7,0.7,2.1,2.1,1.9,3.8
	C179.5,246.2,177.4,250.5,175.1,254.8L175.1,254.8z"/>
<path class="st2" d="M226.1,192.8c1-0.1,2.2-0.8,2.8,0c0.8,1-0.8,1.6-1.1,2.5C226.2,195.1,225.9,194.1,226.1,192.8L226.1,192.8z"/>
<path class="st90" d="M289.3,251.1c-1.6-0.8-2.4-2.3-3-3.8c-2.2-5.6-6.4-8.7-12.4-8.6c-2.7,0-5.7-1.1-7.4,2.4
	c-0.5,1.1-1.9,0.5-2.8,0c-3-1.8-5.4-1.5-6.8,2c-0.3,0.7-1,1.1-1.7,1.1c-2.5-0.2-2.6-2.4-3.2-4c-1.3-3.6-1.6-3.8-5-2
	c-1.4,0.8-2.4,0.5-3-0.9c-1-2.3-3-3-5-3.8c-0.9-0.4-2-0.9-2.8,0.2c-0.7,1-0.7,2.1-0.2,3.2c0.8,1.8,3.6,3.3,5.7,2.9
	c1.7-0.3,3.4-1.3,4.5,1.1c0.9,2.1,0.5,5.7-0.8,7.1c-0.7,0.8-1.6,0.8-2.6,0.7c-2.9-0.2-3.7,0.5-3.4,3.3c0.3,2.6-0.7,3.9-3,4.6
	c-3.2,1.1-6.5,0.7-7.8-1.1c-1.2-1.6-0.7-3,0.7-4.1c1.8-1.4,1.6-3.2,1.5-5.1c-0.1-1.8-1.1-2.1-2.6-1.3c-1.2,0.6-2.2,1.5-3.4,2.2
	c-1,0.6-2,1.3-3.1,0.2c-1.1-1.2-0.5-2.3,0.3-3.3c1.3-1.6,2.9-2.9,4.6-4.6c-2.5-0.5-4.9-0.1-7.2-0.8c-0.6-0.2-1.2,0.2-1.6,0.7
	c-1.5,2.2-3.8,2.8-6.2,2.8c-2.6,0-4.4,0.8-4.4,3.8c0,0.4-0.3,0.8-0.5,1.1c-1.2,1.6-2.4,3.1-3.1,5c-0.2,0-0.4,0-0.6,0
	c-4.8-0.3-4.8-0.3-6.1-4.3c2.4-5.7,6.7-9.8,11.9-13c9.9-6.2,21-8.7,32.4-10.6c4.5-0.7,8.9-1.2,13.4-1.8c-0.4,0.7-1.3,0.5-1.8,0.7
	c8.5,4.6,18.1,5,27.1,7.9c3.5,1.1,6.6,2.9,9.5,5c2.5,1.9,2.7,5,2.3,8C291.3,246.6,290.7,249,289.3,251.1L289.3,251.1z"/>
<path class="st91" d="M196.9,248c0.3,0.1,0.8,0.2,0.8,0.3c0.4,2.4,1.6,3.5,4.1,3.2c0.4-0.1,0.8,0.6,1.2,0.9
	c-1.2,2.5-2.4,4.7-5.3,5.9c-2,0.8-2.8,3.4-4.8,4.5c-0.8,0.5-1,0.2-1.1-0.5C192.6,257.2,194.3,252.4,196.9,248L196.9,248z"/>
<path class="st92" d="M199.9,265.4c1.1,0.6,2.4,0.9,2.5,2.5c-0.6,1.8-1.1,3.7-2.6,5.1c-1.5,1.4-2.7,1.6-3.9-0.5
	C193.5,267.9,194.9,265.4,199.9,265.4z"/>
<path class="st92" d="M0,0"/>
<path class="st87" d="M89.5,295.1c0-1.3-0.1-2.6,1-3.7c2.2-2.4,3.2-2.3,4.8,0.5c1.4,2.4,2.9,4.7,4.2,7.2c1.3,2.5,0.5,3.6-2.4,3.6
	C92.9,302.5,89.5,299.1,89.5,295.1z"/>
<path class="st86" d="M134.1,296.6c-0.4,2-2.4,1.9-3.8,2.3c-1.1,0.4-1.8-0.9-1.7-2c0.1-2,1.8-2.3,3.3-2.5
	C133.3,294.4,134.1,295,134.1,296.6z"/>
<path class="st93" d="M79.1,281.5c-1,0-1.9-0.4-2.5-1c-1.5-1.4-2.7-3.1-4.4-0.1c-0.6,1-3.2-1-2.9-2.8c0.2-1.8,0.3-3.6,1.6-5.2
	c1.8-2.2,3.9-2.6,6.1-0.8c2.3,1.9,3.7,4.4,4.9,7C82.5,280.1,81.1,281.6,79.1,281.5z"/>
<path class="st94" d="M79,253.6c0.8,0.9,1.7,1.8,1.8,3.1c0,0.8,0,1.6,0,2.5c-0.1,3-2.9,4.7-5.6,3.3c-2.1-1-3.4-3-4.6-4.8
	c-1.1-1.6-0.2-3.4,1.8-3.8C74.5,253.4,76.7,252.6,79,253.6L79,253.6z"/>
<path class="st23" d="M241.4,165.4l-1.1,0.7c-0.9-0.1-1.1-0.7-1.2-1.5c-0.7-4-1.6-8.1-2.3-12.1c-1-5.4,1.2-8.4,6.6-9.4
	c2-0.4,4.1-0.7,6-1.2c5.5-1.6,7.1-4.3,5.7-9.9c-0.9-3.3-1.6-6.6-2-10c-0.4-3.1-0.1-6.3,1.3-9c2.9-5.7,6.8-5.7,12.4-2.4
	c5,2.9,8.2,8.1,12.9,11.5c1.1,0.8,0.4,1.5-0.2,2.3c-10.4,15.1-22.3,28.8-37,40C242,164.6,241.7,165,241.4,165.4L241.4,165.4z"/>
<path class="st95" d="M288.2,100.3c3.6,0.5,5.1-1.4,5.5-4.8c0.4-4.6,2.9-8.7,3.1-13.4c0.4-8.1,3.9-15.4,6.1-23
	c0.8-2.6,2.1-3.5,4.5-2.1c3.4,1.9,7.1,3.3,10.3,5.5c1.2,0.9,1.5,1.4,0.7,2.9c-3.4,5.8-5,12.4-7.2,18.6c-3.9,10.8-7.8,21.7-15.2,30.8
	c-0.6,0.7-1.1,1.5-2.2,1.5C292.9,110.7,290.9,105.4,288.2,100.3L288.2,100.3z"/>
<path class="st96" d="M209.9,177.9c0.1,0.8-0.8,1.1-1,1.9c1,0.2,2.5-0.5,2.6,1.2c0.1,1.2-1.2,1.2-2,1.5c-6.4,2.5-13.1,4.3-19.8,5.6
	c-2.5,0.5-5.1,1.4-7.8,1c0.8-1.4-0.2-2-1.2-2.2c-1.2-0.3-1.2,0.7-1.3,1.5c-0.2,1.4-0.8,2.8-0.6,4.2c0.1,1.4-0.2,2.7-2,2.7
	c-1.8,0-2.1-1.2-2.3-2.6c-0.1-0.7,0-1.4,0-2.4c-1.4,0.2-2.5,1.1-3.8,0.7c0-0.1,0-0.3,0-0.5c-0.9-1.4-0.7-2.9,0.3-4
	c0.9-0.9,2.2-0.4,3.5-0.1c1.8,0.5,3.3-0.8,4.3-2c5.8-7.1,13.1-12.4,20.5-17.6c0.9-0.7,2-1.2,3.2-0.7c1.8,3.1,3.5,6.2,5.4,9.2
	C208.3,176.3,208.7,177.4,209.9,177.9L209.9,177.9z"/>
<path class="st7" d="M202.4,166.1c-4.7,2.2-8.6,5.5-12.6,8.6c-4.1,3.1-7.6,6.8-10.9,10.9c-0.9,1.2-3.7,0.6-3.7,3.4
	c-0.7-1.5-1.2-2.9-3.1-2.4c-2.4,0.6-0.9,2.6-1.4,3.8l-1.2-0.1c0.2-2.8,0.6-5.5-0.7-8.1c3.1-2.1,5.8-4.9,7.9-8c2.6-4,5-8.3,8.2-11.8
	c6.2-6.7,11.7-6.1,16.5,1.7c0.3,0.5,0.7,1,1,1.5C202.4,165.7,202.4,165.9,202.4,166.1z"/>
<path class="st97" d="M221.1,143.1c-3.7,0.9-6.2-1.4-8.6-3.6c-1.8-1.7-2.6-4.3-4.8-5.8c-1.2-0.8-0.3-2,0.4-2.9
	c0.8-1.2,1.3-2.8,3.2-2.5c2.8,4.2,6.5,7.7,9.1,12.1C220.8,141.2,221.8,141.9,221.1,143.1L221.1,143.1z"/>
<path class="st98" d="M221.1,143.1c-2.1-4.3-5.4-7.8-8.3-11.6c-0.8-1-1.5-1.9-1.8-3.1c-0.3-0.3-0.2-0.5,0.1-0.7v0
	c2.7-0.3,4.9,0.5,6.8,2.5l0,0c2.1,1.9,4.5,3.4,5.6,6.2C223.2,138.8,223.3,141.3,221.1,143.1z"/>
<path class="st99" d="M187.6,144.4c1.8,3.6,4.7,6.4,6.2,10.2c-2.1,0.6-2.9-1.5-4.4-2.1c-0.8-0.3-1.3-1.3-2.3-1.4
	c-1.6-1.1-3.2-2.2-4.8-3.3c-0.6-0.5-1.6-0.9-1.3-1.9c0.3-0.9,1.1-1.5,2.1-1.6C184.5,144.3,186,144.4,187.6,144.4L187.6,144.4z"/>
<path class="st100" d="M217.9,130.1c-2.1-1.3-4.4-1.9-6.8-2.5C214.2,126.4,216.4,127.2,217.9,130.1z M223.5,136.4
	c-1.9-2.1-3.7-4.1-5.6-6.2C220.5,131.5,223,133,223.5,136.4z M211.1,127.7l-0.1,0.7c-1,0.8-2,1.6-3,2.4
	C208,128.6,209,127.6,211.1,127.7z"/>
<path class="st101" d="M185,91.6c2.4-4,4.8-8,7.4-12c0.9-1.4,1.4-3.5,3.8-3.5c0.4,1.2-0.6,2.8,1,3.6c0.2,0.1,0.7,0.4,0.3,0.6
	c-2.6,1.8-1.9,5-3.1,7.5C192.5,91.5,189.1,93.1,185,91.6z"/>
<path class="st102" d="M126.7,146.3c0.7,0.5,1.2,1.1,2,1.4c1.9,0.9,2.3,2.1,1.3,3.9c-1.7,3-1.7,6.9-4.5,9.4
	c-1.4-3.9-2.4-7.8-0.7-11.8C125,147.9,124.4,146.2,126.7,146.3C126.7,146.3,126.7,146.3,126.7,146.3L126.7,146.3z"/>
<path class="st103" d="M124.8,149.1c0.2,3.9,0.4,7.9,0.7,11.8c-3.3-3.7-4.8-8.5-7.7-12.5c-0.8-1.1,0.3-1.4,1.3-1.7
	C121.7,146,122.6,149.1,124.8,149.1z"/>
<path class="st6" d="M171.3,145.1c-0.8-0.4-2.2,0.2-1.8-0.9c0.6-1.6,2.5-1.9,3.9-2.6c0.6-0.3,1.7,0.3,1.5,1
	C174.4,144.6,172.5,144.5,171.3,145.1z"/>
<path class="st104" d="M113.7,210.7c-1.6,0.1-2.3,1.4-3.2,2.3c-1.2,1.3-2.6,2.4-4.3,2.9c-2.1,0.6-4,0.6-3.4,4
	c0.3,1.9-2.4,1.5-3.6,0.5c-1.8-1.6-4-2-6.2-2.4c-2.4-0.5-4,0.7-4.2,3.1c-0.6,6.7,3.5,11.5,10.3,11.9c1.5,0.1,2.2,0.7,2.7,2
	c0.9,2.3,0.6,4.7,0.6,7c0,0.8,0.3,1.9-0.9,2c-1.1,0.1-2-0.8-2-1.6c0-2.3-1.3-3.5-3.1-4.6c-2.8-1.6-5.1-3.8-8.9-3.7
	c-8,0.1-15.8,0.8-23.4,3c-2.1,0.6-3.4,1.3-3.3,3.6c0,0.7,0,1.7-0.9,1.7c-1.1-0.1-1.2-1.3-0.8-1.9c1.4-2.2,0.5-3.9-0.5-5.9
	c-1.3-2.8,1.2-5.4,5.3-5.9c0.7-0.1,1.4,0,2.2,0c1.1,0,1.5-0.4,1-1.5c-3.3-7.3-1.1-7.7,4.7-13.3c0.5-0.5,1.2-0.8,1.8-1.2
	c1.1-0.7,3.2-1.2,2.8-2.4c-0.4-1.3-2.5-1.3-4-1.4c-3.1-0.2-6.2,0.7-9.2,2.4c-0.9,0.5-1.9,1.2-2.8,1.1c-3.2-0.4-4.8,1.7-6.5,3.9
	l0-0.7c0.1-2.4,1-3.9,3.8-3.8c1.5,0.1,2.5-1.2,3.7-2.1c5.4-3.8,11.1-3.6,17-1.5c0.6,0.2,1.2,0.4,1.8,0.6c4.8,1.2,4.9,1.2,4-3.5
	c-0.2-1.2,0.1-2,0.9-2.7c0.8,2.2,3,3.7,2.9,6.6c-0.1,1.6,2.1,1.3,3.3,1.3c1.6,0,3-0.5,3.2-2.2c0.2-1.6-0.4-2.9-2-3.4
	c-2.3-0.8-4.6-1.7-6.8-2.8c3.6-6,13.7-5.7,19.1-4c3.1,1,5,2.5,4.6,6.3C109.1,207.4,112.1,208.7,113.7,210.7L113.7,210.7z"/>
<path class="st105" d="M85.8,202.1c3-0.4,5.3,1.8,8.1,2.5c1.5,0.4,2,2.6,1.7,4.3c-0.3,1.6-1.6,2.6-3.4,2.6c-1.3-0.1-2.7,0.3-4-0.4
	c-1.1-0.5-2.2-1-1.1-2.5c0.7-0.9,0.3-1.6-0.4-2.1c-1.6-0.9-1.6-2.3-1.5-3.7C85.4,202.5,85.6,202.3,85.8,202.1z"/>
<path class="st106" d="M88.6,244.9c2.9,0.1,6.7,4.3,6.5,7.2c-0.2,2.6-4.4,4-6.9,2.2c-1.6-1.1-2.9-2.6-3.4-4.6
	C83.9,246.3,85.1,244.8,88.6,244.9L88.6,244.9z"/>
<path class="st104" d="M118.7,227.9c0.1,1.4,0.1,3.1-1.9,3.8c-1.9,0.6-2.3-1.2-3.2-2.2c-1.2-1.2-1.4-2.9-2.6-4.1
	c-0.8-0.8-0.6-2.1,0.2-3.1c0.9-1.1,2.1-1.2,3.3-0.9C117.2,222.2,118.7,224.5,118.7,227.9z"/>
<path class="st107" d="M402.2,132c-0.7,9.2-1.4,18.5-6.3,26.6c-4.2,7.1-8.5,14.3-16,18.6c-0.1-0.2-0.1-0.4-0.1-0.6
	c-0.4-2.5-0.3-5.1,0-7.6c0.3-2.3,1.6-3.9,3.7-4.9c1.7-0.9,3.4-1.9,5.1-2.8c5.3-2.9,6.8-6.2,5.9-12.2c-0.5-3.2-1.5-6.5-0.4-9.7
	C395.5,135.6,397.9,132.7,402.2,132L402.2,132z"/>
<path class="st108" d="M344.5,190.9c-2.2,3-6,2.7-9,4.2c-4.9,2.4-9.4,5.8-14.6,7.6c2.1-5.9,5.3-11.2,9.8-15.4c2.1-2,5-3.5,8.2-2.3
	C341.7,186.1,344,187.7,344.5,190.9z"/>
<path class="st109" d="M312.8,214.4c-3.9,1.8-7.9,3.1-12.2,2.5c0-0.1-0.1-0.3-0.1-0.5c5.3-3.4,9.9-7.9,15.7-10.7
	c1.2-0.6,2.3-1.2,3.5-1.8C318.8,208.4,315.8,211.4,312.8,214.4L312.8,214.4z"/>
<path class="st52" d="M396.5,111.5c0,1.1,0.2,2.3,0,3.4c-0.2,1.3-1.1,2.5-2.5,2.1c-2.8-0.8-5.5-0.2-8.3-0.5c-3-0.3-5.4-1.2-6.5-4.3
	c3.6-1.6,7.5-1.5,11.3-1.6C392.6,110.5,394.8,110,396.5,111.5L396.5,111.5z"/>
<path class="st110" d="M343.3,175.2c-1.5-1.5,0.2-2.1,0.9-2.8c3.3-3.2,7.2-1.4,10.9-1.2c0.4,0,0.8,0.3,1.2,0.4
	c4.7,0.8,5.4,2,3.8,6.9C354.7,176.6,349.2,175.1,343.3,175.2L343.3,175.2z"/>
<path class="st111" d="M343.3,175.2c0-1.4,0.8-1.4,1.9-1.1c4.4,0.9,8.8,1.8,13.2,2.6c1.1,0.2,1.6,0.8,1.7,1.8
	c-2.5,2.7-5.9,1.9-8.9,2.2C347.1,181.2,344.9,178.5,343.3,175.2z"/>
<path class="st112" d="M396.5,111.5c-5.8-0.3-11.5,0.5-17.2,0.7c-2-2.4,1.6-2.3,1.7-3.8c1.3-1.6,3.4-2,5-1.7
	c3.2,0.6,6.8,0.2,9.4,2.9C396.7,109.7,396.8,110.5,396.5,111.5z"/>
<path class="st113" d="M377.4,139.9c-1.2-5.1-2.5-10.1-3.7-15.2c2.8,0.5,4.4,2.7,5.3,4.9c0.8,1.9,1.6,3.9,1.8,6.1
	C381.1,139,380.9,139.5,377.4,139.9z"/>
<path class="st114" d="M395.5,109.6c-4.6-2.2-9.4-3.3-14.4-1.2c1.4-2.2,4.9-3.2,7.5-1.9c1.1,0.5,2.3,1,3.2,0.7
	C394.4,106.1,394.8,107.9,395.5,109.6L395.5,109.6z"/>
<path class="st29" d="M379.8,169.1c0,2.5,0,5.1,0,7.6C379,174.2,378.9,171.6,379.8,169.1z"/>
<path class="st115" d="M320.2,135.1c-4.5,2.7-8.5,6.2-12.3,9.8c-1-2.4-0.3-4.6,1.2-6.4c1.8-2.2,4.2-3.9,6.2-5.9
	C317.4,130.7,319.2,133.1,320.2,135.1z"/>
<path class="st116" d="M319.1,115.8c-1.4-2.5,0.5-4.2,2-5.4c1.5-1.2,3.3-2.6,5.5-2.8c0.4,0,0.8-0.1,1.2-0.3c0.9-0.5,1-2.5,2.5-1.6
	c1.3,0.8,2.8,1.8,2.6,3.8C328.5,112.4,323.8,113.9,319.1,115.8z"/>
<path class="st117" d="M319.1,115.8c0-0.2,0-0.5,0.2-0.6c4.5-1.9,8.8-4.3,13.5-5.6c-0.2,1.7,0.7,3.9-2.1,4.3
	c-0.5,0.1-0.9,0.8-1.4,1.1C324.8,118.6,324.1,118.6,319.1,115.8z"/>
<path class="st118" d="M291.8,164.8c-1.1-2.2,1.2-3,2-4.3c1.1-2,2.8-3.7,4.1-5.6c0.4-0.6,0.9-1.6,1.9-1.3c1,0.4,1.5,1.4,1.3,2.5
	c-0.1,1.1-0.4,2.2-0.6,3.3C298.3,162.3,295.1,163.6,291.8,164.8L291.8,164.8z"/>
<path class="st119" d="M288.6,154.3c-0.7,1.4-1.4,1.2-1.6-0.2c-0.5-3.3-1-6.7-1.3-10.1c-0.1-0.7-0.7-2.1,0.7-2.3
	c1-0.1,2,0.4,2.6,1.3c0.5,0.7,0.3,2,1.6,1.9C290.9,148.3,288.8,151.1,288.6,154.3L288.6,154.3z"/>
<path class="st120" d="M291.8,164.8l8.7-5.4c1,0,2.7-1.5,2.5,0.9c-0.1,1.4,1.2,3.8-1.8,4C298,164.4,294.9,164.6,291.8,164.8
	L291.8,164.8z"/>
<path class="st121" d="M288.6,154.3c-0.7-3.4,1-6.2,2-9.3c0.6-0.6,0.7-2.5,2.1-1.1c1,1,3.2,1.9,1.7,3.9
	C292.5,150.1,290.5,152.1,288.6,154.3L288.6,154.3z"/>
<path class="st24" d="M290.5,173.5c-0.6-0.2-1-0.6-1.3-1.2c1-1,0.4-1.4-0.5-2c-1.2-0.7-1-2.1-0.4-3c0.9-1.3,1.5,0.1,2.1,0.6
	C294,170.2,294,170.8,290.5,173.5L290.5,173.5z M288.7,172.2c-0.8,0.1-1.2,0.5-1.2,1.3c-2.8-1.2-3.4-3.5-3.1-6.3
	c0.1-0.9,0.5-1.7,1.5-1.6c1.3,0.1,0.4,1.1,0.4,1.7C286,169.5,287.4,170.8,288.7,172.2z"/>
<path class="st29" d="M235.3,186.6c0.7,1.4,1.3,2.8,2,4.2c-0.1,1.1-0.7,1.9-1.9,1.9C235.3,190.7,235.3,188.6,235.3,186.6z
	 M234.7,186.6c-1-0.7-0.2-4.6-3.1-1.7c-0.1,0.1-0.6-0.2-0.7-0.4c-0.3-0.5,0.2-0.8,0.5-1c1.9-1.4,3-0.3,4,1.3l0,1.8H235L234.7,186.6z
	"/>
<path class="st122" d="M206.8,247.4c0-5.5,0-5.5,5.3-5.6c2.1,0,3.8-0.4,5-2.4c0.8-1.4,1.8-2,3.8-1.1c1.7,0.8,4.1,0.3,6.1,0.4
	c0.6,0,1.3,0,1.4,0.9c0.1,0.7-0.5,0.8-1,1c-2.1,1.1-3.3,3-5,4.6c-0.7,0.6-0.9,1.4-0.3,2.2c0.8,0.9,1.4,0.2,2.1-0.3
	c1.3-1,2.7-1.9,4.1-2.8c0.9-0.7,1.9-0.9,2.8,0c1.2,1.1,0.7,6.7-0.7,7.6c-1,0.6-2.1,1.3-1.8,2.6c0.3,1.4,1.6,2.1,3,2.2
	c1.5,0.2,3.1,0,4.6-0.5c1.9-0.6,2.9-1.3,2.4-3.7c-0.8-3.7,0.8-5,4.6-4.2c1.2,0.2,1.7-0.1,2.1-1.1c0.6-1.6,0.9-3.2,0.5-4.9
	c-0.4-1.7-1-2.9-3.1-1.7c-2.7,1.5-4.7-0.4-6.6-1.9c-1.5-1.2-1.5-2.9-1.1-4.5c0.2-1,0.6-2,1.9-2.2c1.3-0.1,7.2,3.3,7.6,4.6
	c0.5,1.9,1,2.1,2.6,0.7c2.6-2.2,4.7-1.5,5.5,1.9c0.5,1.9,0.9,3.8,2.6,5.1l1.2,1.2c-0.6,0-1.2,0-1.9,0c-4.3,0-4.3,0-2.9,4.1
	c0.2,0.6,0.6,1.2,0.1,1.7c-0.7,0.7-1.3,0.1-1.9-0.3c-0.8-0.5-1.6-1-2.3-1.6c-1.4-1-2.4-0.7-3.4,0.7c-0.7,1-1.4,2.1-2.4,2.8
	c-2.5,1.7-2.2,3.3-0.3,5.2c1.5,1.5,2.9,2.9,4.9,3.7c3.3,1.4,5.3,4.2,7,7.1c0.9,1.6,0.4,3.9-1.6,4.7c-2.2,0.9-3.4-1.1-3.8-2.7
	c-0.6-2.3-2.2-3.3-3.7-4.7c-3.4-3.3-8-2-11.9-3.3c-0.3-0.1-0.8,0.1-1.1,0.4c-2.4,1.9-4.8,2.1-7.8,1.5c-2.5-0.4-4.9,1.1-7.3,2.2
	c-3.1,1.5-4,1-5.6-2c-0.8-1.5-0.4-2.4,0.7-3.5c1.9-1.8,4.2-2.7,6.6-3.1c1.9-0.3,2.2-1,1.2-2.4c-2.4-3.4-2.1-6.4,0.7-9.4
	c1.3-1.4-0.8-4.3-3.3-4.3c-2.5,0-4.9,0.4-6.9,2.2C208.8,245.6,207.8,246.5,206.8,247.4L206.8,247.4z"/>
<path class="st104" d="M229.8,290c0.3,1.7-0.3,3.6-2.4,4.4c-2.3,0.9-3.9-0.9-4.7-2.5c-1.1-2.4-4-3.9-3.5-7.2
	c0.4-2.8,1.8-3.8,4.5-3.2C228.4,282.5,229.4,284.6,229.8,290z"/>
<path class="st86" d="M267.5,279.6c4.1,0,5.1,1.1,5.1,5.1c0,2.3-1,4.1-2.1,6c-0.5,1-1,2.2-2.5,1.7c-1.3-0.4-2.2-1.4-2.1-2.8
	c0.2-2.6-0.7-4.1-3.3-4.7c-1.2-0.3-1-1.3-0.5-2.2C263,280.7,264.8,279.6,267.5,279.6L267.5,279.6z M230.6,310.7
	c0,0.9-0.4,1.7-1.1,2.1c-0.9,0.5-2.1,0.6-2.9-0.1c-1.6-1.4-3.1-2.7-5.2-0.5c-0.8,0.8-1.9,0.1-2.3-0.8c-0.7-1.5-2-3-0.5-4.8
	c0.8-1,1.5-1.9,2.3-2.9c1.3-1.5,2.8-2.2,4.5-0.8C227.9,305,229.8,307.5,230.6,310.7L230.6,310.7z"/>
<path class="st123" d="M234.1,277.7c0.2-1.4,1.1-2.9,3.4-2.9c2.8,0,6,3.5,5.9,6.2c-0.1,1.8-2.6,4.3-4.2,4.2
	C236.8,285.1,234,281.3,234.1,277.7z"/>
<path class="st124" d="M276.9,271.6c-0.1-0.9-0.1-1.9-0.4-2.7c-0.7-2.5,0.5-3.5,2.8-3.5c2.6,0,6,4.7,4.8,7c-1.6,3.3-4.2,1.9-6.6,1.1
	C276.8,273,276.9,272.2,276.9,271.6L276.9,271.6z"/>
<path class="st93" d="M281.4,301.3c-2.4-0.1-3.6-1.5-3.3-3.8c0.4-2.7,5.7-8.3,8.4-8.8c3.4-0.6,4.8,1,3.8,4.2
	C288.8,298.3,285.4,301.5,281.4,301.3z"/>
<path class="st31" d="M217.4,187.8c2,0.4,3.2,2.2,4.9,3.1c-0.8,0.6-0.6,1.4-0.6,2.2c0,1.3-0.6,2.1-2,2.1c-1.5,0.1-2.1-0.8-2.2-2
	C217.3,191.4,217.4,189.6,217.4,187.8z"/>
<path class="st29" d="M234,180c-0.1,1.1-3-2-1.6,1.2c0,0-0.5,0.3-0.7,0.3c-0.6-0.1-0.7-0.7-0.8-1.2c-0.1-0.5-0.2-1.1,0.5-1.1
	C232.4,179.2,233.6,178.6,234,180z"/>
<path class="st125" d="M136,250.3c0.2,1.8-0.8,3-2.5,3.5c-1.5,0.5-2.5-0.5-3.2-1.7c-0.6-1-1.5-2-2.1-3.1c-0.9-1.8-2.2-4,0.4-5.3
	c2.9-1.4,4.9-1.5,6.2,1.9C135.4,247.1,136.1,248.5,136,250.3L136,250.3z"/>
<path class="st124" d="M132.3,279.3c0.9-2,0.6-4.3,0.6-6.5c0-1.9,0.9-2.6,2.7-2.5c1.8,0.2,3.7,0.6,3.9,2.7c0.3,2.6-2.5,6.8-5,8
	C132.8,281.8,132.2,281.2,132.3,279.3L132.3,279.3z"/>
<path class="st126" d="M80.8,217.9c0,2.5-4.3,7.9-6.4,8.1c-1.7,0.2-2.3-1.2-3.1-2.2c-1-1.1-1.7-2.7-0.6-3.9c1.4-1.6,2.5-3.4,4.3-4.8
	c1.5-1.1,2.9-1.3,4.5-0.5C81.3,215.4,80.6,216.9,80.8,217.9L80.8,217.9z"/>
<g id="Layer_2">
</g>
</svg>
