<svg version="1.1" id="Layer_1" xmlns="http://www.w3.org/2000/svg" x="0" y="0" viewBox="0 0 500.49 349.8" xml:space="preserve"><style>.st0{fill:#fff}.st1{fill:#9b3320}.st3{fill:#d0572a}.st7{fill:#fecc4a}.st8{fill:#cf572a}.st21{fill:#88251b}.st24{fill:#b53926}.st25{fill:#fecc4b}.st28{fill:#fcb74b}.st30{fill:#e17229}.st32{fill:#65290f}.st33{fill:#a92923}.st35{fill:#4b1d0d}.st37{fill:#9e2521}.st42{fill:#fdde65}.st43{fill:#e7862a}.st52{fill:#739e40}.st53{fill:#a1c44c}.st55{fill:#78a140}.st61{fill:#bb4d28}.st62{fill:#65280f}.st64{fill:#ae3c25}.st87{fill:#8f2b1d}.st88{fill:#8d2b1d}.st95{fill:#662910}.st102{fill:#c8b546}.st106{fill:#92371f}.st126{fill:#692811}</style><path class="st0" d="M3.25 234.95c0-77.3.01-154.6-.06-231.9C3.19.78 3.7.37 5.9.37c91.16.07 182.31.06 273.47.06.03 1.54-1.33 1.35-2.18 1.63-3.35 1.11-6.45 2.65-9.14 4.94-.63.54-1.25 1.2-2.06 1.32-5.57.85-9.05 4.71-12.31 8.7-6.58 8.05-14.59 14.52-22.57 21.04-3.04 1.59-6.45 2.16-9.59 3.48-9.71 4.09-18.26 9.97-26.09 16.94-3.69 3.29-7.69 6.25-11.1 9.85-7.85 7.43-15.42 15.16-23.96 21.82-.38.42-.74.85-1.15 1.24-1.64 1.29-3.38 2.46-4.94 3.86-7.34 6.19-14.74 12.32-22.04 18.56-8.91 7.61-17.06 15.91-24.35 25.06-4.25 5.33-8.39 10.75-13 15.77-6.78 7.17-14.85 12.92-21.88 19.81-3.48 2.5-6.14 5.87-9.22 8.79-6.01 5.72-11.43 11.93-16 18.87-.67.9-1.3 1.82-1.9 2.77-.88 1.29-1.41 2.86-2.82 3.75-.26.15-.53.27-.8.38-10.55 3.86-20.34 9.15-29.41 15.76-3.2 2-5.52 4.8-7.4 8.03-.54.88-.66 2.29-2.21 2.15zM499.63 71.78c0 91.77-.01 183.54.06 275.32 0 2.23-.44 2.7-2.69 2.7-87.02-.07-174.05-.06-261.07-.06.03-1.54 1.38-1.3 2.26-1.56 3.27-.98 6.46-2.15 9.53-3.66 6-2.95 12.42-4.58 19.01-5.32 2.94-.33 6.01.16 8.92.67 8.05 1.41 14.1-1.63 19-7.74 3.32-4.14 5.79-8.81 8.3-13.43 3.79-6.98 8.71-13.04 14.52-18.41 4.48-4.14 9.98-5.68 15.92-5.94 4.54-.2 9.06-.6 13.6-.77 9.26-.35 15.64-5.98 21.17-12.62 5.81-6.96 12.43-12.47 21.18-15.51 11.34-3.94 22.79-7.42 34.42-10.34 9.17-2.3 17.82-5.76 26.17-10.27 5.75-3.11 11.43-6.11 16.29-10.58 5.13-4.72 8.02-10.45 8.39-17.36.37-6.98 1.78-13.67 4.53-20.12 3.05-7.15 3.32-14.38.25-21.68-.96-2.28-1.79-4.62-2.58-6.98-1.73-5.21-1.27-10.15 1.81-14.8 2.4-3.63 5.27-6.89 7.76-10.45 2.3-3.28 3.83-6.73 3.81-10.9-.03-4.95-2.27-8.24-6.58-10.29-2.33-1.11-4.73-2.07-7.23-2.76-1.08-.3-2.27-.39-3.04-1.38-.69-2.05.81-3.28 1.86-4.6 4.55-5.72 9.05-11.47 13.73-17.08 1.86-2.23 2.68-4.27.85-6.84-.47-.66-.68-1.5-.56-2.36 2.99-4.67 6.04-9.31 8.95-14.04.31-.52.68-1.08 1.46-.84zM228.48 349.73c-74.18 0-148.36-.01-222.54.05-2.07 0-2.78-.22-2.77-2.62.11-32.23.07-64.46.07-96.7 1.39-.14 1.6 1.09 2.13 1.89 2.35 3.54 4.99 6.8 8.21 9.63 3.18 2.79 6.11 5.87 9.01 8.96 3.76 4.01 5.61 8.93 6.05 14.3.61 7.46 5.25 11.59 11.43 14.56 2.42 1.16 4.94 2.11 7.39 3.22 5.27 2.39 9.86 5.62 13.19 10.46 1.18 1.71 2.68 3.14 4.2 4.56 3.25 3.04 7.06 4.11 11.45 3.3 3.67-.68 7.24-1.76 10.82-2.74 9.64-2.66 19.19-2.59 28.71.51 4.42 1.44 8.67 1.14 12.97-.73 4.76-2.08 7.97-5.17 9.29-10.39 2.13-8.44 8.79-13.51 14.86-18.96 4.54-3.22 9.13-6.33 14.85-7.09 3.22-.3 6.12.68 8.88 2.24 4.73 2.68 6.84 7.11 5.81 12.57-.63 3.36-1.62 6.62-2.86 9.81-1.47 3.76-2.65 7.6-3.64 11.53-1.56 6.21 1.54 10.66 7.04 13.17 3.31 1.51 6.89 2.25 10.49 2.7 6.5.82 12.34 3.08 17.69 6.94 4.63 3.33 9.75 5.83 15.31 7.35.81.21 1.99.1 1.96 1.48zM284.32.43c70.94 0 141.88.01 212.83-.06 2.12 0 2.56.41 2.54 2.54-.1 19.65-.06 39.29-.06 58.94-.41.16-.81.12-1.19-.09-14.19-7.75-29.5-12.27-45.23-15.58-1.52-.32-3.1-.18-4.62-.52-2.16-.59-4.37-.26-6.55-.31-1.03.03-2.05-.01-3.08-.04-.68 0-1.36-.07-2-.3-1.29-.58-1.58-1.84-1.97-3-1.11-3.33-2.25-6.65-3.28-10.01-2.36-7.68-7.57-11.32-15.64-11.56-6.53-.19-12.44 1.57-18.04 4.71-5.07 2.9-9.59 6.43-12.92 11.31-1.18 1.72-2.7 3.11-4.15 4.58-2.74 2.02-5.14 4.42-7.52 6.84-.32.3-.67.54-1.06.73-.8.31-1.68.42-2.39.94-2.41 1.78-4.02 4.35-6.27 6.29-.93.8-1.8 1.72-3.04 2-1.47.34-2.47-.04-2.2-1.85.84-1.99 2.21-3.72 2.78-5.86 1.15-4.31.15-7.71-3.63-9.52-12.1-5.81-24.17-11.76-37.7-13.63-2.68-.37-5.36-.18-8.04-.26-2.47-.08-4.96.2-7.42-.2-2.67-1.4-3.72-4.02-4.84-6.56-1.69-3.87-3.08-7.85-5.79-11.24-2.24-2.8-4.73-5.15-8-6.66-.67-.33-1.69-.46-1.52-1.63z"/><path class="st1" d="M228.48 349.73c-8.13-2.01-15.13-6.21-21.95-10.91-4.7-3.24-10.48-3.54-15.94-4.55-3.77-.7-7.47-1.54-10.71-3.76-4.09-2.8-5.7-6.59-4.92-11.49.75-4.73 2.66-9.08 4.19-13.57.86-2.53 1.73-5.08 2.3-7.69 1.79-8.19-3.13-14.54-11.57-15.1-.72-.05-1.44-.04-2.16-.06-1.68-1.13-2.85.5-4.26.81-.69.15-1.5.61-1.91-.24-.36-.76.27-1.42.88-1.76 1.88-1.06 3.77-2.1 5.8-2.87 5.08-1.92 8.92-5.43 12.16-9.66.62-.8 1.56-1.7 1.02-2.74-1-1.89-2.39-3.5-1.31-5.96.32-.72-1.91-.54-2.07-1.82 0-.65.33-1.16.7-1.65 2.43-3.17 6.92-4.16 8.64-8.15.2-.47 1.09-.42 1.62.08-.69 3.44-.67 7.11-2.84 10.1-.83 1.14-.62 1.8.35 2.55.66.51 1.43 1.12 1.46 1.93.21 5.18 3.34 9.64 3.52 14.82.04 1.2-.27 2.22-.82 3.23-4.31 4.19-3.93 9.25-2.55 14.42.78 2.95.94 5.84.41 8.87-.71 3.99-.5 8.03.45 11.98.76 3.15 2.58 5.27 5.85 6.14 4.78 1.27 9.61 2.37 14.24 4.21 3.01 1.2 5.86 2.54 8.41 4.53 4.34 3.39 9.12 5.51 14.72 5.83 3.17.18 6.25 1.3 9.51 1.11 2.21-.13 4.47-.41 6.17-1.75 3.97-3.13 8.65-4.38 13.41-5.3 4.4-.85 8.56-2.23 12.6-4.11 3.48-1.61 7.07-2.89 10.82-3.72 1.9-.42 3.14-1.36 3.25-3.52.13-2.69 2.06-4.43 3.7-6.26 2.63-2.91 5.69-5.4 8.14-8.48.82-1.1 1.84-2.01 2.78-3 4.43-4.1 8.28-8.81 13.06-12.54 2.39-2.69 4.75-5.41 7.39-7.87.82-.76 1.53-1.69 2.71-1.96.29-.02.58.02.86.11 1.73 1.28 2.33 3.56 4.18 4.73.21.18.39.39.54.62.45 1.73 1.94 1.56 3.23 1.77 4.26 2.11 8.81 1.74 13.33 1.56 1.58-.06 2.91-.89 4.29-1.62 5.69-3 10.49-7.19 15.32-11.35 4.25-4.4 9.01-8.23 13.64-12.2 4.1-1.98 8.5-3.16 12.72-4.82 6.53-2.57 13.07-5.1 19.56-7.78 5.41-2.24 11.24-2.7 16.95-3.41 18.08-2.24 30.22-13.22 40.32-27.13 3.05-4.2 3.8-9.09 1.67-14.11-.33-.77-.56-1.55-.42-2.41.27-1.34.91-2.53 1.52-3.71 3.27-6.27 3.6-12.82 1.82-19.53-.74-2.79-1.44-5.59-2.09-8.41-2.23-9.65-.51-18.6 4.81-26.89 1.51-2.34 3.3-4.48 4.95-6.73.98-1.34 1.88-2.73 2.39-4.31 1.44-4.39-1.22-8.98-5.7-9.86-2.57-.5-5.12-.35-7.67.28-1.59.39-3.14 1.08-4.84.79-.4-.18-.69-.48-.64-.93.25-2.22 4.52-6.7 7.01-7.39 3.48 1.16 7.08 1.96 10.38 3.65 6.42 3.28 8.65 8.5 6.75 15.45-1.35 4.97-4.71 8.63-7.7 12.56-1.31 1.72-2.63 3.45-3.81 5.26-2.75 4.27-3.19 8.86-1.59 13.64.52 1.57 1.06 3.14 1.77 4.63 4.14 8.65 4.15 17.32.28 26.04-2.28 5.15-3.78 10.49-3.81 16.15-.06 11.07-5.62 19.1-14.49 24.82-12.46 8.03-25.83 14.06-40.39 17.41-11.26 2.59-22.23 6.2-33.09 10.19-6.95 2.56-12.43 6.78-17.11 12.31-.6.71-1.25 1.38-1.82 2.11-7.26 9.43-16.66 14.16-28.72 13.36-2.56-.17-5.15.26-7.73.44-6.55.47-12 3.05-16.69 7.79-6.11 6.18-10.63 13.39-14.77 20.92-2.09 3.8-4.48 7.4-7.38 10.67-4.56 5.14-10.25 7.3-16.95 6.17-10.2-1.73-19.72.27-28.82 4.73-3.82 1.87-7.9 2.86-11.86 4.25-2.48.06-4.97.06-7.45.06z"/><path d="M153.4 289.56c-3.19 2.94-6.57 5.66-9.35 9.03-2.32 2.82-4.72 5.77-5.13 9.4-1.07 9.29-14.7 14.94-21.83 12.36-11.52-4.18-22.91-3.34-34.33.27-1.28.4-2.59.71-3.88 1.06-6.75 1.82-12.63.45-16.78-5.37-5.38-7.55-12.76-12.05-21.24-15.28-7.59-2.89-12.72-7.94-13.21-16.63-.37-6.62-4.03-11.54-8.53-16-3.67-3.63-7.82-6.79-11.04-10.86-1.76-2.24-3.23-4.71-4.83-7.07v-6.82c1.48-.06 1.5 1.24 1.79 2.1 1.76 5.11 5.32 8.16 10.49 9.46.5.12 1 .26 1.49.4 13.58 4 10.4 2.68 22.2 12.52.15-.76-.12-1.63.58-2.22 2.15.48 1.33 2.26 1.44 3.52.47 5.48 2.09 10.5 5.58 14.83 2.27 2.81 5.48 4.38 8.52 6.07 2.39 1.34 4.16 3 5.17 5.5 1.42 3.5 3.6 6.16 7.31 7.53 2.03.75 3.73 2.16 5.19 3.83 1.96 2.23 2.5 2.21 4.74.11 1.2-1.13 2.39-2.29 3.51-3.5 2.54-2.75 5.43-3.1 8.71-1.49 3.63 1.79 6.86 4.22 10.28 6.35 2.15 1.35 4.45 2.2 6.84 2.82 2.94.77 5.62.21 7.34-2.55 2.84-4.56 6.69-5.42 11.47-3.44 1.05.43 2.16.72 3.29.86 3.97.49 7.11-2.17 7.27-6.15.05-1.24.08-2.48 0-3.72-.15-2.35.68-4.02 2.99-4.82 3.59-1.81 6.86-4.15 10.17-6.4 1.33-.91 2.4-2.33 4.22-2.4.2.01.42.02.59.11 1.11.63 2.94.56 3.25 1.91.37 1.62-1.58 1.81-2.5 2.65-.67.59-1.42 1.15-1.78 2.03z" fill="#9a3320"/><path class="st3" d="M39.88 265.98c-.21.87.25 1.83-.45 2.81-3.24-1.62-5.76-4.23-8.4-6.55-4.18-3.68-9.39-4.56-14.38-5.83-6.69-1.7-11.16-5.27-12.86-12.06-.07-.26-.36-.47-.55-.7v-4.96c.92-6.25 4.92-10.54 9.3-14.59 8.82-6.58 18.39-11.78 28.76-15.49.28-.1.6-.11.9-.16 1.29 1.31.29 2.51-.27 3.63-1.83 3.68-3.49 7.38-4.57 11.4-1.15 4.27-1.19 8.53-.82 12.83.19 2.25.8 4.46 2.7 6.03 1.12.92 1.42 2.21 1.46 3.6.21 4.5-1.05 8.93-.62 13.45.12 1.32-.03 2.66.36 3.96.13.92.21 1.87-.56 2.63z"/><path d="M284.32.43c7.77 3.03 12.15 9.17 14.98 16.61 1.22 3.21 2.66 6.23 4.88 8.85 2.25 1.02 3.52 3.24 5.59 4.49 2.68 2.26 5.44 4.51 7.22 7.54 3.65 6.2 9.05 9.96 15.76 12.08 1.77.56 3.47 1.29 5.16 2.05 4.55 1.73 8.65 4.08 11.4 8.29.79 1.2 1.64 2.36 1.18 3.93-1.34 2.1-3.06 3.69-5.61 4.17-5.67-.31-11.37.13-17.02-.79-1.86-.3-3.66-.73-5.29-1.66-2.34-1.34-2.45-2.51-.44-4.22.94-.8 2.01-1.47 2.79-2.45 2.19-2.72 1.37-5.18-1.98-5.97-8.1-1.91-8.09-1.91-9.37-10.02-.26-1.62-.24-3.32-1.2-4.77-.87-1.32-2.04-2.12-3.66-1.68-1.74.47-1.69 1.88-1.46 3.27.68 4.09-.19 8.04-1.2 11.95-.88 3.41-2.13 4.2-5.37 3.16-2.46-.78-2.83.36-3.09 2.32-1.42 10.73-3.02 21.44-5.62 31.97-.54 2.19-1.5 4.26-1.69 6.58-.1 1.23-.69 2.42-2.22 2.62-3-2.27-2.91-5.74-3.26-8.92-.7-6.37 1.15-12.3 4.01-17.89 1.58-3.09 2.3-6.4 3.12-9.7.63-2.54.07-4.92-1.93-6.82-.66-.63-1.45-1.19-1.59-2.21 1.23-2.35 3.36-1.45 5.18-1.31 3.29.24 3.89.04 4.02-3.3.32-8.84.74-17.62-2.91-26.16-3.89-9.11-13.25-15.48-23.17-14.9-1.34.08-3.07 1.11-4-.91 3.14-3.61 7.67-4.57 11.85-6.21 1.64.01 3.29.01 4.94.01z" fill="#bd3e27"/><path d="M448.86 45c12.02.99 23.3 4.84 34.49 9.03 2.6.98 5.22 1.91 7.82 2.87 3.11 1.15 6.01 2.66 8.46 4.94v9.93c-3.42 4.89-5.94 10.38-9.91 14.89-2.29.16-2.77-1.92-3.93-3.16-.09-.65.14-1.24.35-1.83.75-2.06.91-4.19.88-6.36-.09-6.11-3.5-9.74-9.62-10.1-2.56-.15-5.12-.05-7.68-.02-.78-.04-1.57.19-2.35-.03-7.26-5.8-15-10.91-22.94-15.72-1.16-.7-2.47-1.05-3.62-1.72-1.18-.68-2.79-1.24-2-3.2h3.18c2.24.72 4.61-.13 6.87.48z" fill="#e59a25"/><path d="M12.55 224.09c-.91 2.31-3.15 3.48-4.64 5.3-2.26 2.76-3.07 6.22-4.67 9.29v-3.72c2.45-4.19 4.64-8.59 9.31-10.87z" fill="#994627"/><path class="st7" d="M159.79 89.66c8.06-6.23 15.14-13.55 22.56-20.48.45-.42.94-.79 1.42-1.18 7.04-4.37 14.89-7.01 22.39-10.39 3.9-1.76 7.27-4.34 10.5-7.08 3.71-3.15 7.41-6.27 12.16-7.79.29-.09.68-.18.82-.42 2.29-3.85 6.8-3.77 10.14-5.75 3.3-.26 5.02.82 6.34 4.07 1.48 3.64 2.11 7.54 3.38 11.24.98 2.86 2.23 5.52 4.8 7.38 2.55 1.85 5.1 2.11 8.14 1.09 3.74-1.27 6.6-4.26 10.53-5.06 1.45 1.5 1.32 2.85-.75 4.24-2.05 1.38-4.32 2.4-6.57 3.43-4.44 2.04-8.32 4.9-11.94 8.14-1.03.92-1.23 1.83-.22 2.9.42.44.81.96.47 1.65-1.71 1.06-4.11.35-5.5 2.19-.98 1.34-1.15 2.61-.3 4.19.95 1.77 1.44 3.75 1.03 5.82-.95.78-1.8 1.53-1.92 2.95-.41 4.87-2.36 9.04-6.15 12.21-.98.82-.92 2-1.38 3-1.85.79-2.15-1.67-3.61-1.71-1.35-.12-2.69-.1-3.98.38-.96.36-1.65.88-1.17 2.08 1.47 3.74.11 7.35-.54 11-2.28-.73-1.44-2.69-1.43-4.13.02-2.33-.79-2.6-2.79-1.86-8.24 3.05-16.05 7.09-24.14 10.49-4.82 2.03-7.39 5.65-6.95 11.23.23 2.85-.17 5.78-2.17 8.17-1.8.71-3.62.59-5.45.18-.19-.07-.36-.19-.53-.3-.89-.62-.86-2.66-2.21-2.17-1.47.53.24 1.68.15 2.62-.09.91-.37 1.62-1.18 2.01-.82.4-1.68.26-2.29-.38-1.29-1.37-2.89-2.32-4.39-3.41-2.52-1.83-5.15-1.72-7.08.62-1.32 1.6-3.06 1.48-4.68 1.95-1.11 1.34-2.81.61-4.14 1.2-.83.66-1.47 1.46-1.94 2.4-.69 1.38-.79 2.65.95 3.27 1.55.55 2.12 1.87 2.75 3.18.91 2.78-.12 4.68-2.97 5.58-.81.25-1.64.19-2.45.31-.78.11-1.59-.21-2.43.19 7.14-.22 11.79 5.96 9.52 12.54-.74 2.15-2.55 3.23-4.56 2.7-2.36-.62-1.76-2.36-1.36-4.24-1.75.46-3.35.7-4.94.98-1.28.23-2.47.2-3.47-.77-.7-.67-1.51-1.03-2.51-1.01-2.65.05-3.85-1.52-4.39-3.91-1.14-5.04-4.13-6.86-8.98-5.56-1.72.46-3.55.88-4.99-.52-1.52-1.48-.74-3.27-.21-4.94.19-.59.46-1.15.69-1.73 1.42-3.53 1.01-4.36-2.73-5.55-.31-.07-.61-.18-.91-.3-1.49-.54-2.09-1.57-1.55-3.1.59-1.7.58-3.65 2.05-4.99 8.1-1.57 16.28-3.3 24.27.15 3.71 1.6 6.76.8 9.86-1.11 1.22-.75 2.53-1.4 3.56-2.44.29-.39.6-.76.93-1.11.23-.24.51-.39.83-.45 5.95-.48 11.86-1.02 17.09-4.46 2-1.31 2.82-2.75 2.43-5.12-.57-3.46-1.05-6.97.92-10.23 1.07-1.77 2.1-3.57 4.17-4.39 1.65-.12 2.16 1.31 3 2.26 1.74 1.95 3.02 4.32 5.31 5.74 1.28-3.25 2.35-6.52 1.4-10.06-.48-1.02-.47-2.06.22-2.92 3.75-4.68 4.74-10.63 7.35-15.82 1.45-2.88 2.46-6.14 5.57-7.88 1.94-.64 3.43.07 5.09 1.17 2.51 1.64 4.94 3.74 8.31 3.42 1.22-.12 2.47-.1 3.43-1.02.95-5.76-.28-7.83-5.76-9.13-2.19-.52-4.29-1.31-6.45-1.91-2.93-.62-3.74-2.48-3.72-5.35.02-4.41-1.13-5.06-5.43-4.23-2.63.51-5.15 1.44-7.76 1.92-2.51.46-3.97 1.79-5.01 4.01-.94 2.01-1.7 4.29-4.33 4.83-1.64.07-2.97.48-3.2 2.45-.18 1.47-1.18 2.28-2.56 2.66-5.01 2.54-9.58 5.53-12.14 10.83-1.51 3.13-2.55 6.45-4.02 9.6-.65 1.41-1.13 2.92-2.99 3.15-1.19-.47-2.36-.96-2.19-2.58.19-.37.48-.66.83-.88 1.16-.73 1.74-1.63 1.29-3.08-.54-1.77-1.86-1.59-3.21-1.45-1.73-1.53-2.02-4.13-4.03-5.42z"/><path class="st8" d="M45.43 204.49c.56-.83 1.12-1.65 1.67-2.48 5.3-6.68 10.46-13.47 16.77-19.28 2.92-3.01 5.99-5.86 8.84-8.94 6.28-5.64 12.55-11.28 18.83-16.92 1-.9 1.98-1.8 2.97-2.71 1.24.44.7 1.38.41 2.02-.82 1.84-.86 3.78-1 5.72-1.62 4.08-5.46 5.74-8.84 7.77-3.04 1.82-5.93 3.74-8.31 6.36-1.2 1.32-2.29 2.86-1.47 4.73.79 1.8 2.61 1.81 4.27 1.85 9.74.27 19.33-1.06 28.87-2.82 3.97-.73 7.16-3.16 10.34-5.42 7.06-5.02 14.78-7.09 23.38-5.74.48.18.85.49 1.11.94.64 1.73.84 3.57 1.26 5.36 1.06 4.53 3.78 7.36 8.38 8.3 1.1.22 2.22.41 3.09 1.22 1.21 1.57.06 3.95 2.05 5.53-.01-2.07-1.82-4.18.43-5.82 2.92-1.01 5.92-1.56 9.01-1.64 1.37 1.25 1.02 2.84.68 4.31-.37 1.59-.82 3.17-2.92 1.16-1.25-1.2-3.16-.44-4.75-.92-.46 1.7 1.98 2.68.83 4.36-1.97 1.36-4.01 1.23-6.1.35-.99-4.9-4.49-4.92-8.59-5.04-14.33-.42-28.41 1.81-42.54 3.48-11.39 1.34-22.79 2.61-33.88 5.69-7.46 2.07-14.85 4.37-21.65 8.23-.96.54-1.98 1.24-3.14.35zM267.51 6.64c3.25.83 6.52-.36 9.88.49 8.2 2.07 14.23 6.41 17.76 14.26 4.32 9.6 3.92 19.57 2.93 29.67-.24 2.45-1.61 2.31-3.18 1.98-2.11-.44-4.18-1.04-6.24.15-.78.41-1.55.11-2.32-.04-2.48-.76-4.95-.24-7.43.02-1.47-.13-2.12-.99-1.57-2.32 1.8-4.35 2.15-9.04 3.3-13.53.93-3.62 3.72-5.67 6.65-6.93 5.87-2.53 5.15-9.68.69-12.83-4.21-2.97-8.77-4.6-13.77-5.06-2.73-.25-5.31.65-7.59 2.24-2.22 1.54-4.38 3.21-5.98 5.37-3.35 4.54-7.51 7.98-12.8 9.89-4.17 1.5-6.74 5.04-10.14 7.5-1.46.31-2.88.81-4.37.93-.92.08-2.01.57-2.61-.68 3.85-3.88 8.53-6.82 12.43-10.61 4.36-4.23 8.43-8.77 12.41-13.37 2.46-2.84 5.25-4.92 8.92-5.71 1.13-.27 2.07-.85 3.03-1.42z"/><path d="M93.26 161.73c-.6-2.69.94-5.03 1.25-7.57 9.94-12.03 19.1-24.75 30.82-35.22 8.44-7.53 16.89-15.05 25.88-21.92.97-.74 1.47-2.05 2.82-2.3 2.2 1.09 1.72 3.07.66 4.22-5.2 5.67-9.69 11.83-13.6 18.43-3.89 4.2-7.81 8.38-12.21 12.07-2.18 1.65-3.38 3.71-3.35 6.57.04 2.78-2.25 4.26-3.96 6-6.21 6.33-13.34 11.58-20.52 16.68-2.22 1.58-4.01 4.08-6.99 4.56-.71-.27-.38-1.09-.8-1.52z" fill="#fbb64c"/><path d="M45.43 204.49c2.79-.23 4.73-2.31 7.15-3.38 12.83-5.67 26.3-8.4 40.1-10.36 10.25-1.46 20.56-2.43 30.8-3.97 9.24-1.39 18.72-.97 28.11-.86 4.16.05 3.21 3.15 3.65 5.48-1.1 1.29-2.63.88-4.01.97-2.44.16-4.92-.29-7.3.59-6.59-.85-13.18.56-19.77.08-3.57.05-7.15-.34-10.7.26-.34.1-.69.17-1.04.21-2.39.27-4.82-.25-7.18.45-1.46.37-2.9.87-4.44.85-13.7 1.34-27.35 2.98-39.73 9.65-10.44 5.63-17.53 13.92-19.76 25.87-.16 1.22-.42 2.42-.79 3.58-.3.95-.64 2.03-2.07 1.62-.82-1.06-.7-2.32-.7-3.54.01-6.91.75-13.67 3.91-19.98.59-1.18 1.16-2.4 1.18-3.78.87-1.23 1.73-2.49 2.59-3.74z" fill="#b73a26"/><path d="M230.71 37.73c2.35-.25 4.7-.51 7.05-.76.66-.34 1.31-.51 1.91.12-1.87 1.22-3.65 2.7-6.08 2.55-.71-.05-1.29.13-1.48.81-.71 2.5-2.82 2.78-4.86 3.61-3.22 1.31-6.16 3.39-8.68 5.78-5.16 4.9-11.15 8.34-17.7 10.94-5.53 2.19-11.12 4.27-16.09 7.66-.38.26-.77-.05-1.01-.44 5.98-6.37 12.85-11.76 19.75-17.04 8.13-6.22 17.2-10.73 27.19-13.23z" fill="#fbb74c"/><path d="M140.38 117.08c3.07-6.52 8.23-11.62 12.21-17.52 1.22-1.8 2.74-2.62 1.43-4.84 1.45-1.55 3.04-2.91 5-3.78 1.26 1.55.76 3.31.54 5.01-.27 2.13-.78 4.23-.93 6.37.86 1.66 1.61.08 2.33-.14 1.45-.45 2.34-2.3 4.23-1.67.08 1.2 1.61 1.22 1.86 2.29-.09 3.56-3.32 4.75-5.35 6.71-2.23 2.15-5.16 3.31-8.42 3.43-3.71.14-6.97 1.73-10.13 3.52-.85.48-1.62 1.42-2.77.62z" fill="#fdcb4c"/><path d="M42.85 208.25c.72 1.17-.09 2.14-.48 3.11-3.13 7.76-4.02 15.85-3.69 24.12 1.59.55 1.92 1.99 2.38 3.34.38 1.08 1.15 1.86 1.98 2.6 1.08.97 1.44 2.14.85 3.52-1.18 1.11-2.29 2.67-3.93.55-.29-1.24-.8-2.1-1.91-3.07-2.01-1.76-2.35-4.66-2.55-7.35-.62-8.13 1.57-15.59 5.34-22.7.64-1.21 1.79-2.33 1.37-3.95.21-.04.42-.11.64-.17z" fill="#7b1f16"/><path d="M157.95 103.41c-.58-4.24 1.57-8.24 1.08-12.47.25-.43.51-.86.76-1.29 3.44.09 2.95 3.36 4.21 5.21-1.32 3.35-2.25 6.97-6.05 8.55z" fill="#97c649"/><path d="M64.09 182.86c-5.53 5.88-10.96 11.83-15.71 18.38-.27.37-.85.52-1.28.77 4.39-7.23 10.01-13.44 16.1-19.26.33-.22.63-.19.89.11z" fill="#a85134"/><path d="M64.09 182.86c-.3-.04-.59-.07-.89-.11 2.93-3.24 5.99-6.34 9.51-8.96-2.16 3.7-5.62 6.16-8.62 9.07z" fill="#9c4933"/><path d="M486.04 83.62c1.73.42 2.06 2.51 3.68 3.05 4.11 5.24.62 8.91-2.55 12.72-4.15 4.99-8.21 10.06-12.3 15.11-.64.79-1.46 1.5-1.4 2.67-3 2.03-4.82 5.07-6.84 7.95-.11 1.14-.97 1.88-1.49 2.8-.42.59-.89 1.15-1.53 1.5-1.37.73-2.33.38-2.16-1.25.23-2.19-.12-4.3-.36-6.44 1.14-4.33 3.99-7.62 6.82-10.86 2.03-2.33 3.93-4.78 6.08-6.99 4.81-4.93 6.54-11.6 9.89-17.36.61-1.07.91-2.33 2.16-2.9z" fill="#fbb54e"/><path d="M360.64 307.47c-3.95.01-7.32-2.93-7.41-6.46-.1-3.8 3.44-7.48 7.2-7.48 4.03 0 7.52 3.07 7.6 6.68.1 3.74-3.49 7.26-7.39 7.26z" fill="#9b3421"/><path d="M391.76 273.26c.4 2.61-1.31 3.29-3.5 3.33-2.01.03-4.15-.07-4.06-2.9.06-2 1.02-3.66 3.12-4 1.93-.31 4.39 1.78 4.44 3.57z" fill="#983521"/><path d="M402.83 271.32c-2.56.35-3.35-.62-3.34-2.54.02-2.51 1.44-3.81 4.43-3.95 1.78-.08 3.8 2 3.36 4.02-.55 2.55-3.17 2.01-4.45 2.47z" fill="#9a3823"/><path class="st21" d="M153.4 289.56c.04-2.57 2.94-2.67 4.1-4.67-1.36-.32-2.54-.79-3.53-1.59.03-2.21 1.89-3.05 3.27-4.18 6.1-4.98 10.78-11.33 16.36-16.8.39-.39.4-.93.48-1.44.05-.3.16-.58.3-.84 1.05-1.09 2.02-2.41 3.85-1.5.58.19 1.21.62 1.72.51 2.12-.45 1.96.25.96 1.62-.98 1.34-1.02 2.6.39 3.77 1.55 1.28 1.42 2.48.26 4.22-4.31 6.48-10.78 9.84-17.62 12.74-.87.37-1.75.58-2.1 1.78 1.61.23 2.66-1 3.97-1.32.68-.17 2.09-1.48 1.89.76-5.33 1.15-9.89 3.89-14.3 6.94z"/><path d="M167.31 301.37c-2.88-.08-5.64-.66-6.98-3.55-.91-1.96-.64-4.02.86-5.77 2.98-3.51 11.71-2.59 13.9 1.46 1.35 2.5-.24 5.77-3.56 7.04-1.33.51-2.74.91-4.22.82z" fill="#9b3321"/><path d="M147.71 307.88c-1.5.11-2.58-.48-2.52-2.59.08-2.52 1.77-3.82 4.82-3.97 3.19-.16 2.08 2.75 3.03 4.12.61.85-2.45 2.46-5.33 2.44z" fill="#973722"/><path class="st24" d="M461.72 121.4c.48 2.55 1.27 5.09-.1 7.9 1.99-.05 2.37-1.55 3.31-2.28 3.39-1.51 6.98-1.76 10.58-1.29 2.98.39 4.62 2.77 4.32 5.77-.1 1.04-.3 2.11-.92 2.92-5.9 7.67-8.37 17.47-15.41 24.48-3.62 3.6-4.15 8.6-4.62 13.47-.13 1.38.22 3.02-1.73 3.52-4.54-.37-8.61.47-11.59 4.33-.44.57-.99 1.08-1.84.84-.35-5.1 1.25-9.67 3.85-13.94 3.07-5.05 7.34-9.13 11.08-13.64 4.02-4.84 6.12-10.17 5.44-16.5-.1-.92-.18-1.84-.41-2.74-.59-2.25-1.69-2.36-3.19-.77-6.05 7.44-12.43 14.6-18.62 21.91-5.93 7-11.87 14.01-18.04 20.79-2.19 2.4-3.94 5.08-5.45 7.86-4.59 8.43-10.89 15.48-17.32 22.47-6.49 7.06-12.99 14.11-19.42 21.22-4.77 5.27-9.61 10.49-14.47 15.68-9.3 9.95-18.85 19.67-28.54 29.24-2.38 1.81-4.5 3.91-6.66 5.97-1.48 1.42-3.11 2.83-5.44 1.63-.23-.01-.45-.01-.68-.02-2.76-1.81-2.06-4.47-1.6-6.98.46-2.54 1.7-4.87 2.26-7.4 1.11-5.06-.36-7.93-5.34-9.06-9.52-2.15-13.02-9.25-13.93-16.85-.56-4.67-.06-9.24 2.4-13.49 2.93-5.06 7.49-7.23 12.97-6.79 12.16.98 23.71-.6 34.33-6.93 2.49-1.49 4.41-1.18 6.75.52 3.98 2.89 8.36 5.01 13.58 3.69 4.28-1.08 6.53-3.71 6.74-8.11.17-3.62.09-7.23-.86-10.77-.63-2.34-.04-4.16 1.88-5.75 7.56-6.28 14.26-13.48 21.12-20.49 6.51-6.65 12.54-13.74 16.63-22.23.98-2.04 2.41-3 4.72-2.44.8.19 1.64.16 2.47.1 3.63-.26 4.99-1.71 4.93-5.3-.06-3.93-1.4-7.49-3.26-10.88-2.19-3.99-4.07-8.13-6.11-12.19-3.89-7.75-2.54-15.47.53-23.09.81-2.01 1.53-4.06 2.46-6.02.3-.43.69-.75 1.19-.94 2.91-.08 3.81-1.84 3.9-4.46.31-9.05 1.33-18.11-.04-27.15-1.13-7.44-2.63-14.83-5.91-21.67-2.59-5.39-7.01-8.45-12.97-9.39-4.82-.76-9.65-.76-14.5-.53-1.04.05-2.3.73-2.94-.78 6.73-4.29 14.07-6.28 21.99-5.13 6.85.99 11.17 5.16 13.29 11.75 1.4 4.38 2.48 8.88 4.39 13.09 1.58 1.58 1.73 3.65 1.97 5.69-1.29 3.53-.86 7.02-.23 10.65 1.23 7.1 2.27 14.26 1.15 21.52-.16 1.05-.45 2.24.51 3.37 1.65-.99 1.95-2.54 2-4.22.06-2.27-.14-4.55.16-6.81.49-3.74 2.02-6.71 6.04-7.7.35 0 .67.08.97.25 1.6 2.14 1.75 4.81 2.57 7.23.94 2.76 2.69 4.18 5.47 4.81 11.05 2.51 13.74 7.6 9.8 18.4-1.38 3.78-2.59 7.63-4.18 11.32-1.77 4.01-2.06 8.09-1.43 12.34z"/><path class="st25" d="M369.81 48.76c.7-.7 1.63-.49 2.47-.62.47.07.92.17 1.34.41 2.02 1.18 3.4 2.91 4.53 4.95 3.13 5.63 5.19 11.68 6.9 17.84 1.24 4.47 3.25 7.97 8.11 9.09.57.79.83 1.71.65 2.64-1.4 6.93-3.89 13.16-11.34 15.66-4.37 1.47-7.96 3.61-9.97 8.05-.97 2.15-1.41 4.36-1.54 6.57-.25 4.51-.76 9.07.62 13.51-1.14 2.36-.2 4.92-.67 7.34-2.26 2.11-2.94 5.25-4.97 7.56-2.85 3.24-5.79 6.33-9.62 8.41-1.11.6-2.04 1.36-2.93 2.21-1.31 1.25-2.86 1.96-4.64 2.23-1.12.16-2.13.16-2.07-1.41.36-1.93 2.16-.91 3.16-1.55 2.21-2.58 2.17-2.79-.12-4.81-1.31-1.15-2.54-2.39-3.91-3.46-1.73-1.35-3.59-1.91-5.66-.75-.96 4.34-.45 5.45 3.31 7.39 1.33.69 2.93 1.15 3.13 3.04.44 2.1-.77 3.1-2.38 4.15-4.09 2.69-8.83 3.81-13.22 5.79-8.53 3.85-13.02 10.7-11.99 19.91.46 4.09-.15 8.23 1.06 12.3.59 2.01-.66 4.05-2.28 5.48-1.55 1.37-3.27 2.71-5.33 3.03-8.14 1.27-16.3 2.72-24.54.65-.33-.12-.6-.32-.8-.6-.73-2.38-.96-4.83-1.17-7.3-.35-4.11-2.31-6.15-6.39-6.64-2.27-.27-4.66-.34-6.75.4-4.57 1.63-9.39 2.4-13.88 4.28-5.56 2.32-11.29 2.09-17 .7-1.55-.37-3.27-.78-4.02-2.55.08-2.99 3.15-7.6 5.68-8.57.87-.33 1.6-.44 1.97.53-.61-3.69.64-7.02 2.72-10.02 1.44-2.07 2.51-4.24 3.12-6.67 3.34-3.87 5.9-8.52 10.73-10.93.84.1 1.58.37 1.93 1.23-.07 1.7-1.16 3.06-1.56 4.66-.5 1.98.2 3.03 2.28 2.93 2.68-.13 5.3-.66 7.91-1.34 2.69-.7 5.39-1.41 8.23-.85 1.4.27 2.43.95 2.11 2.47-.76 3.63.9 6.14 3.5 8.32.4.33.66.78.86 1.27.26 4.45-.59 8.88-.29 13.32.05.54.16 1.07.86.61.76-.49 1.45-1.1 2.2-1.61.34-.26.68-.5 1.04-.74 1.21-.78 2.42-1.56 3.7-2.21 2.3-1.17 3.27-2.7 1.69-5.14-.33-.51-.43-1.15-.84-1.73-1.1-.13-1.64 1.59-2.91 1-.72-.49-1-1.22-1.12-2.03-.09-.82-.07-1.63.13-2.43.14-.5.39-.95.67-1.39 2.27-3.66 2.18-3.5 5.72-1.47 2.76 1.58 5.73 2.93 9.09 2.64 3.55-.3 5.37-2.84 4.38-6.27-.9-3.09-2.47-5.9-4.01-8.71-1.78-3.24-2.52-6.49-.34-9.95 1.14-1.82 3.14-2.29 4.61-3.54 4.88-2.24 7.28-6.37 8.62-11.31 4.01-6.04 8.41-7.01 14.76-3.14 1.76 1.07 3.5 2.18 5.12 3.48 1.06.85 2.27 1.44 3.55 1.85 3.87 1.24 5.83.55 8.74-3.05.41-.44.9-.78 1.37-1.15 1.81-1.38 2.9-2.51.71-4.84-1.72-1.84-3.57-3.67-4.98-5.82-3.22-5.31-4.7-11.23-5.32-17.27-.44-4.22 3.57-9.05 7.59-10.22 1-.29 1.85-.28 2.19.95.11 1.4-1.04 2.07-1.76 2.99-.67.86-1.49 1.64-1.48 2.84 3.01 1.34 6.14.72 9.17.39 1.87-.2 1.85-2.03.06-3.83-1.15-.52-1.39-1.41-1.03-2.53.31-.98.56-1.97.59-3 .66-4.74.66-4.74-3.81-6.74-4.74-2.11-6.13-4.34-6.05-9.62.02-1.31.4-2.68-.48-3.89-.25-1.96 1.31-2.92 2.41-4.01 5.18-5.12 9.77-10.85 15.67-15.25 1.21-.96 2.43-2.2 2.21-4.11z"/><path class="st3" d="M373.07 48.85c-.26-.24-.52-.48-.79-.72.24-.19.48-.39.72-.58 2.35-2.46 5.9-3.68 7.4-7.04 4.55-4.35 7.72-10.06 13.22-13.47 1.2-.75 2.41-1.48 3.62-2.22 3.86-.06 7.72-.27 11.58-.15 2.64.09 5.3.46 7.89 1.01 7.94 1.69 11.49 7.58 13.86 14.66 3.61 10.82 4.89 21.94 4.51 33.27-.14 4.3-.53 8.59-.86 12.88-.23 2.99-1.96 3.58-4.53 2.67-1.24-1.33-.36-2.78-.08-4.08 1.39-6.29-1.45-10.83-5.96-14.62-2.43-2.04-5.17-1.87-7.75-.13-1.88 1.27-3.72 2.6-5.54 3.96-4.08 3.07-8.52 5.42-13.64 6.26-2.46-.83-2.74-1.5-1.29-3.96 3.75-6.36 8.99-11.22 15.34-14.93 1.24-.73 2.57-1.31 3.88-1.92 7.11-3.29 8.75-7.39 6.14-14.76-1.48-4.19-4.03-7.7-7.01-10.82-5.1-5.32-14.73-3.95-19.03 2.8-2.54 3.98-5.81 6.52-10.28 7.83-2.77.81-5.43 1.96-7.96 3.38-1.04.62-2.13 1.35-3.44.68z"/><path d="M309.19 30.71c-1.97-1.3-3.59-2.96-5.01-4.83 13.95-1.42 27.06 1.64 39.66 7.45 4.59 2.12 9.32 3.95 13.8 6.28 5.2 2.7 6.41 6.91 3.88 12.21-.75 1.57-1.76 3.02-2.65 4.53-1.6 4.07-4.57 6.65-8.7 7.96-1.01-4.76-4.54-7.38-8.36-9.7-1.3-.79-2.73-1.38-4.09-2.06-7.95-9.01-18.1-15.21-27.93-21.81-.17-.1-.39-.08-.6-.03z" fill="#e69a25"/><path d="M350.17 64.32c3.27-2.25 6.38-4.68 8.7-7.97.31 1.92 1.35.99 2.19.52 2.38-1.34 3.98-3.53 5.81-5.47.91-.97 1.65-2.11 2.94-2.65 1.25.47 1.02 1.04.46 2.09-1.23 2.33-3.48 3.48-5.31 5.09-5.58 4.88-10.34 10.55-15.47 15.86.24 1.49-1.01 1.93-1.9 2.5-7.15 4.56-13.61 10.02-19.77 15.79-2.76 2.59-5.38 5.42-7.85 8.32-7.55 8.87-15.1 17.75-22.5 26.75-5.65 6.86-12.13 12.82-19.04 18.33-4.7 3.74-9.05 7.79-12.58 12.68-.55.76-1.09 1.51-2.02 1.84-.67-.23-1.34-.45-2-.68.06-1.7 1.29-2.79 2.29-3.89 5.53-6.07 11.13-12.08 16.76-18.04 3.31-3.51 6.27-7.35 9.85-10.6 1.56-1.11 2.12-3.01 3.38-4.36 5.73-4.92 10.52-10.76 15.7-16.2 5.89-6.2 11.58-12.61 17.4-18.88 4.35-4.68 8.45-9.62 13.2-13.93 1.44-1.31 2.76-2.81 4.76-3.31 1.67-1.26 3.34-2.52 5-3.79z" fill="#fab94f"/><path class="st28" d="M438.26 49.99c-.45-1.82-.91-3.64-1.36-5.47h1.89c.21 1.72 1.59 2.26 2.9 2.9 9.24 4.52 17.6 10.37 25.51 16.89.12.1.09.39.13.59-1.6 1.36-3.64 1.2-5.52 1.54-4.12.75-8.31.83-12.48 1.08a3.18 3.18 0 01-.53-.14c-.72-.47-1.11-1.18-1.37-1.97-1.95-5.79-5.13-10.86-9.17-15.42z"/><path d="M380.39 40.52c.1.83.23 1.72-.5 2.31-2.17 1.76-4.33 3.55-6.9 4.73 2.29-2.53 4.73-4.91 7.4-7.04z" fill="#c3664d"/><path class="st28" d="M448.86 45c-2.31 0-4.66.62-6.89-.48 2.32-.13 4.64-.36 6.89.48z"/><path class="st30" d="M428.92 89.8c-.9 4.77-3.42 8.99-4.46 13.74-1.14 5.18-.46 10.06 1.69 14.73 2.45 5.33 5.25 10.49 7.77 15.79 1.2 2.52 1.88 5.21 1.86 8.06-.03 4.09-1.67 6.37-5.68 5.8-4.52-.64-6.29 1.09-8.2 4.84-3.95 7.76-9.81 14.22-15.91 20.4-6.74 6.84-13.34 13.83-20.73 19.99-1.51 1.26-1.97 2.49-1.44 4.25 1.02 3.4 1.04 6.89 1.07 10.4.06 8.27-5.97 10.92-12.28 10.25-3.86-.41-7.31-2.24-10.24-4.74-1.45-1.23-2.49-1.39-4.06-.42-11.05 6.78-23.08 8.86-35.85 7.38-5.15-.6-10.45 2.75-13.06 8.1-3.39 6.94-1.33 18.61 4.3 23.87 1.73 1.62 3.74 2.76 6.17 3.25 8.59 1.72 8.98 6.68 6.67 13.23-1.33 3.76-3.19 7.5-.69 11.49-3.3 3.31-6.6 6.63-9.9 9.94-2.14.23-3.12 2.27-4.88 3.14-2.43 1.19-3.13.89-3.34-1.81-.17-2.06-.09-4.13-.05-6.19.26-16.12-2.16-31.66-9.69-46.16-3.14-6.05-4.37-12.45-2.17-19.16.36-.97 1.2-1.16 2.08-1.3 16.49-.45 32.47-3.7 48.07-8.88 2.13-.71 4.23-1.58 6.29-2.53.71-.33 1.7-.5 1.19-1.7-2.08-4.54-5.73-8.09-7.9-12.57-.27-.55-.76-.99-.66-1.68.99-1.64 2.82-1.58 4.33-2.02 7.61-2.25 15.07-4.89 22.4-7.92 2.74-1.13 4.91-3.49 8.06-3.69 1.63 2.81 1.44 6.11 2.39 9.11.97 3.06.79 3.08 3.34 1.1 9.71-7.54 17.4-16.94 24.81-26.62 3.14-4.1 6.01-8.38 8.93-12.63 1.6-2.32 1.4-3.58-.67-5.37-2.88-2.5-5.5-5.27-8.5-7.66-2.47-1.97-5.77-2.12-8.2-4.1-.32-7.57-1.6-15.1-.22-22.72 1.93-10.67 13.54-20.93 24.22-19.87 1.09.1 2.28-.08 3.14.88z"/><path d="M443.81 181.03c2.55-3.34 5.56-5.85 10.05-6.03 1.05-.04 2.01-.08 2.95.41 3.39.39 5.39 2.62 5.69 6.68.16 2.17.46 4.31.7 6.46.4 3.63 1.92 6.69 4.48 9.29 1.8 1.82 3.87 3.46 4.61 6.09 4.25 7.98 1.37 14.7-3.77 20.97-7.49 9.14-16.31 16.6-27.41 21.02-4.54 1.81-9.4 2.25-14.19 2.78-7.67.85-14.75 3.51-21.82 6.42-7.89 3.24-15.98 6.01-23.99 8.99-3.1 1.84-6.47 1.61-9.85 1.26-2.35-.97-2.07-2.82-1.45-4.68 1.2-3.6 4.25-5.78 6.67-8.42 4.2-4.6 9.71-7.33 15.16-10.05 8.24-4.11 16.28-8.56 24.04-13.52 2.4-1.53 4.31-3.54 6.22-5.56 2.27-2.4 1.55-4.72-1.69-5.79-1.17-.39-2.5-.05-3.6-.77-.74-1.29.27-2.13.88-2.95 2.36-3.17 4.65-6.4 7.15-9.47 4.44-3.06 8.52-6.52 11.9-10.76 2.97-3 5.33-6.34 5.98-10.65.14-.78.41-1.49 1.29-1.72z" fill="#e89024"/><path class="st32" d="M300.49 305.08c-.5 2.21-2.52 3.17-3.85 4.7-2.16 2.49-4.78 4.53-6.72 7.25-.76 1.06-1.45 2.02-1.24 3.34.41 2.48-1.25 3.39-3.12 3.8-5.67 1.22-10.85 3.68-16.16 5.9-3.64 1.52-7.72 2-11.61 2.93-2.2.53-4.61.85-6.33 2.31-5.38 4.59-11.36 4-17.78 3.18-7.1-.91-12.99-3.63-18.76-7.75-5.72-4.09-12.85-5.26-19.59-7.08-5.34-1.44-7.41-4.43-7.8-9.98-.28-3.89-.3-7.73.55-11.57.67-3.03-.63-5.94-1.3-8.78-1.16-4.9-.19-8.91 3.25-12.43.88-.66 1.52-.19 2.13.45 1.88 4.62 5.37 7.21 10.26 7.83 4.18.53 7.36 2.46 9.47 6.14 1.04 3.04 1.11 6.09.05 9.15-.44.59-1.11.91-1.65 1.38-2.38 2.11-2.1 5.63.65 7.25 1.55.91 3.09 1.84 3.65 3.62 1.3 4.13 4.6 5.97 8.3 7.23 1.79.61 3.4 1.34 4.93 2.47 2.91 2.14 6.46.76 6.52-2.83.07-3.94 1.33-7.05 3.58-10.22 1.68-2.38 1.51-5.72 2.51-8.54.28-.78.23-1.67.6-2.4 1.05-2.07 2.46-4.34 4.81-4.36 2.45-.02 4.65 1.66 6.13 3.75 1.16 1.65-.07 2.9-1.17 4.04-3.24 3.36-3.26 3.37-.09 7.01a8.641 8.641 0 011.87 3.52c.32 1.2.58 2.42 1.08 3.56 1.95 4.49 3.19 7.38 7.51 1.65 1.53-2.03 4.26-2.44 6.41-3.66 1.28-.73 2.51-1.38 3.23-2.76 1.13-2.2 3-2.86 5.21-1.93 2.8 1.18 5.13.68 7.43-1.24 1.93-1.61 4.4-2.24 6.78-2.97 2.5-.77 3.67-2.3 3.47-5.07-.16-2.18-.39-4.62 2.19-5.89.97.52.56 1.38.49 2.14-.36 3.72.31 4.52 4.11 4.86z"/><path class="st33" d="M178.23 258.53c-1.49.09-2.51 1.08-3.63 1.88-1.56-1.75-.43-3.54-.07-5.31 1.7-3.63 2.95-7.44 4.36-11.19.72-1.92.9-4.07-.97-5.7-3.01-2.47-5.65-5.34-8.34-8.13-1.19-1.24-2.33-2.62-2.04-4.58 4.34-5.85 10.36-9.59 16.48-13.24 6.61-3.95 14-5.97 21.14-8.54 5.9-2.12 11.19-5.14 16.11-8.92 1.23-.94 2.5-1.81 3.78-2.67.44-.22.83-.12 1.17.22.49.95.86 1.98 1.69 2.73.13.26.16.54.11.82-3.91 5.04-8.29 9.69-12.32 14.63-6.19 7.59-12.44 15.12-17.77 23.36-1.06 1.52-1.34 3.6-3.23 4.54-2.55 1.66-2.81 4.54-3.79 7.05-.46 1.2-.1 3.01-2.15 3.13-.2.03-.54 0-.58.1-2 4.61-7.42 5.75-9.95 9.82z"/><path d="M416.6 216.27c1.72.18 3.49-.15 5.12.82 3.18 1.89 3.48 3.62 1.06 6.42-3.92 4.53-9.06 7.35-14.08 10.4-7.22 4.39-14.86 8-22.31 11.96-5.88 3.12-10.38 7.69-14.61 12.6-1.44 1.67-2.54 3.84-1.19 6.25 1.03.71 2.2.18 3.29.34.67.1 1.54-.28 1.85.66.28.83-.42 1.29-.88 1.83-2.33 2.73-4.72 5.41-6.76 8.37-5.16 5.31-10.92 10.1-17.72 12.81-5.21 2.08-11.07 1.5-16.41-1.04-1.17-.65-2.56-1.04-3.09-2.49-.81-1.1.17-1.7.73-2.32 2.88-3.16 5.71-6.38 9-9.14.27-.14.55-.24.84-.32 9.67-.66 16.35-6.78 23.09-12.74 5.05-4.47 9.02-9.94 13.18-15.18 4.75-5.99 11.17-9.38 17.7-12.67 6.05-3.05 11.67-6.6 16.12-11.8 1.24-1.45 2.59-2.87.69-4.78 1.46-.97 2.92-1.03 4.38.02z" fill="#b43926"/><path class="st3" d="M472.29 203.94c-2.43-2.65-5.11-5.11-7.25-7.98-2.82-3.79-3.01-8.45-3.26-12.99-.19-3.49-1.3-6.36-4.97-7.56.85-.11 1.28-.58 1.25-1.45-.27-7.74 2.63-14.13 8-19.64 3.64-3.73 5.37-8.64 7.55-13.28 1.03-2.2 2.74-4.08 4.12-6.12 1.26-1.87 2.03-3.94 1.01-6.09-1-2.11-2.98-2.64-5.21-2.45-2.86.24-5.73.43-8.59.65.37-.8.85-1.51 1.69-1.9 4.49-.9 8.84-2.67 13.63-1.43 4.72 1.23 7.68 6.67 5.8 11.22-1.36 3.3-3.75 5.9-5.85 8.68-6.54 8.65-8.55 18.17-6.17 28.77.9 4 2.04 7.93 2.77 11.99 1.29 7.26-.96 13.52-4.52 19.58z"/><path class="st35" d="M300.49 305.08c-.91.17-1.58 1.85-2.65.67-1.01-1.12-3.03-1.67-2.42-3.88.33-1.18.48-2.41.71-3.61.34-3.44-.31-6.68-1.63-9.89-1.01-2.44-.15-4.7 1.8-6.42 2.19-1.94 2.82-4.38 2.92-7.18.06-1.69-.55-2.52-2.1-2.82-1.52-.29-3.06-.47-4.55-.88-2.06-.56-3.28-2.15-2.32-3.92 3.1-5.75 1.57-10.91-1.36-16.05.44-2.44 1.66-4.65 1.91-7.15.36-3.58-.56-6.37-3.82-8.45-4.27-2.72-8.92-4.4-13.79-5.32-6.2-1.17-12.31-2.57-18.15-4.99-1.06-.44-2.9-.42-2.79-1.89.08-1.09 1.8-1.11 2.86-1.48 7.28-1.33 14.64-1.79 22.02-2.06 1.96-.07 3.87-.45 5.81-.54 2.02-.1 4.13-.45 5.9 1.01 1.45 1.79 2.33 3.9 3.21 5.98 5.8 13.68 10.01 27.81 11.61 42.61 1.12 10.38 1.27 20.81.15 31.22-.09.84-.36 1.61-.72 2.35-.63 1.14-1.56 1.98-2.6 2.69z"/><path d="M303.08 302.41c-.38-3.62.29-7.2.44-10.8 1.01-24.91-4.23-48.49-14.93-70.92 1.7-1.89 4.21-2.14 7.52-.74.75.53.61 1.18.33 1.92-2.03 5.44-.6 10.59 1.73 15.47 5.26 11.02 9.04 22.35 9.91 34.69.5 7.11.06 14.19.52 21.76 1.64-1.05 3.04-2 4.5-2.85.86-.5 1.55-1.83 2.85-.79-4.3 4.09-8.58 8.17-12.87 12.26z" fill="#fab54d"/><path class="st21" d="M188.77 248.6c1.97-2.46 1.53-5.87 3.31-8.41.61-.88.58-2.46 2.31-2.13.47 1.58-.58 2.74-1.16 4.01-3.41 7.51-3.13 15.51-3.35 23.44.55-1.09.43-2.37 1.37-3.27.66-.19 1.45.05 1.96-.65 2.48-3.42 7.05-4.71 8.94-8.75.17-.37.57-.59.97-.73.31-.01.58.1.8.32.88 1.85.33 3.48-1.07 4.72-2.54 2.24-3.52 4.92-2.77 8.22-.43.51-1.04.63-1.65.72-1.31.2-2.41.65-2.59 2.17-.17 1.49.12 2.93 1.17 4.01 1.16 1.2 1.96.16 2.81-.64 1.2-1.13 1-3.21 2.72-3.97 1.94 1.2 1.96 3.06 1.34 4.86-.69 1.99-2.27 3.4-4.44 3.2-2.42-.21-3.93.78-5.12 2.66-.94.94-1.46 2.21-2.45 3.11-.61-.2-1.23-.41-1.84-.61 1.3-3.7.15-7.25-1.21-10.54-.63-1.53-1.45-2.87-1.28-4.56.22-2.08-.4-3.61-2.45-4.47-1.4-.59-1.74-1.44-.23-2.4 1.64-1.05 2.32-2.55 2.06-4.49-.31-2.22 1.64-3.75 1.85-5.82z"/><path class="st37" d="M340.8 274.05c-3.02 3.98-7.28 6.84-9.93 11.15-2.68-.57-3.08-3.15-4.35-4.97 2.14-.06 3.88-.9 5.34-2.5 1.92-2.1 3.92-4.14 6.42-5.58.99.44 2.08.75 2.52 1.9z"/><path d="M368.09 275.91c-.16-.47-.54-1-.06-1.42 2.79-2.46 4.12-6.16 7.36-8.38-1.38-1.61-3.59.16-4.8-1.4 3.54.35 7.02-.21 10.51-.6-4.34 3.94-8.67 7.87-13.01 11.8z" fill="#ce582a"/><path class="st37" d="M330.87 285.2c1.01.86 2.42 1.21 3.09 2.49-1.79.11-3.29-.14-3.09-2.49z"/><path class="st32" d="M39.88 265.98c-.02-.82-.05-1.64-.07-2.45-.56-3.28-.12-6.58-.25-9.87-.07-1.77.89-1.88 2.2-1.29 1.35.61 2.46 1.58 3.22 2.83 3.3 5.37 7.36 10.22 10.62 15.61.44.73.91 1.41 1.69 1.74 1.45.61 1.91 1.78 1.97 3.22.1 2.37 1.32 4.11 3.24 5.35 1.74 1.11 2.92 2.56 3.51 4.55.66 2.24 2.28 3.61 4.32 4.6 3.06 1.48 6.2 2.74 8.92 4.94 2.18 1.76 4.86.42 5.46-2.66.81-4.18 2.41-8.09 3.63-12.12 1.16-3.83 3.65-6.38 6.82-8.49.28-.15.58-.26.89-.33 1.43-.27 2.87-.29 4.3-.04 1.94.34 3.14 1.5 3.39 3.48.23 1.88-.58 3.33-2.36 3.86-2.61.77-2.34 1.79-.89 3.65 2.57 3.3 3.87 7.22 4.68 11.31.68 3.43.94 3.48 3.86 1.69 3.49-2.15 7.16-3.66 11.4-2.92 2.06.81 3.89-.38 5.82-.7 3.93.34 7.45-1.64 11.26-2.01 1.12.36 1.77 1.22 2.31 2.19-2.1 1-2.97 2.61-2.55 4.94.13.7-.09 1.46.05 2.16 1.09 5.72-5.09 9.39-9.9 7.65-.39-.14-.77-.3-1.17-.41-5.97-1.69-6.95-2.76-11.47 3.39-2.2 2.99-5.1 3.37-8.82 2.27-3.74-1.1-6.81-3.31-10.05-5.26-1.32-.8-2.56-1.73-3.86-2.56-5.12-3.29-7.05-3.08-11.3 1.19-.36.37-.73.73-1.09 1.1-4.05 4.09-3.99 4.03-8.07.2-1.25-1.18-2.78-2.26-4.37-2.84-3.34-1.2-5.87-3.27-6.78-6.6-1.29-4.74-5.38-6.35-8.91-8.33-7.72-4.34-10.13-11.4-11.02-19.46-.16-1.23.36-2.54-.63-3.58z"/><path class="st35" d="M139.81 292.08c-1.16-.11-1.87-.68-1.92-1.91 5.74-7.4 4.99-16.92 8.16-25.17.81-2.11 1.78-4.17 2.35-6.37 1-3.85.47-5.46-2.94-7.46-2.3-1.34-3.22-3.05-2.43-5.64 1.8-5.91 2.06-11.93 1.13-18.02-.16-1.02-.29-2.04-.13-3.07.25-1.11.52-2.21.79-3.31 1.89-7.53 1.37-8.9-4.92-13.64-2.64-1.99-5.28-4-7.53-6.42-1.76-1.89-3.78-2.79-6.33-2.53-2.83.28-5.52.04-7.98-1.66-1.31-.9-2.95-.82-4.51-.83-3.82-.03-7.64.14-11.45-.11-.86-.06-2.97.18-1.43-1.93l4.29-.69c2.45-.79 5.05.3 7.5-.59.19-.04.38-.05.57-.03 3.71-.82 7.52.33 11.22-.6 5.96-.06 11.93-.09 17.89-.23.86-.02 1.31.33 1.79.85 1.47.67 1.89 2.13 2.49 3.41 5.53 11.75 8.2 24.14 8.51 37.12.34 13.66-1.08 27.18-2.89 40.68-.33 2.44-.25 4.92-.81 7.59 1.92-.23 2.6-1.66 3.68-2.47 5.31-5.03 11.08-9.57 15.64-15.38.95-1.21 1.92-2.77 3.87-2.72 1.35 1.47-.37 1.97-.98 2.57-5.93 5.85-10.86 12.7-17.62 17.73-.72.54-1.24 1.34-1.86 2.02-3.82 2.51-7.67 4.98-11.45 7.57-.85.62-1.58 1.31-2.7 1.24z"/><path d="M95.71 272.19c-4.79 3.27-6.98 8.04-8.24 13.53-.59 2.55-1.55 5.02-2.12 7.62-.82 3.7-4.34 4.87-7.01 2.29-2.5-2.41-5.76-3.14-8.6-4.76-1.08-.62-2.57-.98-2.97-2.11-1.43-3.98-4.31-6.74-7.26-9.51-.77-.73-1.16-1.7-1.03-2.81.18-1.67 0-3.05-2.16-3.29-.48-.05-1.04-.72-1.29-1.24-2.94-6.13-7.74-11.04-11.08-16.9-.05-.09-.11-.17-.18-.25-.93-.98-2.16-2.31-3.25-1.99-1.27.37-.56 2.17-.61 3.33-.11 2.48-.06 4.96-.08 7.44-1.12-3.83-.65-7.74-.37-11.58.16-2.13.34-4.29.51-6.43 1.43 1.07 2.44-.18 3.6-.64 1.07.96.63 2.33.94 3.49.57 2.11 1.74 2.61 3.68 1.58 3.26-1.72 3.63-1.68 5.7 1.41 1.09 1.62 2.46 2.81 4.32 3.32 2.81.77 3.82 2.56 3.35 5.36-.27 1.6 0 3.08 1.7 4.8.28-5.13 4.56-8.06 5.23-12.8.42-2.98 2.93-4.04 5.59-2.55 1.86 1.04 4.52 1.29 4.98 4.09-1.83.81-3.85.35-5.72.9-2.18.64-2.63 1.73-1.36 3.62.63.94 1.34 1.83 2.19 2.58 1.13 1 2.38 1.64 3.94 1.11 1.52-.52 1.85-1.76 1.97-3.17.07-.79.04-1.69 1-2.08 1.68 1.03 1.16 2.74 1.16 4.19.01 2.91.22 5.77 1.38 8.48 1.53 3.55 3.71 4.52 7.45 3.51 1.5-.42 2.93-1.78 4.64-.54z" fill="#8f2c1d"/><path class="st30" d="M294.34 121.08c-.67 1.63-1.47 3.17-3.08 4.1-1.17.35-2.35 1.14-3.56.82-3.29-.88-4.74.95-6.28 3.45-7.52 12.17-18.13 21.53-28.75 30.82-1.68 1.47-3.03 3.42-5.24 4.25-1.52.11-2.62 1.03-3.74 1.95-.7.57-1.46 1.54-2.37 1.02-1.27-.73.03-1.78.01-2.7 2.53-3.18 5.97-5.37 8.96-8.04 7.68-6.83 14.63-14.27 20.71-22.54 2.32-3.16 5.06-6.01 7.09-9.4.63-1.06 1.06-2-.14-2.99-3.76-3.08-6.77-6.96-10.65-9.94-1.71-1.31-3.58-2.04-5.62-2.42-3.52-.65-6.56 1.97-7.46 6.2-1.02 4.8-.17 9.44.95 14.08.19.8.54 1.58.62 2.4.55 6.01.02 9.14-6.83 10.68-2.12.48-4.28.7-6.39 1.23-3.86.96-5.65 3.28-5.14 7.24.65 5.02 1.66 9.98 3.11 14.84-.15 3.05-.3 6.11-.11 9.17.1 1.66-.47 3.03-2.07 3.83-1.61.8-2.2-.44-2.96-1.4-.34-.43-.92-.79-1.35-.51-1.96 1.23-4.74 1.2-5.95 3.54-1.17 2.27-2.8 4.34-3.25 6.97-.22 1.3-.79 2.49-2.37 2.33-1.52-.16-1.57-1.51-1.57-2.62-.01-3.83-1.42-6.69-4.93-8.62-2-1.1-3.86-1.24-5.91-.63-1.18.01-1.87-.77-2.37-1.65-1.95-3.42-4.25-6.65-5.64-10.37.01-.32.1-.62.26-.89 5.21-3.88 10.89-7.09 16.03-11.07 9.9-7.67 19.22-15.96 26.1-26.57 3.28-5.06 4.17-10.95 4.88-16.81.61-5.1 3.05-9.13 6.87-12.4 5.08-4.35 7.87-9.96 9.25-16.41.84-3.93 1.28-7.95 2.48-11.81 2.95-9.46 9.08-15.49 18.86-17.62.63.2 1.25.4 1.88.6 4.52 3.6 4.97 5.84 3.63 11.54-1.2 5.05-4.02 9.41-5.45 14.33-1.93 6.64-2.05 13.12 1.21 19.41.5.44.78 1.01.94 1.65 2.69 5.22 4.84 10.61 5.47 16.51.04 1.48.08 2.97-.13 4.45z"/><path class="st33" d="M288.17 100.32c-.04-.62-.09-1.24-.13-1.86 1.03-.39 1.23-1.33 1.43-2.24 1.81-8.14 4.12-16.2 5.22-24.44.67-5 1.98-9.94 2.07-15.04.05-2.93 1.16-3.52 3.79-2.31 2.67 1.23 3.89.81 4.55-1.99 1.01-4.27 2.36-8.54 1.05-13.03-.42-1.42 0-2.86 1.47-3.34 1.66-.55 3.37-.67 4.84.88 2.07 2.17 1.78 5 2.16 7.55 1.01 6.75.85 6.88 7.77 7.91 2.08.31 4.01.54 4.63 2.78.65 2.36-.59 4.18-2.32 5.69-.16.14-.3.28-.45.42-1 .93-3.25 1.28-2.87 2.71.41 1.53 2.53 1.95 4.13 2.3 4.43.98 8.94 1.19 13.47 1.16 2.06-.01 4.23-.43 6.2.64-13.76 12.54-25.48 27.03-38.39 40.39-3.55 3.67-6.99 7.46-10.46 11.21-.57.61-1.08 1.26-1.98 1.37-1.32-1.4-.52-3.09-.63-4.66 8.22-9.52 12.57-20.99 16.64-32.64 2.07-5.94 3.92-12 6.69-17.67.91-1.85.36-2.87-1.21-3.81-2.49-1.49-5.14-2.65-7.68-4.02-2.83-1.51-3.76-1.06-4.78 1.99-2.62 7.82-5.34 15.59-6.18 23.9-.45 4.51-2.34 8.75-3.31 13.19-.75 3.46-2.1 3.99-5.72 2.96z"/><path d="M309.19 30.71c1.11-1.01 1.67.28 2.33.67 9.54 5.62 18.66 11.81 26.1 20.16.28.32.56.63.1 1.02-3.18-1.2-6.38-2.35-9.55-3.61-4.05-1.6-7.39-4.18-9.77-7.82-2.57-3.93-5.81-7.23-9.21-10.42z" fill="#fbb54b"/><path class="st30" d="M449.32 67.53c1.14-.43 2.29-1.25 3.41-1.21 4.94.18 9.71-1.15 14.59-1.42.63-.17 1.26-.35 1.9-.52 3.56 3.89 8.04 6.79 11.55 10.74 2.06 2.31 4.21 4.53 5.82 7.2-.19.43-.37.86-.56 1.29-4.63 11.57-11.28 21.8-19.98 30.73-1.93 1.98-3.24 4.48-4.33 7.05-1.71-3.2-1.47-6.42-.37-9.78 2.07-6.33 4.99-12.37 6.4-18.92 1.48-6.87-1.77-11.44-8.83-12.22-4.05-.45-7.05-1.98-7.88-6.41-.41-2.2-1.13-4.35-1.72-6.53z"/><path d="M486.6 82.33c-2.05.06-2.19-2.02-3.08-3.06-4.04-4.71-8.51-8.9-13.41-12.66-.75-.57-1.59-1.09-.89-2.23 2.87-.02 5.75-.16 8.62-.03 7.45.33 11.81 7.07 9.77 15.16-.23.94-.09 2.1-1.01 2.82z" fill="#c86028"/><path class="st28" d="M286.78 52.57c-.71 1.01-1.87 1.29-2.91 1.64-9.95 3.35-14.47 10.94-16.3 20.67-1.25 6.66-2.19 13.39-6.29 19.18-2.3 3.24-5.63 5.39-8 8.55-2.5 3.33-3.27 7.12-3.62 10.97-.74 8.26-4.3 15.14-9.55 21.33-10.39 12.24-22.95 21.83-36.52 30.21-.34.21-.77.27-1.16.39-1.6.01-1.82-1.49-2.5-2.4-4.44-5.92-8.92-6.26-14.04-.74-3.3 3.57-5.68 7.85-8.4 11.86-2.21 3.25-4.75 6.2-8.13 8.32-.54.22-1.08.41-1.68.34-3.12.65-6.24 1.31-9.36 1.96-.8.35-1.6.63-2.41.02-.78-.26-1.54-.66-2.34-.75-5.55-.64-8.69-3.85-9.86-9.15-.38-1.7-.56-3.44-.84-5.16 2.71-.42 5.26.35 7.71 1.32 2.59 1.02 5.13 2.15 7.82 2.92 5.67 1.63 7.48-1.01 7.39-6.42-.03-1.53-.8-2.94-1.63-4.29-1.94-3.16-.38-6.25 3.3-6.68.21-.02.42-.08.62-.03 3.66.95 6.17.18 6.78-4.1.16-1.13 1.5-1.65 2.64-1.92 1.31-.32 2.63-.6 3.78-1.33 2.19-1.38 3.62.83 5.46 1.1 2.54.44 4 3.02 6.59 3.31.59-3.04-.55-5.93-.69-8.9-.06-1.23-.49-2.46.47-3.54.86-3.71 1.38-7.42 1.33-11.27-.04-2.99 1.95-5.04 4.3-6.75 3.47-2.53 7.54-3.72 11.41-5.36 5.29-2.25 10.28-5.18 15.79-6.89 1.15-.36 2.25-1.06 3.55-.83.88 2.44-.6 5.14.86 7.51 1.77 1.14 2.62 3.36 4.77 4.03 4.92-1.96 6.29-4.39 4.92-9.19-.63-2.21-.88-4.37-.38-6.61-.99-1.55-.41-2.59.97-3.58 3.91-2.81 5.25-6.99 5.86-11.5.21-1.56-.23-3.61 2.53-2.92 2.42 1.22 4.82 2.61 7.64 1.14 1.66-3.12.29-5.74-1.39-8.28-1.06-1.6-2.71-3-1.36-5.22-3.01-3.19-2.76-2.93.55-6.03 4.75-4.45 10.5-7.04 16.19-9.85 1.61-.79 3.37-1.64 2.51-4.03.8-2.97 3.36-2.73 5.61-3.06 2.65-.69 5.33-1.14 8.01.01z"/><path class="st42" d="M140.38 117.08c3.93-2.13 7.72-4.73 12.37-4.92 2.68-.11 5.04-.75 7.18-2.35 2.7-2.02 5.31-4.11 7.12-7.01 3.11-2.27 3.52-6.07 4.83-9.23 2-4.82 4.47-9.05 8.94-11.89 1.63-1.04 3.3-2.01 4.95-3.01 1.1 1.57.57 3.06-.19 4.55-1.28 2.5-1.33 5.02-.12 7.56 4.07 1.22 6.94-.08 8.42-3.7.98-2.39.75-5.35 3.28-7.03.13-.08-.18-.05-.28-.09-1.44-.57-1.23-1.99-1.62-3.09-.66-1.59-3.14-1.21-3.44-3.18 2.58-.37 2.95-2.71 3.77-4.49 1.16-2.53 2.63-3.94 5.62-4.5 2.98-.56 6.06-1.21 8.92-2.28 2.74-1.03 4.09-.14 4.9 2.37.13.39.38.79.36 1.17-.16 2.88-.27 5.72 3.17 6.94-.61 1-1.89.84-2.67 1.56-1.11 1.06-1.43 2.41-1.49 3.88-.04 1.01-.02 2.05-.85 2.83-2.96 3.33-4.62 7.37-6.36 11.4-1.81 4.19-2.47 8.95-5.96 12.33-.78.75-.48 1.47-.07 2.23-1.12 1.13-3.43-.35-4.06 1.85-.85.77-1.73.32-2.57.02-1.25-.44-2.39-.47-3.33.64-5.22 3.75-5.99 8.94-4.63 14.72.61 2.56-.56 3.74-2.48 5.25-4.39 3.45-9.79 3.25-14.7 4.75-1.19.36-2.45.16-3.58-.48-3.18-.32-4.48-3.29-6.78-4.86-.91-.62-1.62-1.71-2.94-1.19-2.08.82-2.18 2.2-1.02 3.89-.09 1.21-1.19 1.55-1.91 2.23-.44.42-.99.87-.66 1.55.32.66 1.04.57 1.62.47 2.91-.5 5.78-1.17 8.75-1.18.78 0 1.63-.38 2.29.36-1.32 2.24-3.86 2.81-5.77 4.23-3.57 2.64-6.91.78-10.17-.55-3.67-1.49-7.44-1.42-11.23-1.15-3.77.27-7.52.74-11.28 1.13-1.95-1.62-2.19-4.86-.49-7.16.72-.97 1.73-1.69 2.35-2.75 4.13-3.77 8.06-7.71 11.81-11.82z"/><path class="st43" d="M278.74 52.58c-1.93.91-4.1 1.37-5.61 3.06-3.56 1.32-6.42 3.9-10.06 5.2-5.21 1.87-9.6.57-12.46-4.39-2.77-4.8-3.24-10.35-5.21-15.42-1.04-2.67-2.62-4.39-5.74-3.95l-1.91-.12c3.02-4.1 7.06-6.86 11.75-8.64 3.92-1.49 6.74-4.22 9.36-7.35 3.24-3.87 6.55-7.72 11.85-8.87 6.14-1.34 11.47.84 16.51 3.97 3.32 2.06 5.63 4.78 5.18 9.09-.22 2.12-1.14 4.03-2.92 4.78-5.81 2.45-8.88 6.65-9.28 12.9-.18 2.8-1.01 5.45-2.16 8-.39.9-.59 1.58.7 1.74z"/><path d="M128.58 128.88c.02 1.04-.75 1.59-1.35 2.28-2.3 2.64-2.42 4.6-.51 7.64-.4 1.48-.62 3.04-1.23 4.42-.71 1.59.07 2.35 1.18 3.11-.88.87-1.02 2.14-1.69 3.13-1.62.77-2.4-.75-3.55-1.28-.75-.35-1.62-.84-2.3-.17-.69.68.15 1.33.48 1.89 1.91 3.26 3.28 6.87 5.96 9.63 1.84-2.49 2.55-5.48 3.7-8.25.43-1.03.1-1.96-.78-2.73-.73-.63-1.87-.97-1.82-2.24 4.26.12 5.71 2.16 4.19 5.87-.35.86-.76 1.69-1.06 2.57-.47 1.35-1.28 2.88.08 4.01 1.18.98 2.77.66 4.15.22 5.42-1.72 9.25.63 10.08 6.14.32 2.14 1.21 3.79 3.86 3.06.64-.18 1.37-.32 1.72.23 2.21 3.46 5.08 1.13 7.71.97.78-.05 1.59-.9 2.32-.18.9.9-.12 1.46-.61 2.04-.74.88-.4 1.73.39 2.04 1.39.55 2.87.53 3.91-.85 1.73-2.29 1.31-6.61-.8-8.65-.37-.36-.78-.72-1.01-1.16-1.35-2.62-3.26-3.87-6.27-2.86-.81.27-1.66.19-2.2-.64-.26-.39-.16-.78.13-1.12.64-.75 1.3-.17 1.98-.05 2.61.43 5.02.27 6.96-1.94 1-1.14.67-1.98-.12-2.92 1.47-.93 2.2.4 3.12 1.05 2.27 1.6 4.67 2.35 7.4 1.41 2.15-4.15 1.19-7.01-3.22-9.14-2.06-.99-4.02-1.99-4.76-4.37 2.53-.13 4.39-1.06 6.14-3.19 1.13-1.38 4.15-1.22 5.63-.04 1.73 1.38 4.09 2.03 5.25 4.16.45.83 1.31 1.01 2.12.41.66-.49.73-1.16.39-1.93-.4-.9-2.19-1.39-.96-2.78.61-.69 1.54-.57 2.34-.38 1.68.41 1.32 1.84 1.4 3.03.78.82 1.19 1.77 1.05 2.92-.78 1.8-2.33.68-3.53.91-.79.15-1.81-.05-2.14.88-.38 1.06.71 1.32 1.32 1.79 1.26.97 2.99 1.47 3.35 3.34-.21.01-.5.11-.6.02-3.03-2.96-5.95-.16-8.89.23-1.35.18-2.2 1.07-2.44 2.73-.49 3.39-1.54 3.88-4.98 3.42-1.78-.24-3.68-.61-5.18 1.08-1.19 1.33-1.67 2.54-.33 4.04 2.91 3.26 2.73 7.04 1.08 10.6-1.14 2.47-3.88 2.58-6.23 1.92-2.35-.66-4.84-1.06-6.96-2.41-2.92-1.85-6.5-1.56-9.57-2.95-.21-.21-.41-.42-.62-.63-.2-.24-.42-.47-.54-.75-2.51-6.19-4.4-7.07-11.09-6.18-9.23 1.23-18.21 3.62-27.3 5.49-2.58.53-5.18.77-7.53-.64-1.45-.86-3.2-1.86-1.92-4.11.39-.12.87-.13 1.15-.37 6.66-5.76 14.23-10.38 20.85-16.13 2.87-2.49 5.72-5.19 8.23-8.13.6-.7.87-1.65.75-2.61-.38-3.21 1.22-5.3 3.72-6.9z" fill="#fdcc4b"/><path d="M213.56 81.16c-.05-2.67-.37-5.4 1.82-7.52 4.2 2.97 8.73 5.42 13.06 8.19 1.21.77 2.51 1.46 3.03 2.95-3.26 1.94-6.32 1.7-9.7-.09-2.61-1.38-4.63-4.38-8.21-3.53z" fill="#96c84d"/><path d="M234.67 122.58c-1.88-1.26-3.54-2.7-4.34-4.91.52-2.85-1.02-5.91.89-8.65.14-.2-.32-.89-.59-1.29-1.67-2.42-1.46-3.02 1.32-3.91 1.51-.48 3.02-.55 4.56-.22.77 2.46.13 4.89-.15 7.34-.28 2.47-.07 4.95-.17 7.42-.07 1.55-.24 3.09-1.52 4.22z" fill="#94c64c"/><path d="M185 91.61c-1.89-2.94-1.94-5.99-.05-8.84.91-1.38.61-2.74.82-4.12 1.28-.14 2.6-.4 2.41-2.06-.34-3.01 1.58-3 3.64-2.92l4.35 2.43c-3.72 3.54-5.52 8.37-8.33 12.52-.8 1.18-1.17 2.67-2.84 2.99z" fill="#97c751"/><path d="M231.47 84.78c-4.13-2.6-8.29-5.16-12.39-7.81-1.39-.9-3.33-1.27-3.7-3.33.87-1.06 2.17-.27 3.18-.75.38-.31.77-.62 1.15-.93 1.82 2.39 4.87 1.74 7.19 2.9 4.84 2.4 5.34 3.45 4.57 9.92z" fill="#75a140"/><path d="M234.67 122.58c1.25-5.18.11-10.55 1.22-15.76.23-1.07-.1-2.25.62-3.23 1.85-.33 1.34 2.55 3.13 2.31.28.12.8.34.79.36-.94 2.62.4 4.96.75 7.45.68 4.7-1.98 8.02-6.51 8.87z" fill="#739d40"/><path d="M173.18 156.21c-3.17 1.21-6 .6-8.53-1.59-.77-.67-1.37-1.6-2.56-1.55-.64-.84-.47-2.07-1.82-2.64-2.95-1.24-3.22-2.54-1.36-5.22.51-.74 1.25-1.32 1.88-1.97 4.06 3.32 7.31 7.48 11.38 10.79.62.52 1 1.3 1.01 2.18z" fill="#9cc74d"/><path d="M173.18 156.21c-3.49-3.43-7-6.85-10.47-10.29-.78-.78-1.81-1.4-1.91-2.68.97-1.39 3.25 1.37 3.84-1.22 1.6 1.66 3.35 2.9 5.6 3.75 4.25 1.62 5.4 6.29 2.94 10.44z" fill="#76a140"/><path class="st52" d="M257.01 89.76c-3.5 1.26-5.8.73-8.01-1.87-.88-2.32-.58-4.98-2.5-7.08-.5-.54.47-2.5 1.28-3.62.9-.31 1.76-.06 2.2.68 2.4 3.93 5.3 7.57 7.03 11.89z"/><path class="st53" d="M257.01 89.76c-2.65-2.85-4.34-6.34-6.32-9.63-.74-1.22-1.29-2.59-2.9-2.93 1.68-1.84 3.84-1.94 6.1-1.66-.01 1.94.78 3.42 2.15 4.86 2.5 2.65 2.82 7.15.97 9.36z"/><path class="st52" d="M187.55 144.35l-.63-3.05c2.06-.01 4.12-.03 6.18-.04l1.35 12.25c.06.56.42 1.33-.72 1.08-2.56-3.12-5.3-6.12-6.18-10.24z"/><path d="M243.38 67.51c1.18 1.92.55 2.67-1.55 2.22-3.77-.81-7.4-2.25-11.33-2.37-.72-.02-1.94-.37-1.72-1.34.31-1.31 1.44-2.19 2.69-2.74.91-.4 2.43.35 2.63-1.4 2.55.43 3.75 2.9 5.89 3.91 1.15.55 1.72 2.23 3.39 1.72z" fill="#a6c64a"/><path class="st55" d="M243.38 67.51c-.26.32.63 1.77-.89.87-3.07-1.82-5.82-4.04-8.39-6.5-1.08-.76-1.89-1.71-.08-2.37 1.58-.57 3.37-2.81 4.97-.04 1.52 2.65 2.93 5.36 4.39 8.04z"/><path d="M157.95 103.41c2.95-2.19 3.72-5.92 6.05-8.54.92-.39 1.69-2.45 2.85-.43.87 1.52 2.32 3.17.5 4.95-.55.54-1.43.75-2.15 1.11l-6.03 3.66c-.89.53-1.38.4-1.22-.75z" fill="#78a340"/><path d="M165.18 135.13c-3.84.58-7.68 1.21-11.54 1.71-.82.11-2.03.58-2.49-.52-.43-1.03.4-1.91.93-2.79.65-1.08 2.51-.65 2.71-2.24 3.9.06 7.5 1.14 10.82 3.15-.14.23-.29.46-.43.69z" fill="#97c750"/><path d="M165.62 134.45c-3.65-.89-7.32-1.73-10.82-3.15-.66-.62-1.84-.46-2.23-1.49 4.02-3.82 4.01-3.81 8.09-.3 1.7 1.47 3.44 2.9 5.16 4.35-.07.19-.14.39-.2.59z" fill="#77a441"/><path d="M191.2 109.62c-.61-2.6 1.32-1.94 2.52-1.79 1.05.13 2.05.73 3.06 1.13 2.12 2.78 3.21 5.83 2.49 9.37-2.78-.99-3.7-3.81-5.59-5.69-.91-.92-1.65-2.01-2.48-3.02z" fill="#9fc649"/><path class="st55" d="M199.27 118.32c-.83-3.12-1.66-6.24-2.49-9.37-.22-4.6 2.86-1.37 4.38-1.85 1.49 2.76.01 5.39-.52 8-.21 1.07.99 3.01-1.37 3.22z"/><path class="st43" d="M93.87 162.99c.69 3.26 2.54 4.56 6.66 4.25 5.25-.39 10.24-2.12 15.36-3.23 6.01-1.3 12.06-2.3 18.2-2.91 4.94-.5 8.65 3.31 8.18 8.08-3.3.04-6.62-.1-9.91.15-4.66.35-8.82 2.56-12.31 5.29-5.94 4.65-12.62 6.83-19.87 7.51-6.96.65-13.9 1.73-20.93 1.37-2.06-.11-4.18-.24-5-2.32-.82-2.08.28-3.93 1.7-5.6 3.41-4.04 8.38-5.88 12.42-9 1.8-1.39 4.38-2.12 4.91-4.85.18.42.38.84.59 1.26z"/><path d="M156.02 278.97c-1.5 1.99-3.46 3.43-6.02 5.43.87-7.42 1.67-14.12 2.42-20.82 1.97-17.62 3.14-35.22-1.5-52.65-1.68-6.31-4.24-12.28-7-18.18.32-1.55 1.64-.95 2.49-1.01 2.94-.21 5.89-.23 8.83-.32 2.09.01 4.21.44 6.21-.55 2.37-1.55 5.13-.43 7.62-1.15.52-.04 1.03.03 1.5.27.29.2.43.48.43.84-.14.63-.49 1.18-1 1.52-4.06 2.7-5.99 6.65-6.79 11.31-.14.81-.5 1.57-.9 2.3-1.46 2.39-3.18 4.59-4.79 6.87-1.5 2.12-1.86 4.22-1.28 6.71 1.94 8.3 2.6 16.8 2.29 25.25-.37 10.31-.61 20.64-1.7 30.91-.12 1.13-.33 2.22-.81 3.27z" fill="#fbb64b"/><path class="st61" d="M169.54 190.26c-2.63 1.14-5.39.4-8.09.6-.38-.48-.78-.95-1.14-1.44-.67-.9-1.63-1.86-1.11-3.01.77-1.72 1.68.17 2.51.24 1.73.15 4.36-1.5 4.96 1.91 1.32-1.8 1.01-3.77 1.02-5.68.19-.57.65-.71 1.18-.75 2.12 1.72 2.39 4.87.67 8.13zM155.9 184.87c.8-.01 1.61-.02 2.41-.02-.9 2.27.48 4 1.53 5.79-2.76 1-3.66-.49-3.92-2.71-.12-1.01-.02-2.04-.02-3.06z"/><path class="st62" d="M100.67 194.04c-.61 1.89.92 1.17 1.58 1.18 4.12.06 8.24.03 12.37.03 1.14 0 2.4-.19 3.28.59 2.86 2.55 6.29 1.86 9.61 1.89 1.33.01 2.65-.12 3.7 1.05 3.37 3.77 7.35 6.89 11.43 9.8 4.02 2.88 4.7 6.43 3.45 10.8-.48 1.67-.91 3.35-1.36 5.03-1.68.18-1.99-1.19-2.46-2.26-3.41-7.64-9.6-10.9-17.64-11.45-1.74-.12-2.46 1.36-3.79 1.82-2.59.56-5.08.52-7.31-1.17-3.08-2.22-5.22-4.95-5.06-9.01.04-1.1-.58-1.91-1.59-2.46-5.03-2.73-15.65-3.53-20.39 2.35-.3.35-.6.71-.86 1.1-.92 1.28-.27 2.6-.05 3.88.38 2.21-.63 3.1-2.71 2.99-1.56-.08-3.04-.55-4.49-1.08a23.57 23.57 0 00-5.7-1.29c-3.85-.39-7.32.4-10.48 2.68-1.58 1.14-3.24 2.19-5.29 2.37-1.58.14-1.65 1.63-2.21 2.67-2.16 3.26-4.53 6.36-5.7 10.22-.69 2.27-6.73 4.97-8.49 4.19 3.25-15.62 13.81-24.3 27.95-29.74 8.34-3.21 17.11-4.2 25.8-5.66 2.11-.33 4.22-.79 6.41-.52z"/><path d="M40.49 229.98c2.79-.15 7.38-3.46 8.24-5.84 1.16-3.21 2.9-6.07 5.38-8.45.26.21.43.48.53.8-.19 3.07-1.41 5.78-3.2 8.2-1.16 1.57-1.59 3.13-.8 4.89 1.45 3.22.86 6.92 2.6 10.11.84 1.53-.28 3-1.67 3.91-1.62 1.07-3.32 1.01-4.94-.04-2.2-1.43-2.81-3.68-3.15-6.1-.13-.95.42-2.06-.62-2.91-1.8.81-.06 3.64-2.34 4.12l-1.86-3.18c1.89-1.42 1.18-3.69 1.83-5.51z" fill="#8f2f1e"/><path class="st62" d="M124.24 192.13c-3.68 1.33-7.48.37-11.22.6 3.69-1.13 7.48-.37 11.22-.6zM112.45 192.75c-2.41 1.29-5 .39-7.5.59 2.43-1.07 5-.41 7.5-.59z"/><path class="st64" d="M40.53 238.67c1.02-1.04.46-2.35.57-3.53.12-1.38.73-2.15 2.15-1.98 1.39.18 1.37 1.01 1.15 2.25-.5 2.87.07 5.54 2.5 7.45 1.57 1.24 3.21 1.17 4.75-.16 1.54-1.33 1.68-2.73.17-4.2-1.21-1.18-.24-2.94-.86-4.07-3.04-5.57-.24-10.21 2.03-14.98.47-1 1.38-1.83 1.15-3.09.74-2.32 1.94-3.9 4.69-4.18 2.5-.26 4.67-1.63 6.49-3.38 1.31-1.26 2.69-1.75 4.49-1.06 1.35.51 2.88.2 4.28.57 1.24.33 2.96.2 3.18 1.9.18 1.4-1.12 2.11-2.19 2.73-2.34 1.37-4.31 3.14-6.21 5.08-2.27 2.31-2.54 4.75-1.43 7.65 1.2 3.13.97 3.44-2.39 3.9-1.25.17-2.42.47-3.53 1.07-1.82.98-2.56 2.42-1.65 4.37.75 1.61 1.49 3.16.56 4.38.15-1.21 1.19-2.21 2.81-2.71 8.68-2.66 17.63-4.02 26.6-2.92 4.92.61 9.02 3.74 11.35 9.11.84-2.72.65-4.98-.07-7.21-.51-1.58-1.9-1.63-3.26-1.85-6.08-1.01-10.29-6.36-9.75-12.3.3-3.26 2.26-4.79 5.48-4.2 2.04.37 3.99.98 5.75 2.18 1.36.93 2.58 1.02 2.68-1.17.06-1.32.82-2.15 1.99-2.47 2.79-.76 4.99-2.38 6.99-4.39.7-.71 1.54-1.49 2.71-.73 2.27 1.66 4.88 1.27 7.43 1.25 1.2-.83 2.54-.94 3.86-.55 7.13 2.1 13.33 5.63 17.4 12.08 2.92 4.62 1.15 10.24-3.86 12.49-2.35 1.05-4.69 2.18-7.11 3.06-6.49 2.36-9.61 7.22-10.06 13.86-.17 2.45-.78 3.73-3.47 4.05-3.42.41-3.81 1.66-1.57 4.18 1.21 1.36 1.15 3.05 1.58 4.61.22.79.35 1.76 1.26 1.99 1.08.27 1.67-.59 2.19-1.38.51-.78.9-1.63 1.41-2.41 1.62-2.49 2.65-2.62 4.86-.53.97.92 1.84 1.95 2.7 2.98 3.16 3.79 3.15 3.84-.06 7.6-2.29 2.69-2.38 3.72-.1 6.37 1.22 1.42 1.56 2.82.86 4.55-1.16 2.88-2.33 5.74-4.95 7.67-1.84.33-3.51 2.12-5.56.65-2.72-.58-3.87-2.51-4.26-5.05-.45-2.88-.43-5.77.02-8.64.21-1.33.37-2.66.26-4.01-.55-6.22-5.62-9.51-11.48-7.45-3.22 1.13-6.21 2.77-9.35 4.08-1.55-.21-2.72.82-4.07 1.26-4.63 1.52-7.45.14-9.09-4.5-.94-2.65-1.2-5.37-1.15-8.17.02-1.37.57-2.89-.58-4.12-1.07-.77-1.82-1.73-1.85-3.12-1.63-2.15-4.14-3.07-6.44-3.95-2.18-.83-3.36 1.07-3.44 3.11-.06 1.51-.3 2.87-1.31 3.97-2.47 2.69-3.52 5.94-3.91 9.98-2.3-2.07-3.98-3.78-3.04-6.89.61-2.02.01-3.74-2.33-4.22-2.61-.53-4.41-1.93-5.58-4.33-.91-1.89-2.19-2.81-3.99-.82-.87.96-1.89 1.79-3.22 1.03-1.28-.73-2.25-1.78-2.14-3.47.07-1.02 0-2.06-.01-3.09.12-1.35-.02-2.54-1.46-3.26-1.16-.55-1.76-1.56-1.57-2.92z"/><path class="st30" d="M156.02 278.97c.51-10.04.92-20.09 1.55-30.13.44-6.92-.26-13.77-.81-20.62-.31-3.76-1.34-7.45-1.94-11.19-.49-3.08 2.33-4.64 3.49-6.96.9-1.8 2.45-3.27 3.72-4.88 1.01.85.92 2.05.88 3.16-.19 5.32 1.11 10.23 3.89 14.77.48.79.99 1.59.76 2.6 2.57 4.79 6.73 8.15 10.62 11.75.79.99.32 2-.13 2.86-2.32 4.56-2.94 9.45-2.94 14.48.21 1.9-.93 3.68-.52 5.6-.1.18-.16.37-.18.58-5.34 5.21-10.22 10.89-15.84 15.82-.83.72-1.69 1.44-2.55 2.16z"/><path d="M428.92 89.8c-14.37-1.88-24.6 9.15-26.41 18.71-.72 3.81-1.12 7.65-.53 11.65.57 3.85.18 7.84.21 11.76-.09.13-.19.26-.28.38-3.73 2.21-7.07 4.78-7.42 9.56-.17 2.26.37 4.51.68 6.74 1.04 7.46-.46 10.49-7.18 13.96-1.19.62-2.32 1.34-3.53 1.91-2.1.99-3.49 2.5-4.01 4.78-.67 2.26-.42 4.55-.22 6.84.07.31.08.62.04.94-.07.32-.24.58-.52.76-10.38 6.41-22 9.69-33.54 13.16-.38.11-.73.32-1.1.49-.54.28-.82-.07-1.09-.45-3.24-6.38-8.61-7.26-13.72-2.29-4.09 3.97-6.38 9.07-8.93 14.02-.42.63-.93 1.18-1.51 1.67-5.51 3.3-11.18 6.37-16.05 10.65-.99.88-2.08 1.66-3.46 1.89-2.18.15-3.85-1.13-5.66-2.03-1.9-1.54-3.68-3.23-5.17-5.14-1.27-1.62-2.83-3.34-1.64-5.74 1.84-.61 3.49.58 5.29.57 5.96-.05 11.92-.32 17.78-1.36 3.45-.61 6.61-2.1 8.02-5.85.46-1.23.89-2.24-.1-3.42-.35-.41-.43-1.16-.41-1.75.19-5.31-.88-10.64.01-15.93 1.15-6.8 5.53-11.05 11.58-13.79 4.66-2.11 9.37-4.12 14.06-6.16 1.44-.63 2.4-1.52 1.98-3.27.35-.33.65-.29.91.11 1.97 1.39 3.76.48 5.17-.77 3.42-3.02 7.63-5 10.81-8.33 2.12-2.22 3.76-4.78 5.31-7.42.5-.85.13-2.82 2.18-2.25 1.26.38 2.23 1.3 2.64 2.38.8 2.12 2.32 2.62 4.29 2.55 2.17-.25 3.01-1.33 2.52-3.56-.89-4.04-1.8-8.01-5.91-10.15-1.15-.03-1.43 1.97-2.87 1.24-.3-.42-.7-.8-.88-1.26-2.38-5.89.54-20.61 5.22-24.68 1.53-1.33 3.85-1.77 5.81-2.59.85-.36 1.75-.61 2.59-.99 6.11-2.76 9.3-10.93 8.99-16.83 1.08-1.32 2.62.23 3.78-.6 4.81-.99 9.1-3.11 13.03-6.02 1.82-1.35 3.57-2.78 5.44-4.06 3.74-2.55 7.14-1.88 10.5 1.2 5.65 5.19 5.78 11.41 4.05 18.14-.24.21-.49.42-.75.63z" fill="#fcb64b"/><path class="st37" d="M412.13 216.94c.72.02 1.45.03 2.16.08.17.01.32.19.71.44-3.27 5.4-7.76 9.51-13.12 12.67-4.16 2.44-8.33 4.91-12.7 6.93-5.46 2.52-9.28 6.79-12.82 11.3-6.9 8.79-14.35 16.89-24.1 22.66-3.42 2.02-7.07 2.6-10.85 3.02.25-1.89 1.72-3 2.9-4.18 6.27-6.28 11.83-13.23 17.95-19.62 7.35-7.67 14.17-15.81 21.67-23.35 7.27-7.3 14.99-14.18 21.62-22.1 6.69-7.99 13.3-16.05 19.53-24.41 4.88-6.55 10.97-11.92 16.67-17.69 6.92-7 14.33-13.73 17.26-23.7.56-1.92.74-3.84.92-5.78.7-1 1.35-2.4 2.71-2.19 1.4.22 1.52 1.7 1.8 2.94 1.72 7.83-.23 14.62-5.6 20.54-2.97 3.28-5.82 6.66-8.66 10.06-3.98 4.76-5.26 10.59-6.35 16.48-.22.6-.44 1.19-.66 1.79-2 3.75-3.73 7.65-6.27 11.1-3.12 4.42-7.17 7.8-11.78 10.55-1.77 1.25-3.75 2.05-5.78 2.77-3.82 1.35-7.32 3.2-9.92 6.44-.49.61-1.5 1.06-1.16 1.99.29.8 1.24.47 1.92.56.7.06 1.41.12 1.95.7z"/><path d="M459.92 133.2c1.68 4.51-.75 8.3-2.65 11.85-2.94 5.48-7.22 9.99-11.57 14.53-3.91 4.08-7.93 8.2-11.94 12.11-8.75 8.54-14.88 19.09-23.08 28.02-4.65 5.06-8.69 10.74-13.8 15.36-6.28 5.67-11.78 12.09-17.8 18-4.47 4.38-8.12 9.63-12.59 13.94-5.34 5.14-9.5 11.27-14.98 16.25-3.63 3.3-6.74 7.17-10.09 10.78-.2 0-.41.01-.61.02-.79-.7-2.42-.29-2.52-1.9 5.43-5.52 10.97-10.92 16.25-16.58 7.29-7.8 14.78-15.41 21.78-23.49 5.25-6.05 10.84-11.81 16.33-17.65 7.61-8.09 15.24-16.16 21.87-25.09 1.58-2.12 2.58-4.65 3.93-6.94 4.54-7.69 11.25-13.59 16.81-20.44 5.44-6.71 11.15-13.19 16.76-19.75 2.6-3.04 5.26-6.02 7.9-9.02z" fill="#8f1d1c"/><path class="st3" d="M438.26 49.99c3.49 1.04 4.39 4.44 6.05 7 2.05 3.17 3.58 6.67 4.47 10.4-4.22 1.69-5.76 4.99-5.64 9.32.05 1.76.01 3.52.01 5.27 0 .52.07 1.05-.03 1.55-.38 2.01-1.92 3.87-3.47 3.87-1.69 0-.9-2.41-.76-3.6 1.05-9 .03-17.83-1.87-26.61-.53-2.53.31-4.89 1.24-7.2z"/><path class="st42" d="M263.83 158.01c3.81-6.6 9.41-11.49 15.37-16.02 3.68-2.8 7.34-5.78 10.4-9.08 7.62-8.21 14.34-17.25 21.8-25.62 3.83-4.3 7.44-8.78 11.4-12.99a139.36 139.36 0 0125.64-21.41c.41-.27.7-.73 1.05-1.09 1.24.13 1.68.59 1.52 2.02-.84 7.42.35 9.62 7.17 11.8 3.06.98 4.82 1.76 2.55 5.08-.24.36-.06 1.01-.07 1.53-1.73-.18-3.03.39-4 1.94-.61.97-1.32 2.1-2.82 1.86-.56-2.31-1.81-.73-2.46-.26-5.81 4.18-7.68 5.73-5.19 14.09 1.24 4.15 1.62 8.65 4.52 12.18-1.35 1.36-3.25-.61-4.59.76-1.4 4.78-1.16 5.17 2.98 8.11 1.38.98 3.17 1.45 4.09 3.04-2.46 4.88-8.55 5.7-13.21 1.89-1.81-1.48-3.71-2.92-5.77-4-6.01-3.13-8.37-2.48-13.41 3.29-.28.11-.56.1-.84-.03-2.78-2.36-2.72-2.28-5.78.15a63.69 63.69 0 00-3.93 3.39c-1.64 1.53-2.44 3.42-1.52 5.7 1.08.83 3 .2 3.5 2.02-.19.35-.29.84-.58 1.03-5.65 3.68-6.36 6.6-3.01 12.33 1.25 2.14 2.32 4.35 3.2 6.68 2.3 6.12-.42 9.81-6.89 8.92-2.83-.39-5.41-1.8-8.03-2.96-.95-.43-.62-1.45-1.19-2.2-1.78 1.06-1.82 3.4-3.36 4.59-1.21.73-1.72.03-2.06-1 .05-.41.24-.77.46-1.11 1.74-2.7 1.72-2.75-1.55-4.48-.87 1.56 2.71 2.92.25 4.44-.29.07-.58.07-.86.02-2.36-1.69-2.78-2.39-3.25-5.3-1.22 2.87 1.17 4.4 2.46 6.35.06.79.24 1.65-.97 1.74-3.39-2.17-5.97-4.74-4.51-9.27.39-1.22-.25-1.54-1.36-1.75-2.94-.54-5.69.27-8.46.99-2.98.77-5.97 1.33-9.07 1.35-1.65.01-2.18-.67-2.11-2.22.12-2.45 1.31-4.47 2.49-6.5z"/><path class="st43" d="M396.67 79.91c-1.12 1.05-2.53.31-3.78.6-3.77 0-6.09-1.88-7.36-5.39-2.1-5.78-3.46-11.82-6.13-17.41-1.6-3.35-3.07-6.73-6.33-8.87 5.19-2.41 10.47-4.58 15.82-6.62 1.97-.75 3.54-2.75 4.63-4.82 3.75-7.14 13.23-9.79 19.5-4.8 5.95 4.73 9.71 11.14 9.63 19.08-.04 4.36-3.03 6.77-6.75 8.34-8.4 3.55-15.02 9.18-19.77 16.96-.58.94-2.6 2.55.54 2.93z"/><path class="st3" d="M287.9 204.01c.26 3.44 2.43 5.75 4.7 8.01.79.79 1.56 1.61 2.34 2.42-.86 1.32-2.2 1.5-3.56 1.32-7.56-1.01-15.03.28-22.48 1.1-16.12 1.76-32.01 4.81-47.7 8.91-6.89 1.8-13.67 3.96-20.05 7.2-1.14.58-2.27 1.58-3.73.75 3.12-5.91 7.42-11 11.58-16.16 6.1-7.57 12.19-15.16 18.84-22.27 2.15-2.21 2.51-5.6 5.06-7.57.53-.41.79-1.16 1.5-1.44.33-.06.65-.02.95.12.25.24.43.52.55.84.39 1.9.3 3.8.16 5.71-.22 1.49-1.01 2.69-1.98 3.79-.75.86-1.47 1.74-2.06 2.72-2.98 4.97-1.24 8.24 4.5 8.52 7.28.34 14.43-.8 21.58-1.9 8.47-1.3 16.86-3.23 25.51-3.05 1.34.03 2.71-.1 3.84.86.15.07.3.1.45.12z"/><path class="st43" d="M287.46 203.91c-10.65-.37-21 1.75-31.42 3.5-6.87 1.15-13.84 1.93-20.85 1.48-5.13-.33-6.95-4.11-4.68-8.72 1.33-2.71 4.33-4.23 4.86-7.39.67-.64 1-1.59 1.88-2.03 1.02-.06.67 1.04 1.18 1.41 2.25 2.66 5.4 2.83 8.53 3.14 8.57.83 15.97-3.41 23.87-5.48 3.56-.93 7.05-1.27 10.62-.62 3.15.57 4.77 2.88 5.25 5.79.48 2.93.52 5.94.76 8.92z"/><path d="M247.05 164.1c13.28-11.32 26.72-22.47 35.51-37.99.39-.69.82-1.59 1.87-1.22 2.26.81 4.57.01 6.84.29-9.81 10.72-19.63 21.44-29.44 32.15-3.53 3.26-6.66 6.9-9.8 10.53-2.15 3.27-4.77 6.14-7.49 8.93-.78.81-1.61 1.62-2.9 1.51-.98-.22-1.18-.96-1.37-1.82-1.36-5.93.29-8.97 6.78-12.38z" fill="#9c2720"/><path d="M242.16 177.98c3.29-3.37 6.58-6.74 9.87-10.12-.4 2.45-1.24 4.61-2.83 6.65-2.55 3.28-3.25 7.31-3.43 12.47-.54-2.35-.93-3.09-2.46-1.82-2.32 1.91-4.15 4.03-4.88 6.99-.38-.44-.76-.88-1.14-1.33-2.04-.78-1.28-2.85-1.97-4.25l-.01-.02c-.46-.49-.54-1.06-.33-1.69 2.69-1.97 4-5.4 7.18-6.88z" fill="#f5b655"/><path d="M374.37 92.23c-.73-2.08.66-5.33 2.79-6.66 2.38-1.49 5.08-2.54 6.76-5.02.64-.95 1.62-.81 2.42-.07 1.14 1.04 2.3 2.09 2.84 3.61-3.85 3.09-8.12 5.54-12.26 8.2-.77.5-1.71.75-2.55-.06z" fill="#96c74c"/><path d="M374.37 92.23c2.9-.07 4.65-2.34 6.9-3.63 2.63-1.51 4.9-3.66 7.91-4.51-.06 2.15.75 4.54-2.12 5.79-.93.41-1.56 1.56-2.28 2.44-3.1 3.82-8.23 3.7-10.41-.09z" fill="#77a140"/><path d="M377.36 139.94c-1.9.13-3.69.28-4.51-2.16-.42-1.25-1.55-2.26-2.36-3.37.05-2.53-1.55-5.2.67-7.54 1.22-.24 1.18-1.95 2.46-2.12 1.77 1.48 1.63 3.72 2.07 5.64.73 3.13 2.23 6.18 1.67 9.55z" fill="#769f40"/><path d="M320.24 135.06c.18.03.37.06.55.06-.57 5.48-3.34 9.28-8.56 11.23-1.22-1.11-3.1-.29-4.29-1.47-.08-1.46 1.08-2.12 1.96-2.92 2.43-2.21 5.06-4.17 7.68-6.15.77-.57 1.47-1.57 2.66-.75z" fill="#74a541"/><path d="M339.65 141.88c4.3-2.26 6.68 1.19 9.52 3.24.39.28.52.91.91 1.2 3.07 2.39 3.08 3.38.04 6.09-2.9-2.74-6.04-5.22-8.91-7.99-.75-.71-1.51-1.4-1.56-2.54z" fill="#9bc64b"/><path d="M339.65 141.88c2.72 2.46 5.48 4.89 8.15 7.4.94.88 2.2 1.6 2.32 3.13-.8 1.18-2.39-.82-3.09.76-.3-.03-.61-.07-.91-.11-.44-1.64-1.99-1.9-3.22-2.43-4.08-1.76-5.16-4.56-3.25-8.75z" fill="#76a340"/><path d="M345.34 122.1c1.77-1.63 3.58.17 5.37-.06 2.02 2.26 4 4.56 6.09 6.75.73.77.83 1.39.19 2.12-.74.84-1.4 1.8-2.49 2.26-3.86-3.03-6.52-7.03-9.16-11.07z" fill="#99c74e"/><path d="M345.34 122.1c2.36 1.19 3.06 3.85 4.9 5.56 1.67 1.56 2.86 3.65 4.26 5.5-.21.63-.79.67-1.31.79-2.73-.4-4.55-2.44-6.68-3.87-3.17-2.12-1.97-5.14-1.17-7.98z" fill="#75a441"/><path d="M353.84 96.02c1.57-.88 2.32-2.51 3.46-3.78 1.16-1.3 2.23-1.71 3.36-.02.06 1.26-.1 2.47-.77 3.56-.55.92-.09 1.31.74 1.53-3.13 2.23-6.23 4.54-10.4 4.21-.26-2.8 2.52-3.59 3.61-5.5z" fill="#9ac648"/><path d="M293.05 179.1c1.35.2 1.62-3.37 3.37-1.15 2.82 3.58 2.67 4.99-.06 6.87-1.66 1.14-3.24 2.42-5.23 3-.47-3.15-1.58-6.44 1.92-8.72z" fill="#799f3f"/><path d="M350.24 101.52c3.7-.83 6.78-3.19 10.4-4.21 1.59-.35 2.08.46 1.87 1.87-.19 1.32.52 3.4-1.46 3.56-3.58.28-7.2.11-10.79-.03-.75-.03-.24-.77-.02-1.19z" fill="#79a03f"/><path d="M293.05 179.1c-2.23 2.56-1.25 5.82-1.92 8.72-.19.22-.38.43-.57.65-1.01-.89-.71-2.02-.54-2.99-.69.65-.73 2.84-2.56.97-.74-2.88-.14-5.75-.04-8.63.05-1.39.04-2.8 1.85-3.07 1.89-.29 2.8.76 3.12 2.5.23.62.44 1.24.66 1.85z" fill="#93c454"/><path d="M292.4 177.25c-.74-1.29-1.61-2.37-3.34-1.81-1.56.51-.96 1.86-.98 2.88-.05 2.98 0 5.96.02 8.93 1.04 2.01.35 2.98-1.84 3.04-.55-4.99.36-9.93.61-14.89.71-.49.59-1.21.54-1.91-.45-1.28-.01-1.68 1.26-1.27.21.02.42.03.63.05.51.31 1.13.5 1.26 1.21.31.85.96 1.21 1.82 1.26 0 .84.01 1.68.02 2.51z" fill="#bec851"/><path d="M286.25 190.3c1.41-.53 2.02-1.55 1.84-3.04.67-.88 1.34-1.75 2.47-3.23v4.45c-1.09.86-2.15 1.76-3.28 2.56-.84.59-.97-.09-1.03-.74z" fill="#759d40"/><path class="st24" d="M379.77 177.8c.02-.18.06-.36.12-.54 1.81-2.83 4.77-4.48 6.95-7 8.15-9.44 13.44-19.99 14.03-32.64.09-1.92.18-3.94 1.36-5.64l-.03-.05c5.11-.05 8.49 3.3 12.03 6.23 2.38 1.96 4.23 4.51 6.76 6.35 1.74 1.26.11 2.47-.49 3.4-2.71 4.12-5.53 8.18-8.43 12.18-5.62 7.78-11.79 15.1-18.63 21.82-2.93 2.88-6.21 5.41-9.3 8.14-1.26 1.11-2.09.86-2.32-.73-.56-3.88-2.21-7.54-2.05-11.52z"/><path d="M197.42 233.72c7.7-3.9 15.74-6.93 24.13-8.94 8.47-2.03 16.9-4.38 25.49-5.7 8.29-1.27 16.55-2.94 24.98-3.44 5.32-.32 10.61-1.15 15.97-1.16 2.32 0 4.65 1.19 6.96-.04 1.9.48 3.47 1.87 5.5 1.98.19.25.22.51.09.79-.65.98-1.64 1.57-2.56 2.25-.65.07-1.36-.11-1.87.49-2.49.38-5.1-.45-7.52.74-1.08-.89-2.36-.65-3.57-.57-10.17.67-20.35 1.2-30.48 2.48-11.4 3.09-23.37 3.55-34.52 7.83-9.4 3.61-17.64 8.51-22.5 17.78-2.22 3.8-3.34 8.03-4.71 12.17-.22.67-.33 1.39-.95 1.86-1.14 1.69-.52 4.04-2.42 5.94-.92-10.72-.46-20.8 4.95-30.1 1.75-.94 1.61-3.19 3.03-4.36z" fill="#b63b26"/><path class="st24" d="M344.48 190.92l.65.53c3 4.48 6.39 8.72 8.71 13.64.71 1.32-.13 1.84-1.16 2.29-11.64 5.03-23.89 7.27-36.48 7.97-.92.05-1.85.01-2.74-.33-1.27-.67-.75-1.63-.1-2.22 2.78-2.49 4.19-5.93 6.35-8.85.41-.42.81-.85 1.22-1.27.95-1.53 2.68-1.87 4.12-2.58 5.44-2.67 10.16-6.88 16.57-7.53.88-.08 1.39-1.92 2.86-1.65z"/><path d="M312.78 214.41c8.21.15 16.24-1.3 24.29-2.69 5.38-.93 10.26-3.34 15.45-4.78.93-.26 1.26-.97 1.32-1.86 1.74 1.09 1.95 1.73-.29 2.65-14.88 6.11-30.36 9.59-46.33 11.22-3.09.32-6.16.48-9.25.51.44-1.28 1.35-2.08 2.57-2.58 3.66-1.12 7.64-1.01 11.13-2.82.35-.18.79.09 1.11.35z" fill="#a02a21"/><path d="M412.13 216.94c-1.78-.23-4.43.99-5.16-.57-.92-1.97 1.81-3.06 3.05-4.41 4.04-4.42 9.69-5.73 15.08-7.49l-8.5 11.8c-1.47.35-3.12-.49-4.47.67z" fill="#cb5b28"/><path d="M436.87 193.92c1.76-3.89 3.13-8 6.27-11.1-.43 4.63-2.98 8.07-6.27 11.1z" fill="#c85d28"/><path class="st64" d="M199.94 265.35c-1.67-2.64-1.22-5.78 1.6-7.99 1.78-1.4 2.31-2.97 2.12-5.02-.39-2.52 1.48-3.88 2.82-5.51 2.27-2.46 4.69-4.65 8.26-5.04 2.22-.25 4.08.14 5.44 2.09 1.29 1.83.44 3.3-.65 4.78-1.38 1.86-1.34 3.71-.33 5.8 1.83 3.8 1.67 3.99-2.47 5.22-1.5.45-2.91 1.05-4.15 2.03-1.33 1.05-1.69 2.26-.82 3.79.81 1.45 2 1.65 3.44 1.17.98-.32 1.95-.73 2.84-1.22 3.09-1.7 6.65-.38 9.61-1.33 3.23-1.04 6.1-1.88 9.51-1.13 2.21.48 4.44.52 6.41 1.92 2.21 1.58 4.34 3.12 5.25 5.88.38 1.15 1.2 2.54 2.71 1.73 1.35-.72 1.46-2.23.75-3.55-1.57-2.88-3.77-5.16-6.74-6.63-2.18-1.08-3.91-2.69-5.36-4.6-1.24-1.63-1.21-3.23.31-4.71.3-.29.61-.55.91-.84 4.09-4.01 4.09-4.01 9.08-2.21-.68-5.2-.05-5.73 6.02-5.01 3.89.63 7.55.87 11.3-1.35 3.75-2.22 11.27 1.53 12.57 5.69.37 1.17.23 2.29-.46 3.25-2.69 3.73-3.92 7.77-3.63 12.46.13 2.17-1.06 4.43.96 6.31.38.73.64 1.52.86 2.31.87 4.01-.09 7.81-1.57 11.48-1.28 3.16-2.8 6.23-4.58 9.14-3.49 5.69-8.7 5.57-12.01-.18-3.94-6.84-8.78-7.46-14.59-1.87-.22.21-.42.47-.66.65-5.35 4.01-7.52 9.28-6.71 15.95.35 2.87.1 5.72-2.24 8.05-2.79 2.78-6.46 2.91-8.71-.23-1.57-2.18-3.31-2.88-5.84-2.06-1.89.62-3.81.74-5.78.05-5.17-1.83-6.55-5.05-4.26-10.15 1.15-3.11.89-6.22-.02-9.33-.97-1.16-.88-2.45-.52-3.81.49-1.86-.28-3.06-2.14-3.41-2.59-.48-4.24-2.07-5.29-4.33-1.04-2.22-2.24-2.31-4.01-.76-1.17 1.02-2.62 2-4.16.7-1.59-1.35-2.59-3.01-1.24-5.14 1.03-2.39 2.13-4.13 5.46-3.35 3.41.8 4.98-2.88 3.24-7.21-.98-.71-2.03-1.31-2.53-2.48z"/><path class="st87" d="M276.86 271.57c-1.92-1.22-2.61-2.8-1.58-4.98.25-.54.43-1.23.33-1.79-.93-4.96 1.15-8.93 3.76-12.9 1.81-2.76-.73-4.74-2.47-5.81-3.17-1.94-6.74-3.6-10.56-.93-3.18 2.23-6.59 1.14-9.93.34-.43-.5-1.8-.26-1.23-1.56.44-.7 1.11-1.24 1.52-1.95 1.49-2.57 3.48-3.34 6.24-1.98 1.01.5 2.2.94 3.21.01 4.07-3.79 8.62-2.42 13.01-1.04 3.92 1.24 6.78 3.86 8.04 7.97.46 1.49 1.7 2.6 2.1 4.13 3.81 4.86 5 10 1.82 15.71-1 1.79-.56 3.18 1.74 3.53.61.09 1.21.24 1.79.44 2.07.73 5.84-.89 5.39 3.35-.25 2.39.61 5.19-2 7.13-3.36 2.49-4.01 5.67-1.89 9.46 1.36 2.43 1.62 5.04-.01 7.56-1.83 1.33-1.86 3.39-1.77 5.26.23 4.43-.24 5.38-4.5 6.48-2.54.66-5.01 1.53-6.92 3.26-1.97 1.79-3.89 2.02-6.19 1-2.62-1.16-4.67-1.12-5.71 2.22-.62 2-3.02 2.05-4.59 2.83-2.61 1.3-4.88 2.73-6.82 5.01-2.2 2.59-3.41 2.28-5.06-.65-.71-1.26-1.53-2.54-1.81-3.92-.74-3.68-2.31-6.74-5.3-9.1-1.62-1.27-.96-2.46.43-3.5 1.6-1.2 4.1-2.19 3.76-4.38-.38-2.39-3.32-2.83-5.15-4.07-1.12-.76-4.74 2.35-4.93 4.48-.28 3.09-1.06 6.37-2.25 8.84-2.08 4.33-4.22 8.26-4.53 13.29-.17 2.79-4.78 4.23-6.69 2.28-2.51-2.54-5.89-2.72-8.71-4.31-2.47-1.4-4.37-2.99-5.22-5.71-.52-1.67-1.48-2.98-3.16-3.57-2.22-.79-3.15-2.12-3.11-4.63.05-2.53.79-4.17 3.22-4.94.5 1.91-1.06 3.79-.13 5.7 1.46 2.99 5.36 5.03 8.55 3.9 3.86-1.37 6.51-.94 8.76 2.86 1.62 2.74 6.8 1.19 8.24-2.2.93-2.19.92-4.53.56-6.71-1.54-9.45 4.68-14.41 11.06-19.07 3.91-2.86 8.64-1.48 11.21 2.63.76 1.22 1.34 2.56 2.12 3.76 1.74 2.7 5.46 3.19 7.71.93 3.51-3.53 5.04-8.21 6.96-12.63 1.4-3.22 1.63-6.71 1.33-10.22 1-.82 1.97.03 2.95.07 2.21.1 3.5-1.59 2.75-3.65-.39-1.09-1.17-1.94-1.99-2.74-.8-.79-1.77-1.09-2.84-.71-1.27.46-1.2 1.5-1.04 2.58.14.96.37 1.91-.47 2.64z"/><path class="st1" d="M193.74 278.39c0 .41.01.83 0 1.24-.05 1.72.78 3.08 2.2 3.77 1.32.64 2.36-.64 3.11-1.44 2.11-2.24 3.32-2.2 4.54.85.96 2.41 2.6 4.22 5.69 4.46 1.97.16 2.88 1.92 2.18 3.97-.45 1.3-.74 2.55-.35 3.89-2.49-3.9-6.47-4.83-10.65-5.65-4.39-.86-7.69-3.22-8.59-7.99-.13-1.48.58-2.47 1.87-3.1z"/><path class="st88" d="M245.55 332.36c-5.14 0-8.36-5.43-6.06-10.18 1.2-2.47 3.38-2.7 5.04-.47 1.53 2.06 2.99 4.18 4.41 6.32.64.97 1.71 1.84.84 3.31-.76 1.29-1.91.96-3 1.02-.41.02-.82 0-1.23 0z"/><path d="M167.56 225.71c-4.7-6.08-6.01-13.06-5.53-20.53 1.08-5.87 3.14-11.14 8.68-14.3 3.53-1.98 3.57-1.97 4.71 1.59.22.69.36 1.51 1.26 1.49 1.1-.02 1.18-.99 1.29-1.79.17-1.32.32-2.64.67-3.93.3-1.14.69-2.34 2.17-2.04 1.29.27 2.28 1.03 1.66 2.63.99 1.24 2.41.47 3.6.77 8.74 2.25 17.08.57 25.22-2.76.95-.39 1.9-.78 2.88-1.1 1.85-.61 3.25-.26 3.82 1.82.24 1.42.04 2.87.19 4.31.1.92.16 2.02 1.33 2.15 1.08.11 1.19-.92 1.42-1.7.2-.7.38-1.4 1.16-1.71 1.42-.09 2.55.4 3.27 1.67a53.137 53.137 0 01-13.06 9.26c-5.62 2.82-11.67 4.54-17.54 6.73-9.96 3.71-19.01 8.84-26.09 16.98-.24.26-.73.31-1.11.46z" fill="#911c1d"/><path d="M225.36 192.27c-1.03-.46-2.05-.92-3.08-1.38-2.2-.15-3.51-1.72-4.92-3.12-.47-2.09-1.67-1.86-3.26-1.19-5.97 2.53-12.05 4.88-18.62 4.92-4.68.03-9.34-.79-13.94-1.74-.07-.02-1.45.35-.5-.64.17-.18.59-.11.9-.15 2.19-.95 4.48-1.33 6.84-1.69 7.23-1.09 14.17-3.32 21.44-5.93-2.4-1.32-2.2-2.43-.35-3.46 4.87-2.53 11.24 1.69 11.83 7.74.13 1.31-.93 3.51.89 3.75 2.14.28.95-2.34 1.69-3.25 2.32-2.84 2-7.95 7.14-8.42.48-.04.84-.87 1.35-1.17 1.38-.8 2.73-1 3.66.69.31.56-.06 1.8.99 1.55.92-.22 1.98-.8 2.16-1.97.13-.81.16-1.66.05-2.47-.38-2.8-.25-5.55.64-8.25.2-.53.54-.82 1.14-.66 1 .57-.35 1.02.09 1.74 2.01-.59 2.91-3.56 5.56-3.06-1.72 1.45-3.45 2.88-5.16 4.34-2.34 2-2.19 7.27.26 9.53-2.25 2.28-3.6 5.47-6.83 6.76-1.17-.29-1.66-2.3-3.19-1.4 2.36-.27 2.66 1.29 2.54 3.21-1.04 2.81-4.66 4.02-4.59 7.61.02 1.05-1.33 1.08-2.26 1.14l-.03-.03c.31-1.45-.35-2.24-1.74-2.51-.23-.17-.47-.33-.7-.49z" fill="#db7232"/><path d="M175.12 254.81c-1.27-3.66-.77-7.23.54-10.76.82-2.2 1.68-4.39 2.52-6.59 1.73.72 2.09 2.15 1.89 3.8-.57 4.91-2.71 9.25-4.95 13.55z" fill="#c34c27"/><path class="st3" d="M226.07 192.75c.96-.1 2.18-.83 2.81-.01.8 1.03-.76 1.64-1.07 2.53-1.57-.16-1.86-1.2-1.74-2.52z"/><path d="M289.28 251.09c-1.56-.82-2.39-2.31-2.98-3.8-2.21-5.59-6.44-8.67-12.39-8.58-2.66.04-5.74-1.1-7.41 2.45-.54 1.15-1.93.51-2.78.02-3.05-1.77-5.37-1.5-6.82 2.03-.3.72-.96 1.05-1.74 1.08-2.5-.17-2.58-2.36-3.17-3.98-1.3-3.55-1.64-3.8-5.01-2.01-1.45.77-2.43.51-3.01-.87-.96-2.29-3.03-2.97-5.03-3.79-.95-.39-1.98-.95-2.8.17-.73 1-.7 2.15-.21 3.25.8 1.82 3.59 3.29 5.71 2.92 1.69-.3 3.44-1.29 4.46 1.14.89 2.14.52 5.71-.81 7.08-.73.75-1.57.78-2.55.72-2.86-.16-3.69.5-3.36 3.28.31 2.58-.71 3.86-2.98 4.63-3.17 1.08-6.47.7-7.83-1.07-1.2-1.56-.69-3 .67-4.06 1.79-1.38 1.62-3.22 1.49-5.07-.12-1.76-1.09-2.09-2.55-1.31-1.19.63-2.25 1.47-3.37 2.21-.98.64-2.04 1.29-3.05.18-1.06-1.16-.51-2.3.33-3.33 1.3-1.6 2.91-2.89 4.62-4.62-2.54-.5-4.93-.07-7.16-.79-.63-.2-1.25.23-1.61.74-1.53 2.19-3.79 2.77-6.24 2.76-2.63-.01-4.42.79-4.4 3.81 0 .39-.27.77-.53 1.1-1.2 1.55-2.38 3.13-3.1 4.98-.21 0-.41-.01-.62-.01-4.82-.3-4.82-.3-6.15-4.33 2.45-5.7 6.74-9.82 11.85-13.01 9.89-6.17 21.04-8.73 32.37-10.56 4.46-.72 8.95-1.23 13.42-1.83-.43.68-1.28.48-1.76.67 8.47 4.58 18.13 5.03 27.13 7.89 3.52 1.12 6.64 2.9 9.47 5.02 2.48 1.86 2.72 5 2.28 7.96-.37 2.41-.98 4.82-2.38 6.93z" fill="#652810"/><path d="M196.89 248c.28.1.8.17.82.31.35 2.43 1.65 3.48 4.13 3.16.36-.05.8.55 1.21.85-1.17 2.47-2.36 4.73-5.28 5.85-2 .77-2.81 3.35-4.76 4.54-.84.51-1.01.25-1.15-.49.72-5.07 2.39-9.82 5.03-14.22z" fill="#4b1b0d"/><path d="M199.94 265.35c1.08.57 2.43.88 2.5 2.47-.64 1.81-1.12 3.7-2.61 5.06-1.48 1.36-2.68 1.62-3.85-.5-2.45-4.47-1.07-7.02 3.96-7.03z" fill="#672811"/><path class="st87" d="M126.08 292.61c1.31-2.78 3.4-5.14 4.33-8.13.39-1.24.56-2.18-.53-3.32-3.13-3.26-3.03-5.81.63-8.53 2-1.49 2.03-2.44.43-4.09-1.5-1.54-2.7-3.37-4.18-4.93-1.1-1.16-2.33-1.81-3.15.44a14.18 14.18 0 01-1.72 3.24c-.71 1-1.55 2.01-3.04 1.71-1.33-.27-1.3-1.39-1.53-2.39-.57-2.42-.69-4.79-3.32-6.52-2.14-1.4.6-3.19 1.47-3.22 4.85-.18 4.81-3.37 5.53-6.98 1.14-5.73 4.63-9.97 10.6-11.77 2.44-.74 4.77-1.89 7.09-2.97 4.04-1.88 5.88-7.34 3.23-11.08-5.02-7.11-11.73-11.71-20.78-12.08.92-2.58 2.84-2.07 4.97-1.91 6.87.51 11.98 3.73 15.79 9.34 1.08 1.6.85 3.92 2.83 4.99.84 6.1 1.3 12.2.01 18.29-.02.1.03.22-.01.31-2.33 4.38-.74 6.92 3.51 9 2.53 1.24 1.94 4.35 1.08 6.44-3.49 8.48-5.05 17.45-7.17 26.28-.61 2.52-2.39 3.97-4.24 5.45-3.85 1.32-7.63 2.89-11.83 2.43zM95.7 272.19c3.21-3.1 7.28-4.64 11.45-5.5 7.31-1.49 11.48 6.27 10.05 12.55-.61 2.68-.43 5.33-.33 7.99.1 2.58 1.35 4.68 3.65 6.03-4.74-.43-8.89.96-12.46 4.09-1.82 1.6-2.71.77-3.2-1.19-.89-3.57-1.43-7.24-3.33-10.51-.78-1.34-1.51-2.65-2.61-3.78-1.71-1.74-1.44-3.04.83-3.38 2.18-.32 3.63-1 3.33-3.41-.31-2.49-2.13-3.01-4.3-2.93-1.02.06-2.05.03-3.08.04z"/><path class="st88" d="M89.49 295.06c0-1.32-.08-2.59.97-3.73 2.17-2.35 3.18-2.3 4.82.51 1.39 2.39 2.92 4.71 4.16 7.17 1.27 2.52.46 3.62-2.37 3.58-4.17-.06-7.59-3.45-7.58-7.53z"/><path class="st87" d="M134.14 296.65c-.35 2-2.38 1.91-3.78 2.34-1.13.35-1.79-.89-1.72-1.98.13-2.01 1.75-2.32 3.31-2.46 1.33-.12 2.17.49 2.19 2.1z"/><path class="st95" d="M79.05 281.47c-.97-.01-1.87-.38-2.54-1-1.47-1.36-2.67-3.06-4.43-.13-.6 1-3.15-1.04-2.9-2.83.25-1.76.3-3.64 1.58-5.21 1.8-2.22 3.9-2.63 6.08-.84 2.27 1.87 3.67 4.39 4.87 6.99.78 1.67-.59 3.1-2.66 3.02z"/><path d="M78.96 253.55c.82.92 1.73 1.79 1.85 3.12 0 .83.02 1.65 0 2.47-.09 3.02-2.87 4.67-5.59 3.32-2.12-1.05-3.42-3.01-4.62-4.84-1.08-1.65-.23-3.37 1.75-3.76 2.15-.42 4.36-1.24 6.61-.31z" fill="#672810"/><path class="st24" d="M241.41 165.42l-1.14.66c-.89-.09-1.11-.66-1.25-1.47-.74-4.04-1.56-8.06-2.33-12.1-1.02-5.37 1.16-8.44 6.59-9.43 2.02-.37 4.07-.67 6.03-1.25 5.49-1.61 7.11-4.27 5.66-9.92-.85-3.3-1.6-6.59-1.98-9.96-.35-3.1-.11-6.29 1.29-9.03 2.89-5.65 6.8-5.72 12.44-2.45 5.01 2.9 8.17 8.12 12.86 11.54 1.13.83.39 1.46-.17 2.27-10.41 15.1-22.28 28.84-36.96 39.98-.41.33-.7.78-1.04 1.16z"/><path d="M288.17 100.32c3.63.48 5.13-1.43 5.45-4.77.44-4.6 2.89-8.73 3.15-13.38.44-8.1 3.89-15.4 6.12-23.03.75-2.56 2.09-3.48 4.49-2.13 3.39 1.92 7.08 3.28 10.29 5.55 1.22.86 1.53 1.45.67 2.95-3.35 5.82-4.99 12.36-7.25 18.62-3.92 10.85-7.76 21.69-15.16 30.8-.59.73-1.15 1.48-2.21 1.49-.86-5.7-2.78-11.05-5.55-16.1z" fill="#921c1d"/><path d="M209.86 177.89c.13.84-.81 1.13-.99 1.9 1.01.17 2.52-.47 2.65 1.16.09 1.22-1.2 1.19-2.02 1.5-6.42 2.47-13.07 4.3-19.79 5.56-2.49.46-5.1 1.42-7.78.96.77-1.35-.18-1.96-1.18-2.23-1.21-.33-1.2.69-1.29 1.53-.17 1.41-.75 2.75-.62 4.22.13 1.45-.16 2.71-2.03 2.74-1.83.03-2.14-1.25-2.28-2.65-.07-.7-.01-1.42-.01-2.43-1.38.24-2.52 1.11-3.81.74-.01-.15-.01-.31-.01-.46-.9-1.41-.66-2.93.31-3.98.88-.95 2.2-.41 3.46-.07 1.8.49 3.28-.77 4.29-2 5.82-7.06 13.06-12.42 20.49-17.58.95-.66 1.96-1.17 3.17-.71 1.77 3.09 3.48 6.21 5.35 9.24.56.92.96 2.07 2.09 2.56z" fill="#b03925"/><path class="st8" d="M202.41 166.09c-4.66 2.19-8.56 5.52-12.61 8.6-4.11 3.12-7.64 6.83-10.88 10.86-.95 1.19-3.66.61-3.69 3.42-.72-1.5-1.24-2.88-3.11-2.39-2.36.62-.87 2.59-1.42 3.84l-1.16-.15c.2-2.75.65-5.51-.69-8.13 3.15-2.15 5.76-4.85 7.85-8.01 2.65-4.01 4.99-8.26 8.25-11.82 6.18-6.74 11.7-6.12 16.46 1.7.31.52.67 1 1.01 1.51 0 .18 0 .37-.01.57z"/><path d="M221.06 143.08c-3.74.89-6.18-1.38-8.58-3.62-1.84-1.71-2.59-4.31-4.82-5.81-1.21-.82-.28-2 .38-2.92.78-1.22 1.27-2.84 3.25-2.53 2.8 4.21 6.52 7.73 9.05 12.14.49.85 1.51 1.56.72 2.74z" fill="#9ac54c"/><path d="M221.06 143.08c-2.08-4.33-5.35-7.82-8.26-11.55-.76-.97-1.5-1.92-1.78-3.15-.28-.29-.24-.53.12-.72v-.01c2.67-.3 4.91.54 6.75 2.48l-.01-.01c2.11 1.85 4.51 3.44 5.56 6.23-.25 2.44-.17 4.99-2.38 6.73z" fill="#749d3f"/><path d="M187.55 144.35c1.78 3.58 4.74 6.45 6.19 10.24-2.09.62-2.9-1.49-4.43-2.11-.8-.32-1.28-1.34-2.33-1.35-1.6-1.09-3.22-2.16-4.79-3.29-.64-.46-1.58-.94-1.26-1.9.3-.9 1.09-1.53 2.11-1.57 1.5-.05 3-.02 4.51-.02z" fill="#9dc44b"/><path class="st102" d="M217.9 130.14c-2.09-1.27-4.4-1.94-6.76-2.48 3.03-1.28 5.28-.46 6.76 2.48zM223.46 136.36c-1.85-2.08-3.71-4.15-5.56-6.23 2.64 1.37 5.1 2.91 5.56 6.23zM211.14 127.67l-.12.72c-.99.78-1.98 1.56-2.97 2.35-.08-2.15.94-3.19 3.09-3.07z"/><path d="M185 91.61c2.44-4 4.82-8.04 7.36-11.98.94-1.45 1.45-3.54 3.81-3.53.42 1.16-.65 2.76 1.04 3.57.23.11.67.4.32.64-2.57 1.84-1.88 5.04-3.12 7.46-1.9 3.76-5.28 5.37-9.41 3.84z" fill="#72a542"/><path d="M126.67 146.3c.65.47 1.25 1.05 1.96 1.37 1.92.85 2.32 2.15 1.33 3.92-1.7 3.03-1.71 6.88-4.51 9.38-1.36-3.88-2.42-7.77-.67-11.82.19-1.24-.39-2.98 1.88-2.83.01 0 .01-.02.01-.02z" fill="#78a03f"/><path d="M124.79 149.15c.22 3.94.45 7.88.67 11.82-3.35-3.67-4.84-8.49-7.7-12.47-.79-1.1.27-1.42 1.31-1.72 2.6-.75 3.52 2.32 5.72 2.37z" fill="#9bc54a"/><path class="st7" d="M171.27 145.11c-.8-.35-2.17.24-1.78-.85.58-1.61 2.48-1.94 3.92-2.58.63-.28 1.72.27 1.53 1.02-.49 1.92-2.44 1.77-3.67 2.41z"/><path class="st106" d="M113.71 210.74c-1.55.08-2.27 1.35-3.17 2.28-1.24 1.29-2.58 2.44-4.29 2.95-2.05.61-4 .55-3.44 4.01.32 1.95-2.4 1.49-3.56.51-1.85-1.56-3.99-2-6.2-2.43-2.42-.47-3.97.7-4.18 3.1-.56 6.67 3.54 11.46 10.34 11.88 1.51.09 2.16.73 2.67 2.02.91 2.31.59 4.68.62 7.04.01.76.3 1.85-.89 1.98-1.07.12-1.98-.75-1.99-1.59-.01-2.33-1.32-3.52-3.11-4.55-2.8-1.61-5.13-3.78-8.89-3.73-7.96.12-15.76.81-23.44 3.01-2.09.6-3.41 1.29-3.26 3.64.05.72-.03 1.74-.9 1.68-1.07-.07-1.22-1.32-.81-1.94 1.43-2.18.51-3.88-.45-5.93-1.29-2.76 1.24-5.41 5.33-5.9.71-.09 1.44-.03 2.17-.04 1.09-.02 1.52-.43 1.02-1.54-3.27-7.29-1.11-7.72 4.74-13.28.52-.49 1.17-.84 1.79-1.21 1.13-.67 3.21-1.16 2.84-2.39-.4-1.32-2.5-1.32-4.01-1.41-3.07-.18-6.24.71-9.2 2.44-.88.51-1.93 1.25-2.82 1.15-3.24-.35-4.85 1.72-6.5 3.86l-.03-.68c.11-2.39 1-3.85 3.75-3.75 1.49.06 2.54-1.23 3.69-2.05 5.36-3.79 11.06-3.65 16.95-1.53.58.21 1.16.4 1.75.55 4.82 1.22 4.88 1.2 4.01-3.51-.22-1.2.05-1.97.9-2.68.78 2.25 3.03 3.71 2.89 6.57-.08 1.61 2.05 1.26 3.32 1.28 1.55.02 2.96-.49 3.21-2.25.22-1.57-.43-2.89-2.02-3.42-2.34-.77-4.61-1.67-6.79-2.82 3.59-6.02 13.71-5.72 19.11-4.02 3.11.97 5.04 2.51 4.57 6.32-.35 3.01 2.7 4.34 4.28 6.38z"/><path d="M85.77 202.07c3.04-.38 5.32 1.8 8.08 2.46 1.52.37 2.03 2.65 1.67 4.27-.35 1.55-1.61 2.63-3.43 2.56-1.33-.05-2.69.26-3.96-.38-1.05-.53-2.24-1.01-1.06-2.48.73-.9.31-1.65-.44-2.07-1.57-.88-1.57-2.26-1.48-3.73.22-.2.42-.42.62-.63z" fill="#ab3c24"/><path d="M88.57 244.88c2.91.07 6.7 4.26 6.49 7.19-.18 2.58-4.4 4.02-6.91 2.21-1.57-1.13-2.9-2.55-3.4-4.61-.81-3.35.35-4.88 3.82-4.79z" fill="#92381f"/><path class="st106" d="M118.66 227.92c.08 1.43.12 3.15-1.88 3.8-1.92.63-2.29-1.23-3.24-2.17-1.18-1.17-1.44-2.87-2.58-4.11-.75-.82-.56-2.13.23-3.12.9-1.12 2.08-1.2 3.34-.85 2.63.73 4.15 3.04 4.13 6.45z"/><path d="M402.22 131.98c-.67 9.22-1.41 18.51-6.29 26.64-4.25 7.08-8.54 14.3-16.05 18.64-.07-.18-.1-.37-.07-.57-.41-2.53-.32-5.07-.04-7.61.3-2.34 1.61-3.9 3.69-4.93 1.74-.87 3.43-1.85 5.15-2.77 5.3-2.86 6.79-6.24 5.86-12.18-.5-3.2-1.49-6.49-.35-9.73 1.36-3.88 3.78-6.76 8.1-7.49z" fill="#ce572a"/><path d="M344.48 190.92c-2.23 3.02-6.02 2.71-8.97 4.18-4.91 2.44-9.35 5.79-14.59 7.58 2.09-5.88 5.26-11.17 9.81-15.39 2.11-1.96 4.98-3.51 8.18-2.28 2.75 1.05 5.05 2.68 5.57 5.91z" fill="#cc5c30"/><path d="M312.78 214.41c-3.89 1.76-7.87 3.12-12.25 2.47-.05-.15-.08-.3-.11-.46 5.33-3.44 9.94-7.91 15.73-10.71 1.17-.57 2.34-1.21 3.54-1.76-.9 4.41-3.93 7.42-6.91 10.46z" fill="#de722b"/><path class="st53" d="M396.55 111.47c.03 1.13.21 2.28.04 3.37-.2 1.32-1.06 2.47-2.52 2.05-2.75-.79-5.52-.23-8.26-.47-2.95-.26-5.41-1.19-6.47-4.28 3.62-1.63 7.5-1.51 11.32-1.58 1.98-.03 4.11-.52 5.89.91z"/><path d="M343.33 175.21c-1.51-1.53.2-2.13.93-2.84 3.29-3.22 7.19-1.35 10.88-1.17.4.02.78.29 1.18.36 4.73.84 5.35 1.96 3.77 6.93-5.43-1.91-10.93-3.43-16.76-3.28z" fill="#9ec54d"/><path d="M343.33 175.21c.02-1.37.76-1.36 1.86-1.13 4.38.91 8.78 1.75 13.18 2.59 1.06.2 1.64.75 1.73 1.82-2.47 2.71-5.93 1.86-8.94 2.25-4.01.51-6.26-2.21-7.83-5.53z" fill="#759e40"/><path d="M396.55 111.47c-5.76-.29-11.48.5-17.22.68-1.98-2.43 1.61-2.34 1.73-3.82 1.34-1.55 3.38-1.96 5.03-1.67 3.19.56 6.79.18 9.35 2.9 1.24.13 1.31.94 1.11 1.91z" fill="#6e9f41"/><path d="M377.36 139.94c-1.25-5.07-2.49-10.14-3.74-15.2 2.83.51 4.35 2.67 5.28 4.95.78 1.92 1.56 3.92 1.81 6.11.37 3.23.22 3.67-3.35 4.14z" fill="#9ec54e"/><path d="M395.45 109.55c-4.64-2.2-9.37-3.29-14.38-1.23 1.4-2.16 4.89-3.2 7.49-1.94 1.09.53 2.32 1.02 3.21.69 2.63-.97 3.03.83 3.68 2.48z" fill="#a39c39"/><path class="st30" d="M379.77 169.08c.02 2.54.03 5.07.04 7.61-.82-2.53-.91-5.07-.04-7.61z"/><path d="M320.24 135.06c-4.54 2.72-8.49 6.19-12.3 9.83-1.05-2.41-.3-4.57 1.24-6.39 1.84-2.18 4.2-3.87 6.25-5.86 1.98-1.91 3.74.44 4.81 2.42z" fill="#98c851"/><path d="M319.09 115.76c-1.35-2.5.5-4.22 1.95-5.38 1.52-1.22 3.27-2.59 5.47-2.76.39-.03.81-.1 1.16-.28.89-.46 1-2.52 2.47-1.61 1.32.82 2.8 1.84 2.62 3.83-4.22 2.83-9.01 4.37-13.67 6.2z" fill="#99c850"/><path d="M319.09 115.76c.05-.2.05-.52.16-.57 4.47-1.95 8.75-4.34 13.5-5.61-.2 1.69.69 3.88-2.13 4.35-.52.09-.94.76-1.42 1.14-4.36 3.52-5.1 3.57-10.11.69z" fill="#73a541"/><path d="M291.77 164.75c-1.09-2.18 1.25-3.03 1.99-4.32 1.12-1.97 2.76-3.74 4.14-5.64.43-.6.9-1.62 1.86-1.26 1.04.4 1.46 1.41 1.31 2.52-.15 1.1-.42 2.18-.63 3.27-2.13 3.02-5.37 4.28-8.67 5.43z" fill="#9fc950"/><path d="M288.57 154.27c-.71 1.39-1.41 1.21-1.64-.18-.55-3.33-1-6.69-1.34-10.05-.07-.73-.71-2.06.67-2.27 1-.15 1.99.37 2.64 1.31.48.69.29 1.97 1.63 1.93.41 3.31-1.77 6.07-1.96 9.26z" fill="#9dc74e"/><path d="M291.77 164.75l8.67-5.43c.96.04 2.69-1.54 2.53.95-.09 1.43 1.21 3.78-1.81 3.96-3.13.17-6.26.34-9.39.52z" fill="#79a441"/><path d="M288.57 154.27c-.74-3.38.97-6.24 1.96-9.26.59-.59.67-2.49 2.06-1.12 1.01 1 3.21 1.92 1.66 3.92-1.76 2.26-3.78 4.31-5.68 6.46z" fill="#7aa340"/><path class="st25" d="M290.55 173.5c-.62-.2-1.01-.63-1.26-1.21 1.05-1.01.4-1.43-.55-2.01-1.2-.74-.98-2.13-.42-2.98.86-1.31 1.49.14 2.15.57 3.49 2.28 3.49 2.92.08 5.63zM288.66 172.23c-.77.08-1.2.49-1.25 1.27-2.79-1.23-3.44-3.5-3.06-6.28.12-.88.47-1.73 1.45-1.61 1.26.15.4 1.15.37 1.69-.15 2.17 1.25 3.5 2.49 4.93z"/><path class="st30" d="M235.31 186.57c.66 1.42 1.31 2.83 1.97 4.25-.14 1.14-.69 1.88-1.92 1.94-.02-2.06-.03-4.12-.05-6.19zM234.68 186.55c-.96-.67-.18-4.59-3.1-1.67-.05.05-.59-.22-.72-.44-.26-.47.18-.76.48-.98 1.89-1.36 3.03-.29 3.99 1.29l-.03 1.82h-.31l-.31-.02z"/><path d="M206.76 247.36c0-5.48 0-5.52 5.34-5.55 2.09-.01 3.8-.41 4.96-2.42.79-1.37 1.75-2.04 3.76-1.08 1.71.82 4.05.3 6.11.39.62.03 1.31.03 1.39.87.06.67-.51.76-.96 1.01-2.06 1.09-3.34 3.04-5 4.57-.67.62-.95 1.41-.27 2.19.81.94 1.41.2 2.08-.3 1.33-.98 2.71-1.88 4.06-2.83.95-.67 1.92-.85 2.82-.03 1.17 1.07.67 6.71-.7 7.56-1.02.64-2.07 1.32-1.76 2.61.34 1.44 1.64 2.09 3.01 2.25 1.54.18 3.06 0 4.57-.5 1.88-.63 2.87-1.26 2.37-3.7-.75-3.67.84-4.97 4.6-4.18 1.2.25 1.71-.06 2.1-1.1.59-1.59.85-3.2.48-4.86-.38-1.72-.96-2.88-3.12-1.7-2.71 1.48-4.67-.37-6.6-1.93-1.52-1.22-1.51-2.88-1.09-4.52.25-.97.64-2.03 1.91-2.18 1.32-.15 7.23 3.27 7.6 4.62.52 1.91 1.04 2.11 2.6.74 2.59-2.25 4.71-1.46 5.54 1.92.47 1.93.9 3.81 2.62 5.07l1.23 1.23c-.62 0-1.24-.01-1.86-.01-4.3 0-4.31 0-2.91 4.11.2.58.62 1.19.07 1.71-.7.67-1.31.11-1.91-.31-.76-.53-1.55-1.02-2.3-1.57-1.38-.99-2.41-.72-3.35.68-.68 1.02-1.42 2.13-2.4 2.79-2.54 1.71-2.22 3.35-.31 5.25 1.47 1.46 2.92 2.89 4.89 3.72 3.3 1.39 5.33 4.23 7 7.14.92 1.59.36 3.9-1.58 4.7-2.16.89-3.4-1.15-3.79-2.68-.57-2.27-2.19-3.28-3.67-4.7-3.42-3.28-7.98-2.01-11.86-3.34-.31-.11-.84.14-1.14.38-2.35 1.87-4.81 2.08-7.81 1.54-2.46-.44-4.93 1.12-7.27 2.23-3.1 1.46-4.03 1-5.58-2-.78-1.51-.43-2.41.7-3.46 1.89-1.77 4.17-2.73 6.63-3.07 1.89-.26 2.19-1.05 1.25-2.4-2.36-3.38-2.08-6.35.69-9.43 1.28-1.43-.82-4.27-3.28-4.3-2.47-.03-4.94.37-6.88 2.22-.96.89-1.98 1.76-2.98 2.65z" fill="#92361f"/><path class="st106" d="M229.75 289.97c.3 1.74-.33 3.59-2.43 4.38-2.33.87-3.9-.86-4.69-2.54-1.13-2.41-4.04-3.89-3.5-7.22.45-2.78 1.82-3.79 4.53-3.18 4.72 1.05 5.79 3.17 6.09 8.56z"/><path class="st87" d="M267.47 279.63c4.09-.01 5.13 1.08 5.08 5.12-.03 2.27-1.05 4.15-2.12 6.02-.55.96-1.01 2.18-2.53 1.69-1.32-.43-2.21-1.44-2.11-2.75.2-2.59-.69-4.09-3.31-4.68-1.24-.28-.99-1.31-.52-2.25 1.05-2.11 2.83-3.15 5.51-3.15zM230.62 310.68c-.02.94-.35 1.73-1.1 2.13-.95.51-2.06.58-2.91-.14-1.64-1.4-3.09-2.73-5.17-.49-.76.83-1.9.08-2.3-.76-.72-1.5-1.96-3.04-.54-4.82.77-.96 1.51-1.94 2.3-2.88 1.29-1.52 2.83-2.17 4.54-.77 2.5 2.05 4.35 4.59 5.18 7.73z"/><path d="M234.08 277.68c.17-1.43 1.15-2.91 3.35-2.94 2.77-.04 6.03 3.54 5.9 6.25-.08 1.8-2.57 4.3-4.19 4.21-2.32-.13-5.13-3.94-5.06-7.52z" fill="#91381f"/><path class="st126" d="M276.86 271.57c-.12-.91-.15-1.85-.39-2.72-.69-2.53.51-3.48 2.83-3.48 2.64 0 5.97 4.68 4.83 6.97-1.63 3.27-4.21 1.93-6.62 1.09-.71-.46-.59-1.19-.65-1.86z"/><path class="st95" d="M281.41 301.32c-2.4-.08-3.6-1.5-3.28-3.84.38-2.73 5.7-8.28 8.38-8.75 3.38-.59 4.8.99 3.84 4.25-1.59 5.34-4.96 8.48-8.94 8.34z"/><path class="st33" d="M217.36 187.77c2.04.41 3.17 2.25 4.92 3.12-.79.58-.6 1.45-.62 2.24-.03 1.34-.64 2.05-2.03 2.12-1.46.07-2.1-.84-2.2-2-.17-1.82-.06-3.65-.07-5.48z"/><path class="st30" d="M233.99 180.02c-.07 1.14-2.97-2.01-1.65 1.17 0 0-.48.32-.68.28-.6-.14-.66-.7-.77-1.2-.12-.52-.25-1.11.54-1.09.93.02 2.12-.55 2.56.84z"/><path d="M136.04 250.28c.25 1.78-.77 2.98-2.49 3.54-1.52.49-2.46-.48-3.21-1.69-.65-1.04-1.5-1.97-2.06-3.05-.95-1.82-2.15-4.04.42-5.28 2.87-1.39 4.95-1.54 6.19 1.87.51 1.44 1.19 2.83 1.15 4.61z" fill="#682811"/><path class="st126" d="M132.34 279.3c.89-1.97.57-4.26.56-6.5-.01-1.9.91-2.63 2.67-2.46 1.8.17 3.66.57 3.91 2.7.32 2.63-2.53 6.82-4.99 7.97-1.68.79-2.28.21-2.15-1.71z"/><path d="M80.81 217.85c-.03 2.52-4.29 7.85-6.39 8.15-1.66.24-2.26-1.25-3.08-2.19-.97-1.11-1.72-2.66-.57-3.94 1.43-1.59 2.53-3.45 4.32-4.75 1.5-1.09 2.87-1.33 4.53-.53 1.66.79.99 2.28 1.19 3.26z" fill="#ad3b25"/></svg>