<svg version="1.1" id="Layer_1" xmlns="http://www.w3.org/2000/svg" x="0" y="0" viewBox="0 0 244 187.89" xml:space="preserve"><style>.st2{fill:#605d33}.st5{fill:#767032}.st6{fill:#6a6638}.st12{fill:#615e3b}.st18{fill:#4d4521}.st22{fill:#4f4c31}.st26{fill:#7e7737}.st36{fill:#6a6932}.st48{fill:#716b2e}.st54{fill:#b3ac97}.st55{fill:#615c28}.st80{fill:#aca38f}.st91{fill:#9a8e78}.st113{fill:#524e30}.st114{fill:#857b36}.st125{fill:#5c5022}.st143{fill:#56532b}.st156{fill:#9c903d}.st166{fill:#40351b}.st174{fill:#635323}.st177{fill:#c6c2bd}.st184{fill:#3d341a}.st191{fill:#9b933c}.st225{fill:#6f652b}.st253{fill:#56502a}.st264{fill:#837d60}</style><path d="M192.23 43.61c3.42 3.05 4.91 7.14 6 11.4.42 1.62-.29 3.11-1.15 4.48-1.64 2.05-3.09 4.31-5.77 5.22-2.37 1.23-4.91 1.26-7.48.99-2.35-.64-4.8-.51-7.18-.9-1.33-.4-1.58-2-2.81-2.53-.64-.27-1.29-1.02-1.96-.3-.53.57.03 1.2.32 1.75.22.41.42.82.39 1.3-.62 1.36-1.49 2.56-2.9 3.11-1.59.63-1.25 1.47-.52 2.48.05.28.02.54-.11.79-2.75 1.63-3.34-.78-4.39-2.34-.1-.25-.16-.52-.21-.79.03-1.78-.9-2.78-2.61-3.01-1.49-.2-2.83-.88-4.3-1.11-2.88-.45-4.12.27-5.12 2.97-.29.77-.4 1.63-1.11 2.2-.53.37-1.12.67-1.64 1.08-.89.71-1.78 1.45-2.97.49-1.15-.93-1.56-2.05-1.04-3.47.23-.61.48-1.22.51-1.89.09-2.16-1.32-3.26-3.83-2.98-.25.08-.5.13-.76.16-2.04-.24-4.01-.59-4.86-2.89-.25-.69-1.09-.59-1.64-.9-.15-.23-.22-.49-.21-.77.19-.75.77-1.1 1.42-1.37 2.2-.16 4.48 1.02 6.64-.47.48-.33 1.21.27 1.75.61.96.61 1.91.54 2.86 0 3.85-.06 7.72-.75 11.56.3.52.14 1.2.26 1.58-.24.5-.66-.18-1.19-.38-1.78-.62-1.84-2.9-2.05-3.63-3.77-.04-2.91 1.31-5.02 3.94-6.15 1.87-.8 3.35-1.88 4.42-3.65.9-1.49 2.14-2.61 4.13-1.99.55.53.86 1.22 1.2 1.88.94 1.87 2.18 2.17 4.13 1.29 3.81-1.73 7.77-1.6 11.68-.21.72.26 1.41.65 2.14.28 1.51-.71 2.71-.07 3.91.73z" fill="#6a652c"/><path d="M88.33 142.85c2.81 3.05 4.76 6.52 5.14 10.73.75 2.63-.6 5.02-.86 7.54-.12.86-.13 1.74-.44 2.56-1.39 2.02-2.13 4.41-3.58 6.4-1.18 1.05-2.29 2.19-3.76 2.86-3.01 1.93-6.27 3.34-9.56 4.67-4.82 1.95-9.87 1.83-14.94 1.35-1.51-.44-3.05-.74-4.6-1.01-1.56-.27-3.11-.66-3.82-2.36-.53-2.22-2.59-2.81-4.22-3.73-3.51-1.98-5.55-7.29-3.75-10.77.92-1.77-.54-3.24-.13-4.91.45-1.84-.47-2.92-2.21-3.65-1.22-.51-1.22-1.92-.22-2.51 3.24-1.91 5.73-4.79 8.95-6.7.42-.25.89-.25 1.32.06.5 1.3-.49 2.3-.7 3.46-.36.68-.96 1.12-1.58 1.54-2.09 1.43-3.4 3.11-2.23 5.85.52 1.22-.45 2.84.92 3.9.42.72.51 1.54.73 2.32.08.46.07.92.02 1.38-.43 3.93-.43 3.93 3.33 4.96 1.67 1.99 3.54 3.57 6.41 3.06 1.25 1.8 3.04 2.31 5.11 2.07.57-.07 1.15-.33 1.22-.96.07-.58-.52-.67-.94-.83-1.24-.49-2.34-1.13-2.79-2.51 1.89-1.86 3.54.1 5.26.41 1 .18 1.87.93 2.63-.32.78-.4 1.23.11 1.58.65.81 1.25 1.33.28 1.93-.2 3.35 1.82 6.11.31 7.36-4.02 2.24-1.1 4.43-2.25 3.87-5.38.03-.41.12-.81.25-1.2.44-1.04 1.03-1.97 2.03-2.56 2.54-.74 1.32-2.3.53-3.38-.95-1.3-2.14-2.33.06-3.47-.99-.92-.72-2.68-2.13-3.31-2.38-1.05-4.78-2.22-7.25-2.82-2.88-.7-5.84-1.49-8.89-1.41-1.54.04-2.22.42-1 1.87.67 2.26 2.63 4.22 1.62 6.88-2.21-.22-4.43 1.95-6.69-.04-.2-.17-.82.91-1.56.84-.4.01-.77-.09-1.1-.34-.15-1.34.3-2.72-.21-4.04-.07-.56-.19-1.12-.37-1.65-.42-1.27-.64-2.42-2.34-.76-2 1.96-3.54 1.75-5.15-.07-1.67-1.72-1.57-2.59.6-3.16 1.53-.4 2.9-1.15 4.39-1.61 1.51-.24 2.99-.57 4.07-1.8.64-.45 1.35-.69 2.12-.77 1.73-.1 3.46-.03 5.19-.08 2.58.4 5.23.36 7.74 1.22 1.52.68 3.04 1.33 4.76.87.73-.09 1.37.16 1.97.55 1.33 1.02 2.99 1.45 4.36 2.38.72.49 1.85.66 1.55 1.95z" fill="#aea757"/><path class="st2" d="M198.35 70.08c1.34-6.13 5.03-9.72 11.25-10.96 6.99-1.4 13.87-2.15 20.51 1.28 7.6 3.93 9.92 9.56 7.3 17.81-.22.7.91 1.69-.47 2.09-.33 1.26-1.18 2.07-2.31 2.62-2.42 1.17-4.75 2.51-7.25 3.52-5.06.86-10.19 1.69-15.24.43-7.7-1.91-12.67-6.54-13.41-14.86-.08-.65-.1-1.32-.38-1.93z"/><path d="M101.9 158.06c-2.73-4.62-2.5-9.58-1.66-14.61.16-1.84 1.1-3.55.99-5.44.41-.7 1.05-.7 1.73-.57 1.02.48 2.03.84 3.16.24 1.05-.56 2.16-1.3 3.26-.14.99 1.04.91 2.36.72 3.65-.1.64-.47 1.19-.82 1.74-.93 1.12-.45 2.29-.14 3.46.05.89-.3 1.73-.37 2.6-.43 1.46-.03 2.56 1.41 3.21.72.47 1.21 1.07 1.16 1.98.44 3.06 3.08 5.25 6.88 4.09 4.71-1.44 8.62.63 13 1.24-.71-1.43-.22-2.49 1.21-3.1 1.98-.84 3.89-1.91 6.14-1.85 1.36-.01.72-1.06.87-1.69 1.15-1.54 2.34-.47 3.39.06 2.85 1.44 2.82 1.48 4.34-1.29.13-.24.37-.4.59-.58.6-.47 1.28-.84 1.87-1.33 1.2-1.17 3.15-1.9 2.44-4.19-.08-1.06.61-1.94.72-2.94.1-.95.57-2.01-.55-2.78-1.36-.92-1.68-2.26-.88-3.63.79-1.34 2.21-1.11 3.5-.9.45.07.88.29 1.32.43.76.24 1.37.69 1.82 1.36.38.76.67 1.58 1.26 2.22.52.61.41 1.42.67 2.11.02 1.25.03 2.49.05 3.74-.57 3.46-1.59 6.81-2.5 10.18-.16.78-.61 1.28-1.42 1.42-3.24.25-5.65 2.37-8.37 3.76-3.34 1.7-6.66 3.45-10.1 4.89-6.02 2.51-12.1 1.66-18.06-.51-.88-.32-1.72-.77-2.66-.88-3.67-.41-7.1-1.15-9.77-4.16-1.23-1.38-3.23-1.89-5.2-1.79z" fill="#595529"/><path d="M190.48 85.87c1.48.39 2.94.05 4.41-.06.62-.13 1.07-.78 1.79-.58.22.14.41.32.57.52 2.47 2.06 5.63 2.94 8.25 4.76.92 1.21 2.52 1.19 3.66 2.01.72.83.88 1.69.2 2.62-.99.91-2.04 1.74-3.22 2.4-2.24-.44-2.24-.44-.83-3.26-1.67-.48-3.28.48-4.91.16-2.53-2.71-5.7-2.02-8.66-1.33-2.12.5-2.14 4.54-.18 6.66.17.22.25.47.26.75-.22 1.06-.89 1.66-1.96 1.62-2.54-.1-2.64 1.71-2.54 3.4.12 2.01 1.36 3 3.43 2.68 3.79-.59 6.43 1.21 8.58 4.06.47.62.71 1.3.6 2.09-.09.6-.31 1.2-.18 1.82 1.6 1.16 3.75 1.41 4.87 3.42.47.84 1.51.07 2.07-.63.56-.69.54-1.58.79-2.39 1.91-4.94 3.16-5.44 7.96-2.72 1.27.72 3.02.47 3.89 1.94-.16 1.47.36 2.31 1.99 2.1 1.66.05 3.21.09 3.16-2.33-.02-1.02.8-1.07 1.62-.62 2.06 1.14 1.97 3.81-.22 5.24-1.81 1.18-4.08 1.3-5.89 2.5-1.01.74-2.14 1.13-3.4 1.21-1.32.08-2.62.36-3.8.97-6.82 3.53-13.46 1.71-19.67-1.31-4.94-2.4-8.27-6.93-11.33-11.47-.81-2.21-.8-4.55-1.14-6.83.36-2.21.3-4.43.02-6.64.02-1-.05-1.99-.13-2.98.06-1.04.59-1.84 1.35-2.51 2.19-.61 4.23-1.57 5.48-3.53 1.1-1.72 3.05-1.12 4.43-2.02-.11-.83-1.75-.48-1.32-1.72z" fill="#646030"/><path class="st5" d="M68.86 54.33c-.11-1.08-.21-2.15-.32-3.23.56-1.84 1.94-3.1 3.18-4.45.96-1.04.97-1.74-.57-2.06-1.57-.45-3.29-.41-4.72-1.35-.24-1.53 1.06-1.51 1.77-1.34 2.69.66 5.13-.31 7.66-.81 1.14-.22 2.24-.39 2.8 1.03.58 1.45 1.73 1.28 2.79.75 1.38-.69 2.78-1.03 4.31-.96 1.15.05 1.9-.62 2.57-1.44 1.06-1.3 2.37-1.74 3.98-1.13 1.13.78 2.45.76 3.74.81.79.1 1.55.31 2.34.37 1.85.85 3.61 1.46 5.83.9 2.19-.55 4.32.82 6.49 1.3.23.15.36.37.4.63.32.35-.94.3-.19.77.87.55 1.16 1.55 1.74 2.33.61 1.02.7 2.11.44 3.24-.63 2.62-1.54 5.1-3.42 7.13-.62.59-1.26 1.17-2.15 1.33-.43.03-.83-.05-1.18-.32-.35-1.63.11-3.39-.75-4.95-.09-1.14-.51-2.17-1.08-3.16.1-1.4-.56-2.04-1.95-1.84-1.09.16-2.16.22-3.22-.11-.51-.11-1.01-.25-1.4-.6.02-.78-.33-.79-1.03-.7-1.21.15-2.35.33-3.27 1.2-1.06.58-2.5.32-3.4 1.4 1.13 1.28 2.53-.8 3.54.49.49 1.92-.17 3.52-1.37 4.98-1.08.55-2.04.2-2.97-.41-1.21-1.13-1.68-2.56-1.82-4.2-.08-.97.65-2.53-.98-2.73-1.47-.18-3.26-.43-3.95 1.6-.62 2.53.31 5.12-.33 7.64-.34.66-1.03.84-1.61 1.18-.78.57-1.78.36-2.63.71.34 1.46 2.97 1.53 2.12 3.64-3.29.58-5.62-1.23-7.89-3.18-.36-.92.85-1.99-.27-2.83-1.02-.65-2.54-.31-3.23-1.63z"/><path class="st6" d="M68.86 54.33c1.13.73 2.64.18 3.71 1.12-1.3.87-3.01 1.4-2.89 3.45-.02.26-.05.51-.09.77-.23 1.31.48 2.1 1.51 2.72 3.61 2.17 6.74 4.93 9.52 8.07 1.61 1.81 3.42 2.77 5.88 2.29.52-.1 1.12-.18 1.52.38.21 1.14-.58 1.37-1.41 1.56-.59.19-1.52-.3-1.75.31-.26.72.74 1.13 1.06 1.76.69 1.25 1.97 2.09 2.4 3.52.28 5.93-2.23 10.4-7.19 13.52-1.06.67-2.38 1.56-3.16-.48-.3-.78-.75-.05-1.05.03-1.04.29-2.02.44-2.96-.24-.21-.17-.33-.4-.39-.67.47-1.46 2.19-1.28 3.2-2.54-1.75-.14-3.02-1-4.15-2.1-.59-.71-.39-1.56-.39-2.36.02-2.56.49-2.9 3.13-2.31.77.37 1.37.98 2.11 1.39 1.09.62 2.37 1.31 3.26-.01.93-1.39.65-3.36-.65-4.02-1.94-.99-4.09-1.61-6.05-2.69-.48-.27-1.19.43-1.8.66-1.19.5-1.73.03-1.67-1.19.08-1.64-.6-2.99-1.52-4.27-.24-.84.05-1.67.03-2.5-.07-2.11-5.69-7.18-7.73-6.87-1.9.29-3.46 1.27-4.77 2.67-.28 0-.51-.12-.68-.34-.88-1.62-.75-2.68 1.26-3.39 3.14-1.1 6.27-2.24 9.47-3.11 1.19-.32 1.04-1.1 1.39-1.77-.06-1.19.38-2.28.85-3.36z"/><path d="M130.58 19.3c1.64-7.04 6.94-10.16 13.15-12.4 5.45-1.97 10.46-.59 15.4 1.74 1.43.68 2.89 1.31 4.3 2.05 5.08 2.66 6.82 7.04 5.08 12.68-1.23-1.7-2.78-1.94-4.86-1.73-5.55.55-10.94 2.16-16.62 1.99-3.87-.12-7.52-1.23-11.32-1.61-1.89-.18-3.31-2-5.13-2.72z" fill="#746c30"/><path d="M92.27 39.68c-1.73-.23-3.02.25-3.92 1.91-.52.97-1.37 1.54-2.8 1.08-1.16-.37-2.63-.21-3.57.88-.88 1.02-1.92.34-2.88.43-1.47.13-1.35-.82-1.11-1.86.09-.39-.28-.8-.68-.64-3.54 1.39-7.32.99-10.96 1.56-.64.67-1.39.54-2.05.15-2.04-1.2-4.36-1.55-6.55-2.3-.89-1.4-.73-3.02-.97-4.56-.1-6.4 4.18-9.94 9.03-12.46 3.81-1.98 8.08-3.45 12.64-3.01 3.17.31 6.2.94 8.73 3.06-.15.23-.36.52-.29.75.65 2.28.39 4.37-1.26 6.18-.58.83-1.37 1.26-2.39 1.24-1.6-1.2-2.61-2.78-2.94-4.77.36-.48 1.37-.46 1.16-1.36-.19-.83-.99-1.36-1.66-1.3-3.23.3-6.53-.07-9.67.58-2.33.48-3.3 2.58-2.78 4.46.81.78 2.51.98 1.97 2.64-.43 1.33-1.62 1.7-2.94 1.67-.67-.02-1.31.03-1.7.71-.14.21-.32.39-.52.55-.6.27-.87-.57-1.47-.44.03.98.19 1.79 1.46 1.68 1.38-.54 2.48.97 3.85.51.25-.05.51-.06.76-.06 2.5 1 1.32 2.05.09 3.2 4.39 1.15 8.39-.55 12.4-2.03.89-.33 1.6-.29 2.39.01.7.43 1.37.96 2.28.77 1.37-.22 1.38-1.94 2.57-2.36 1.85-.11 3.29.47 3.98 2.34.08.3.01.56-.2.79z" fill="#817838"/><path d="M196.7 85.87c-.01-.17-.05-.33-.1-.5-1.4-2.34-.83-4.85-.49-7.29.22-1.54.54-3.09 1.02-4.59.41-1.13.81-2.27 1.22-3.4 1.42.61 1.35 2.11 1.43 3.15.55 7.18 5.35 10.46 11.34 12.65 4.35 1.6 8.8.49 13.21.29 1.12-.05 2.23-.18 3.34-.27 3.35-.12 5.36 2.75 4.44 6.33-.22.4-.54.71-.93.95-2.33.83-4.52 2.06-7.02 2.43-1.36.11-2.6-.29-3.71-1.03-5.07-3.38-10.85-4.87-16.67-6.3-2.41-.61-4.87-1.15-7.08-2.42z" fill="#393424"/><path d="M93.93 29.16c-1.48-2.55.13-4.33 1.56-6.11.73-.91 1.61-1.7 2.42-2.55 1.41-.39 2.96-.59 3.35-2.4 1.51-1.04 3.11-1.88 4.96-2.12.51-.3 1.07-.21 1.62-.26 2.1-.18 4.03-.24 3.19 2.88-.14.52.26 1.06.46 1.58.41 1.02.57 2-.62 2.63-1.18.62-1.92 0-2.49-.98-.14-.24-.29-.47-.46-.69-1.05-1.66-2.44-1.71-3.67-.43-1.16 1.2-3.61 1.66-2.77 4.2.91 1.85 2.35.67 3.56.56 2.42-.23 3.03.42 2.64 2.96-.22.16-.46.25-.73.29-1.71-.28-3.31.14-4.88.76-.7.28-1.91.02-1.77 1.28.11 1.04.67 1.94 1.73 2.34.72.28 1.5.28 2.18-.05 1.71-.82 3.34-.85 5.08-.04 1.38.64 2.73.19 3.97-.57.93-.5 1.9-.58 2.96-.46 3.16.36 3.92.03 6.3-2.43-1.65-1.49-3.48.1-5.19-.32-.61-1.9.13-3.68.5-5.49.54-.89 1.07-.42 1.53.06.72.76 1.53.98 2.51.57 2.74-.53 4.24.28 5.22 2.84 1.17 3.06.77 4.51-1.59 6.08-1.74 1.15-3.89 1.39-5.6 2.6-5.94 1.43-11.96 2.06-18.05 1.63-1.98-.14-3.71-1.22-5.44-2.16-.39-.21-.72-.49-.97-.86-.83-1.65-.02-3.45-.47-5.16-.3-1.15-.67-.33-1.04-.18z" fill="#807b36"/><path d="M164.4 26.74c.74 2.63 3.5 4.04 4.06 6.77.26 1.18 1.12 2.14 1.24 3.37-2.92 1.76-5.63 3.82-8.28 5.96-1.02.83-2.16 1.43-3.53 1.39-1.39-.73-3.59 0-4.1-2.3 3.24-1.66 5.74-4.57 9.29-5.66-.33-.34-1.01-.03-1.44-.43-.36-1.54-.49-3.16-1.88-4.39-.54 1.88-1.43 3.61-1.83 5.51-1.6 1.27-3.53 1.86-5.35 2.48-.4 1.27 2.05 1.35.95 2.77-4.33 2.21-8.11.46-10.58-5.38-1.13-1.27-1.94-2.67-1.7-4.47.06-1.56.99-2.49 2.28-3.16 4.48-.93 5.08-.69 7.47 2.97 1.52 1.06 2.94 1.38 4.04-.56.3-.61.25-1.28.3-1.93.16-2.12 1.29-2.83 3.22-2.08 2.14.83 4.1.81 5.84-.86z" fill="#756e2f"/><path class="st12" d="M219.77 121.98c1.5-1.02 3.32-1.2 4.94-1.9 2.97-1.27 3.11-2.96.42-4.98.1 3.58.1 3.58-4.3 3.5-.07-.43.13-.75.5-.88 2.27-.81 2.43-2.3 1.42-4.21-.26-.49-.44-1.04-.16-1.61 3.33-.76 3.92-2.91 1.84-5.83-2.05-2.87-5.13-4.48-7.64-6.77-.55-2.34-2.68-2.94-4.43-3.81-1.37-.68-2.54-1.45-3.3-2.78-1.46-.24-3.04-.19-3.95-1.7 1.36-1.1 2.83-.77 4.24-.2 1.82.73 3.62 1.53 5.31 2.55 3.07 1.86 6.24 3.39 9.93 3.42.67.08 1.32.28 1.91.61.6.33.9.9 1.18 1.49 3.71 3.76 6.71 7.81 5.66 13.56-.82 3.05-2.65 5.66-3.8 8.57-1.59.94-3.04 2.11-4.83 2.67-1.84-.02-3.47-.62-4.94-1.7z"/><path class="st6" d="M45.37 69.01c1.44 1.37 1.38 3.28 1.79 5.02.15.63.08 1.33 1.06 1.07 1.69.11 3.46-.89 5.07.35.7.89-.48 1.84.1 2.74 2.06 2.5.68 5.49 1.17 8.21.26 1.31 1.39 1.94 2.2 2.89.44-.79-.26-2.23.96-2.37 1.58-.17 1.88 1.56 2.78 2.44.11.25.19.51.23.78-.14 3.35.18 3.83 3.49 3.43 2.55-.31 5.22.06 7.65-1.16.6-.3 1.27-.25 1.82.27l.02.03c.23 3.45-.62 4.1-4.09 4.21-1.14.03-2.28 1.07-3.65 1.04-4.3-.12-8.51-.71-12.52-2.35-3.11-2.47-4.15-6.05-5.08-9.65-.33-1.26.48-2.1 1.68-2.53.77-.28 1.36-.7.95-1.66-.2-.46-.57-.79-1.08-.7-.86.14-.89.91-.9 1.53-.03 1.55-1.08 2.03-2.31 2.37-.26.05-.51.02-.75-.1-.67-1.01-1.35-1.68-2.02-.01-.32.79-.71 1.49-1.53 1.85-.25.1-.51.15-.78.15-2.02-.78-1.87-1.64-.61-3.31 1.97-2.61 4.42-5.28 2.25-9.08-1.01-1.77-.86-3.62.61-5.21.45-.4.91-.73 1.49-.25z"/><path d="M45.37 69.01c-.43.02-.8.14-.99.57-2.31.58-3.98 3.15-6.79 2.18-3.13-2.56-6.69-2.26-10.65-1.55 1.41 1.39 1.05 2.95.86 4.49-.13.57-.41 1.02-.97 1.26-2.55-.2-4.5-1.4-5.89-3.52-.35-.77-.44-1.63-.73-2.42-.97-2.74-2.02-3.16-4.52-1.71-1.31.76-2.46.84-3.47-.44 1.91-2.4 4.55-3.53 7.47-3.95 2.85-.41 5.74-.84 8.6-.8 5.16.08 10.12 1.38 14.79 3.59.94.45 1.95 1.11 2.29 2.3z" fill="#797134"/><path d="M12.22 67.88c1.12.08 2.16 1 3.36-.2 1.86-1.85 4-1.3 4.98 1.16.44 1.11.88 2.27.7 3.52-1.71 2.23-4.55 1.19-6.75 2.31 1.17.79 2.71 1.05 3.07 2.63.67 2.58 2.41 4.48 4.12 6.37.55.61 1.43.88 1.91 1.61-.1 1.43-1.16 1.66-2.2 1.44-1.07-.23-2.03-.06-3.03.22-1.68.03-2.96-1.09-4.47-1.55-1.18-.75-2.36-1.27-3.79-.54-.54.27-1.25.35-1.67-.38-.98-2.51.74-5.22-.57-7.7-.14-.53-.43-1.03-.24-1.6.79-2.9 2-5.52 4.58-7.29z" fill="#6d693d"/><path d="M101.9 158.06c2.17-2.61 4.49.06 5.16.88 4.13 5 10.44 3.73 15.49 5.93 4.45 1.94 9.25 1.9 13.68.21 5.19-1.98 10.13-4.62 14.98-7.39 1.42-.81 2.9-2.53 4.94-1.14-.78 2.54-2.78 3.84-4.99 4.93-2.08.56-4.12 1.29-5.96 2.36-7.44 4.33-15.21 7-23.96 5.14-3.21-.44-6.21-1.55-9.14-2.86-3.04-1.61-6.37-2.81-8.5-5.77-.41-.87-1.56-1.21-1.7-2.29z" fill="#403826"/><path d="M91.73 163.77c-.04-.83.11-1.6.72-2.22.17-.29.32-.28.45.02.89 3.44 1.89 6.66-1.36 9.82-1.67 1.63-2.1 4.51-3.2 6.77-1.43 2.97-3.77 4.66-6.82 6.15-5.59 2.75-11.48 3.04-17.4 3.53-7.59.63-17.46-5.97-20.43-13.47-.55-1.38-1.95-2.3-2.09-3.9.99-.25 1.47.46 2.01 1.05 1.72 2.08 2.8 4.74 5.48 5.94.73.4 1.42.85 1.98 1.47 3.68 3.07 8.18 4.29 12.66 5.48 4.21 1.12 8.44 1.32 12.52-.65 6.64-1.7 10.13-6.58 12.59-12.5 1.14-2.42 2.07-4.94 2.89-7.49z" fill="#dfdedc"/><path d="M19.51 110.74c-.24-2.16-.33-4.34.64-6.35.74-1.54-.09-2.09-1.27-2.57.28-.45.72-.6 1.22-.66.48-.02.93.09 1.34.33 1.11 1.19 1.76 2.78 3.54 3.38.97.33.95 1.52.99 2.44.1 2.57 1.67 3.53 3.98 3.75 1.56.15 3.17-.24 4.67.51.85 1.43 0 2.14-1.15 2.72-1.12 0-2.52-1.51-3.2-.32-.63 1.12 1.01 1.85 1.92 2.55.3.23.52.5.61.87-1.34 1.33.22 2.7-.05 4.05-1.14.93-1.79 2.1-1.65 3.62-.28.58-.76.72-1.36.63-3.17-1.24-5.21-3.93-7.7-6.05-.05-3.19-2.67-5.65-2.53-8.9z" fill="#656240"/><path class="st18" d="M190.48 85.87c.39 1.38 3.17-.14 2.63 1.94-.37 1.4-2.3.74-3.46 1.18-.78.29-1.13.56-1.7 1.12-1.64 1.58-3.01 3.91-5.93 3.18-.34-.33-.42-.73-.36-1.18.13-.82.84-1.44.91-2.5-2.72-.36-5.33.2-7.8.69-4.81.96-9.68 1.14-14.51 1.72-.66.08-1.31-.04-1.93-.28-2.56-.96-5.24-1.39-7.94-1.82-5.9-.93-9.95-4.15-11.84-10.67.06 1.39-.25 1.73-.89 1.77-1.32-.47-1.48-1.61-1.48-2.75.01-1.38-.15-3.2 1.52-3.51 1.48-.27 2.15 1.37 2.52 2.59 1.88 6.12 6.04 9.22 12.33 9.74 6.41.53 12.82 1.67 19.26.85 4.35-.55 8.66-1.41 12.96-2.27 1.23-.25 2.11-1.17 3.14-1.81.84-.52 1.43-1.56 2.64-1.37.27.77.31 1.54-.04 2.31-.03.36-.03.72-.03 1.07z"/><path d="M56.82 139c-1.24.52-2.25 1.57-3.69 1.62-2.25.08-2.58 1.08-1.4 2.84-1.23.03-2.12.86-2.89 1.58-1.99 1.86-3.88 3.79-6.48 4.84-.58.23-1.19.73-1.16 1.47.03.94.83.75 1.46.88.93.18 1.64.49 1.84 1.73.32 2.03-.64 4.28.93 6.13.1.12-.16.75-.41.96-2.47 2.03-1.01 4.05-.21 6.25 1.19 3.29 4.22 4.31 6.69 6.03.66.46 1.81.54.79 1.72-1.5 1.11-2.78.46-4.01-.51-2.18-1.44-3.57-3.67-5.46-5.41-2.46-1.96-2.19-5.15-3.43-7.66-1.18-7.3.51-13.53 6.71-18.08 1.39-.85 2.04-2.47 3.42-3.33 1.98-.88 3.99-1.64 6.19-1.7.44.06.84.24 1.11.64z" fill="#b8b067"/><path d="M176.19 64.44c2.56-.57 5.03-.07 7.48.63.04 1.48-1.43.78-2.28 1.68 2.94-.03 3.8 2.84 6.06 3.67.67.83-.67 1.97.43 2.73.76.73.82 1.83 1.4 2.65.05.16.05.33.02.49-.73.97-.79 2.4-2.03 3.02-.92-.13-1.34-1.06-2.16-1.35-.82-.59-1.53-.11-2.26.22-1.3-.21-1.85-1.46-2.27-2.29-2.25-4.41-5.92-5.54-10.45-5.07-.37.04-.74-.08-1.1-.15-.7-.4-1.64-.57-1.65-1.65-.01-1.28 1.04-1.1 1.79-1.27 1.52-.35 1.84-2.07 3.13-2.67 1.31-.09 2.6-.35 3.89-.64z" fill="#59562e"/><path d="M108.06 20.45c.16.1.3.24.48.29.92.24.4 2.77 2.21 1.48 1.35-.96-.03-1.74-.39-2.57-.11-.25-.48-.54-.42-.7 1.79-4.79-2.3-2.22-3.72-2.98 2.55-.37 5.11-.74 7.66-1.11.48 1.41.28 2.96.9 4.34.88 1.61 3.37 1.9 3.42 4.17.54 2.1-.82 4.03-.57 6.11-.09.49-.37.86-.79 1.09-2.03 1.12-7.66-.18-9.36-2.15.28-2.17-.61-3.02-2.68-2.2-1.3.52-2.53.52-3.71-.09-.98-.51.31-.69.26-1.1 1.12-1.32 2.13-2.76 4.24-2.45 1.58.25.97-2.18 2.47-2.13z" fill="#a6a142"/><path class="st22" d="M20.21 101.6c-.45.07-.89.14-1.34.22-3.67-.22-6.97-1.49-9.98-3.57-2.84-3.98-1.85-8.28-.98-12.55.09-.46.51-.75.97-.92 1.69-.66 3.39-2.14 5.06.03.91 2.14 3.73 2.37 4.58 4.56-4.8 1.9-4.18 5.09-1.45 7.65.75.71 1.52 1.36 2.34 1.98.85.66 1.57 1.42.8 2.6z"/><path d="M130.58 19.3c.63-.08 1.28-.74 1.87-.3 6.04 4.46 13.07 4.01 19.89 3.63 4.06-.22 8.12-1.25 12.18-1.92 2.44-.4 3.87-.07 3.97 2.66-.51 1.59-1.63 2.5-3.23 2.85-2.53 1.77-5.29.83-7.99.69-.23-1.21-.39-2.41-2.17-2.09-7.18 1.31-14.14.16-20.98-2.04-1.35-.43-2.72-.52-4.12-.55-.43-1.1.5-1.94.58-2.94v.01z" fill="#5b5123"/><path d="M169.45 36.95c-.99-.95-1.12-2.15-.99-3.43 1.85 3.37 3.77 5.42 8.54 4.63 5.61-.93 11.32.42 15.24 5.46-1.31-.07-2.67-1.19-3.9.33-.35.43-1.08.32-1.59.03-4.34-2.48-8.62-2.12-12.95.08-2.25 1.15-3.97-.46-4.77-4.33.14-.93-.01-1.9.42-2.77z" fill="#857a31"/><path d="M130.59 19.3c.36 1.04-.48 1.91-.44 2.9.44 2.3 0 4.62.24 6.93-.45 1.31-1.26 2.42-2.09 3.51-.78.97-1.62 1.86-2.86 2.25-1.85-.33-3.58 1.66-5.49.29 1.36-1.58 3.5-1.52 5.2-2.46 2.93-1.61 1.74-3.73 1.08-5.68-.71-2.11-2.29-3.07-4.58-2.01-.56-3.34-3.63-4.21-5.86-5.89-.5-.37-1.05.15-1.57.32-.37-1.51-1.38-2.97-.35-4.59 5.04.1 8.72 2.71 11.81 6.4.48.57.85 1.23 1.33 1.8 1 1.19 1.69 1.32 2.15-.48.32-1.14.53-2.38 1.43-3.29z" fill="#6f692f"/><path class="st26" d="M67.99 57.71c.35 1.91-.55 1.87-2.23 2.59-3.06 1.3-6.38 1.7-9.32 3.16-1.36.68.2 1.82-.23 2.7.42 2.11-2.51 1.69-2.59 3.46-.09 1.94-1.44 3.11-2.81 4.19-.69.54-1.4 1.29-2.47.86.96-3.61 1.76-7.28 2.94-10.81.95-2.82 3.38-4.29 6.22-4.61 3.05-.35 6.08-1.37 9.2-.71.83.16.86-.57 1.29-.83z"/><path d="M93.93 29.16c.21-.68-.14-1.47.66-2.34 2.08 2.23.94 4.86 1.12 7.23-1.35.9-.31 3.17-2.16 3.78-1.14.3-1.98-.08-2.35-1.2-.36-1.1-1.19-1.5-2.17-1.77-1.27-1.01-1.17-3.08-2.88-3.75-.23-.11-.42-.27-.57-.47-.11-.49-1.51-1.06-.31-1.4 2.47-.7 1.62-1.96.9-3.33-.61-1.16-.12-1.74 1.04-1.98 2.92.88 4.35 3.22 5.61 5.72.19.38.31 1.02.87.75.22-.11.16-.81.24-1.24z" fill="#676435"/><path d="M71.43 44.18c.76.15 1.85-.37 2.15.77.22.83-.52 1.4-1.1 1.82-1.62 1.18-2.15 3.32-3.93 4.33-2.8-.45-5.46-1.29-7.89-2.79-.54-1.33-1.75-2.71-.45-4.1 1.23-1.32 2.86-1.44 4.64-.96 2.13.58 4.39.56 6.58.93z" fill="#463c1f"/><path d="M22.43 119.74c3.01 1.15 4.62 4.1 7.31 5.66 2.33.78 4.03 2.3 5.21 4.44-1.34.89-1.2 2.76-2.45 3.71-.41.08-.78.05-1.03-.34-3.31-3.25-7-6.11-9.77-9.9-.3-.41-.46-.77-.45-1.24-.55-1.25.02-1.94 1.18-2.33z" fill="#535043"/><path d="M101.35 138.37c1.63.44.38 1.29.17 1.84-.41 1.08-.34 2.37-1.28 3.24-.35-.4.39-1.67-1.13-1.16-3.52 1.18-7.17.63-10.78.55-1.62-1.98-4.47-2.04-6.15-3.93.61-.56 1.36-.49 2.1-.46 5 .2 10.01.63 14.97-.51.74-.16 1.49-.13 2.1.43z" fill="#8d8468"/><path d="M103.6 160.36c2.68 1.95 5.48 3.69 8.45 5.16 10.7 5.43 21.47 6.26 32.35.5.87-.21 1.75-.71 2.63-.02-3.17 3.22-7.31 4.23-11.52 5.09-3.6.73-7.29.3-10.89.82-1.53.22-2.74-.61-3.93-1.02-4.27-1.46-8.8-2.55-12.18-5.88-1.51-1.49-4.6-1.1-4.84-4.09-.03-.19-.05-.37-.07-.56z" fill="#d5d3d0"/><path d="M224.87 123.15c1.48-.77 2.56-2.33 4.47-2.29 1.39.31 1.98 1.59 2.94 2.43-.2 2.91-2.61 4.45-4.06 6.58-.67.81-1.38 1.55-2.48 1.75-.91.14-1.8.16-2.58-.45 2.02-1.28.91-3.18.96-4.85.02-1.11-.15-2.27.75-3.17z" fill="#57554f"/><path d="M157.15 26.69c2.65-1.07 5.46.48 8.12-.47-.29.17-.58.35-.87.52-.9 2.79-3.3 2.89-5.14 1.93-3-1.57-3.4-.41-3.24 2.17.03.57-.03 1.13-.54 1.51-.91-.51-.24-2.29-1.55-2.27-1.69.03-2.33 1.5-2.96 2.83-.59-.02-1.41-.21-1.39-.7.19-3.85-2.63-2.45-4.51-2.67-.46-.05-.93.01-1.39.02-.18-1.33.87-1.94 1.75-2.21 3.83-1.19 7.75-1.51 11.72-.66z" fill="#5a5626"/><path d="M231.62 92.15c.63-3.03-.67-5.09-3.94-6.24 1.59-1.37 3.58-2.02 5.41-2.94 1.42-.72 2.71-1.56 3.84-2.67.87 4.08-1.34 7.25-3.13 10.54-.65.58-1.02 1.59-2.18 1.31z" fill="#505047"/><path d="M8.87 84.78c-.74 3.75-1.92 7.48-.32 11.31.27.65.23 1.44.33 2.16-1.69-.49-2.67-1.75-3.47-3.2-.66-6.48.8-12.63 2.89-18.68 1.93 2.69.03 5.63.57 8.41z" fill="#6f6d57"/><path class="st36" d="M48.34 74.66c1.77-.86 3.16-2.14 4.21-3.8.09-.15.44-.29.42-.33-1.51-3.39 2.78-2.46 3.24-4.37l.04.02c1.78 2.29 1.12 4.81.71 7.31-1.68-.03-1.95 2.16-3.55 2.27-1.61-1.11-3.65.98-5.19-.68-.06-.15-.03-.3.12-.42z"/><path d="M71.43 44.18c-1.85.24-3.71.16-5.51-.27-1.13-.27-2.28-.46-3.33-.22-1.47.34-3.38.78-1.83 3.04.42.61.07 1.06-.1 1.57-1.67-.87-2.9-2.13-3.4-3.99-.06-1.24-.95-2.64.68-3.56 2.25-.76 4.01.7 5.9 1.4.84.31 1.51 1.06 2.52.89 1.76.09 3.46.39 5.07 1.14z" fill="#5a5134"/><path d="M232.27 123.3c-1.33-.39-2.35-1.14-2.94-2.43.3-3.3 2.42-5.74 4-8.43.08 3.65.44 7.35-1.06 10.86z" fill="#6a6a62"/><path d="M31.45 133.21c.34.08.67.15 1.01.23 1.27-.24 2.01.68 2.87 1.33 3.26 2.56 7.11 3.92 10.92 5.36.7.26 1.51.55 1.56 1.39.03.55-.43 1.01-1.15.79-4.97-.84-9.07-3.49-13.13-6.26-1.05-.71-1.69-1.67-2.08-2.84z" fill="#d9d9d7"/><path d="M8.3 76.37c-.95 6.23-2.65 12.34-2.88 18.68-.86-.87-1.05-1.98-.91-3.11.73-5.65 1.34-11.32 3.16-16.77l.63 1.2z" fill="#8b8a72"/><path d="M147.03 166c-.76.18-1.52.37-2.28.55-.17-.23-.2-.47-.12-.74 1.56-2.64 4.8-2.98 6.83-4.99 1.83-1.13 3.45-2.5 4.69-4.27.37-.36.74-.73 1.11-1.09.15-.32.32-.32.52-.04-.15 3.63-3.47 4.85-5.5 6.99-1.43 1.5-3.48 2.42-5.25 3.59z" fill="#cbc6c0"/><path d="M22.43 119.74c-.41.77-1.16 1.36-1.19 2.32-2.1-3.54-2.67-7.32-1.73-11.33 1.08 2.97 3.46 5.52 2.92 9.01z" fill="#717062"/><path d="M197.13 73.49c-.18 3.96-.35 7.92-.53 11.89-.55.21-1.04.68-1.71.44-.33-3.84-.42-7.65 1.5-11.19.22-.4.49-.77.74-1.14z" fill="#a8a499"/><path d="M46.66 142.32c1.66-1.59-.23-1.45-.9-1.67-3.54-1.16-6.93-2.64-10.06-4.68-.37-.24-.6-.69-.89-1.04 1.5-.74 2.62.45 3.92.76 1.15.75 2.45 1.16 3.69 1.72 1.39.76 2.95 1 4.45 1.42 1.06.3 2.16.56 2.66 1.74-.91 1.22-1.75 2.54-3.44 2.8.19-.34.38-.7.57-1.05z" fill="#c0bcad"/><path d="M191.52 63.96c2.57-.6 3.04-3.81 5.56-4.47-.55 2.98-2.18 5.53-3.35 8.27-.15.25-.37.35-.66.29-1.61-.95-1.92-2.39-1.55-4.09z" fill="#63604d"/><path d="M231.62 92.15c.73-.44 1.45-.87 2.18-1.31-.52 3.83-3.67 5.67-6.12 8.03-.4-.35-.79-.7-1.19-1.05.15-2.94 2.63-3.76 4.58-5.06.18-.2.36-.4.55-.61z" fill="#dfdfda"/><path d="M157.78 155.42c-.17 0-.35.02-.52.04-.11-3.7 1.33-7 2.69-10.32.11 3.61.81 7.33-2.17 10.28z" fill="#6d6b57"/><path class="st48" d="M187.06 79.16c1.07-.7.76-2.5 2.26-2.86 1.99 2.61 2.06 5.49 1.17 8.5-.04-.73-.08-1.46-.11-2.2-.54-.72-1.3-.79-2.13-.93-1.43-.24-2.08-1.07-1.19-2.51z"/><path d="M193.22 67.8c.17-.02.35-.03.52-.05.55 1.76-.53 2.8-1.63 3.91-1.18 1.2-2.97 2.03-2.82 4.15-.59-.75-1.17-1.49-1.76-2.24.56-1.94 2.59-2.62 3.58-4.19.66-.58 1.21-1.32 2.11-1.58z" fill="#d8d4c5"/><path d="M225.98 131.06c.74-.4 1.48-.79 2.22-1.19.28 1.21-.6 1.96-1.12 2.85-1.62.35-2.77 1.53-3.86 2.57-1.21 1.16-2.47 1.53-4.02 1.39 0-1.88 2.22-1.41 2.81-2.66 1-1.42 2.49-2.19 3.97-2.96z" fill="#ddddd5"/><path d="M39.37 161.46c1.77 2.21 1.45 5.52 3.87 7.39.59.94.9 1.88-.02 2.81l-1.62-1.17c-.41-3.1-2.13-5.86-2.23-9.03z" fill="#cfceb2"/><path d="M57.94 40.75c-.8 1.08-.48 2.37-.68 3.56-1.42-2.59-1.21-5.27-.46-7.98 1.13 1.28 1.1 2.86 1.14 4.42z" fill="#8f886d"/><path d="M101.27 18.1c.1 2.44-.62 2.96-3.35 2.4.89-1.1 2.09-1.79 3.35-2.4z" fill="#a19b55"/><path class="st54" d="M92.9 161.57c-.15-.01-.3-.02-.45-.02.34-2.65.68-5.31 1.01-7.96 1.07 2.74-.19 5.33-.56 7.98z"/><path class="st55" d="M187.06 79.16c.11 1.38.02 2.59 2.22 1.64 1.86-.8.88 1.07 1.1 1.8-2.64 3.55-6.64 4.48-10.59 4.79-3.09.24-5.93 1.38-9.07 1.47-7.29.21-14.48-.38-21.61-1.64-4.91-.87-7.81-4.22-9.29-8.77-.42-1.3-1.06-2.33-2.15-3.9-.8 2.47-1.69 4.39.29 6.32-.29 2.84-2.18 5.13-4.61 5.56-.19-.33-.34-.72-.21-1.06.91-2.47-.31-3.66-2.53-4.26-.77-.99-.53-2.13-.52-3.25.01-.93.13-1.93-1.01-2.37-2.34-2.12-2.22-2.43 1.86-4.24-1.04-.88-2.66-.46-3.34-1.69-.28-.26-.57-.51-.9-.7-1.68-.45-3.42-.57-5.08-1.07-.78-.25-1.58-.48-2.39-.62-1.81-.32-2.79-1.24-2.55-3.18.22-1.96 1.34-2.54 3.27-2.58 2.44-.05 5 .1 7.21-1.28 1.25-.78 2.32-.36 3.44.19.93.46 1.86.9 2.81 1.5-.64-.85-1.14-1.65-.58-2.66.68-.73 1.43-.98 2.31-.34.82-.22 2.09-1.12 2.29.24.41 2.9 2.65 2.68 4.54 3.18-.2 1.49-1.44 1.21-2.32 1.19-2.13-.04-2.13.86-1.24 2.34.24.39.27.93.57 1.26.74.8 1.51 1.72 2.29-.06.67-1.53 2.94-2.78.69-4.73 1.12-.71 2.29-1.37 3.44-.16 1.18 1.23 2.19 2.58 1.41 4.45-.21.52-.49 1.01-.7 1.52-.52 1.26.44 1.89 1.17 2.57.89.81 1.3-.16 1.8-.6.56-.5 1.07-1.05 1.91-1.01.84.94 1.05 2.03.81 3.24-1.11 1.49-2.59 2.43-4.43 2.51-1.1.05-1.86.21-1.86 1.46 0 1.55-.4 3.25 1.11 4.39.67.5.98-.12 1.22-.64.43-.94.63-1.94.77-2.96.11-.81.12-1.81 1.18-1.97 1.05-.16 1.72.6 2.27 1.37.79 1.11.77 2.25-.03 3.37-1.09.8-1.38 1.91-1.17 3.19-.79 1.27-.18 1.77 1.05 2.06 4.31.99 8.59 1.64 13.09 1.37 5.88-.36 11.64-1.7 17.52-1.86.75-.02 1.55.03 2.21-.35.85-.49 1.98-.79.65-2.21-1.2-1.28-1.65-2.98-.03-4.49 1.13 0 1.3.95 1.71 1.67z"/><path d="M143.61 36.3c.4 2.4 2.17 3.88 3.78 5.4 2 1.88 4.27-.19 6.4.23 1.05 1.17 2.72.94 3.95 1.71.18 1.5-1.05 1.59-1.97 1.87-2.45.73-4.94.64-7.3.19 3.21 1.3 6.43 2.81 8.67 5.79 1.94.99 3.48 2.37 4.44 4.36.29.61.52 1.19.07 1.84-.47.67-1.14.72-1.75.48-1.8-.71-3.93.27-5.61-1.2-.75-.66-1.31.45-1.99.57-1.57.29-3.16.5-4.65-.38-1.81.18-2.35-.96-2.46-2.44-.09-1.27.02-2.57-.7-3.72-1.71-2.17-4.34-2.89-6.59-4.18-.63-.36-1.5-.15-1.94.6-.46.79.3 1.13.72 1.57.42.43.6.91.38 1.51-.41.65-1.01.94-1.76.95-.99-.05-1.82-.66-2.79-.79-2.43-.38-4.59.28-6.62 1.63-.92.61-1.92 1.16-3.07 1.28-.79-.11-1.29-.51-1.35-1.35 3.11-2.44 6.73-3.76 10.53-4.36.01-2.35-3.1-1.12-3.05-3.21.21-.18.52-.45.71-.37 3.82 1.74 6.88-1.32 10.38-1.61.52-.01 1.02.12 1.52.2 1.69-.41.99-1.91 1.28-2.92.36-1.2-.21-2.58.77-3.65z" fill="#625c2b"/><path d="M165.04 69.04c1.19.96 1.69 3.12 3.93 2.26 2.05-.29 4.1-.64 5.71 1.18.63 1.19.08 1.7-1.07 1.95-1.07.23-2.33.22-2.56 1.72-.32 1.53-.19 2.99.71 4.32.21.41.26.92.61 1.25.96.9 1.28 1.92.3 2.92-1.09 1.12-2.4.93-3.57.12-1.08-.75-1.77-1.72-.85-3.07 1.01-1.47.59-2.99.36-4.79-3.91 1.85-7.83 1.57-11.7 1.67-.85.02-1.65-.28-2.37-.77-.78-1.17.33-1.19.91-1.51-.78-.08-1.51.48-2.33.21-.95-.65-1.44-1.52-1.33-2.69.68-.83 1.28-1.69 1.16-2.85.11-.24.3-.4.56-.47.27 0 .51.07.74.2 1.04.95 2.04 1.78 3.05-.08.42-.78 1.04-.84 1.85-.27 2.8 1.97 2.91 1.93 4.99-.68.23-.31.52-.53.9-.62z" fill="#8d8736"/><path d="M174.63 72.98c-1.42-2.13-3.94-.57-5.67-1.68.02-.2.04-.41.06-.61 2.75-.82 5.48-1.67 7.95.78.49.48 1.31.79 2.02.85 1.35.13 1.76.31 1.65 2-.07 1.18 1.58 2.46 2.47 3.7 1.98 1.28 2.13 3.67.08 4.05-3.46.64-7.04 1.72-10.62.24-.74-.3-1.04-.7-1-1.43-.29-1.5-.3-2.75 1.84-2.63 1.68.09.47-.85.41-1.37-.56-1.47 1.74-2.34.81-3.9z" fill="#3f381c"/><path d="M157.14 51.49c-3.56-2.25-6.89-4.89-11.19-6.06.94-1.55 1.85-.55 2.59-.44 3.21.45 6.4.97 9.19-1.34 2.66-.09 4.17-2.16 6.04-3.58 1.75-1.33 3.33-2.88 5.66-3.12.19.97 1.2 2.07-.42 2.77-1.75.51-3.24 1.29-3.91 3.18-.54 1.53-1.99 2.45-3.31 2.77-3.21.76-4.12 3.06-4.65 5.82z" fill="#493e1c"/><path d="M185.26 52.06c.22.2.44.41.66.61.23.31.42.78.11.98-1.94 1.23-3.85 2.55-6.32 2.42-2.8-1.85-3.08-1.7-5.56 3.05-1.86-1.08-3.16-1.79-1.59-4.64.98-1.79-1.77-3.93-3.32-5.61-.24-.26-.66-.34-.99-.53-.79-.46-2.16-.99-1.7-1.86.56-1.07 2.32-1.16 3.18-.52 2.06 1.53 4.58 2.03 6.69 3.39.14.24.18.49.15.76-.02.86-.86 1.42-.9 2.43 3.24.01 6.31-3.23 9.59-.48z" fill="#958f38"/><path d="M135.21 50.97c.56-.2 1.11-.4 1.67-.59 2.69-.63 5.39-1.24 7.89.61 2.2.21.09 2.43 1.41 3.05-1.27 1.87.54 2.29 1.48 3.12-.83 2.16-2.21 1.28-3.27.4-1-.83-1.61-.89-2.59 0-1.91 1.74-3.63-.75-5.51-.41-.79-.75-1.04-1.93-2.14-2.45-.96-.46-2.18-.86-1.84-2.34.37-1.65 1.82-1.15 2.9-1.39z" fill="#9d943a"/><path d="M151.51 72.41c-.16-1.13-.77-2.19-.53-3.39 2.12-6.35 2.76-6.59 9.56-4.63.53.15 1.13.01 1.67.14 2.12.49 3.63 1.45 2.82 4.01-.96.98-1.76 2.91-3.17.3-.57-1.07-1.59-.69-2.46-.15-.92.57-1.69 1.6-3 .96-1.52-1.01-2.14.61-3.16 1.08-.59.49-.46 1.53-1.36 1.77-.12-.03-.24-.06-.37-.09z" fill="#493f1a"/><path d="M193.22 67.8c-.57.58-1.13 1.16-1.7 1.74-1.19.69-2.09 2.24-3.82 1.27-1.25-.22-2.93.38-3.06-1.86-.05-.82-.93-1.08-1.74-1.06-1.53.04-2.21-.99-3.05-2.07 1.35-.88 2.83.55 3.82-.74 2.69.12 5.35.07 7.85-1.12.53 1.29.65 2.77 1.7 3.84z" fill="#3f3822"/><path d="M135.21 50.97c-.33.57-.93.54-1.47.64-.65.12-.96.61-1.01 1.18-.07.72.55.87 1.09 1.01 1.76.43 2.83 1.36 2.46 3.35-.39.35-.78.71-1.16 1.06-1.66.19-3.34.58-4.58-1.11-.64-.87-1.28-.36-1.87.2-.91.86-1.87 1.59-3.24 1.02-.65-2.52.05-4.5 2.45-5.32 2-.68 3.54-1.9 5.22-2.99.71.31 1.41.64 2.11.96z" fill="#bfaf5b"/><path d="M156.6 69.02c1.35.96 1.72-.53 2.44-1.02 2.06-1.42 3.45-.88 4.04 1.65.83-.06.87-1.55 1.96-1.11-.02.17-.02.33 0 .5-.98 1.34-.75 3.86-3.56 3.4-1.38-.22-3 .25-2.69-2.22-1.55.68-1.07 2.67-2.63 2.67-1.39 0-1.61-1.35-2.32-2.13.76-.83.81-2.81 2.76-1.74z" fill="#aca157"/><path d="M125.55 58.23c1.17-.46 2.52-.53 3.04-2.13.32-.99 2.01-.79 2.1-.38.6 2.59 2.99 1.65 4.43 2.48 0 .21 0 .41.01.62-.81-.08-1.51.24-2.2.61-1.05.9-2.26.8-3.45.46-1-.28-1.98-.44-3.03-.42-4.06.08-6.86-2.57-7.26-6.79.61-.92 1.33-1.37 2.34-.52.4.38.8.75 1.19 1.13 1.73 1.2 1.37 3.59 2.83 4.94z" fill="#998b38"/><path d="M179.72 56.07c2-1.26 4.59-1.44 6.21-3.4.85.45 1.78.47 2.7.61.99.15 2.75.04 2.55 1.36-.2 1.37-1.68 2.34-3.27 1.89-1.76-.5-3.52-.7-5.26-.35-1.04.19-1.98 1.2-2.93-.11z" fill="#817d34"/><path d="M176.19 64.44c-1.09 1.46-2.42 1.51-3.9.65-.49-1.21-2.27-1.93-1.43-3.65.26-.54.82-1.03 1.34-.8 1.48.67 3.21 1.11 3.72 3.01.08.27.18.53.27.79z" fill="#aaa26a"/><path d="M185.26 52.06c-3.86-1.55-7.22 1.74-11.08 1.19.14-1.56 1.68-2.16 2.14-3.41 2.42.47 4.89.33 7.34.56 1.33-.23 1.87.33 1.6 1.66z" fill="#b2ac6c"/><path d="M183.65 50.4c-2.5.55-5.04 1.54-7.34-.56.04-.17.07-.33.11-.5 2.56-.59 5.16-1.59 7.23 1.06z" fill="#bab49e"/><path d="M167.56 49.87c1.28.3 1.95 1.17 1.98 2.54.03 1.05-.33 1.99-1.53 1.78-1.36-.24-1.88-1.33-1.9-2.68-.01-.95.24-1.65 1.45-1.64z" fill="#a49b54"/><path d="M101.35 138.37c-6.35 1.62-12.75 1.49-19.18.55-.56-.19-1.12-.38-1.68-.58-2.47-.62-4.44-1.98-5.93-4.04.37-1.49 1.5-1.44 2.67-1.3 1.95.22 3.88.62 5.82.92 5.55.85 10.9.5 16.12-1.93 4.41-2.05 8.88-3.88 13.05-6.47 5.46-3.38 9.2-8.12 12.25-13.58.38-.69.5-1.79 1.58-1.67.56.06.61.87.78 1.42.6-.69.12-1.51.31-2.23.09-.91.3-1.77 1.21-2.24.87-.03 1.12.63 1.25 1.27.94 4.85 4.55 7.68 8.11 10.42 3.68 2.84 7.88 4.67 12.5 5.56 2.39.46 4.77 1.06 7.1 1.81 2.02.65 4.05.77 6.12.44 1.24-.2 2.44-.27 3.38.8-1.55 3.51-4.54 4.84-8.07 5.37-5.61 1.01-10.45-1.52-15.14-3.8-3.9-1.89-7.86-3.24-12.03-4.18-1.8-.99-2.66-2.87-4.03-4.27-1.16-1.2-1.99-1.23-2.71.39-.69 1.55-1.59 2.98-2.59 4.35-.16.22-.34.41-.53.6-6.09 3.04-10.55 8.51-16.84 11.25-.6.26-1.15.61-1.84.56-.61.04-1.28-.09-1.68.58z" fill="#312a19"/><path d="M60.7 149.75c.63-.11 1.01-.36.74-1.11-.12-.34-.14-.78.28-.95.54-.21.91.16 1.06.59.88 2.42 2.61 1.48 3.73.61 1.42-1.11 1.55.1 2.11.71 1.58-.14 3.23-.45 4.1 1.44.09 1.18-.58 1.21-1.43.91-.94-.33-1.21.3-1.28.97-.1.92.62 1.12 1.31 1 1.1-.19 2.25-.05 3.32-.49.89-.37 1.79-.59 2.65.09.24 2.79 3.17 3.17 4.48 5-.05 1.96-1.59 1.57-2.79 1.83-1.36.3-2.82.64-.93 2.36.92.84.96 1.94.29 3.03-1.4 1.15-2.6.96-3.61-.54-.14-.78 1.41-.84.91-1.34-.73-.72-1.75-1.45-2.98-1.02-.53.19-.75.8-1.21 1.12-.67.39-1.49.08-2.17.44-2.92 1.56-5.82 1.23-8.7-.09-.57-.89-.14-1.77.25-2.76-3.59 1.24-7.01 1.22-10.44.54-.67-.13-1.94.02-1.36-1.43 1.54-.84 3.21-.43 4.83-.52 1.1-.06 2.18-.13 3.13-.76 1.56-1.87 2.41-4.58 5.84-4.31-.95-2-2.72-3.25-2.13-5.32z" fill="#e8e064"/><path d="M74.81 164.91c1.01 1.04 2.12 1.34 3.4.48.61-1.91.61-1.91 1.7-1.02 1.61 2.98-1.62 3.45-2.75 4.78-1.53 1.8-3.49 1.71-4.55-.91-.47-.09-.83-.37-1.07-.76-.91-1.43-1.62-.99-2.27.21.11 2.05-.54 2.42-2.38 1.35-1.68-.97-3.51-1.85-5.61-1.42-.8.93-1.28 2.24-2.79 2.33-2 1.54-5.38.01-6.25-2.84 1.49-2.19 3.85-3.21 6.08-4.33 1.27-.64 2 .32 2.44 1.45 1.26-.08 2.48-.9 3.71.71.35.46 2.89-.34 4.12-1.07 1.11-.66 1.91-.2 2.86-.07 1.3-.19 2.64-.46 3.36 1.11z" fill="#b09c33"/><path d="M60.16 178.37c4.44-.11 8.92.6 13.29-1.01 3.21-1.18 6.38-2.39 9.29-4.22.69-.43 1.53-.63 2.29-.94.77.82 1.59 1.61 1.32 2.9-.32.7-.86 1.2-1.49 1.62-7.07 4.79-14.93 6.34-23.33 5.77-.94-.08-1.8-.41-2.66-.77-.8-.49-2.09-.72-1.67-2.06.46-1.41 1.77-1.31 2.96-1.29z" fill="#806e48"/><path d="M72.5 151.4c-.69-1.89-2.91-.5-3.88-1.79.89-2.74-1.86-4.68-1.61-7.28 1.03-2.58 3.12-1.48 4.76-1.19 4.36.77 8.16 2.75 11.55 5.64 1.98 1.69 2.72 4 3.81 6.15.44.87-.04 1.83-.97 2.38-.55.72-1.09 1.45-1.64 2.17-1.81-1.8-3.71-3.48-6.05-4.58-1.25-1.11-2.72-1.87-4.19-2.65.98-2.53 2.8-.49 4.19-.96-.14-.43-.81-.73-.92-1.31-.66-3.33-3.8-2.78-5.94-3.69-.95-.41-1.38.74-1.53 1.58-.23 1.24-.29 2.51 1.26 2.99 1.06.33 2.25.31 2.94 1.4-.05 1.22-.95 1.13-1.78 1.14z" fill="#7e6e30"/><path d="M86.16 155.3c1.08-3.23-.59-5.69-2.81-7.41-1.96-1.52-3.79-3.25-5.88-4.53-1.57-.96-3.9-.04-5.45-1.24-1.87-1.46-3.39-1.02-5.01.21-.94-.06-1.74-.42-1.64-1.49.08-.88.94-.74 1.57-.79 4.46-.39 8.72.4 12.73 2.33 1.34.65 2.83.63 4.18 1.43 1.24.74 3.07.54 2.47 2.82-.13.49.25.63.7.53.52-.12 1.15-1.22 1.52-.07.26.79-.48 1.28-1.29 1.52-.52.15-.98.5-1.71.89 1.29 1.16 2.37 2.27 2.7 3.88.38 1.84-.29 2.44-2.08 1.92z" fill="#a0964c"/><path d="M60.11 145.76c.05 1.3 1.39 2.79-.56 3.8.1.62-.08 1.15-.55 1.57-2.28 1.29-4.98 1.22-7.34 2.26-2.63-.75-3.18-1.83-2.2-4.16.94-2.23 2.95-3.24 4.84-4.4 2.24-1.57 4.2-1.42 5.81.93z" fill="#81682b"/><path d="M60.76 164.25c-1.14-1.35-2.31-1.29-3.59-.16-1.46 1.29-3.15 2.23-4.92 3.04-4.7-.01-5.01-.54-3.91-6.61.1-.08.19-.16.29-.24.35.16.67.34.34.8 4.04.61 8.12 1.93 11.98-.74.2-.14.73.03.99.21.37.26.23.66-.07.94-.81.75-1.21 1.66-1.11 2.76z" fill="#ccc555"/><path class="st80" d="M74.86 134.39c1.88 1.32 3.76 2.63 5.64 3.95-1.68 1.28-3.08.23-4.52-.55-1.55-1.48-3.4-2.6-4.94-4.1-.87-.85-2.24-1.21-3.06-.35-1.75 1.85-3.85 2.44-6.22 2.61-.44.03-.81.43-1.22.65-.18.1-.63-.05-.5.37.02.07.49.11.69.32-.81 1.69-2.35 1.74-3.91 1.71-.38-.03-.75-.07-1.13-.1-.32-.59-.07-1.1.2-1.62 2.1-2.2 4.58-3.83 7.53-4.62 1.11-.3 2.19-.67 3.01-1.42 1.84-1.69 3.67-1.53 5.6-.24 1.26.86 2.19 2 2.83 3.39z"/><path d="M60.73 137.29c-.96-.21-1.41.8-2.36.75 1.16-1.59 2.52-3.02 4.65-3.01 1.66 0 2.81-.51 3.78-1.81.89-1.21 2.51-1.61 3.5-.87 2.09 1.56 4.56 2.84 5.69 5.45-2.65-.4-5.31-.8-7.96-1.2-1.84-.33-3.67-.35-5.51.01-.61.23-1.2.45-1.79.68z" fill="#cdcac6"/><path d="M60.16 178.37c-.33.17-.64.4-1 .49-2.74.67-1.35 1.53-.13 2.38-.6.63-1.35.6-2.12.47-2.1-.92-4.51-1.1-6.37-2.61-.57-.39-1.14-.79-1.7-1.18-1.88-2.23-1.92-2.61-.5-4.03 1.12 1.03 2.47 1.29 3.93 1.15.6 1.81 2.22 2.02 3.73 2.21 1.45.19 2.86.42 4.16 1.12z" fill="#94896a"/><path d="M54.54 145.14c-1.23 1.71-3.69 2.02-4.53 4.34-.71 1.97-.43 3.01 1.59 3.52.56 1.18-.41 1.7-1.1 2.14-1.18.76-1.93 1.87-2.81 2.88-.37-.03-1.05-.03-1.06-.1-.23-1.96-.38-3.91-.79-5.88-.37-1.77 1.55-3.53 3.53-4.41.41-.18.74-.56 1.11-.85.98-1.5 2.08-2.64 4.06-1.64z" fill="#927d35"/><path d="M79.92 164.37c-1.33-.94-.99.91-1.7 1.02-.04-.9.19-1.86-.74-2.52-.58-.42-2.05-.13-1.61-1.37.42-1.16 1.6-1.78 2.86-1.9 1.03-.1 2.24.54 2.89-.84.87-.82 1.81-.39 2.75-.17.14 4.13-.5 4.96-4.45 5.78z" fill="#d2c95c"/><path d="M47.7 158.03c-.18-1.35.51-2.19 1.6-2.86.9-.56 2.01-.94 2.31-2.16 2.06-1.89 4.94-1.22 7.26-2.29 1.65 2.06.01 3.38-1.08 4.82-.84.47-1.77.55-2.66.36-2.31-.49-4.11.27-5.59 2-.56.75-.41 1.81-1.09 2.51l-.12.11c-.76-.7-.48-1.65-.63-2.49z" fill="#a29370"/><path d="M57.35 155.31c.81-1.43 2.02-2.73 1.53-4.59.23-.38.45-.77.68-1.15.39.06.77.12 1.16.18.86 1.39.96 3.16 2.64 4.15 1.26.75.49 1.91-.58 1.82-3.07-.26-3.72 2.15-4.94 3.99-.92-.66-1.49-1.5-1.39-2.69.11-.66.41-1.24.9-1.71z" fill="#f2ec90"/><path d="M84.37 158.59c-.87.84-1.82.2-2.75.17-.65-.51-1.25-1.05-2.1-1.25-2.08-.5-2.79-1.9-2.4-3.93.12-.84.29-1.63 1.46-1.18 2.47 1.12 5.08 2.07 5.94 5.07-.05.37-.1.75-.15 1.12z" fill="#d6d1bf"/><path d="M58.49 169.96c.89-.83 1.3-2.22 2.79-2.32 1.14.58 1.79 2.01 3.25 1.99.67-.01 1.45-.26 1.49.66.03.58-.24 1.39-.66 1.74-1.58 1.29-3.32.54-5.05.23-1.44-.26-1.89-1-1.82-2.3z" fill="#afa573"/><path d="M54.54 145.14c-1.76-.46-2.74.99-4.04 1.65-.09-1.3.45-2.36 1.22-3.34 1.9 1.03 3.62.75 4.76-1.07.55-.88 1.04-.73 1.78-.66.88.09 1.29.42 1.35 1.36.05.9.32 1.79.5 2.68-1.78-.9-3.52-2.1-5.57-.62z" fill="#988835"/><path class="st54" d="M91.73 163.77c.67 3.02-1.39 5.26-2.26 7.84-.34.51-.65 1.11-1.36.41-.39-.76-.28-1.46.25-2.11.78-2.24 1.43-4.55 3.37-6.14z"/><path d="M69.26 167.7c.05-.89-.36-2.4.7-2.39 1.5.02 2 1.71 2.65 2.94.11 1.07-.33 1.87-1.4 2.01-1.21.15-.65-1.06-1.02-1.57-.27-.37-.62-.66-.93-.99z" fill="#d0be59"/><path class="st91" d="M88.35 169.9l.06 2.31c-.14 1.47-.25 2.96-2.36 2.72-.05-1.02-1.48-1.52-1.03-2.73 1.26-.55 1.77-2.19 3.33-2.3z"/><path class="st80" d="M62.51 136.61c1.84-.8 3.67-.66 5.51-.01-1.84 0-3.68 0-5.51.01z"/><path d="M227.1 67.86c2.71.87 3.48 3.2 2.25 6.82-2.13 1.44-4.54 1.96-7.04 2-1.4.02-2.52.38-3.39 1.48-.93.62-1.81 1.37-3.06 1.02-1.42-.68-1.72 1.27-3.2 1.24-2.14-.04-3.21-.9-3.93-2.6-1.19-2.78-.56-5.26 1.43-6.03 1.04-.69 1.56.19 2.08.77 1.2 1.35 2.56 1.43 4.04.63 1.89-1.03 4.16-1.17 5.88-2.56 1.33-.35 2.4-1.11 3.33-2.1.46-.4.85-.98 1.61-.67z" fill="#4c4426"/><path d="M227.1 67.86c-.39.38-.79.75-1.18 1.13-1.19.42-2.16 1.24-3.29 1.76-2.29 2.55-5.62 2.9-8.61 3.77-1.78.52-2.12-2.37-3.85-2.71-.74-.88-2.12-1.21-2.24-2.64-.1-1.2-1.07-2.68.63-3.37 1.93-.78 1.25 1.58 2.18 2.09.09-.03.22-.1.26-.07 2.36 1.94 4.68 2.2 6.97-.11 1.55.81 2.78.55 3.58-1.1.41-1.1 1.08-1.99 2.08-2.61.6-1.74 1.05-.47 1.11.14.14 1.39.23 2.54 2.11 1.66.27-.13.91-.04 1 .14.48.87-.58 1.23-.75 1.92z" fill="#747030"/><path d="M223.65 63.99c-.36 1.11-1.02 2.03-1.78 2.89-1.35.03-2.65.23-3.83.94-.08.05-.16.11-.24.14-1.25.38-.15 3.69-3.31 2.21-1.39-.65-2.71-1.12-3.73-2.29-.06-1.17.04-2.07 1.5-2.52 1.93-.59 3.72-1.61 5.61-2.35 2.08-.82 4-.24 5.78.98z" fill="#46371b"/><path d="M218.64 78.01c-.01-1.45 1.25-2.26 2.14-2.06 3.08.67 5.68-1.18 8.58-1.26 1.49 2.43.81 3.96-1.93 3.86-2.25-.09-4.35.85-6.58.62-.67-.54-1.7-.35-2.21-1.16z" fill="#7a7837"/><path d="M218.64 78.01c.84.17 2.13-.5 2.21 1.15-1.37.77-2.97.74-4.43 1.28-1.69.62-.74-.64-.54-1.25.91-.4 1.83-.79 2.76-1.18z" fill="#afa35f"/><path d="M131.26 124.27c7.29.71 13.38 4.65 19.92 7.4 2.5 1.05 5.18.19 7.75.55-.28 1.47-1.53.93-2.41 1.18-.46.13-1.38-.5-1.25.7.4.58 1 1.06.83 1.88-.99.72-1.84-.74-3.01-.11-.59.32-1.41.15-1.5 1.1-.08.84-.19 2.04.73 2.18 2.22.34 1.41 1.32 1.21 2.76-.18 1.29-1.17 2.37-.83 3.72-2.02-.56-3.85.51-5.8.65-2.32-2.31-1.9-5.09-1.37-7.9-.1-.24-.18-.49-.25-.73.25-1.51-.27-2.31-1.89-2.56-1.08-.17-2.24.11-3.24-.53-1.24-2.42-2.96-4.03-5.94-3.84-1.02.07-2.01-.42-2.99-.74-4.01-1.3-7.01 1.39-10.31 2.72-1.12.45.12 1.9-.16 2.87-1.01 2.14.26 3.95.85 5.86.06.79-.18 1.43-.85 1.89-4.05.83-8.02 2.03-12.05 2.94-.92-1.13-1.15-2.26-.01-3.4 2.27.59 4.26-.22 6.14-1.33 1.71-1.02 1.73-2.05.2-3.24-.3-.23-.65-.37-.97-.56-4-2.38-4-3.61-.08-6.32 2.68-1.85 5.47-3.55 7.68-6.01h.02c3.08-1.19 6.32-1.24 9.58-1.13z" fill="#524e29"/><path d="M139.66 153.05c.45.89 2.36 2.13-.53 2.24-1.07-.58-2.39-.55-3.35-1.38-4.89-2.46-9.74-2.05-14.41.47-2.34 1.26-4.04.97-5.57-1.09.02-1.68 1.58-2.05 2.51-2.95.54-.36 1.04-.77 1.46-1.27.18-.21.41-.4.54-.64 1.58-2.8 3.5-4.67 7.02-2.91.57.28 1.39.37 1.49-.92.22-2.96.43-3.02 3.38-2.2.35.1.7.27 1.11.01-.32-1.27-2.68-1-2.24-2.71.32-1.27 1.64-1.69 2.65-2.32 1.24-.41 2.49-.35 3.75-.14.18.03.37.06.53.14 2.08 1.15 4.13 2.28 6.34.16.38-.36 1.07-.12 1.53.28l.01-.01c.82 2.05-.78 3.08-1.91 4.17-3.34 3.25-3.33 4.12.36 6.8.39.4.68.84.52 1.44-1.38.82-2.5-.18-3.72-.52-.77-.21-1.59-1.01-2.33-.2-.81.88-.17 1.74.38 2.52.24.31.32.69.48 1.03z" fill="#968e36"/><path d="M136.31 153.57c.94.57 1.88 1.14 2.83 1.71-2.61-.5-4.57 1.41-6.92 1.86-.46.09-.78.5-.86 1.01-.23 1.44 1.58.68 1.9 2.04-2.36.21-4.58-.21-6.67-.93-2.24-.78-4.21-1.47-6.69-.41-2.62 1.12-5.4.19-7.76-1.16-1.13-.65-2.55-1.91-1.09-3.66.14.03.28.06.43.09.35.15.65.36.91.64 2.78 3.01 5.63 3.68 8.39.73 3.89-4.16 8.19-3.7 12.86-2.69.9.2 1.81.42 2.67.77z" fill="#6d5b25"/><path d="M175.76 116.35c3.46 3.65 3.52 7.31-.31 11.27-4.38 4.54-8.63 9.45-15.44 10.39-1.12.16-1.08.74-1.14 1.48-.77-.55-1.06-1.35-1.15-2.24.3-1.41 1.62-1.38 2.57-1.64 5.76-1.57 9.96-6.29 10.55-12.04 1.8-2.3 2.8-5.14 4.92-7.22z" fill="#d9d6d0"/><path d="M121.64 125.41c-.76 2.41-3.16 3.25-4.75 4.86-.83.85-2.01 1.35-3.02 2.03-3.17 2.14-3.11 3.19.44 4.82 1.36.63 2.62 1.27 2.76 2.84.16 1.9-1.73 1.94-2.84 2.67-1.29.84-2.79 1.01-4.26 1.27-.87.15-1.22-.23-1.3-1.02.33-1 .98-1.77.85-3.06-.24-2.39-.77-3.1-2.96-1.57-1.17.82-2.56 1.29-3.52-.45 6.69-3.38 11.88-9.03 18.6-12.39z" fill="#433e1d"/><path d="M118.8 150.68c-.91.82-1.81 1.63-2.72 2.45-1.39 1.9-3.1 2.09-5.05.91-.42-.51-.84-1.03-1.26-1.54.5-4.36 4.44-7.23 7.69-5.6 1.68.82 2.57 1.93 1.34 3.78z" fill="#aab1bc"/><path d="M171.28 123.72c.62 4.05-2.46 6.32-4.4 9.13-2.21 3.21-6.03 3.09-9.17 4.4-.54-.42-1.09-.85-1.63-1.27-.41-.51-.82-1.02-1.23-1.52-.09-.99.63-.71 1.1-.64 5.36.88 9.01-1.3 11.14-6.2 1.05-1.68 1.7-3.78 4.19-3.9z" fill="#a79e8b"/><path d="M139.66 153.05c-.55-.49-1.29-.87-1.62-1.48-.46-.87-.51-1.94.06-2.81.63-.96 1.54-.32 2.27-.1 1.5.46 2.96 1.03 4.44 1.55 1.32-.09 2.49.19 3.33 1.32-1.45.76-.2 3.41-2.34 3.53-1.55.09-2.58-1.32-3.9-1.91-.61-.28-1.46-1.11-2.24-.1z" fill="#766f2e"/><path d="M118.8 150.68c.64-2.21-.94-3.21-2.5-3.55-2.21-.47-3.81 1.06-5.09 2.7-.61.78-.96 1.77-1.43 2.66-2.1-.37-2.37-1.62-1.64-3.37 1.88-3.83 6.68-5.57 11.86-4.29 2.01 1.56.59 3.19.09 4.8-.34.46-.61 1.01-1.29 1.05z" fill="#95958f"/><path d="M119.99 145.23c-4.5-.37-8.67.24-11.85 3.89-.26-1.03.47-1.88.54-2.85 2.77-1.48 5.58-2.82 8.83-2.86 1-.01 2-.33 3-.51.61.95.88 1.83-.52 2.33z" fill="#67624d"/><path d="M148.15 151.53c-1.32.1-2.36-.53-3.33-1.32-.19-.38-.39-.77-.58-1.15.22-.97.96-1.4 1.8-1.73 1.02-.15 1.83-.86 2.83-1.03.93-.16 1.88-.12 2.5.73.71.98-.25 1.47-.72 2.07-.28.36-.58.71-.69 1.17-.6.43-1.21.85-1.81 1.26z" fill="#929396"/><path d="M149.96 150.28c.01-.19.04-.38.01-.56-.14-1.01 2.05-1.44.84-2.53-1.03-.92-2.25-.33-3.32.45-.4.29-1.06.23-1.6.33-.26-.99.48-1.32 1.12-1.73 1.77-1.34 3.56-2.47 5.67-.61 1.24 2.81-1.63 3.21-2.72 4.65z" fill="#767265"/><path d="M224.87 123.15c0 1.58-.29 3.24.07 4.73.45 1.85-.16 2.66-1.81 3.08-3.65 2.78-8.02 3.65-12.33 4.68-.8.19-1.66.2-2.46.46-6.69.81-12.85-.18-17.83-5.22-5.7-5.05-7.94-11.57-8.08-18.98 4.35 5.65 8.55 11.67 16.18 13 4.64.81 9.51 2.63 14.05-.87.93-.72 2.5-.8 3.78-.82 1.32-.02 2.36-.45 3.33-1.22 1.87-.35 3.28 1.3 5.1 1.16z" fill="#3f3a32"/><path d="M200.53 94.21c1.2-1.09 2.79-.36 4.14-.87.63-.24 1.56-.39 1.95.47.4.87-.24 1.34-.96 1.68-.6.28-1.28.63-.93 1.4.25.55.97.37 1.51.41.61.06 1.13.4 1.3.93.88 2.88 3.19 3.04 5.61 3.03.43-.01.83.08 1.2.29 1.05.88 1.73 1.99 2.09 3.31.13.65.12 1.31.13 1.96.05 4.67-3.27 7.04-7.56 5.11-2.03-.92-3.91-1.11-5.98-.61-3.57-.05-4.06-.44-4.74-3.91-.11-.56-.19-1.14-.63-1.51-1.8-1.49-1.75-3.57-1.87-5.6 0-.44.16-.82.52-1.09.42-.38 1.11-.04 1.5-.54-.42-1.03-1.86-.91-2.2-2.01-.44-2.28.67-3.02 2.76-2.79.73.08 1.46.07 2.16.34z" fill="#a59f54"/><path d="M202.84 110.74c2.25-.64 4.23-1.11 6.51.65 2.52 1.95 6.45-.59 6.47-3.84.01-1.03.04-2.07.06-3.1 1.54.51 1.09 1.87 1.25 2.96-.38 1.57.8 2.29 1.73 3.15 1.34 1.46 2.67 2.94 1.47 5.12-.26.46-.54 1.03-1.26.62-2.61-.98-4.89-2.77-7.7-3.26-1.28-.22-2.48-.11-2.36 1.72.06.93-.77 1.44-1.11 2.18-.3.48-.75 1.11-1.27.82-2.42-1.36-5.25-.34-7.7-1.42-.02-.62-.13-1.27.51-1.69.75-.66-.29-1.96.88-2.47.26-.06.52-.05.78.03.4.25.61.65.88 1.01.64.88.51-.06.67-.3 1.01-.65-.66-1.51.19-2.18z" fill="#9e8c48"/><path d="M181.98 92.13c.01.39.02.77.03 1.16.06.98-.81 1.45-1.19 2.19-.91 1.19-2.25 1.34-3.56 1.33-3.13-.04-6.15.51-9.11 1.44-1.72-.31-2.99-1.21-3.72-2.82-.44-1.44.13-2.31 1.5-2.81 4.49-1.63 9.15-2.52 13.89-2.84 1.41-.11 3.07.09 2.16 2.35z" fill="#3a301a"/><path class="st113" d="M224.89 97.09c-3.84.93-6.87-1.05-10-2.76-3.06-1.66-6-3.76-9.78-3.34-2.42-1.29-4.82-2.61-7.27-3.83-.62-.31-1.2-.47-1.13-1.3 8.33 1.96 16.89 3.26 24.22 8.19 1.06.72 2.22.95 3.46.96.27.67.69 1.3.5 2.08z"/><path class="st114" d="M200.56 112.42c-.88.5-.15 1.78-1.1 2.24-.77-3.74-5.05-6.63-8.63-5.64-1.65.46-2.7-.15-3.61-1.27-1.38-1.7-.67-3.51-.12-5.29.48-1.53 1.51-1.33 2.67-.87.95.38 1.21-.64 1.81-1 .93.32 1.84.04 2.75-.12 1-.18 1.59.17 1.77 1.24.15.92.05 1.6-.88 2.09-.7.37-2.22-.38-2 1.23.16 1.19 1.09 1.97 2.24 2.26 2.25.56 3.27 2.64 4.99 3.86.35.26.39.81.11 1.27z"/><path d="M200.53 94.21c-.5.37-1 .97-1.68.64-2.7-1.32-2.98.15-2.7 2.29.4.55.22 1.01-.22 1.43-1.04.54-2.2.76-3.25 1.28-.36.14-.74.19-1.13.16-1.52.11-2.13-.58-2.24-2.12-.31-4.63 2.19-6.93 7.08-6.07 1.53.28 3.8-.19 4.14 2.39z" fill="#463f1e"/><path d="M191.54 100.01c.22-.14.44-.28.65-.41 1.28.35 2.72-.82 3.91.41.85 2.09.29 4.87 2.96 6.1.16.07.28.55.21.77-1.13 3.45 1.11 3.76 3.57 3.87-.54.77 2.53 1.45.05 2.26-.81.49-1.13-.55-1.77-.58-.19 0-.38 0-.57-.01-1.31-2.09-2.96-3.92-5.42-4.42-1.73-.35-2.26-1.62-2.79-2.79-.47-1.04-.73-2.63 1.52-1.9.62.2 1.43.2 1.72-.5.18-.43.07-1.16-.2-1.55-.49-.71-1.19-.08-1.75.05-.9.22-1.83.87-2.07-.71 0-.2-.01-.4-.02-.59z" fill="#9e933e"/><path d="M214.08 101.81c-.36-.01-.71-.02-1.07-.03-.63.19-.92-.22-.89-.69.09-1.52-.8-2.38-1.89-3.17-1.02-.73-1.92-1.55-1.18-2.99.56-.74.02-1.48.01-2.22 1.75 1.56 4 2.24 5.99 3.38 1.13.65 2.31 1.18 1.91 2.83-.73 1.18-2.52 1.33-2.88 2.89z" fill="#6a6839"/><path d="M219.07 116.31c1.2-1.66 2.12-3.28-.47-4.59-.15-.08-.05-.64-.07-.98 1.56-1.12 2.59.22 3.78.82.08.12.15.24.23.36.22.4.43.81.67 1.2 1.88 2.89 1.38 4.05-2.38 5.49-1.19-.31-3.65.37-1.76-2.3z" fill="#8d8b88"/><path d="M167.95 97.82c2.31-1.26 4.8-1.8 7.4-1.74 1.86.04 3.66-.33 5.47-.61.93.84.52 1.92.54 2.93-1.14.9-2.43.75-3.75.61-2.7-.29-5.4-.3-8.1.12-.93.06-1.66-.13-1.56-1.31z" fill="#877851"/><path d="M209.05 94.92c.38.74.2 1.71 1.25 2.18 1.96.88 2.78 2.55 2.72 4.67-3.88.96-5.55-1.42-6.78-4.48.52-1.28 1.66-1.82 2.81-2.37z" fill="#8c8647"/><path d="M169.13 98.84c1.48-1.21 3.18-.4 4.77-.45 2.48-.09 4.98 0 7.46.01.29 2.24.57 4.47.01 6.71-1.4-.75-.51-2.36-1.33-3.42-1.7-2.2-4.1-2.32-6.49-2.38-1.13-.03-2.26.42-3.4.65-1.01.25-1.01-.44-1.02-1.12z" fill="#cac8c3"/><path class="st114" d="M198.94 116.35c2.51.01 5.14-1.01 7.45.88.52.42 1.03-.1 1.52-.28.22 1.56-.4 2.74-1.69 3.56-.89.56-2.12.65-2.43-.33-.66-2.06-1.95-2.71-3.92-2.68-.67.01-.93-.51-.93-1.15z"/><path d="M87.82 72.96c-3.64 1.32-5.45.71-8.37-2.64-2.57-2.95-5.46-5.56-8.92-7.47-1.4-.78-2.6-1.63-1.33-3.44 1.24-1.37 2.36-.92 3.68.02 10.81 7.65 24.89 5.75 34.67-1.7.56-.38 1.12-.75 1.69-1.13 1.36-.78 2.1-2.08 2.86-3.38.43-.74 1.34-1.27 1.76-.43 1.08 2.16 2.82 3.97 3.4 6.38.09.37-.18.71-.39 1.02-.4.45-.89.73-1.46.89-3.52.43-6.63 1.24-9.61 3.76-2.69 2.28-6.15 4.12-10.07 4.42-2.58.2-4.6 1.91-6.73 3.25-.36.25-.74.43-1.18.45z" fill="#383017"/><path d="M93.54 37.45c.68-1.03.86-2.19 1.04-3.4.24-1.55.74.12 1.12-.01.18.2.36.4.55.61 4.2 3.94 9.29 2.56 14.18 2.39 3.47-.12 6.9-.6 10.36-.85 2.16-.15 3.74.56 3.55 3.15-.85 1.86-2.22 3.16-4.18 3.81-3.07.29-6.14 1.45-9.23.1-1.35-.28-2.73-.49-4.06-.88-.91-.26-1.97-.75-2.7-.34-2.51 1.43-4.31.01-6.2-1.22-.79-.55-1.13-1.39-1.55-2.48.21 1.01.58 1.79-.17 2.45-1.33-.35-3.11.92-3.97-1.11.06-.17.1-.35.12-.53-.12-.9.42-1.35 1.14-1.69z" fill="#382d17"/><path d="M105.83 52.63c1.54 1.54 1.44 3.27.58 5.08.16 1.26-.9 1.55-1.67 1.93-7.04 3.41-14.29 5.56-22.19 3.41-.81-.22-2 .02-2.08-1.36-1.23-1.16-2.47-2.33-3.7-3.49 1.15-1.18 2.64-.19 3.7-1.01.58-.31 1.06.03 1.5.29 1.82 1.07 3.26.78 4.3-1.12.27-.31.58-.53 1.02-.41.58 2.01 1.75 2.07 3.37 1.13 1.41-.82 2.85-1.41 4.4-.1.51.43.65-.43.98-.67.86-.81 2.04-1 3.02-1.57 1.34.36 2.44-.06 3.57-.83.94-.62 1.86-1.56 3.2-1.28z" fill="#87813c"/><path class="st125" d="M116.55 59.96c.78-1.09-.28-1.72-.69-2.44-.86-1.5-2.23-2.72-2.3-5.16-1.53 1.88-2.18 3.91-4.33 4.23 1.48-2.06 2.54-4.31 3.26-6.74.37.1.67.62 1.13.16 2.89-3.66 6.91-5.28 11.27-6.29 1.29.63 2.84.21 4.08 1.04 1.07 1.01 3.05.2 3.79 1.93.35.83.76 1.9-.51 1.89-4.03-.05-7.06 2.68-10.72 3.58-.78-.14-1.47.1-2.12.5-2.69.78-2.76 1.14-.66 3.92.63.83 1.36 1.63.57 2.68-.7.94-1.55 1.65-2.77.7z"/><path d="M80.47 61.68c9.32 3.07 17.84.94 25.94-3.97.38.01.76.01 1.14.02-.27 2.37-2.49 2.86-4.03 3.52-4.96 2.13-9.94 4.41-15.62 3.84-5.44-.55-10.81-1.19-15.07-5.12-1.11-1.03-2.33-.96-3.63-.55.01-.19.02-.37.03-.56.88-1.67 1.93-2.29 3.37-.56 2.29 1.89 4.79 3.32 7.87 3.38z" fill="#574d1f"/><path d="M87.23 56.03l-.58.58c-1.51 1.03-3.01 1.14-4.49-.05-.32-2.62-.83-5.25-.01-7.88.8-.71 1.8-.96 2.81-1.16 2.13-.43 3.06.19 3.09 2.34.02 1.42.41 2.74.62 4.11 0 1.02-.54 1.66-1.44 2.06z" fill="#382f19"/><path d="M99.61 47.04c1.04.64 2.07.28 3.15.07 1-.19 2.12.14 2.74.87.58.68-.62 1.16-.78 1.84-1.95 2.32-4.75 2.58-7.46 3.07-1.44-1.02-2.71-2.11-1.64-4.13 1.25-.74 2.69-1.07 3.99-1.72z" fill="#948d37"/><path d="M97.34 52.81c2.46-1 4.92-2 7.37-2.99 1.54.47 1.53 1.56 1.11 2.81-1.44.98-2.95 1.86-4.29 2.96-1.24 1.02-1.76-.3-2.6-.56-.99.02-1.48-.59-1.79-1.43-.01-.29.05-.55.2-.79z" fill="#5e5523"/><path d="M97.34 52.81c0 .11.01.21.03.32-1.86-.14-2.44 2.05-4.11 2.25-.54-.13-1.09-.26-.96-1.02.21-1.74 1.44-3.26 1.09-5.11-.46-.55-.46-1.1.01-1.64.16-1.21.89-1.74 2.08-1.71 1.27.02 2.53 0 3.79-.44.19 1.33-1.16.74-1.39 1.41-.13 1.03-.87 1.46-1.74 1.76-1.52 1.94.91 2.76 1.2 4.18z" fill="#4d441d"/><path d="M92.31 54.36c.21.51.7.51 1.13.61.82.76 2.15.67 2.82 1.68-.58.2.16 2.62-1.46.95-1.23-1.27-2.12-.74-3.4-.09-3.14 1.61-3.66 1.33-4.17-1.49-.29-1 .72-1.14 1.12-1.68.22-.51.53-.84 1.14-.58l2.82.6z" fill="#a79f37"/><path d="M113.72 50.93c0 .44.07 1.13-.59.9-.88-.31-.35-1.32-.63-1.97.13-1.17.12-2.32-.44-3.41.06-1.24.61-2.09 1.81-2.36-.99.07-2.13.53-3-.54.04-.1.07-.2.07-.31 3.19-.22 6.39-.44 9.59-.67.34 1.94-1.33 2.18-2.45 2.83-2.2 1.29-4.89 2.13-4.36 5.53z" fill="#b5ac89"/><path d="M89.49 53.76c-.38.19-.76.39-1.14.58-.98-1.01-.49-2.27-.54-3.42-.11-2.99-.46-3.25-3.49-2.47-.7.18-1.45.16-2.17.24.2-3.74 3.22-2 4.93-2.29 1.95-.34 1.33 1.63 1.23 2.62-.18 1.77.62 3.21 1.18 4.74z" fill="#5b5121"/><path d="M79.04 50.51c-.98-1.04-1.37-2.03-1.35-3.14.03-1.16.8-1.67 1.9-1.51 1.28.19 1.46 1.13 1.56 2.27.15 1.74-1.62 1.22-2.11 2.38z" fill="#c3b666"/><path d="M82.16 56.56c1.5.02 3 .03 4.49.05-1.26 2.96-2.82 3.1-6.17.58.39-.66 1.08-.54 1.68-.63z" fill="#7b755a"/><path d="M93.41 47.6c0 .55-.01 1.1-.01 1.64-.3.22-.61.42-.9.65-.92.71-1.9.69-2.88.2-.42-.21-.72-.67-.59-1.16.31-1.15 1.48-.92 2.27-1.28.65-.29 1.4-.58 2.11-.05z" fill="#99943e"/><path d="M72.6 58.29c-1.32-1.01-2.35-.22-3.37.56-.25-2.48.83-3.64 3.35-3.39 1.74.93 1.08 1.88.02 2.83z" fill="#5b5425"/><path d="M110.86 43.56h3.52c-.99 1.23-1.66 2.06-2.33 2.9-.32-.99-1.76-1.53-1.19-2.9z" fill="#e9dfc2"/><path d="M96.25 40.78c.17-1.36-1.08-2.62-.21-4.23 1.13 1.29 1.49 2.79 1.93 4.26-.59.63-1.14-.21-1.72-.03z" fill="#726d5d"/><path d="M96.15 48.62c.39-.77.98-1.36 1.74-1.76.57.06 1.14.12 1.72.18-.9 1.08-1.93 1.88-3.46 1.58z" fill="#b9b061"/><path d="M169.13 98.84c.34.37.68.75 1.02 1.12 1.15 1.8 2.32 3.58 3.44 5.39 2.09 3.39 2.48 7.13 2.17 11-.93 2.8-2.49 5.22-4.48 7.37-1.69.96-2.54 2.73-3.92 3.99-.18.24-.34.23-.47-.05-1.26-.33-2.46-.41-3.81-.15-1.8.35-3.69.25-5.53-.38-4.58-1.57-9.54-1.87-13.94-3.98-5.83-2.8-11.21-6.2-14.12-12.42-.53-1.12-.1-2.47-1.05-3.4-.98-1.12-.52-2.17.13-3.22 1.97-.43 5.2 1.61 5.06 3.62-.17 2.45 1.05 2.59 2.8 2.54.83-.02 1.68-.09 2.36.54.29.48.31 1.01.24 1.54-.07.62-.4 1.76.17 1.75 2.45-.06 3.22 3.53 5.96 2.62.12-.04.3.19.43.34 2.48 5.04 5.61 6.05 10.39 3.32 1.57-.9 3.18-1 4.87-.42 1.05.79-.22 1.03-.37 1.53 1.02.13 2.04.25 2.95-.4.98-.7 2.01-1.34 2.86-2.2 1.15-1.16 1.34-2.39.2-3.68-.44-1.67.32-2.57 1.93-2.65 1.26-.06 1.63.68 1.24 1.7.52-.82.1-1.43-.76-1.91-1.15-.65-1.81-1.61-1.79-2.97.6-1.09-.65-1.78-.97-2.15-2.14-2.5-3.05-5.89-5.77-7.94-.91-2.01-3.44-1.62-4.68-3.14-.06-1.59 1.04-1.97 2.18-1.65 2 .55 4.01.29 6.01.39.47.09.85.35 1.2.65.66 1.15 1.96 1.49 2.89 2.3.2.53.57.9 1.16 1z" fill="#58542b"/><path d="M190.51 130.88c3.49 1.42 6.31 4.41 10.4 4.45 2.51.02 5.03.12 7.54.19 4.21.03 8.34-.68 12.47-1.43.56-.1 1.12-.11 1.62.24-.47 1.69-2.61 1.03-3.34 2.35-2.39 2.33-5.37.03-8.01 1.07-3.55 1.39-7.37.47-10.99.24-4.42-.28-7.51-3.3-9.69-7.11z" fill="#d2d0d2"/><path class="st143" d="M74.86 134.39c-.95-.94-1.89-1.88-2.84-2.82-.82-.48-1.3-1.25-1.74-2.05-.61-1.92-1.99-3.3-3.34-4.69-1.11-.99-1.41.05-1.85.73-2.9 4.49-7.11 6.74-12.34 7.32-4.82.53-9.53.04-14.19-1.2-1.35-.36-2.75-.65-3.74-1.78-1.69-1.5-3.38-2.99-5.08-4.49.47-.02.89-.12 1.13-.57 2.13-.91 4.33-.38 5.76.96 3.72 3.48 8.3 3.44 12.85 4.07 2.9.4 5.54.34 8.09-1.14.82-.47 1.82-.83 2.11-1.76.98-3.12 3.11-5.78 3.59-9.1.51-3.48.83-6.93-1.54-9.93-.64-.81-1.24-2.09-2.68-1.08-2.88-.47-3.33-2.96-4.24-5.08.47-1.46 1.53-1.01 2.53-.78.63.15 1.42.47 1.66-.39.27-.96-.55-1.3-1.31-1.44-2.59-.5-5.12-.44-7.54.8-.39.2-.9.23-1.31.45-.55.33-1.02.77-1.56 1.1-.58.3-1.16.57-1.82.3-.48-.83-1.42-.7-2.14-1.02-1.65-.75-2.62-.17-3.06 1.52-.25.97-.14 2.06-.86 2.89-.26.09-.51.07-.75-.05-.64-1.21-1.44-2.08-3.03-1.74-.71.15-1.47.06-2.07-.5-.5-1.3.37-1.91 1.28-2.45 3.62-2.12 7.49-3.5 11.71-3.45 1.9.02 3.7.23 5.05-1.51.4-.52 1.3-.1 1.84-.55 4 1.34 8.08 2.3 12.34 2.25 1.17-.01 2.46.33 3.22-1.04.11-.2.47-.42.68-.39 2.47.33 2.47.35 3.58-1.77.21-.4.33-.85.49-1.28.81-.05 1.53.39 2.43.31.66-.06 2.57-2.51 2.46.72-.01.42.76.36 1.19.11 2.35-1.34 4.16-2.82 5.6-5.5 1.45-2.69 2.37-5.14 2.41-8.06.95-.23 1.23.38 1.4 1.12-.02.83-.14 1.67-.11 2.51 0 .93-.21 1.98.2 2.77 1.41 2.71.18 4.19-2.17 5.28-3.46 2.14-7.34 3.59-10.37 6.43-.56.52-1.23.83-2.03.73-4.35-.43-8.77.57-13.11-.76 1.58 3.91 3.29 5.4 7.39 6.44.81.95-.07 1.48-.53 2.11-.86.57-1.54 1.26-1.4 2.42.08.74.41 1.62.95.44.68-1.5 1.08-2.76 3.13-2.92.87-.07.86-1.75 1.43-2.6.59-.87 1.22-1.91 2.39-1.58 1.24.35 1.18 1.66 1.02 2.63-.51 2.98-.3 6.34-3.71 7.99-.43.21-.87.47-.62 1.05.22.53.62 1.14 1.18 1.09 1.38-.13 3.13.38 3.57-1.78.46-2.27 2.07-2.67 4.07-2.28 1.98.59 1.52 2.73 2.51 3.95.6.88 1.15 1.79 1.92 2.54 1.45 1.62 3.39 2.94 3.45 5.45-1.03 2.96-4.68 4.4-7.77 3.09-.86-.36-1.82-1.62-2.68-.33-.88 1.33.22 2.43 1.23 3.01 2.76 1.57 5.53 2.52 9 2.33 5.07-.28 9.33-2.25 13.67-4.36 1.83-.89 3.92-.94 5.73-2.17 3.97-2.69 7.01-5.91 8.73-10.51.85-2.29 3.11-3.91 3.55-6.57.28-1.71 1.42-3.55-1.8-3.29-.52.04-.95-.55-1.24-1.06.46-3.84-1.79-5.92-4.68-7.92-3.26-2.25-7.01-1.53-8.83 1.98-.63 1.23-.25 2.86-1.6 3.76-1.41-.72-1.1-2.08-1.08-3.22.19-10.03 4.7-12.67 13.97-10.18 1.82.49 3.56 1.08 5.47.88 2.57.58 5.24.01 7.8.63 1.38.96.46 1.78-.4 1.96-3.16.67-2.12 2.31-1.11 4.02.28.48.58.97.63 1.55-.26 3.01-.16 6.01.17 9.01.55 1.2-.38 2.67.7 3.77.01.28.07.57.03.84-.17 1.14.51 3.11-.88 3.16-1.67.06-.21-2.06-1.17-2.95-4.74 11.29-14.31 16.99-25.09 21.49-3.63 1.52-7.33 2.68-11.1 3.03-3.24.3-6.6-.92-9.92-1.12-1.59-.13-3.37-1.72-4.86.22z"/><path d="M69.2 72.96c2.02.82 2.15 2.62 1.94 4.33-.14 1.12.03 1.14.88.72 3.17 1.08 4.28 2.96 3.33 5.63-1.77-.51-3.31-.82-2.28 1.98.23.61-.78 1.35.01 2.04-.34 1.77-.97 1.83-3 .25.11.29.37.52.36.79-.06 2.9-2.75 1.35-4.04 2.28-.88.63-2.29-.31-2.11-1.46.43-2.76-1.23-3.04-3.21-3.27-.64-.08-1.26-.36-1.73-.87-.69-1.12-1.03-2.32-.79-3.64.12-.54.35-1.04.57-1.54.62-1.34 1.22-2.35-.2-3.94-1.46-1.63.95-1.78 1.85-2.43 1.25-.11 2.32.52 3.45.88 1.29.41 2.55.65 3.44-.77.42-.47.66-1.23 1.53-.98z" fill="#a29b43"/><path d="M88.97 81.37c-.39-.36-.77-.72-1.16-1.08-.48-1.23-2.03-1.69-2.25-3.11-.04-1.05-.36-2.15.61-2.99.79-.08 1.63-.1 1.66-1.22.19-.2.37-.39.56-.59 1.92.36 3.64 1.04 4.59 2.92.88 2.36 2.92 3.69 5.51 3.52.91-.06 1.81-.42 2.7.08-.25 1.76 1.46.86 2.04 1.48 1.15.49 2.3.25 3.46.05 1.69.21 3.3.72 4.88 1.36.33.34.5.78.67 1.22 1.23 3.15.93 3.34-2.53 3.1-5.13-.36-9.86-2-14.59-3.79-1.72-.65-3.45-1.56-5.37-.62-.31-.01-.57-.12-.78-.33z" fill="#817c38"/><path d="M69.2 72.96l-.99 1.14c-4.23-2.68-5.48-2.67-9.02.04-.97.44-1.96.96-2.41-.62-.46-2.43.2-4.93-.52-7.34 2.35-4.29 6.8-4.45 9.69-.37.32.45.68.95 1.15 1.19 2.96 1.55 3.3 2.44 2.1 5.96z" fill="#57471e"/><path d="M59.62 85.36c1.09.19 2.18.56 3.26.54 1.95-.04 2.94.4 1.98 2.55-.31.69-.35 1.44.46 1.96.71.46 1.3.21 1.69-.35.86-1.26 2.13.18 3.03-.48.27-.85-.36-1.2-.8-1.65-.44-.45-1.08-.78-.92-1.75 1.22-.18 1.65.88 2.3 1.53.86.86 1.67 1.25 2.47-.05 1.25.22 1.92 2.18 3.64 1.16.42-.25 1.09.23 1.25.82.15.54-.42.72-.72 1.04-.97 1.06-2.66.81-3.55 1.99-2.98 1.2-6.15 1.5-9.3 1.68-4.94.29-5.01.14-4.16-4.53.61-.43 1.79.24 1.97-.61.24-1.12-1.05-1.06-1.72-1.46-.76-.62-1.59-1.23-.88-2.39z" fill="#7e7837"/><path d="M75.35 83.65c.49-2.82-1.76-4.03-3.33-5.63 1.44-1.22 2.78-2.11 4.1.24.29.51 1.28.72 2 .86 2.96.57 4.19 2.01 3.97 4.81-.11 1.46-2.1 2.58-3.61 1.96-1.21-.5-2.32-1.18-3.13-2.24z" fill="#413a1a"/><path d="M86.16 74.18c-.08 1.02.42 2.16-.61 2.99-.8-.83-1.84-1.51-1.82-2.87.81-.39 1.63-.18 2.43-.12z" fill="#888684"/><path d="M155.4 17.07c-1.31 3.75-3.1 5-6.37 4.57-.86-.11-1.65-.4-1.36-1.29.78-2.37-1.04-3.47-2.1-5.01-.89-1.29-2.06-2.9.87-3.27 2.82.22 5.65-.19 8.47-.01.17.32.25.74.51.94.6.45 2.16-.03 1.86 1.12-.44 1.68-1.65-.54-2.47.07-.35 1.01.87 1.48.65 2.36.15.14.19.26.12.37-.05.1-.12.15-.18.15z" fill="#968e38"/><path d="M154.91 12.06c-2.82 1.21-5.65 1.58-8.47.01-1.07-2.59 1.28-2.85 2.59-3.27 2.26-.72 4.42.34 6.4 1.41.64.35 1.29 1.18.75 2.11-.06.12-.83-.17-1.27-.26z" fill="#695321"/><path d="M145.13 17.21c-.04.11-.06.2-.09.28-.81 1.9-6.13 2.66-7.5 1.13-1.09-1.21-.06-2.3.14-3.38.18-.98 1.14-.91 2.06-.67 1.51.4 3.11.49 4.46 1.41.46.33.96.58.93 1.23z" fill="#605121"/><path d="M155.4 17.07c.03-.17.05-.35.06-.52 1.52-.4 3.1-.58 4.51-1.36.31-.17.7-.23 1.07-.29 1.41-.23 2.6.5 2.94 1.63.43 1.43-1.54 2.05-2.08 1.98-1.79-.22-3.46.3-5.19.3-1.22 0-1.2-.91-1.31-1.74z" fill="#5d5020"/><path d="M85.57 30.64c.14.07.29.08.44.06.9.7.47 1.46.09 2.21-1.15 1.05-.32 2.84-1.43 3.91-.21.17-.46.25-.73.25-1.01.01-1.41-1.14-2.37-1.29-.29.9.36 2.34-.53 2.58-1.69.46-3.18 1.58-4.99 1.57-.67 0-.92-.49-1.15-1.04-.3-.68.24-1.89-1.09-1.92-1.28-.02-2.06.69-2.43 1.91-.11.35-.31.68-.75.8-1.4-.11.52-4.06-2.56-2.28l-.01.01c-1.95-.02-3.58-.49-3.9-2.8-.14-1.07-.03-2.05 1.39-1.49 1.42.57 2.73.55 3.3-.89.61-1.54-1.61-1.13-1.93-2.16.57-.8 1.41-.83 2.27-.8.56.02 1.45.21 1.62-.16 1.29-2.9 4.38-1.73 6.4-2.96 1.2-.73 2.34-.68 2.98.84 0 .38-.05.79-.36 1.02-1.68 1.23-1.04 2.14.44 2.8.97.43 1.92.99 3.04.97.75-.37 1.5-.76 2.26-1.14z" fill="#b9b259"/><path d="M79.97 27.25c-.05-.08-.09-.17-.15-.24-2.07-2.22-2.66.99-4.06 1.09-1.18.08-2.89-2.38-3.36.82-.19 1.28-1.27 1.14-2.19 1.17-1.1.04-2.2-.45-3.3 0-1.02-.08-1.21-.73-1.03-1.57.44-2.1 4.19-4.44 6.39-4.27 1.89.15 3.89.54 5.69-.38 1.71-.86 2.8.41 4.01 1.07.55.31.92 1.2.55 2.01-.5 1.11-1.32.73-2.11.41-.2.21-.34.17-.44-.11z" fill="#695623"/><path class="st156" d="M68.07 37.41c.31-.62.78-1.21 1.5-.99 1.39.42.38 1.84 1.12 2.86.04-1.66.64-2.77 2.25-2.95 1.33-.15 2.84-.62 2.48 1.79-.22 1.5.64 1.65 1.93 1.18 1.09-.39 1.62-2.1 3.35-1.26.45.22.38-1.06.05-1.55-.46-.69-.86-1.31.04-1.87.97-.6 1.6-.03 1.92.84.3.82 1.02 1.02 1.66 1.37.5.78.74 1.49-.52 1.74-2.9.74-5.95 1.11-8.65 2.3-2.87 1.27-5.5-.59-8.21.06-.07.02-.4-.47-.35-.65.18-.75.86-.55 1.38-.59.82-.06 1.54-.31 1.62-1.23.11-1.18-.88-.93-1.57-1.05z"/><path d="M85.55 32.89c.44-.67.55-1.41.46-2.19 2.88-.12 2.17 2.47 2.97 3.93.66.97 0 1.6-.59 2.25-.73.92-.38 2.7-2.19 2.76-1.37-.54-1.49-1.71-1.45-2.94.89-1.15-.06-2.67.8-3.81z" fill="#423b1c"/><path d="M79.97 27.25c.16 0 .31.03.45.1.96 1.48 1.92 2.96 2.88 4.45-2.2 1.11-4.08-.29-5.2-1.53-1.63-1.83 1.05-2.09 1.87-3.02z" fill="#a69a3e"/><path class="st5" d="M88.39 36.87c.2-.75.39-1.5.59-2.25 1.4-.54 2.57-.45 2.72 1.36.11 1.25.81 1.51 1.84 1.47-.38.56-.76 1.13-1.14 1.69-.99-1.36-2.35-2.08-4.01-2.27z"/><path d="M64.23 36.82c-.76 2.03-1.28.38-1.73-.16-.87-1.04-1.13-2.37-.01-3.22.79-.6.85.59 1.11 1.11.13.25.3.47.45.7.53.46.4 1.01.18 1.57z" fill="#5a4c1f"/><path class="st156" d="M64.23 36.82c-.06-.53-.12-1.05-.17-1.58.03-.2.07-.41.1-.61.76 1.68 2.29 2.3 3.9 2.8-1.55 1.52-2.44-1.13-3.83-.61z"/><path class="st5" d="M84.98 36.86c.16 1.03.63 1.92 1.22 2.77-.92-.04-2.1.49-2.33-1.06.64-.44.57-1.09.52-1.74l.01-.01c.2-.23.4-.21.58.04z"/><path d="M224.89 97.09c-.24-.67-1.68-1.05-.51-2.07 2.34-.42 4.26-2.09 6.69-2.25-1.36 1.84-3.56 2.91-4.58 5.06-.54-.25-1.07-.49-1.6-.74z" fill="#afafa6"/><path d="M113.7 32.88c-1.66 1.47-3.48 1.6-5.38.53-1.08-.6-1.96-.55-3.09.07-2.75 1.51-5.38.22-6.04-2.81-.12-.56-.09-1.5.4-1.44 2.55.28 4.72-2.61 7.39-.83 1.18 1.62 3.09 1.93 4.77 2.65.88.38 2.16.31 1.95 1.83z" fill="#585022"/><path d="M113.7 32.88c-1.02-1.8-3.24-.95-4.66-2.11-.87-.71-1.94-1.07-2.06-2.37l.51.03c3.3 1.12 6.55 2.77 10.15 1.06.72-.98 4.95-1.94 5.72-1.22.78.72.67 1.56-.18 2.13-2.21 1.46-4.29 3.5-7.34 2.15-.78-.36-1.44.12-2.14.33z" fill="#6f652a"/><path d="M123.91 39.57c0-2.2-1.13-3.06-3.23-2.64-5.23 1.06-10.55.24-15.83.92-3.07.4-6.63.24-8.6-3.2 7.81 4.15 15.78 1.67 23.71.53 1.96.6 3.58-1.99 5.62-.59.78 1.4-.46 2.71-.16 4.09-.32.61-.58 1.32-1.51.89z" fill="#5c5126"/><path d="M114.23 19.47c.24-.65-.03-2.25 1.25-1.37 2.02 1.39 4.47 2.26 5.98 4.35.58.81.79 1.67.2 2.58-2.1 1.43-2.46-.76-3.45-1.65-.76-1.88-3.36-1.89-3.98-3.91z" fill="#574b1e"/><path d="M108.06 20.45c-.86 1.32-.5 4.21-3.65 2.7-.27-.13-1.89 1.38-3.04 1.89-.74-.11-1.19-.46-1.12-1.28.18-2.15 5.39-5.19 7.33-4.23.25.13.33.61.48.92z" fill="#5d5322"/><path class="st166" d="M157.15 26.69c-3.14.31-6.27.72-9.44.64-1.66-.05-2.89 1.12-4.03 2.24-.52.95-2.01 1.29-1.72 2.75-.61.61-1.4.76-2.22.8-2.32.12-4.59-.21-6.78-.93-1.27-.42-2.69-.83-2.98-2.5-.58-2.51-.9-5.02.18-7.5 2.11-1.75 4.23-.2 6.04.38 6.17 1.97 12.34 2.63 18.71 1.43.54-.1 1.15-.14 1.67-.01.71.18 1.62.35 1.87 1.1.31.99-1.02.93-1.3 1.6z"/><path d="M153.79 41.93c-.37-.27-.73-.56-1.12-.81-.69-.44-1.73-.67-1.58-1.72.18-1.23 1.32-.64 2.04-.88 1.57-.52 3.11-1.16 4.67-1.74 1.2-.68 2.4-1.39 3.88-1.04.44-.12.89-.22 1.33-.35.57-.16 1.15-.26 1.34.48.19.7-.39 1.72-.66 1.65-3.85-.98-5 3.4-8.04 4-.6.11-1.21.37-1.86.41.01 0 0 0 0 0z" fill="#9c9139"/><path d="M161.68 35.74c-1.21.65-2.39 1.44-3.88 1.04-.85-2.57 2.02-4.37 1.49-7.02.99 1.98 3.84 3.07 2.39 5.98z" fill="#4e411a"/><path class="st166" d="M150.97 32.92c-.31-1.68 2.03-4.34 3.53-3.86 1.77.57.64 2.2.98 3.3-1.29 1.9-2.87 1.46-4.51.56z"/><path d="M139.62 32.43l2.34-.12c-.23 1.65.31 2.98 1.66 3.98-.07 2.29-.05 4.59-.25 6.86-.17 1.85-1.38.04-2.01.43-.48-.72-.72-1.51-.52-2.36.71-3.08-.01-5.96-1.22-8.79z" fill="#766d50"/><path class="st113" d="M214.08 101.81c-.17-2.09 1.35-2.49 2.88-2.9 3.7 2.5 7.69 4.65 9.26 9.34.56 1.67-.23 2.54-1.05 3.72-1.05 1.51-1.76-.58-2.62-.06l.01-.01c-1.74-1.79-4.72-1.67-6.11-3.99-.31-1.13.37-2.43-.56-3.46-.61-.88-1.21-1.76-1.81-2.64z"/><path class="st22" d="M53.42 94.94c-2.05.84-2.66 3.59-6.18 2.82-4.33-.95-8.64 1.39-12.61 3.48-.64.34-.94.88-.97 1.59-.69 1.52-2.34 1.32-3.52 1.96-.82.44-1.72.74-2.35 1.45-.94 1.07-.83 1.73.69 2.09 2.54.61 5.18.31 7.72.9.98.86.11 1.44-.32 2.08-.31.29-.66.5-1.09.52-1.41 0-2.81.02-4.22.01-3.97-.04-4.97-.95-5.36-4.83-.07-.72.14-1.85-.84-1.79-2.72.16-2.4-2.08-3.08-3.55 1.55-2.97 4.64-3.61 7.37-4.59 2.71-.97 5.56-1.57 8.48-1.83 5.51-.48 7.64-2.98 8.38-8.63.09-.78.57-1.33 1.1-1.84 1.09-.85 2.11-1.68 1.77-3.36-.16-.78.3-1.62 1.24-1.47.76.12 1.79.14 2.14 1.1.31.86.46 2.32-.24 2.48-5.2 1.15-1.56 4.32-1.24 6.28.3 1.84 2.03 3.43 3.13 5.13z"/><path class="st36" d="M18.45 86.49c.85-.34 1.46-1.59 2.67-.5.94.85 1.7.03 2.4-.59.14-.85.73-1.49 1.48-1.42 4.62.42 8.82-2.1 13.4-1.87.54.03 1.09.18 1.64-.01.14-1.75-.9-2.88-2.04-3.96-.08-.26-.17-.56-.07-.8.9-2.08.93-4.1-.33-6.05 1.32.35 2.28-.21 3.37-.98.91-.64 2.18-.9 3.41-.72-1.21 1.41-1.32 2.84-.57 4.61.95 2.24 2.63 4.5-.55 6.84-.81.6-.96 2.76-2.56 3.81-.77.5.39 1.52 1.44 1.66.13 1.6-.97 2.13-2.22 2.34-6.58 1.09-13.15 1.26-19.64-.6-.87-.27-1.85-.52-1.83-1.76z"/><path d="M18.45 86.49c2.48 1.63 5.44 1.81 8.18 2.14 4.34.53 8.76.15 13.12-.45 1.16-.16 1.87-.74 2.39-1.69 1.48-.22 2.22-2.08 3.94-1.77.18.02.37.04.55.06-.18.56-.36 1.13-.54 1.69-3.12 3.16-7.12 4.27-11.34 5-4.43.76-8.77.01-13.13-.53-1.18-.15-2.37-.61-3.16-1.65-1.61-1.39-4.53-1.46-4.52-4.48 1.5.56 3 1.12 4.51 1.68z" fill="#524c21"/><path d="M59.62 85.36c-.09.95.75 1.44 1.07 2.2.1.66.08 1.29-.53 1.74-1.43.12-1.15-1.85-2.38-1.99-1.02.99 1.03 2.39-.69 3.38-.67-1.66-3.09-1.94-3.11-4.17 1.06-1.72 1.16-3.71 1.42-5.61.16-1.16-.56-2.74 1.39-2.63 1.77.1 3.09 1 2.29 3.18.18 1.29.36 2.6.54 3.9z" fill="#585126"/><path class="st26" d="M56.78 73.53c.78.82 1.57.73 2.36.02.75-.25 1.31-.07 1.61.72-.63.46-1.25.93-2.08 1.54 3.59.9 2.31 2.72 1 4.54-1.13-1.99-2.63-3.04-5-2.06-.62.26-1.28.3-1.82-.26-.74-.98.26-1.53.56-2.25 1.14-.74 1.01-3.36 3.37-2.25z"/><path class="st36" d="M52.85 78.02c1.76-.03 3.27-1.5 5.36-.18 1.22.77 1.37 1.43 1.46 2.5-.19.37-.39.73-.58 1.1.03-1.12-.3-2.01-1.46-2.43-.52-.19-1.05-.57-1.56-.14-.55.45-.21.96 0 1.5.57 1.47-.72 5.18-2.08 6.14-.04-.08-.1-.17-.1-.25-.14-2.77-.07-5.57-1.04-8.24z"/><path d="M60.16 89.3c.11-.6-.07-1.29.53-1.74 1.47-.87 1.92.41 2.57 1.23.31.39.45.99.07 1.27-1.05.78-2.11.43-3.09-.24 0-.18-.03-.35-.08-.52z" fill="#ac9f4e"/><path class="st36" d="M46.08 84.72c-1.21.83-2.29 1.92-3.94 1.77.7-.64 1.1-1.39 1.3-2.36.16-.81.88-1.59 1.81-1.46 1.21.17.7 1.29.83 2.05z"/><path d="M38.16 77.99c2.43.27 2.07 2.8 3.23 4.11.46.51-.22 1.57-1.18 1.26-3.82-1.25-7.39.19-10.97 1.03-1.25.29-2.25 1.03-3.56.15-.93-.62-1.42.61-2.16.86-3.74-.87-4.46-4.65-6.67-6.99-.08-.08.3-.59.46-.9 3.5 3.01 7.5 2.84 11.71 2.09-.2-1.79-2.83-1.84-2.13-3.82.18-.39.36-.79.54-1.18 1.45-1.94 3.7-2.18 4.79-.04 1.17 2.28 2.63 3.09 4.97 2.9.39-.02.72.24.97.53z" fill="#89833a"/><path class="st174" d="M26.9 75.78c.35 1.2 1.35 1.64 2.35 2.16.66.34 1.17 1.01.92 1.86-.25.84-1.05.42-1.55.62-2.44.97-4.91-.09-7.38.29-1.87.28-2.77-1.89-3.92-3.19-.74-1.1-1.66-1.94-3.08-1.9-.52.01-.98-.07-1.05-.62-.07-.57.48-.67.88-.88 2.26-1.18 4.94-.58 7.2-1.73 1.58 1.6 3.62 2.47 5.63 3.39zM38.16 77.99c-.74 0-1.48-.03-2.21 0-1.74.07-3.66 1-3.68-2.31-.01-1.94-2.69-2.38-4.83-1.08-.25-3.32-.25-3.32-1.94-4.39 2.73-2.12 9.83-1.5 12.11 1.06 3.57 1.96 1.32 4.4.55 6.72z"/><path d="M151.46 160.83c-.01 1.54-1.38 1.89-2.35 2.34-1.6.74-2.86 1.94-4.35 2.83-6.95 3.67-14.23 5.25-22.04 3.42-.69-.16-1.57.01-1.65-1.08 5.72.58 11.3.8 16.8-1.73 3.48-1.6 6.7-3.73 10.34-4.99 1.08-.39 2.11-.78 3.25-.79z" fill="#9f9689"/><path d="M121.08 168.34c6.22 2.17 12.35 1.79 18.35-.8 1.73-.75 3.47-1.32 5.33-1.55 0 .19 0 .37-.01.56-7.39 5.03-15.65 4.55-23.8 3.18-3.12-.52-6.6-1.42-8.9-4.22 3.01.95 6.02 1.89 9.03 2.83z" fill="#b7b1a9"/><path class="st177" d="M50.54 179.1c2.18.43 4.32.96 6.27 2.07 5.59 1.31 11.12 3.06 16.99 2.16.83-.13 1.68-.03 2.45.41.11.11.21.23.32.35-2.02 2.11-4.92 2.07-7.28 1.95-6.16-.3-11.91-2.51-17.41-5.29-.71-.36-1.23-.81-1.34-1.65z"/><path d="M48.34 173.89c-1.25 1.52.44 2.67.5 4.03-2.98-1.1-4.21-3.76-5.62-6.27.01-.94.01-1.87.02-2.81 2.1 1.28 3.1 3.67 5.1 5.05z" fill="#a9a489"/><path class="st177" d="M86.06 174.93c1.38-.4 1.68-1.72 2.36-2.72.35-.2.7-.4 1.05-.61-2.71 5.8-5.72 11.29-12.89 12.49l-.06-.08c-.06-1.27 1.03-1.49 1.82-1.81 2.47-1 4.14-2.82 5.56-4.97.25-.46.7-.75 1.02-1.15.37-.38.76-.76 1.14-1.15z"/><path d="M18.45 89.3c3.77 1.09 7.61 1.65 11.53 1.7 5.12.07 9.96-.91 14.28-3.85.52-.35 1.21-.46 1.82-.67.26 4.88-2.81 9.31-9.32 9.67-5.63.31-10.88 2.11-15.47 5.54-.36-.03-.73-.05-1.09-.08-.27-2.8-3.35-3.04-4.61-5.11-1.5-2.47-1.94-4.33-.25-6.47.86-1.08 2.05-.59 3.11-.73z" fill="#362f1c"/><path d="M59.05 106.79c.05-1.52.32-2.44 1.86-.85 2.51 2.57 3.4 5.38 3.33 9.16-.09 4.56-2.81 7.98-3.66 12.11-.2.97-1.26 1.29-2.01 1.84-3.78 2.76-7.96 1.64-12.03 1.26-3.81-.35-7.48-1-10.36-4.1-1.23-1.33-3.5-1.02-5.31-1.39-1.09-1.94-.24-2.92 1.67-3.38 2.95 1.35 5.96 2.37 9.28 1.58 2.38 2.17 5.3 2.69 8.34 2.37 2-.21 4.02.41 6.03-.63 1.78-.92 3.25-1.75 3.4-3.95.06-.87.63-1.53 1.15-2.2 1.06-1.39 2-2.79.41-4.43-.42-2.41-.91-4.8-2-7.03-.05-.1-.08-.23-.1-.36z" fill="#605d2e"/><path d="M34.79 111.85c.19-.18.37-.36.56-.54 3.92.86 7.35 2.95 11.07 4.29 1.87.67 4.07.6 6.06.12 2.33-.57 4.41-.28 6.41.94.64 1.32-.34 2.21-1.23 1.99-2.43-.59-3 .94-3.66 2.58-.72 2.04-2.11 2.17-3.81 1.3-1.26-.65-2.37-1.51-3.37-2.51-.59-.63-1.3-.56-2.06-.38-1.17.28-2.18-.08-3.11-.79-2.52-1.91-5.31-2.92-8.53-2.45-.65-.79-.74-1.56.11-2.28.86-.54 1.19-1.42 1.56-2.27z" fill="#908634"/><path d="M33.65 116.39c.09-.45.14-1.02.78-.95 1.18.14 2.46.14 3.52.6 3.01 1.3 5.68 3.54 9.26 3.16-1.78 1.45-3.57 2.9-5.66 3.92-1.29-.3-1.49 2.01-2.7 1.33-2.05-1.14-4.87-.64-6.31-3 .09-1.31-2.68-2.62.01-3.93.28-.45.65-.83 1.1-1.13z" fill="#7a7634"/><path d="M33.65 116.39c.04.78-.41 1.07-1.11 1.13-.69-.42-1.58-.7-2.03-1.3-.7-.91-2.47-2.07-1.37-3.03 1-.87 3.1-1.05 4.1.92-.22.82-.35 1.63.41 2.28z" fill="#959690"/><path class="st184" d="M126.69 96.63c-.63-.29-.93-.84-1.25-1.42-1.81-3.27-1.82-3.26 1.76-4.28.57-.16.95-.53 1.2-1.06 1.22-1.86 3.29-2.41 5.11-3.35 2.06-1.43 3.22-3.56 4.45-5.65.58-1.07.99-2.4 1.83-.05 2 5.55 6.25 8.03 11.95 8.52 1.56.13 3.14.47 4.61.98 5.8 2.01 11.49.12 17.16-.56 3.12-.37 6.26-.66 9.36-1.19 1.3-.23 1.21.55.74 1.31-.48.79-1.09 1.49-1.65 2.23.15-1.67-.94-1.83-2.15-1.68-3.65.46-7.36.68-10.85 2-.86.33-1.64.85-2.63.81-1.85-.07-1.5 1.14-1.29 2.26-.37-.01-.75-.02-1.12-.02-3.13-1.74-6.23-3.18-10.08-2.28-1.76.41-3.64-.64-5.31-1.57-1.8-1-3.77-1.41-5.71-.76-2.35.8-4.7 1.15-7.15 1.07-.77.22-1.43.64-2.03 1.17-2.13 1.53-4.09 3.42-6.95 3.52z"/><path d="M56.2 137.76c-.17.38-.34.75-.51 1.13-2.06.56-4.11 1.12-6.17 1.69-2.26-1.47-5.26-.96-7.4-2.77 1.86-1.46 4.02-.47 5.92-.38 2.72.14 5.52-1.23 8.16.33z" fill="#a0977c"/><path class="st48" d="M171.75 80.2c.11 2.3 1.89 2.44 3.39 2.17 2.09-.38 4.13-.8 6.26-.43 1.13.2 2.02-.3 2.57-1.28.65-1.15-.13-1.9-.87-2.63.06-3.02 1.4-.8 2.27-.55-.19 1.73-1.13 3.69 1.44 4.57.66.22.42.77.17 1.14-.67 1-1.29 2.06-2.73 2.11-2.4.08-4.98-.3-7.18.42-4.72 1.55-9.59.79-14.35 1.51-3.89.59-7.87-.64-11.72-1.66-2.14-.56-.78-1.96-.57-3.05 1.62-.83 3.83.07 4.93-1.67.55-.18.01-.5.23-.2-1.71 1.09-2.97.35-4.08-1 .51-.84.85-1.74.24-2.63-.46-.68-1.01-1.63-1.88-1.5-1 .15-.64 1.23-.6 1.9.1 1.79-1.41 3.01-1.23 4.82-2.94-1.28-4.44-5.28-3.13-7.77.23-.44.68-.97 1.04-.73 2.36 1.56 3.64-1.16 5.53-1.32l.01.01c.38.28.62.63.59 1.12.37.94.73 1.88 1.1 2.83.24.49.81.64 1.1 1.07 4.59.57 9.16.89 13.54-1.08 1.12-.5 1.76-.06 1.63 1-.19 1.61 1.08 3.43-.89 4.84-1.12.81.14 1.46.68 1.95.92.83 2.05 1.05 3 .09.75-.75.63-1.39-.5-1.87-.84-.36-.42-1.33-.52-2.03.16-.21.33-.25.53-.15z"/><path d="M187.7 70.81c1.27-.42 2.55-.85 3.82-1.27-.85 1.82-2.49 2.86-3.99 4.03-1.56-1.02-2.08-1.97.17-2.76z" fill="#969276"/><path d="M127.91 32.34c-.65 2.2-.94 4.58-2.9 6.16-.69-1.43.45-2.6.58-3.91.77-.75 1.54-1.5 2.32-2.25z" fill="#6e674c"/><path d="M34.81 129.89c1.89.48 3.78.92 5.66 1.45 5.04 1.41 10.17 1.51 15.16.2 3.87-1.02 7.5-2.85 9.06-7.06.27-.73.65-1.59 1.41-1.54.91.06 1.35.91 1.39 1.85-1.32 3.35-4.06 5.61-6.32 8.24-3.56 2.47-7.5 3.91-11.84 3.86-3.53-.04-7.13.58-10.59-.72-1.51.23-2.52-1.15-3.93-1.23-.78-.5-1.57-1-2.35-1.5.89-1.11-.38-3.65 2.35-3.55z" fill="#393221"/><path d="M222.54 134.33c-4.62 1.24-9.26 2.36-14.08 1.18 5.08-.91 9.81-2.93 14.67-4.55.95.03 1.91.07 2.86.1-.64 1.63-2.71 1.75-3.45 3.27z" fill="#a39e92"/><path d="M38.74 136.17c3.25 0 6.5-.08 9.75.01 4.75.13 8.89-1.57 12.82-4.03 1.96-.6 3.53-1.96 5.4-2.75 1.42-.6 2.76-1.13 4.14.02.39.72.78 1.44 1.17 2.15-2.14-1.38-3.82-.79-5.92.57-2.72 1.76-6.17 2.26-8.7 4.52-.41.36-.8.74-1.19 1.11-4.69.37-9.38.64-14.07.05-1.22-.39-2.6-.42-3.4-1.65z" fill="#8f8460"/><path class="st191" d="M117.13 63.94c.02 3.2 3.08 2.17 4.6 3.3-.05.08-.1.22-.15.22-.26 0-.38.21-.22.26 1.96.62 3.97.9 6.03.67.19.2.39.4.58.61.11.58-.24.92-.72 1-2.79.48-2.01 2.04-1.12 3.63.23.41.53.77.8 1.15.49.7 1.02 1.44.58 2.31-.54 1.06-1.4.52-2.21.32-.69-.17-1.57-.47-1.32.86.33.46.69.89.91 1.41.49 1.17.04 1.58-1.13 1.32-.36-.08-.69-.27-1.03-.42-3.81-1.7-3.81-1.7-6.23 1.92-.31.46-.54.98-1 1.32-1.18.33-1.49-.28-1.5-1.31-.06-3.84-.59-4.44-4.25-4.89-.7-1.07-1.79-1.65-2.82-2.31-.2-.45.16-.95.02-1.32-1.01-2.79.48-3.89 2.87-4.43.14-.13.36-.3.33-.44-.95-3.6 1.27-4.75 4.16-5.37.97-.36 1.93-.61 2.82.19z"/><path d="M109.74 77.42c2.53-1.91 3.56 1.55 5.62 1.6.66.02-.15.9-.14 1.36.02 1.07-1.76 2.27.18 3.23 2.57.67 5.41.4 7.64 2.27.51.42 1.06.06 1.49-.33 1.84-1.85 3.95-3.32 6.16-4.68 3.96 1.02 3.96 1.02 2.83 5.67-1.13 1.99-3.37 2.28-5.11 3.35-2.81-.29-5.7.57-8.45-.57-5.78-1.54-11.54-3.18-17.6-1.56-.97.26-1.86-.18-2.55-.88-.67-.69-1.34-1.31-2.37-1.33-2.01-.64-4.09-1.11-5.93-2.16-.8-.46-2.02-.62-2-1.96.85-1.15 1.83-1.19 3.17-.73 4.46 1.54 8.79 3.53 13.5 4.27 2.03.32 4.08.53 6.4.83-.55-1.42-1.35-2.51-1.11-3.85-.64-1.38-1.58-2.56-2.44-3.8.01-.46.21-.76.71-.73z" fill="#6f6b2d"/><path d="M117.13 63.94c-1-.09-1.95.08-2.85.51-2.01-2.02.03-2.81 1.18-3.87.37-.21.73-.41 1.1-.62 1.14.14 2.07-.26 2.53-1.3.48-1.1-.77-1.29-1.22-1.9-.33-.45-.77-.86-.95-1.36-.34-.92-.97-2.01-.29-2.85.79-.98 1.86-.33 2.79.11.37 2.26 2.13 3.64 3.4 5.32.41.54 1.01.97 1.7.82 2.88-.62 5.57 1.07 8.42.62-.02 1.13.89 1.88 1.37 2.84-1.15.47-1.75-.3-2.47-.6-1.85-.76-3.66-2.67-5.51.02-.3.43-.88.23-1.3.05-2.01-.87-3.84 1.88-6.02.23-.42-.29-1.89.67-1.88 1.98z" fill="#756d2f"/><path d="M123.37 78.54c-.52-.24-1.27-.65-.85-1.16.64-.78 1.67-1.07 2.76-.86.62.12 1.14 1.47 1.81.34.46-.77-.42-1.32-.87-1.9-.34-.44-.65-.92-.94-1.39-1.63-2.61-1.25-3.45 1.74-4.03.34-.06.63-.35.94-.53.56.81 1.24 1.46 2.31 1.01 1.17-.49 1.54-.01 1.51 1.09-.03.95.12 2.01-1.48 1.44-.87-.31-1.86.03-2.15.82-.35.94.69 1.36 1.34 1.86.84 1.55-.72 2.05-1.31 2.98-1.47 1.88-3.24-.41-4.81.33z" fill="#7c752f"/><path d="M127.82 78.02c-.05-1.3 2.02-1.32 1.69-2.79.83-.8 1.11-.23 1.14.53.06 1.7.03 3.4.04 5.1-1.26 2.39-4.01 3.12-5.65 5.08-.76.45-1.57.77-2.26 0-.68-.76-.2-1.58.18-2.31 1.18-2.24 3.69-3.35 4.86-5.61z" fill="#453c1a"/><path d="M141.95 62.25c1.86-.25 2.32.47 1.64 2.2-.79 2.01-2.7 3.32-3.01 5.81-1.41-1.94-2.52-3.51-3.43-5.24-.92-1.73-.7-2.31 1.31-2.27 1.16.03 2.45.48 3.49-.5z" fill="#352f17"/><path d="M151.53 79.64c2.01 1.7 3.96.39 5.97-.29-1.95 2.17-3.68 4.58-7.05 3.16-1.23-1.56-.17-2.25 1.08-2.87z" fill="#8f896d"/><path d="M127.38 68.39c-2.49 1.36-4.75.59-7.18-.92.65-.1 1.08-.16 1.52-.23 1.89.41 3.87.32 5.66 1.15z" fill="#c4b961"/><path d="M125.55 58.23c-2.87-.54-1.71-3.39-2.83-4.94 3.14-2.1 6.32-4.09 10.39-3.29-.71 1.61-1.71 2.92-3.59 3.22-2.86.47-4.29 2.05-3.97 5.01z" fill="#afb0b2"/><path d="M124.87 44.11c5-2.43 10.16-2.76 15.45-1.07-1.93.92-4.38.71-5.79 2.8-.32.47-1.02.43-1.45-.09-1.13-1.38-2.68-.92-4.11-.98-1.43.18-2.91.66-4.1-.66z" fill="#797037"/><path class="st125" d="M144.77 50.98c-2.59-.76-5.28-.09-7.89-.61-.02-.09 0-.21-.05-.27-.85-1.07-3.14-1.89-1.2-3.61 1.56-1.38 3.35-.56 4.69.74.85.82 1.75 1.28 2.89 1.5 1.17.23 2.22.69 1.56 2.25z"/><path d="M171.75 80.2c-.17.02-.34.06-.5.14-1.66-1.33-1.45-2.88-.52-4.51 1.56-1.12 2.48-.11 3.37 1.01.46.52 1.58.73 1.3 1.58-.32.96-1.38.88-2.15.57-1.36-.55-1.28.46-1.5 1.21z" fill="#b6aa5f"/><path d="M174.1 76.84c-1.12-.33-2.08-1.21-3.37-1.01-.56-1.46.49-1.46 1.45-1.88.8-.35 2.14.53 2.45-.97 1.58 1.53-.21 2.59-.53 3.86z" fill="#726229"/><path d="M154.32 77.44c-.49-.23-1.94.53-1.1-1.07 1.4-.38 2.71-1.4 4.83-.63-1.54.69-2.64 1.19-3.73 1.7z" fill="#c7b966"/><path class="st55" d="M152.11 73.54c-.44-.25-.57-.65-.59-1.12.71-.42.8-1.49 1.73-1.69-.13 1.04 1.72 2.88-1.14 2.81z"/><path class="st55" d="M156.6 69.02c-1.78-.79-1.21 2.18-2.77 1.73-.19-.01-.39-.02-.58-.02.69-1.4 1.19-3.18 3.35-1.71z"/><path d="M131.26 124.27c-3.09 1.31-6.36 1.13-9.6 1.14.81-1.45 1.66-2.88 2.43-4.35 1.66-3.21 1.68-3.25 4.08-.67 1.11 1.21 2.06 2.58 3.09 3.88z" fill="#4b493e"/><path d="M127.83 109.68c-.62.21-1.06.21-1.04-.67.02-.92-.07-1.85-.11-2.78-.5-1.91-.14-3.85-.22-5.77-.05-1.08-.29-2.35 1.13-2.79 1.47-.45 2.97-1.87 4.5-.08 0 2.58-1.67 4.39-2.98 6.37-.34 1.1-.9 2.15-.68 3.37-.47.72-.61 1.52-.6 2.35z" fill="#9799a0"/><path d="M166.88 127.67c.16.02.31.04.47.05-2.29 7.22-6.79 7.16-12.5 6.74-.61-.29-1.09-.69-1.29-1.49 1.72-.75 3.72.34 5.36-.74 3.41-.21 5.5-2.7 7.96-4.56z" fill="#8d8067"/><path d="M56.8 156.98c-.04 1.06 1.2 1.64 1.03 2.74-1.64 1.76-3.81 1.12-5.8 1.27-1.02.08-2.05.05-3.08.07-.17-.22-.33-.44-.5-.67.17-.95-.37-2.02.43-2.88 2.59-.95 5.15-2.28 7.92-.53z" fill="#e1e0d9"/><path d="M78.58 152.4c-.49.39-.98.79-1.46 1.18-1.8 0-3.41.88-5.21 1.09-1.36.16-2.1.01-2.81-.96-.81-1.09.5-1.34.76-1.99.86-2.16 1.51.13 2.23.01.15-.03.28-.21.42-.33.6-.39 1.21-.77 1.81-1.16h-.02c2.18-.79 2.97 1.19 4.28 2.16z" fill="#f6ee95"/><path d="M74.81 164.91c-.97-.85-2.43-.16-3.37-1.1.13-1.99.92-2.75 2.81-1.56.31.2.66.33.96.54.73.54 2.44.19 2.08 1.61-.25 1-1.63.31-2.48.51z" fill="#f7e98a"/><path d="M84.43 177.28c-.97 2.41-2.78 4.01-5.05 5.13-.98.49-2.07.79-2.87 1.6-4.64.74-9.27.41-13.81-.63-2.01-.46-4.13-.93-5.89-2.21.74.02 1.48.04 2.22.07.76.18 1.52.36 2.27.55 5.82.95 11.51-.25 17.21-1.07 1.2-.17 2.12-1.13 3.06-1.94.83-.71 1.54-1.72 2.86-1.5z" fill="#b2aa9f"/><path class="st91" d="M84.43 177.28c-.51.41-1.1.74-1.51 1.23-2.73 3.33-6.3 3.64-10.31 3.48-2.76-.11-5.57.51-8.38.36-.99-.05-2.09.34-2.93-.57 5.81.37 11.46-.4 17-2.26 2.41-.81 4.05-2.97 6.6-3.44-.15.41-.31.81-.47 1.2z"/><path d="M74.31 150.24c-.62-.18-1.24-.42-1.87-.54-3.2-.6-3.96-1.93-2.82-4.92.62-1.63 1.47-2.43 3.03-.97.58.55 1.24.93 2.02.69 1.73-.52 2.38.66 2.91 1.85.45 1.02.66 2.14 1.77 2.73.47.25 1.12.55.59 1.24-.44.57-1 .22-1.51-.02-1.37-.64-2.74-1.24-4.14-.06h.02z" fill="#65542b"/><path d="M56.8 156.98c-2.68-.38-5.26.54-7.91.55 2.17-3.22 5.37-2.5 8.46-2.22-.03.6.06 1.25-.55 1.67z" fill="#c0bdac"/><path class="st2" d="M222.63 70.74c.66-1.41 1.93-1.67 3.29-1.76-1.07.65-1.56 2.36-3.29 1.76z"/><path d="M218.04 67.82c.94-1.7 2.07-2.6 3.83-.94-1.22 2.64-2.34 2.91-3.83.94z" fill="#c3b876"/><path d="M120.52 135.53c-1.58-3.16-1.55-3.08 1.83-4.3 2.66-.96 5.04-2.99 8.13-2.2 1.7.43 3.3 1.21 5.13 1.14 2.93-.12 4.15 1.72 4.67 4.29-.37 1.62-2.03 1.39-3.02 2.12-1.28.36-2.57.34-3.87.16-1.51-.25-2.01-1.82-3.4-2.57.04 2.78-2.24 3.16-4.04 4.07-2.3.08-3.76-1.53-5.43-2.71z" fill="#3f381a"/><path d="M126.07 137.68c.77-.5 1.48-1.14 2.31-1.46 1.07-.41 1.3-.87.63-1.8-.33-.46-.58-1.02.13-1.39.62-.32 1.06.11 1.44.51.82.87 1.61 1.76 2.42 2.65.39.47.92.9.49 1.62-.06.48-.2.89-.72 1.08-2.07.76-1.67 1.41.1 2.02.43.15.85.4 1.21.68.42.33 1 .69.8 1.34-.22.7-.92.48-1.44.51-.37.02-.81.06-1.1-.11-3.05-1.77-3.93-1.23-2.41 2.15.33.72.04 1.32-.95 1.06-.09-.02-.18-.05-.26-.09-3.92-1.76-6.64-.3-8.61 3.19-.13-1.47.95-2.96-.1-4.4.67-.66.45-1.53.53-2.33.64-.41.5-1.09.57-1.7 1.16-1.86 2.75-3.13 4.96-3.53z" fill="#a29c3f"/><path d="M147 146.25c.13.9-.78 1.13-1.12 1.73-.55.36-1.1.73-1.64 1.09-1.51-.45-3.11-.93-3.4-2.75-.3-1.88.49-3.26 2.16-4.4 1.37-.94 2.99-2 2.89-4.11.12.13.38.3.35.39-.75 2.78-.46 5.45.76 8.05z" fill="#715f2b"/><path d="M137.44 136.14c.38-1.52 2.13-.74 2.85-1.69 2.28-.86 4.23.75 6.49.61-.04 1.19-1.81 1.56-.9 2.76-.37.02-.87-.12-1.07.07-2.28 2.12-4.52 2.52-6.79.02-.01-.65-1.07-.95-.58-1.77z" fill="#726b2e"/><path d="M126.07 137.68c-1.97.74-2.92 2.92-4.98 3.52-1.26-1.78-2.62-3.56-.56-5.67 2.2-.21 3.28 2.49 5.54 2.15z" fill="#7d7b32"/><path d="M111.04 154.04c1.8.35 3.49.11 5.05-.91 1.75 1.7 3.28 1.48 5.51.36 4.77-2.38 9.83-3.1 14.71.08-3.23.61-6.09-1.63-9.34-1.15-1.56.23-3.18.44-3.85 1.86-1.16 2.48-3.55 2.96-5.63 3.67-1.84.62-3.93.33-5.05-1.87-.38-.73-.93-1.37-1.4-2.04z" fill="#777330"/><path d="M137.44 136.14c.05.64 1.31.87.58 1.76-1.51-.03-3.02-.07-4.53-.1-.16-.54-.32-1.08-.49-1.62 1.48-.01 2.96-.02 4.44-.04z" fill="#6d6652"/><path d="M195.54 98.4c.51-.27.52-.78.6-1.26 2.11-.66 2.07 1.55 3.56 2.03-1.31 1.06-2.15-.06-3 .27-.37-.36-1.38-.02-1.16-1.04z" fill="#9b8030"/><path d="M195.54 98.4c.39.35.77.7 1.16 1.04-.2.19-.4.37-.6.56-1.25-.62-2.77 1.32-3.91-.41.98-.78 2.03-1.37 3.35-1.19z" fill="#c0ad64"/><path class="st12" d="M216.44 107.91c1.99 1.4 4.78 1.58 6.11 3.99-1.51.19-2.45-1.55-4.02-1.16-1.25-.53-2.62-.97-2.09-2.83z"/><path class="st114" d="M201.13 112.42c1.04-1.17 1.14.51 1.77.58.16.66.9 1.78.1 1.88-1.53.21-1.5-1.41-1.87-2.46z"/><path d="M115.45 60.58c-.26 1.33-2.27 2.13-1.18 3.87-1.18.62-2.27 1.5-3.72 1-.31 1.67 2.01 3.26-.28 4.57-3.55-.14-6.45 2.34-9.94 2.48-2.93.12-5.36 1.78-8.03 2.71-1.31-.95-2.62-1.89-3.93-2.84 2.38-2.15 4.96-3.64 8.31-4.02 3.45-.39 6.79-2.1 9.14-4.39 2.91-2.81 6.05-3.34 9.63-3.38z" fill="#585627"/><path d="M96.25 56.65c-1.17-.17-2.52-.05-2.82-1.68 1.36.04.47-1.03.76-1.47.85-1.32 2.04-.92 3.18-.37.52.63 1.05 1.26 1.57 1.89-.24 1.61-2.01.72-2.69 1.63z" fill="#d0c478"/><path class="st225" d="M161.14 120.37c-2.22-.08-4.15-.03-6.17 1.62-3.22 2.64-9.22-.67-9.68-5.01.05-.12.09-.24.14-.37.51-.56 1.16-.77 1.68-.19.95 1.06 1.4.12 1.98-.38.39-.28.86-.59 1.3-.42 2.86 1.07 5.65.2 8.19-.75 2.61-.98 4.94-.52 7.4.01.24.16.4.37.5.64-.98 3.52-2.85 5.22-5.34 4.85z"/><path class="st18" d="M135.19 91.54c5.09.02 10.16-3.65 15.35.22 1.3.97 3.36 1.19 5.36.57 3.38-1.05 5.81.95 8.04 3.17-2.11-.01-4.2.6-6.31-.42-1.17-.56-1.64.42-1.59 1.55.13.89-.51.87-1.08.93-.37-.04-.76-.08-1.06-.28-2.72-1.88-5.79-2.53-9.02-2.65-.99-2.83-1.57-3.11-4.17-1.78-2.26 1.16-3.9.03-5.52-1.31z"/><path d="M129.11 103.97c.28-2.18 1.49-3.9 2.76-5.6.26-.33.61-.47 1.01-.52 2.7-1.43 3.88.25 4.86 2.35.53.24 1.27.06 1.59.74.1 1.11-.74 1.41-1.52 1.73-3.14 1.26-3.15 1.25-1.3 3.83-.29 2.1 1.99 2.48 2.63 3.96.02.05-.07.16-.12.22-.11.13-.28.15-.48.06-1.16.06-2.33.25-3.47.16-1.86-.15-1.72-.86-1.96-2.88-.23-1.92-2.09-3.25-4-4.05z" fill="#696533"/><path d="M160.54 98.88c1.5.71 3.18 1.24 2.96 3.46-.03.32.18.82.44.99 1.99 1.3 3.02 3.29 3.99 5.34.03.06-.03.21-.08.23-.17.07-.35.1-.53.15-1.2 1.18-2.63 1.4-4.2.98-1.22-.73-1.7-1.84-1.66-3.22-.03-.35.01-.84-.35-.95-1.26-.38-2.13-.84-1.53-2.44.26-.69-.59-.75-1.05-.98-1.62-1.94-.99-3.05 2.01-3.56z" fill="#49411c"/><path d="M138.54 110.74c-.02-1.11-1.14-1.01-1.7-1.53-.73-.69-1.67-1.32-.53-2.41 1.26-1.05 2.7-1.35 4.29-.99 1.23 1.41 2.32 2.91 4.67 2.29.85-.22 1.72.69 1.94 1.68.26 1.19-.68 1.62-1.54 1.97-.77.32-1.6.49-2.24 1.06-.99.64-2.05 1.09-3.24 1.21-.98-.09-1.79-.38-1.68-1.61.01-.54.02-1.1.03-1.67z" fill="#b2a352"/><path d="M160.54 98.88c-.79.98-3.7.92-1.63 3.32-1.18.66-5.88.52-6.54-.27-.97-1.16.58-2.01.48-3.09.33-.98.79-1.79 2.03-1.67.48.04.9-.07 1.17-.53 2.08-.45 3.63.2 4.49 2.24z" fill="#6c672c"/><path d="M162.77 109.62c1.57.3 3.01-.54 4.54-.56.55.73.42 1.81 1.35 2.36 2.03 1.2 1.54 2.77.69 4.44-1.12-.79 1.13-2.43-.78-2.78-1.51-.27-1.85.89-1.83 2.15-.13.19-.3.21-.49.1l-.11-.15c-.85-1.22-2.06-1.76-3.5-1.99-.84-.13-2.14-.07-2.08-1.29.06-1.19.65-2.33 2.21-2.28z" fill="#716b2f"/><path d="M166.26 115.33c.16-.04.32-.08.49-.1 2.31.27 1.49 1.8 1.01 2.9-1.51 3.46-5.88 4.87-9.68 3.16.92-.85 2.32.09 3.07-.92 3.07-.28 3.63-3.13 5.11-5.04z" fill="#3f381b"/><path class="st225" d="M138.51 112.43c.35.72.88 1.18 1.73 1.15 1.86-.17 2.44 2.16 4.22 2.15.48.24.98.47.92 1.14l-.08.12c-.74 0-1.52-.21-2.12.42-.46.48-1.33.62-1.34.05-.04-2.29-1.76-2.09-3.18-2.65-.94-.36-.94-1.53-.15-2.38z"/><path d="M97.4 84.8c.55.09 1.4-.01 1.59.3 1.53 2.51 3.75 1.63 5.89 1.41 4.23-.44 8.31.72 12.44 1.31.95.14 1.96.63 2.63 1.49-1.79.62-3.42.01-5.11-.55-3.46-1.16-6.82-1.67-10.39.23-2.52 1.34-1.94 3.85-2.82 5.69-.84 1.76-.82 4.35.25 6.47.93.8 1.18 1.97 1.64 3.02.24 1 .32 1.99-.14 2.96-1.44 1.14-2.24.01-2.26-1.05-.05-2.34-1.45-4.37-1.24-6.85-.81.46-1.47 1.2-2.46.94-.9-.71-.49-2.15-1.55-2.76-3.77.08-7.06 1.26-9.83 3.89-1.15 1.09-2.43.95-3.39-.31-.7-.91-2.33-1.78-.56-3.17.39-.32.86-.48 1.89-.75-1.09.21-1.54.48-1.97.8-1.24 1.28-4.26 1.23-4.14 2.88.15 1.92 1.7 3.87 3.1 5.53.69.69 2.03.85 1.85 2.25-.79.85-1.97.2-2.81.59-.4 1.11.97 1.75.45 2.75-1.97-.16-3.58.02-3.49 2.69.03.78-.74 1.85-1.67 1.39-1.28-.64-2.98 2.33-3.86-.58-.19-.63-.86-1.13-1.51-1.93 5.28-.92 4.9-5.18 5.43-8.89.07-.51.18-1.24-.54-1.41-.63-.15-1.06.38-1.32.85-.44.81-.71 1.72-1.13 2.55-.46.92-.42 2.87-2.3 1.24-.37-.32-.7-.02-.8.38-.09.36-.06.75-.12 1.12-.2 1.23-.83 2.33-2.14 2.12-1.33-.21-.38-1.55-.65-2.33.91-.51.96-1.66 1.7-2.3.36-.58.72-1.15 1.08-1.73.77-3.07 2.65-5.12 5.64-6.16 3.64-2.97 7.64-5.34 11.9-7.31 1.41-.47 2.8-1.01 4.27-1.25.9-.15 1.32-.6 1.19-1.53.79-1.43 2.37-1.57 3.66-2.11.95-.4 1.55-.84 1.6-1.88z" fill="#605d2c"/><path d="M117.11 103.39c.68.11 1.09 1.35 1.93.59 2.34-2.11 2.21-.09 1.99 1.28-.44 2.8-.71 5.73-3.1 7.8-.63.54-1.43 1.13-1.31 2.06.25 1.98-1.25 2.93-2.17 4.31-3.27 4.94-8.42 6.62-13.43 9.03-4.64 2.23-9.37 3.08-14.23 3.95-2.42.43-8.23-2.2-9.57-4.29-.54-.84-1.12-1.72-.24-2.5.77-.68 1.56-1.22 2.92-.37 3.18 1.98 6.79.87 7.91-2.08 1.56 1.33 1.55 2.99.02 4.15-.66.5-1.58.4-2.13 1.19 3.69-1.59 7.81-1.12 11.52-2.63 1.79-.73 2.97-1.82 3.28-3.76.16-.22.36-.38.6-.5.93-.44 2.43-.12 2.58-1.6.15-1.38-1.27-1.61-2.07-2.29-.96-.81-2.7-1.16-1.96-3.07 2.07-.53 3.96 1.28 6.05.47 2.07.12 3.52-.88 4.69-2.49 1.09-1.52 2.31-2.95 4.11-3.66 1.63-.64 1.68-1.77 1.17-3.16-.06-.27-.07-.54-.05-.81.24-.79.33-1.71 1.49-1.62z" fill="#64622a"/><path d="M59.02 116.9c-4.02-1.21-8.08.14-12.06-.19-2.22-.18-4.37-1.79-6.45-2.94-1.15-.64-2.07-1.44-3.56-.9-1.26.46-1.61-.49-1.6-1.58.18-.64 1.02-.93.94-1.71-.01-1.95-.28-4.04 2.49-4.42.17-.04.33-.1.49-.16 1.65-.35 3.29-.7 4.58-1.9.56-.45.88-1.2 1.65-1.4.49-.28.96-.6 1.57-.42 1.33 1.46.77 3.7 2.15 5.14 1.64 2.01 1.78 5.05 4.38 6.4 1.67.22 3.22 1.52 5.02.54.81.1 1.23.61 1.46 1.35.12.96.01 1.81-1.06 2.19z" fill="#a29d48"/><path d="M117.11 103.39c-.38.57-.76 1.14-1.13 1.71-.29.23-.64.51-.99.42-3.92-1-7.94-1.25-11.96-1.54-.86-.75-1.11-1.75-1.15-2.83-.46-2.56 1.03-4.49 2.2-6.47.75-1.26 6.2-1.55 7.45-.53.72.59 1.33 1.45 2.15 1.78 3.56 1.44 4.34 4.04 3.43 7.46z" fill="#322d18"/><path d="M100.78 122.04c-.02 2.83-2.79 5.63-6.41 5.49-3.26-.12-5.95 1.63-9.05 1.82-.48.03-.99.73-1.32-.09-.24-.59.15-1.09.67-1.39.48-.28.99-.6 1.52-.68 2.83-.45 2.53-2.1 1.62-4.02-.14-2.36-2.38-3.32-3.38-5.11 2.55-.81 4.97-2.48 7.82-.6 1.11.73 2.38-1.01 3.71-.37.25.1.47.26.67.45.43.5.8 1.04 1.12 1.61.36 1.64 1.93 2.01 3.03 2.89z" fill="#7a7831"/><path d="M48.89 106.8c-1.82-1.44-1.69-3.52-1.82-5.51l1.27-1.27c2.5-.41 5.13-1.36 6.75 1.71 1.35 1.66 1.84 4 3.95 5.08.82 1.22.98 2.58-.08 3.6-1.2 1.16-2.3-.03-3.21-.71-1.24-.92-2.51-1.63-4.08-1.7-.95-.35-2.14-.14-2.78-1.2z" fill="#3c361e"/><path d="M96.2 117.49c-.55.04-1.3-.14-1.63.15-1.41 1.23-2.55 1.69-3.79-.26-.4-.63-1.36-.47-2.05-.03-1.34.85-2.84.73-4.32.71-1-.42-1.2-1.43-1.65-2.25-.77-1.24.05-1.93 1.02-1.88 2.64.14 1.84-1.05 1.03-2.3-.65-1-.72-1.73.69-1.97.47-.03.96 0 1.35.25 1.62 1.04 2.73.66 3.45-1.1.15-.36.52-.49.93-.41.44.43.45.98.49 1.54.15 2.49 1.37 3.16 3.58 1.96 1.12-.61 1.91-1.82 3.32-1.93.65.16.81.62.75 1.21-.25.82-.75 1.56-1.41 1.97-1.69 1.05-2.03 2.54-1.76 4.34z" fill="#978f40"/><path d="M38.78 105.17c-2.24.68-1.17 3.23-2.49 4.42-2.91.28-5.76-.29-8.63-.54-1.78-.16-2.04-.98-1.24-2.43 1.12-2.02 3.27-2.33 5.12-3.14.67-.29 1.41-.43 2.12-.64.73-.02 1.51.12 2.18-.1 2.35-.76 3.01.35 2.94 2.43z" fill="#423b25"/><path d="M74.8 98.87c-2.25 1.71-4.08 3.81-5.64 6.16-4.31.18-6.66-1.71-8.64-7.18 2.64.17 5.15.41 7.67.46 1.85.03 3.72.32 5.55-.27.74-.25 1 .18 1.06.83z" fill="#322a17"/><path d="M97.4 84.8c.62.87 1.27 1.65-.42 2.16-1.59.48-3.1 1.18-4.65 1.79-1.46.95-1.97-.12-2.52-1.16-.66-1.25-.64-2.74-1.42-3.95.07-.79-.25-1.68.59-2.27.18.03.35.04.53.05 2.35 1.76 5.17 2.46 7.89 3.38z" fill="#493b1b"/><path d="M132.93 98.33c-.35.01-.71.03-1.06.04-.11-1.18-.93-1.55-1.68-.86-1.07.97-3.48-.05-3.49 2.38-.01 2.12-.01 4.23-.02 6.35-.71-3.2-1.08-6.4.01-9.6 2.27-1.32 4.55-2.65 6.82-3.97.96-.61 1.95-1.33 2.89-.04.87 1.2.44 2.36-.51 3.23-.94.86-1.76 1.9-2.96 2.47z" fill="#5e5a4e"/><path d="M85.59 110.06c-1.45.26-.84.91-.17 1.34 1.1.72 1.65 1.42.6 2.61-.61.69-.78 2.28-2.1.43-.37-.52-1.05.61-1.14 1.37-2-.6-.34-3.32-2.29-3.95-.21-.3-.38-.63-.63-.89-.64-.68-1.4-1.4-.91-2.39.64-1.3 1.59-.1 2.4-.13.46-.01.92.02 1.38.04 1.32-.17 2.34.24 2.86 1.57z" fill="#6d682c"/><path d="M70.84 129.42c-2.88-.62-4.91 1.3-7.19 2.43-.8.4-1.4 1.42-2.35.3l6.18-7.35c1.74 1.09 2.92 2.58 3.36 4.62z" fill="#716145"/><path class="st22" d="M55.1 101.72c-2.01-1.51-4.28-1.98-6.75-1.71 2.99-2.2 6.39-2.08 9.79-1.6 1.3.18 2.28.99 1.81 2.55-.46 1.53-1.46 1.4-2.62.76-.72-.39-1.5-.96-2.23 0z"/><path d="M44.45 103.44c-1.5 1.27-3.03 2.42-5.18 1.57.13-1.27.21-2.55.4-3.82.28-1.87 2.08-1.07 3.12-1.58.87-.43.59.5.48.99.79.77.76 1.9 1.18 2.84z" fill="#6c6a32"/><path class="st6" d="M88.38 83.64c1.33.7 1.49 2.08 1.92 3.3.35.99.61 2.03 2.02 1.81.98.92 1.12 1.85-.38 2.17-1.71.37-3.49.44-5.24.64 1.87-1.15 3.73-2.19 1.79-4.88-.5-.68-.1-2.01-.11-3.04z"/><path class="st22" d="M44.45 103.44c-1.85-.34-.97-1.82-1.18-2.84.77.33 2.44-1.18 2.24 1.11-.36.57-.71 1.15-1.06 1.73z"/><path d="M68.08 106.76c-.42.87.5 2.74-1.7 2.3-.06-1.24.16-2.26 1.7-2.3z" fill="#78756b"/><path d="M60.75 74.26c-.54-.24-1.07-.48-1.61-.72 2.47-3.24 6.74-2.98 9.07.55-.34 2.86-2.41 1.67-3.83 1.48-1.25-.16-2.42-.85-3.63-1.31z" fill="#908f88"/><path d="M92.31 75.21c2.27-3.2 6.05-2.88 9.23-3.79 1.77-.51 3.57-.72 5.27-1.61 1-.52 2.35-.59 3.46.2-.22.18-.43.5-.65.5-2.45.05-2.96 1.09-1.77 3.18.48.85-.66.96-.84 1.53-.22 3.05-2.58 3.61-4.91 4.22-.28.03-.55-.04-.79-.19-2.1-.25-4.1.84-6.39-.41-1.71-.95-2.58-1.8-2.61-3.63z" fill="#49411b"/><path d="M102.04 79.11c1.95-.92 3.98-1.74 4.98-3.88 1.48.02 2.85.18 2.72 2.19-.18.19-.36.38-.55.58-.25.45-.3 1.48-.75 1.27-1.86-.85-1.51.86-2.02 1.56-1.08.92-2.22.77-3.38.17 1.51-1.61-1.1-1.03-1-1.89z" fill="#b5a660"/><path class="st191" d="M106.42 80.83c-1.18-1.7.67-2.38 1.2-3.98.2 1.43.11 3.13 1.57 1.15 1.66.8 2.62 1.99 2.25 3.94-1.85.46-3.34-.73-5.02-1.11z"/><path d="M102.04 79.11c1.21.01 2.44-.03 2.91 1.61-.66.1-1.29.19-1.91.28-.54-.61-2.5.17-1.72-1.74l.72-.15z" fill="#ada596"/><path class="st156" d="M84.98 36.86c-.2-.01-.39-.02-.59-.03 1.12-1.1-.77-3.08 1.16-3.94-.01 1.35.28 2.74-.57 3.97z"/><path d="M41.54 123.12c1.37-2.05 3.35-3.23 5.66-3.92.81 1.32 2.13 2.05 3.4 2.81 1.38.84 2.5.76 2.82-1.15 2.51-1.16 4.73-3.36 7.89-2.22-.44 1.18-1.24 2.15-1.23 3.59.01 1.43-4.32 4.58-5.95 4.12-2.77-.77-5.55.45-8.24-.41-1.71-.53-3.74-.61-4.35-2.82z" fill="#5a4a1e"/><path class="st143" d="M51.17 107.35c1.62-.11 3.1.14 4.39 1.27.86.75 1.85 2.08 2.94 1.53 1.15-.59.39-2.2.55-3.35 2.26 1.97 2.57 4.55 2.26 7.32-.36.73-.83 1.14-1.63.56-.35-.37-.7-.74-1.05-1.12-2.2-.84-2.94-3.58-5.38-4.11-.92-.49-2.25-.55-2.08-2.1z"/><path d="M59.67 114.67c.54-.19 1.09-.37 1.63-.56 2.16 1.15 2.16 2.08 0 4.53-1.29-.07-2.46.06-3.63.85-1.23.83-2.71 1.33-4.27 1.38 1.05-1.21.6-4.44 3.83-2.73 1.04.55 1.37-.56 1.78-1.24.48-.67.75-1.4.66-2.23z" fill="#726d30"/><path class="st253" d="M132.93 98.33c.47-1 .96-1.92 2.03-2.5 1.04-.56 1.67-1.52 1.17-2.76-.61-1.49-1.73-.32-2.62-.41.3-.76.9-1.08 1.68-1.13 2.17.39 4.33 2.45 6.55-.21.35-.42 2.23.02 3.11.55 1.02.6.25 1.67-.09 2.52-.09.59-.44 1.08-.93 1.29-2.7 1.16-4.5 3.34-6.38 5.44-.24-.27-.58-.51-.7-.82-.54-1.48-.79-3.4-3.08-1.65-.1.08-.48-.21-.74-.32z"/><path class="st55" d="M127.82 78.02c.27 1.57-.92 2.32-1.8 3.24-.76.8-1.61 1.53-2.29 2.39-1.36 1.73-.72 2.43 1.31 2.29-.44.82-1.2 1.52-1.98.87-2.05-1.7-4.37-2.18-6.92-2.14-.47.01-.63-.6-.73-1.06.03-.19.03-.38.1-.55.69-1.78 1.88-3.3 3.22-4.53 2.02-1.85 2.62 1.71 4.39 1.49.41-.05.9.49 1.52.86-.08-1.18-.76-1.7-1.25-2.33.29-1.4 1.27-1.35 2-.65.88.86 1.59.6 2.43.12z"/><path d="M145.37 116.87c-.38-.18-.75-.36-1.13-.54-1.03-1.31 1.02-1.58.77-2.87-.28-.63-1.49-.25-1.94-1.04.39-.92 1.2-1 2.05-1.19.72-.16 1.93-.24 1.55-1.45-.3-.94-1.39-1.71-2.22-1.2-3.05 1.88-3.04-.63-3.65-2.33.77-.82.27-1.49-.27-2.14-.94-1.11-1.29-2.37-1.04-3.81.88-2.05 2.9-1.31 4.4-1.82 2.61 0 5.11-1.81 7.81-.44.49.25 1.04.39 1.49.74 1.58 1.29-1.11 1.65-.45 2.85 2.01-.32 3.97 1.19 6.17.56.59.08 1.27-.82 1.76-.01.64 1.08-.94 1.67-.72 2.92 1.36-.36 2.94-.71 2.18 1.68-1.94 1.02-4.33 1.31-5.57 3.51-.31.54-1.15.57-1.77.79-2.22.79-5.58.3-4.88 4.38.04.23-.4.6-.59.92-.77 1.13-1.35 3.97-2.67.29-.05-.07-.84.13-1.28.2z" fill="#a29a44"/><path d="M149.31 116.39c.11-.45.27-.89.33-1.34.39-2.68 1.04-3.45 3.69-4.27 1.54-.47 2.96-.78 3.96-2.5.9-1.56 3.03-1.54 4.83-1.5-.58 1.13.86 1.79.66 2.83-1.04.46-1.24 1.54-1.81 2.35 1.55 1.41 5.24-.71 5.18 3.21-.66.02-1.46.29-1.95.01-2.58-1.47-5 .21-7.18.78-2.26.59-4.2.96-6.39.26-.38-.12-.88.11-1.32.17z" fill="#908935"/><path class="st184" d="M153.19 98.79c-3-.67-5.98-.27-8.96.14-1.48.82-3.69-.72-4.76 1.45-.11.08-.23.15-.34.23-.56.17-1.11.35-1.67.52.93-3.89 4.42-4.98 7.31-6.73 3.99-1.34 6.99.94 10.11 2.77-.57.53-1.13 1.08-1.69 1.62z"/><path d="M139.72 100.65c.07 1.55 1.06 2.62 1.88 3.81.64.93 1.02 1.89-.8 1.79-1.5.19-2.99.37-4.49.56-.5-.41-1-.81-1.49-1.24-.69-.62-.95-1.4-.62-2.27.3-.82 1.02-.98 1.82-1.01 1.3-.04 2.69.03 3.1-1.68l-.01-.05c.25-.21.45-.19.61.09z" fill="#7d7831"/><path d="M143.07 112.41c.55.01 1.11 0 1.66.03.63.03 1.36-.08 1.6.74.26.88-.21 1.39-.94 1.76-.58.3-1.19.58-1.16 1.39-2.14.26-2.43-2.18-4.01-2.75.96-.39 1.91-.78 2.85-1.17z" fill="#9b863a"/><path d="M85.59 110.06c-.96-.52-1.91-1.05-2.87-1.57-.27-1.2-1.68-.89-2.24-1.7-.46-1.02-.73-2.11-1.5-2.98-.38-.43-.66-.99-.18-1.51.44-.47 1.07-.41 1.57-.15 4.77 2.48 8.4.65 11.75-2.88 1.1-1.16 2.4-2.33 4.14-2.63 1.58.72.99 2.18 1.15 3.38.36 1.21-.81 1.74-1.15 2.64-.72 1.62-2.13 2.76-3 4.28-.49.76-.98 1.54-2.04 1.56-.14.11-.38.21-.4.34-.64 3.06-2.16 3.39-4.45 1.47-.2-.15-.52-.17-.78-.25z" fill="#403b1a"/><path class="st143" d="M96.26 96.64c-2.3 1.99-4.49 4.11-6.92 5.92-2.76 2.05-5.79 2.12-8.81.34-.38-.22-.82-.33-1.59-.64.21 1.83 1.87 2.89 1.53 4.53-1.77-1.76-1.98-4.62-4.45-6.11 1.9-1.5 3.81-2.62 6.14-2.91-1 1.79.73 2.46 1.53 3.38.95 1.09 1.59-.16 2.27-.67 1.54-1.15 3.49-1.82 4.4-3.73.1-.21.43-.32.66-.47 1.58 2.74 3.54-.38 5.24.36z"/><path d="M95.74 102.31c.56-.76 1.11-1.53 1.67-2.29 1.3-.48 2.34-1.27 2.99-2.76-.89 3.22 1.75 5.7 1.21 8.68-.12.65.51 1.4 1.45 1.4.26-.18.52-.17.77.03.49.54.76 1.16.6 1.91-.58 1.05-1.53.89-2.67.71.48.56 1.27.98.79 1.71-.61.93-1.59.83-2.55.71-.52-.21-1.13-.36-.93-1.16 0-.44-.08-.85-.51-1.09-.49-.37-.58-.91-.6-1.47.03-.47.13-.92.47-1.28 1.83-1.98 1.44-3.51-1.11-4.17-.68-.16-1.31-.2-1.58-.93z" fill="#716d2e"/><path d="M103.59 107.38c-.18-.01-.36-.02-.54-.04-.01-1.12-.01-2.23-.02-3.35 3.39-1.16 6.7-.48 10.01.42.97.26 1.96.46 2.94.69.01.19.01.38.02.57-.95.91-2.21.85-3.38 1.09-3.09-1.07-6 .69-9.03.62z" fill="#4f4a31"/><path class="st143" d="M76.37 111.5c.14 1.27-.14 2.21-.9 2.89-.31.28-.64-.24-.74-.58-.36-1.34.73-1.62 1.64-2.31zM82.17 97.77c.51-1.12 1.64-1.33 2.77-2.07-.09 2.27-1.51 2.04-2.77 2.07z"/><path d="M100.26 111.85c.63-.06 1.26-.12 1.97-.18-.23-1.38-2.18-.92-2.12-2.37 1.25-1.06 2.8 1.3 4.03-.29 1.1-.87 2.45-1.07 3.76-1.41 2.41.6 2.82 1.21 1.71 3.09-1.07 1.82-2.1 3.71-3.76 5.11-2.22.7-4.16-.22-6.11-1.08-.11-.09-.22-.19-.34-.28-.53-1.14-.2-1.98.86-2.59z" fill="#9a953d"/><path d="M105.84 115.8c.58-2.11 2.11-3.65 3.29-5.39.94-1.38.44-2.1-1-2.48-.01-1.48 1.21-1.08 2.01-1.29.79-.2 1.69.24 2.41-.4 1.06-.74 2.26-.58 3.44-.57 1.49 1.85 1.26 3.16-1.14 3.88-1.92.58-2.97 2.15-4.05 3.68-1.21 1.71-2.74 2.8-4.96 2.57z" fill="#7c7a32"/><path d="M97.33 119.21c-.35-.38-.69-.76-1.04-1.13.88-1.39.42-4.11 3.4-3.43l.05.08c.02 1.81 1.74 1.96 2.76 2.74.99.76 2.58 1.01 2.13 2.75-.43 1.67-1.78 1.93-3.28 1.78.17-3.13-2.22-2.53-4.02-2.79z" fill="#706844"/><path class="st264" d="M97.33 119.21c1.17-.97 2.45-.74 3.63-.14 1.41.72 1.86 1.74.39 2.92-.19.02-.38.03-.57.05-2 .09-3.43-.51-3.45-2.83z"/><path d="M53.2 108.81c2.73.53 4.13 2.58 5.42 4.75-.38 1.39-1.36 1.27-2.35.84-.92-.39-1.79-.87-2.82-.87-.67-.77-1.51-1.47-1.66-2.55-.16-1.09-.1-2.13 1.41-2.17z" fill="#8f908e"/><path d="M53.2 108.81c-2.49 1.71.53 3.13.25 4.72-1.47.08-1.73-1.15-2.23-2.09-.8-1.53-1.56-3.09-2.33-4.64.76.19 1.52.37 2.27.56.25 1.09 1.37.95 2.04 1.45z" fill="#877b3a"/><path class="st264" d="M99.69 114.64c-2.26.03-1.79 2.76-3.4 3.43-.03-.2-.06-.39-.09-.59-1.17-1.73-1.9-3.29.9-4.29.78-.28 1.31-1.27 1.96-1.93.25.49.7.6 1.2.59-.59.85-.62 1.81-.57 2.79z"/><path d="M98.5 108.51c.02.55.03 1.1.05 1.66-1.47.75-2.17 2.47-3.99 2.86-2.89.61-3.94-.28-3.42-3.13.08-.45.06-.93.08-1.39.53-.59 1.07-1.19 1.6-1.78.57-.3 1.18-.48 1.8-.63 2.82-.7 3.26-.43 3.88 2.41z" fill="#c6b66d"/><path class="st253" d="M139.72 100.65c-.2-.03-.4-.06-.61-.1 1.02-2.69 3.32-1.38 5.11-1.63-1.27 1.15-3.56-.32-4.5 1.73z"/><path d="M98.5 108.51c-.65-1.99-1.87-2.72-3.87-1.74-.6.3-1.22.36-1.81-.05.39-1.86 2.41-2.64 2.92-4.41 1.01 1.07 2.6-.79 3.71.98 1.41 2.26 1.64 3.89-.95 5.22z" fill="#928d3d"/><path d="M112.56 106.24c-.88 2.11-3.25.33-4.42 1.69-1.27.59-2.52 1.28-4 1.08-.18-.54-.36-1.08-.54-1.63 2.85-1.36 5.74-2.53 8.96-1.14z" fill="#6f6a55"/></svg>