<svg height="512pt" viewBox="-51 0 512 512" width="512pt" xmlns="http://www.w3.org/2000/svg"><path d="m359.765625 313.003906c12.820313 12.320313 18.320313 30.414063 14.523437 47.785156-3.792968 17.371094-16.335937 31.523438-33.125 37.375l-25.601562.171876-247.296875 1.960937c-.339844-.082031-.597656-.082031-.9375-.167969-8.402344-1.515625-16.273437-5.160156-22.871094-10.582031-12.242187-9.988281-19.1875-25.066406-18.824219-40.863281.367188-15.796875 8.007813-30.539063 20.703126-39.949219-24.394532-30.796875-37.710938-68.910156-37.800782-108.199219 0-97.28125 81.066406-184.75 183.464844-191.574218 4.179688-.257813 8.449219-.425782 12.800781-.425782 108.371094 0 196.265625 90.707032 196.265625 192-.109375 41.179688-14.734375 81.003906-41.300781 112.46875zm0 0" fill="#ad1457"/><path d="m341.332031 401.066406v42.667969c0 33.023437-30.546875 59.730469-68.265625 59.730469h-136.53125c-37.71875 0-68.269531-26.707032-68.269531-59.730469v-43.605469c1.175781-17.601562 12.875-32.742187 29.613281-38.316406h213.84375c10.890625 3.84375 19.933594 11.644531 25.34375 21.847656 2.347656 4.5 3.742188 9.4375 4.097656 14.503906.140626.960938.199219 1.933594.167969 2.902344zm0 0" fill="#ad1457"/><path d="m334.164062 313.003906c19.753907 18.964844 21.035157 50.132813 2.902344 70.65625-5.75 6.660156-13.171875 11.667969-21.503906 14.503906l-247.296875 1.964844h-.9375c-8.402344-1.515625-16.273437-5.160156-22.871094-10.582031-12.242187-9.988281-19.1875-25.066406-18.824219-40.863281.367188-15.796875 8.007813-30.539063 20.703126-39.949219-24.394532-30.796875-37.710938-68.910156-37.800782-108.199219 0-97.28125 81.066406-184.75 183.464844-191.574218 102.398438 6.824218 183.464844 94.292968 183.464844 191.574218-.105469 41.179688-14.730469 81.003906-41.300782 112.46875zm0 0" fill="#e91e63"/><path d="m315.734375 401.066406v42.667969c0 33.023437-30.550781 59.730469-68.269531 59.730469h-110.929688c-37.71875 0-68.269531-26.707032-68.269531-59.730469v-43.4375c-.339844-.082031-.597656-.082031-.9375-.167969-8.402344-1.515625-16.273437-5.160156-22.871094-10.582031 4.597657-12.980469 14.828125-23.175781 27.820313-27.734375h213.84375c16.070312 5.332031 27.566406 19.527344 29.441406 36.351562.023438.023438.035156.054688.035156.085938s-.011718.0625-.035156.085938c.140625.902343.199219 1.816406.171875 2.730468zm0 0" fill="#e91e63"/><path d="m170.667969 213.332031c0 28.277344-22.925781 51.203125-51.203125 51.203125-28.273438 0-51.199219-22.925781-51.199219-51.203125 0-28.277343 22.925781-51.199219 51.199219-51.199219 28.277344 0 51.203125 22.921876 51.203125 51.199219zm0 0" fill="#fdd834"/><path d="m119.464844 170.667969 13.1875 25.28125 29.480468 4.054687-21.332031 19.679688 5.035157 27.78125-26.371094-13.113282-26.367188 13.113282 5.035156-27.78125-21.332031-19.679688 29.480469-4.054687zm0 0" fill="#f0c419"/><path d="m341.332031 213.332031c0 28.277344-22.921875 51.203125-51.199219 51.203125-28.277343 0-51.199218-22.925781-51.199218-51.203125 0-28.277343 22.921875-51.199219 51.199218-51.199219 28.277344 0 51.199219 22.921876 51.199219 51.199219zm0 0" fill="#fdd834"/><path d="m290.132812 170.667969 13.183594 25.28125 29.484375 4.054687-21.335937 19.679688 5.035156 27.78125-26.367188-13.113282-26.367187 13.113282 5.035156-27.78125-21.335937-19.679688 29.484375-4.054687zm0 0" fill="#f0c419"/><path d="m230.058594 315.136719v.9375c-.148438 2.929687-2.148438 5.433593-4.972656 6.226562-2.820313.792969-5.835938-.304687-7.484376-2.726562-3.292968-3.472657-8.066406-5.128907-12.800781-4.4375-4.648437-.667969-9.339843.917969-12.628906 4.265625l-.171875.171875c-1.652344 2.421875-4.664062 3.519531-7.488281 2.726562-2.820313-.792969-4.820313-3.296875-4.96875-6.226562v-.9375c.175781-12.667969 4.628906-24.90625 12.628906-34.730469 2.984375-4.121094 7.570313-6.785156 12.628906-7.339844 12.03125 0 25.257813 22.1875 25.257813 42.070313zm0 0" fill="#0377bc"/><path d="m204.800781 316.332031v.9375c-.148437 2.925781-2.152343 5.433594-4.972656 6.226563-2.824219.792968-5.835937-.304688-7.488281-2.726563l-.167969-.171875c-3.292969-3.347656-7.980469-4.933594-12.628906-4.265625.175781-12.671875 4.628906-24.90625 12.628906-34.730469 8 9.824219 12.449219 22.058594 12.628906 34.730469zm0 0" fill="#2296f3"/><g fill="#ffb301"><path d="m187.734375 384c9.425781 0 17.066406 7.640625 17.066406 17.066406v25.601563h-34.132812v-25.601563c0-9.425781 7.640625-17.066406 17.066406-17.066406zm0 0"/><path d="m153.601562 392.535156c9.425782 0 17.066407 7.640625 17.066407 17.066406v17.066407h-34.132813v-17.066407c0-9.425781 7.640625-17.066406 17.066406-17.066406zm0 0"/><path d="m256 392.535156c9.425781 0 17.066406 7.640625 17.066406 17.066406v17.066407h-34.132812v-17.066407c0-9.425781 7.640625-17.066406 17.066406-17.066406zm0 0"/><path d="m221.867188 384c9.425781 0 17.066406 7.640625 17.066406 17.066406v25.601563h-34.132813v-25.601563c0-9.425781 7.640625-17.066406 17.066407-17.066406zm0 0"/></g><path d="m170.667969 426.667969h34.132812v25.597656c0 9.425781-7.640625 17.066406-17.066406 17.066406s-17.066406-7.640625-17.066406-17.066406zm0 0" fill="#fec108"/><path d="m136.535156 426.667969h34.132813v17.066406c0 9.425781-7.640625 17.066406-17.066407 17.066406-9.425781 0-17.066406-7.640625-17.066406-17.066406zm0 0" fill="#fec108"/><path d="m119.464844 392.535156c9.425781 0 17.070312 7.640625 17.070312 17.066406v17.066407h-34.136718v-17.066407c0-9.425781 7.640624-17.066406 17.066406-17.066406zm0 0" fill="#ffb301"/><path d="m102.398438 426.667969h34.136718v17.066406c0 9.425781-7.644531 17.066406-17.070312 17.066406-9.425782 0-17.066406-7.640625-17.066406-17.066406zm0 0" fill="#fec108"/><path d="m290.132812 392.535156c9.425782 0 17.066407 7.640625 17.066407 17.066406v17.066407h-34.132813v-17.066407c0-9.425781 7.640625-17.066406 17.066406-17.066406zm0 0" fill="#ffb301"/><path d="m273.066406 426.667969h34.132813v17.066406c0 9.425781-7.640625 17.066406-17.066407 17.066406-9.425781 0-17.066406-7.640625-17.066406-17.066406zm0 0" fill="#fec108"/><path d="m238.933594 426.667969h34.132812v17.066406c0 9.425781-7.640625 17.066406-17.066406 17.066406s-17.066406-7.640625-17.066406-17.066406zm0 0" fill="#fec108"/><path d="m204.800781 426.667969h34.132813v25.597656c0 9.425781-7.640625 17.066406-17.066406 17.066406-9.425782 0-17.066407-7.640625-17.066407-17.066406zm0 0" fill="#fec108"/><path d="m119.464844 273.066406c32.992187 0 59.734375-26.742187 59.734375-59.734375 0-32.988281-26.742188-59.730469-59.734375-59.730469-32.988282 0-59.730469 26.742188-59.730469 59.730469.035156 32.976563 26.757813 59.695313 59.730469 59.734375zm-42.664063-59.734375c.054688-3.949219.667969-7.867187 1.816407-11.648437l19.515624 18-4.898437 27.039062c-10.328125-8.003906-16.390625-20.320312-16.433594-33.390625zm16.9375 33.808594 25.726563-12.789063 25.730468 12.800782c-15.121093 11.800781-36.335937 11.800781-51.457031 0zm51.960938-.417969-4.898438-27.039062 19.515625-18c5.101563 16.59375-.742187 34.605468-14.617187 45.039062zm-26.234375-76.054687c18.238281.0625 34.40625 11.730469 40.21875 29.011719l-27.03125-3.710938-13.1875-25.300781-13.183594 25.28125-27.03125 3.714843c5.816406-17.277343 21.988281-28.933593 40.214844-28.996093zm0 0"/><path d="m290.132812 153.601562c-32.988281 0-59.734374 26.742188-59.734374 59.730469 0 32.992188 26.746093 59.734375 59.734374 59.734375 32.992188 0 59.734376-26.742187 59.734376-59.734375-.039063-32.972656-26.757813-59.695312-59.734376-59.730469zm0 17.066407c18.234376.0625 34.40625 11.730469 40.21875 29.011719l-27.035156-3.710938-13.183594-25.300781-13.183593 25.28125-27.035157 3.714843c5.820313-17.277343 21.988282-28.933593 40.21875-28.996093zm-42.667968 42.664062c.058594-3.949219.667968-7.867187 1.820312-11.648437l19.515625 18-4.898437 27.039062c-10.328125-8.003906-16.390625-20.320312-16.4375-33.390625zm16.941406 33.808594 25.726562-12.789063 25.730469 12.800782c-15.125 11.800781-36.335937 11.800781-51.457031 0zm51.957031-.417969-4.898437-27.039062 19.515625-18c5.105469 16.59375-.742188 34.605468-14.617188 45.039062zm0 0"/><path d="m17.066406 349.867188c-.089844 26.429687 17.304688 49.738281 42.667969 57.171874v36.695313c0 37.640625 34.449219 68.265625 76.800781 68.265625h136.53125c42.351563 0 76.800782-30.625 76.800782-68.265625v-40.109375c16.5-7.761719 28.527343-22.667969 32.617187-40.441406 4.089844-17.769532-.203125-36.4375-11.652344-50.632813 25.070313-31.960937 38.71875-71.398437 38.769531-112.015625 0-108.699218-93.78125-200.535156-204.800781-200.535156s-204.800781 91.835938-204.800781 200.535156c.0546875 38.421875 12.269531 75.839844 34.894531 106.894532-11.351562 11.210937-17.765625 26.484374-17.828125 42.4375zm187.734375-332.800782c101.757813 0 187.734375 84.019532 187.734375 183.46875-.039062 39.199219-13.972656 77.117188-39.324218 107.015625-.261719.390625-.484376.804688-.671876 1.238281-.695312.882813-1.074218 1.976563-1.078124 3.105469-.109376.519531-.160157 1.054688-.160157 1.585938.0625.546875.179688 1.089843.347657 1.613281.136718 1.101562.632812 2.125 1.410156 2.917969.234375.410156.503906.800781.808594 1.160156 9.433593 9.035156 14.183593 21.90625 12.882812 34.902344-1.300781 12.996093-8.503906 24.667969-19.539062 31.65625-5.578126-14.925781-17.503907-26.601563-32.542969-31.871094-2.875-1.144531-6.140625-.644531-8.542969 1.304687-2.398438 1.949219-3.554688 5.046876-3.023438 8.09375.53125 3.046876 2.671876 5.566407 5.589844 6.585938 13.78125 4.335938 23.402344 16.792969 24.109375 31.222656v42.667969c0 28.234375-26.804687 51.199219-59.734375 51.199219h-136.53125c-32.933594 0-59.734375-22.964844-59.734375-51.199219v-43.238281c1-14.207032 10.550781-26.375 24.113281-30.722656 4.3125-1.71875 6.460938-6.566407 4.835938-10.914063s-6.425781-6.597656-10.808594-5.066406c-16.332031 5.746093-28.84375 19.085937-33.535156 35.753906-16.453125-6.277344-27.308594-22.070313-27.273438-39.679687.039063-13.511719 6.441407-26.214844 17.28125-34.277344l.074219-.078125.105469-.050781c.382812-.375.734375-.78125 1.039062-1.222657.402344-.386719.765626-.8125 1.085938-1.269531.375-1.019531.726562-2.050781 1.046875-3.089844.039063-.570312.011719-1.140625-.074219-1.707031.015625-.53125-.019531-1.0625-.113281-1.585937-.175781-.492188-.398437-.964844-.664063-1.417969-.183593-.542969-.425781-1.0625-.726562-1.550781l-.09375-.085938v-.085938c-23.273438-29.257812-35.96875-65.527343-36.027344-102.910156 0-99.449218 85.972656-183.46875 187.734375-183.46875zm0 0"/><path d="m171.015625 316.332031c.105469 6.332031 4.21875 11.902344 10.242187 13.867188 1.570313.523437 3.214844.789062 4.871094.792969 4.917969-.023438 9.554688-2.289063 12.59375-6.152344.785156-.992188 4.148438-1.136719 6.09375-1.136719 1.945313 0 5.300782.144531 6.09375 1.125 4.117188 5.28125 11.09375 7.421875 17.46875 5.371094 6.023438-1.964844 10.136719-7.535157 10.238282-13.867188v-1.160156c-.023438-22.9375-15.105469-50.636719-33.816407-50.636719-18.714843 0-33.792969 27.699219-33.792969 50.636719zm33.785156-34.730469c4.777344 0 14.769531 13.53125 16.476563 29.625-4.808594-3.363281-10.621094-4.980468-16.476563-4.589843-5.878906-.402344-11.71875 1.238281-16.53125 4.640625 1.496094-15.800782 11.699219-29.675782 16.53125-29.675782zm0 0"/><path d="m273.066406 390.65625c-8.082031-7.484375-20.109375-8.796875-29.617187-3.234375-3.984375-6.402344-10.613281-10.695313-18.082031-11.722656-7.46875-1.023438-15.007813 1.332031-20.566407 6.421875-5.5625-5.089844-13.097656-7.445313-20.566406-6.421875-7.472656 1.027343-14.097656 5.320312-18.082031 11.722656-9.507813-5.5625-21.535156-4.25-29.617188 3.234375-7.476562-6.820312-18.277344-8.570312-27.523437-4.464844-9.246094 4.105469-15.191407 13.292969-15.144531 23.410156v34.132813c-.046876 10.117187 5.898437 19.300781 15.144531 23.40625 9.246093 4.105469 20.046875 2.355469 27.523437-4.464844 8.082032 7.484375 20.109375 8.796875 29.617188 3.234375 3.984375 6.402344 10.609375 10.699219 18.082031 11.722656 7.46875 1.023438 15.003906-1.328124 20.566406-6.421874 5.558594 5.09375 13.097657 7.445312 20.566407 6.421874 7.46875-1.023437 14.097656-5.320312 18.082031-11.722656 9.507812 5.5625 21.535156 4.25 29.617187-3.234375 7.476563 6.820313 18.273438 8.570313 27.523438 4.464844 9.246094-4.105469 15.1875-13.289063 15.144531-23.40625v-34.132813c.042969-10.117187-5.898437-19.304687-15.144531-23.410156-9.25-4.105468-20.046875-2.355468-27.523438 4.464844zm-17.066406 10.410156c4.710938 0 8.535156 3.820313 8.535156 8.535156v8.53125h-17.070312v-8.53125c0-4.714843 3.824218-8.535156 8.535156-8.535156zm-34.132812-8.53125c4.710937 0 8.53125 3.820313 8.53125 8.53125v17.066406h-17.066407v-17.066406c0-4.710937 3.820313-8.53125 8.535157-8.53125zm-42.667969 8.53125c0-4.710937 3.820312-8.53125 8.535156-8.53125 4.710937 0 8.53125 3.820313 8.53125 8.53125v17.066406h-17.066406zm-25.597657 0c4.710938 0 8.53125 3.820313 8.53125 8.535156v8.53125h-17.066406v-8.53125c0-4.714843 3.820313-8.535156 8.535156-8.535156zm-42.667968 8.535156c0-4.714843 3.820312-8.535156 8.53125-8.535156 4.714844 0 8.535156 3.820313 8.535156 8.535156v8.53125h-17.066406zm8.53125 42.664063c-4.710938 0-8.53125-3.820313-8.53125-8.53125v-8.535156h17.066406v8.535156c0 4.710937-3.820312 8.53125-8.535156 8.53125zm34.136718 0c-4.714843 0-8.535156-3.820313-8.535156-8.53125v-8.535156h17.066406v8.535156c0 4.710937-3.820312 8.53125-8.53125 8.53125zm34.132813 8.535156c-4.714844 0-8.535156-3.820312-8.535156-8.535156v-17.066406h17.066406v17.066406c0 4.714844-3.820313 8.535156-8.53125 8.535156zm42.664063-8.535156c0 4.714844-3.820313 8.535156-8.53125 8.535156-4.714844 0-8.535157-3.820312-8.535157-8.535156v-17.066406h17.066407zm25.601562 0c-4.710938 0-8.535156-3.820313-8.535156-8.53125v-8.535156h17.070312v8.535156c0 4.710937-3.824218 8.53125-8.535156 8.53125zm42.667969-8.53125c0 4.710937-3.820313 8.53125-8.535157 8.53125-4.710937 0-8.53125-3.820313-8.53125-8.53125v-8.535156h17.066407zm0-34.132813v8.53125h-17.066407v-8.53125c0-4.714843 3.820313-8.535156 8.53125-8.535156 4.714844 0 8.535157 3.820313 8.535157 8.535156zm0 0"/><path d="m187.535156 358.398438h.199219c4.710937.054687 8.578125-3.722657 8.628906-8.433594.054688-4.710938-3.722656-8.578125-8.433593-8.632813l-7.800782-.125c-35.011718-.472656-69.195312-2.828125-69.195312-25.472656 0-4.714844 3.820312-8.535156 8.53125-8.535156 4.714844 0 8.535156 3.820312 8.535156 8.535156 0 4.710937 3.820312 8.53125 8.535156 8.53125 4.710938 0 8.53125-3.820313 8.53125-8.53125 0-14.140625-11.460937-25.601563-25.601562-25.601563-14.136719 0-25.597656 11.460938-25.597656 25.601563 0 41.378906 53.863281 42.101563 86.03125 42.539063zm0 0"/><path d="m290.132812 290.132812c-14.136718 0-25.597656 11.460938-25.597656 25.601563 0 4.710937 3.820313 8.53125 8.53125 8.53125 4.714844 0 8.535156-3.820313 8.535156-8.53125 0-4.714844 3.820313-8.535156 8.53125-8.535156 4.714844 0 8.535157 3.820312 8.535157 8.535156 0 22.644531-34.1875 25-69.199219 25.472656l-7.796875.125c-4.714844.054688-8.492187 3.921875-8.4375 8.632813.054687 4.710937 3.917969 8.488281 8.632813 8.433594h.195312l7.636719-.125c32.171875-.4375 86.035156-1.160157 86.035156-42.539063 0-14.140625-11.460937-25.601563-25.601563-25.601563zm0 0"/><path d="m183.773438 65.554688c1.355468 3.199218 4.496093 5.277343 7.96875 5.273437 2.972656-.019531 5.71875-1.578125 7.253906-4.121094 1.539062-2.542969 1.640625-5.703125.273437-8.339843l-6.210937-15.035157c-1.851563-4.269531-6.785156-6.269531-11.089844-4.488281-4.300781 1.777344-6.382812 6.675781-4.679688 11.007812zm0 0"/><path d="m224.425781 149.683594c2.851563 0 5.515625-1.421875 7.097657-3.792969 1.585937-2.371094 1.878906-5.375.789062-8.007813l-6.488281-15.703124c-1.316407-3.191407-4.429688-5.273438-7.882813-5.273438h-.085937c-2.96875.019531-5.71875 1.578125-7.253907 4.121094-1.535156 2.542968-1.636718 5.699218-.273437 8.339844l6.214844 15.035156c1.316406 3.195312 4.429687 5.277344 7.882812 5.28125zm0 0"/><path d="m154.238281 82.125 15.789063 6.570312c4.351562 1.8125 9.347656-.246093 11.160156-4.597656 1.8125-4.355468-.246094-9.351562-4.597656-11.164062l-15.777344-6.570313c-4.355469-1.8125-9.351562.242188-11.167969 4.59375-1.8125 4.355469.242188 9.351563 4.59375 11.167969zm0 0"/><path d="m255.359375 105.609375-15.785156-6.570313c-4.351563-1.8125-9.351563.246094-11.164063 4.597657-1.808594 4.351562.25 9.351562 4.601563 11.164062l15.777343 6.570313c4.351563 1.8125 9.351563-.246094 11.167969-4.597656 1.8125-4.351563-.246093-9.351563-4.597656-11.164063zm0 0"/><path d="m227.839844 80.726562v.085938c.023437 4.695312 3.835937 8.488281 8.535156 8.488281 1.371094.003907 2.726562-.332031 3.941406-.972656l15.019532-6.195313c4.355468-1.800781 6.429687-6.792968 4.628906-11.148437-1.800782-4.355469-6.792969-6.429687-11.148438-4.628906l-15.703125 6.484375c-3.191406 1.320312-5.273437 4.433594-5.273437 7.886718zm0 0"/><path d="m181.761719 106.921875c-.023438-4.695313-3.839844-8.488281-8.535157-8.488281-1.375-.003906-2.726562.328125-3.941406.972656l-15.019531 6.195312c-3.773437 1.546876-5.921875 5.550782-5.128906 9.554688.796875 4 4.308593 6.878906 8.386719 6.871094 1.121093 0 2.230468-.21875 3.261718-.648438l15.703125-6.484375c3.199219-1.355469 5.277344-4.496093 5.273438-7.972656zm0 0"/><path d="m214.578125 70.253906c1.039063.441406 2.152344.667969 3.277344.667969 3.449219-.003906 6.554687-2.082031 7.875-5.265625l6.574219-15.789062c1.671874-4.316407-.40625-9.179688-4.679688-10.957032-4.277344-1.78125-9.191406.175782-11.074219 4.40625l-6.570312 15.785156c-1.808594 4.351563.25 9.34375 4.597656 11.152344zm0 0"/><path d="m181.898438 149.019531c1.035156.4375 2.148437.664063 3.273437.664063 3.449219-.003906 6.558594-2.082032 7.878906-5.265625l6.570313-15.785157c1.671875-4.320312-.40625-9.183593-4.679688-10.960937-4.277344-1.777344-9.191406.175781-11.074218 4.40625l-6.570313 15.785156c-1.808594 4.351563.25 9.34375 4.601563 11.15625zm0 0"/><path d="m213.332031 93.867188c0 4.710937-3.820312 8.53125-8.53125 8.53125-4.714843 0-8.535156-3.820313-8.535156-8.53125 0-4.714844 3.820313-8.535157 8.535156-8.535157 4.710938 0 8.53125 3.820313 8.53125 8.535157zm0 0"/><path d="m128 128c0 4.710938-3.820312 8.535156-8.535156 8.535156-4.710938 0-8.53125-3.824218-8.53125-8.535156s3.820312-8.535156 8.53125-8.535156c4.714844 0 8.535156 3.824218 8.535156 8.535156zm0 0"/><path d="m93.867188 136.535156c0 4.710938-3.820313 8.53125-8.535157 8.53125-4.710937 0-8.53125-3.820312-8.53125-8.53125 0-4.714844 3.820313-8.535156 8.53125-8.535156 4.714844 0 8.535157 3.820312 8.535157 8.535156zm0 0"/><path d="m68.265625 162.132812c0 4.714844-3.820313 8.535157-8.53125 8.535157-4.714844 0-8.535156-3.820313-8.535156-8.535157 0-4.710937 3.820312-8.53125 8.535156-8.53125 4.710937 0 8.53125 3.820313 8.53125 8.53125zm0 0"/><path d="m298.667969 128c0 4.710938-3.820313 8.535156-8.535157 8.535156-4.710937 0-8.53125-3.824218-8.53125-8.535156s3.820313-8.535156 8.53125-8.535156c4.714844 0 8.535157 3.824218 8.535157 8.535156zm0 0"/><path d="m332.800781 136.535156c0 4.710938-3.820312 8.53125-8.535156 8.53125-4.710937 0-8.53125-3.820312-8.53125-8.53125 0-4.714844 3.820313-8.535156 8.53125-8.535156 4.714844 0 8.535156 3.820312 8.535156 8.535156zm0 0"/><path d="m358.398438 162.132812c0 4.714844-3.820313 8.535157-8.53125 8.535157-4.714844 0-8.535157-3.820313-8.535157-8.535157 0-4.710937 3.820313-8.53125 8.535157-8.53125 4.710937 0 8.53125 3.820313 8.53125 8.53125zm0 0"/></svg>