<svg version="1.1" id="Layer_1" xmlns="http://www.w3.org/2000/svg" x="0" y="0" viewBox="0 0 354.18 162.56" xml:space="preserve"><style>.st3{fill:#504a4c}.st6{fill:#bdb5b5}.st8{fill:#928788}.st9{fill:#f6ca78}.st10{fill:#f8daa9}.st13{fill:#e6b667}.st14{fill:#f6c977}.st23{fill:#fbd087}.st25{fill:#f7ac60}.st29{fill:#f2c880}.st41{fill:#fbcf87}.st52{fill:#e99042}.st54{fill:#f1c27e}.st60{fill:#3c3737}.st61{fill:#f4c683}.st65{fill:#ef9546}.st87{fill:#f09d4e}</style><path d="M203.22 160.73c-42.95 2.39-84.91-1.88-124.79-19.23-9.74-4.24-18.9-9.64-26.13-17.73-.03-.16-.11-.45-.07-.47 6.39-3.33 8.43-8.85 7.89-15.66 1.85-1.06 3.53-.17 5.24.42 2.72 1.67 5.77 2.38 8.84 3.06 23.87 7.2 48.27 11.35 73.09 13.36 15.77 1.28 31.55 2.35 47.37 1.8 35.21-1.21 70.08-4.88 103.92-15.4 4.93-1.53 9.57-3.89 14.62-5.04 3.24.14 4.06 1.43 1.64 3.86-2.12 2.13-4.63 3.82-7.11 5.48-33.31 22.27-70.06 35.94-108.88 43.57 2.52.03 2.52.03 4.37 1.98z" fill="#282425"/><path d="M314.19 106.8c-15.43 5.72-31.12 10.49-47.33 13.5-33.31 6.19-66.88 8.44-100.73 6.89-29.63-1.35-58.89-4.95-87.43-13.33-1.88-.55-3.7-1.33-5.55-2 2.18-2.18-1.16-5.39 1.39-7.51 5.22-.15 9.76 2.53 14.71 3.49 1.48.6 3.07.67 4.62.95 10.34 2.24 20.63 4.76 31.22 5.68 20.7 3.14 41.54 4.05 62.44 3.85 6.97-.07 13.94-.11 20.9-.02 18.72-1.21 37.36-3.09 55.82-6.64 16.53-3.18 32.68-7.59 48.29-13.9 1.43-.35 2.8-.88 4.12-1.53 1.43-.65 2.87-1.3 4.25-2.06.79-.42 1.59-.83 2.36-1.28 5.14-3.15 10.09-6.55 14.68-10.48 12.23-11.32 12.17-24.64-.31-35.66-6.79-5.99-14.58-10.49-22.85-14.06-19.82-8.55-40.55-13.8-61.91-16.74-30.3-5.01-60.85-5.14-91.41-4.42-8.59.2-17.21 1.24-25.78 2.3-2.15.26-4.28.56-6.44.26-1.41-.16-2.79-.82-4.26-.43-3.87 1.03-3.67-1.02-2.76-3.62 24.07-2.33 48.16-4.91 72.38-4.09 34.46 1.17 68.64 4.53 101.81 14.75 1.21.37 2.7 1.89 3.96-.1 3.19.23 5.78 3.34 9.32 1.95 2.44 2.29 5.36 3.71 8.43 5 7.19 3.03 13.85 7.05 20.23 11.53 1.38 1.29 3.27 2.08 3.9 4.08.56 2.66 2.93 3.91 4.56 5.7 8.79 9.62 9.78 21.84 2.47 32.67-1.91 2.83-3.99 5.54-5.99 8.3-6.04 6.04-13.17 10.45-20.81 14.15-2.66 1.32-5.32 2.49-8.3 2.82z" fill="#c4bbbc"/><path d="M314.19 106.8c10.37-4.5 19.87-10.52 29.12-16.95-5.07 7.57-10.43 14.97-15.15 22.76-7.22 11.92-17.49 20.21-29.7 26.42-22.01 11.21-45.67 16.62-69.95 19.75-8.38 1.08-16.77 2.33-25.28 1.95-2.03-2.04-4.82-.16-7.41-1.53 5.79-3.34 12.19-3.68 18.17-5.11 33.05-7.89 63.88-20.87 92.36-39.42 3.04-1.98 5.95-4.2 8.74-6.53 1.16-.97-.14-1.17-.9-1.34z" fill="#342e2e"/><path class="st3" d="M60.31 107.88c2.31 8.78.53 12.31-8.01 15.89-17.7-4.24-31.42-15.25-44.47-26.98C1.4 91 3.58 83.33 11.59 79.74c2.37-1.06 5.17-1.37 6.81-3.78 3.7.18 3.73 2.77 3.6 5.46-.86 2.19-2.84 3.11-4.71 4.17-4.94 2.81-5.05 3.98-.54 7.77 5.58 4.69 11.54 8.89 17.77 12.66 3.11 1.88 6.05 4.07 9.51 5.32.64.21 1.21.55 1.77.9 1.51.94 3.06 2.73 4.89 1.5 2.21-1.48.64-3.59.12-5.43-.46-1.63-.9-3.24.4-4.71 3.6.26 7.03.82 9.1 4.28z"/><path d="M21.31 81.81c.22-2.54-.76-4.49-2.91-5.84 1.16-3.8-1.22-7.31-.68-11.22 1.77-12.81 10.24-20.6 20.11-27.05 21.51-14.05 45.89-20.28 70.79-24.83 3.89-.71 7.68-2.09 11.72-1.92 1.07 2.37-.19 3.72-2.1 4.77-12.19 2.24-24.22 5.21-36.29 7.97C70.68 27.62 59.23 31 48.71 36.92c-6.59 3.7-12.55 8.04-17.72 13.52-7.16 7.61-8.25 14.56-3.74 24.06.5 1.06 1.01 2.09 1.05 3.29-.32 2.53-.46 5.14-2.51 7.06-2.61.64-3.5-1.27-4.48-3.04z" fill="#c4bbbb"/><path class="st3" d="M309.32 22.8c-.2.82.18 2.38-1.39 1.8-2.66-.99-5.75-1.29-7.54-3.98-.94-7.97 3.43-12.7 11.24-11.06 13.56 2.86 25.99 8.79 37.38 16.56 6.05 4.12 5.22 10.11-1.15 13.88-1.85 1.09-3.73 2.12-5.59 3.18-1.84-.44-3.1-1.58-3.94-3.25.17-2.12 1.87-2.99 3.31-4.09 3.32-2.51 3.37-3.36-.28-5.69-6.75-4.32-14.17-7.31-21.57-10.31-1.39-.56-2.82-1-4.23-1.52-6.21-2.28-6.82-1.83-6.24 4.48z"/><path d="M118.15 14.81c1.23-1 1.83-2.37 2.19-3.86.63-.3 1.26-.59 1.9-.89.78.97-.34 4.62 2.98 2.04.86-.67 1.88-.17 2.57.68 1.94 7.25 0 8.88-9.6 8.08-2.25-.71-2.68.38-2.27 2.31-.03 1-.39 1.79-1.4 2.15-1.39.27-2.57-.48-3.84-.8-1.89-.47-3.72-.57-4.5 1.75-.72 2.16.94 2.92 2.38 3.75.72.41 1.52.67 2.23 1.12.63.45 1.03 1.04 1.2 1.79.09.76-.06 1.47-.52 2.1-3.07 1.68-6.69 1.55-9.87 2.88-2.25.94-5.28 1.72-4.46 4.86.79 3.03 3.73 2.6 6.22 2.19.81-.13 1.59-.4 2.4-.55 1.59-.47 3.04-1.25 4.51-2 2.73-1.39 4.08-.67 3.82 2.51-.44 1.66-1.49 2.82-2.94 3.67-3.22 1.65-6.74 1.49-10.21 1.68-1.07.17-2.09.58-3.17.71-.97.14-1.96.21-2.94.18-4.91-.18-5.61-1.03-5.01-6.04.29-2.45.87-4.83 1.92-7.07 3.29-6.97 7.36-13.23 13.81-17.88 3.89-2.79 8.26-3.93 12.6-5.36z" fill="#f09445"/><path class="st6" d="M60.31 107.88c-3.02-1.33-6.03-2.66-9.05-3.99-5.49-.29-9.35-3.77-13.4-6.88-.24-.46-.38-.94-.43-1.46.14-2.36.66-4.57 2.68-6.11 3.37-.8 5.37 1.94 7.97 3.12 2.23 1.02 4.35 2.29 6.64 3.21 3.13 1.62 6.62 2.61 9.22 5.19.91 2.64 3.53 5.03 1.2 8.14-1.61-.41-3.22-.81-4.83-1.22z"/><path class="st6" d="M65.14 109.1c.77-3.06-2.2-5.26-1.88-8.21 3.67-1.02 6.59 1.26 9.82 2.21.66.44 1.09 1.02 1.14 1.84.41 1.41.64 2.89 1.26 4.2 1.35 2.84-.75 2.5-2.32 2.72-2.97-.08-5.75-.66-8.02-2.76z"/><path d="M114.46 24.94c.31-.65.63-1.3.94-1.95.08-1.43.65-2.55 2.02-3.16 1.62.04 3.25.26 4.85.08 3.13-.35 7.27 0 4.71-5.43-.17-.36.52-1.13.81-1.71 10.02-.88 20.03-1.77 30.05-2.62 2.14-.18 4.3-.31 6.45-.31 14.27-.03 28.57-.54 42.82.13 15.79.73 31.62 1.67 47.17 4.96 1.1 1.23 1.29 2.74.91 4.22-1.31 4.98-1.51 10.2-3.25 15.08-1.72 1.89-2.72.03-3.54-.91-2.58-2.95-5.7-4.3-9.61-4.38-4.03-.08-6.9-4.12-11.2-3.56-4.29-1.12-5.82-5.47-9.12-7.86-3.15-2.28-5.8-3.31-9.14-.98-2.88.02-3.96 1.88-4.54 4.34-.41 1.74-.15 3.66-1.34 5.21-.39.3-.82.52-1.28.68-2.92.7-5.01-.5-7.05-2.58-5.68-5.8-11.31-5.62-16.71.28-3.48 3.8-8.26 5.91-12.17 9.22-2.11 1.78-6.42.61-9.56 1.86-.52.03-1.03-.04-1.52-.19-1.92-.93-3.49-2.17-3.96-4.4-.29-3.41-1.95-5.55-5.51-5.93-2.37-.25-3.74-1.75-5.04-3.6-2.66-3.78-5.01-4.25-8.74-1.57-2.21 1.59-4.32 2.65-7.17 2.81-3.34.19-5.07 2.8-5.91 5.89-.48 1.74-.1 3.67-1.13 5.3-1.82 1.45-3.82 2.4-6.22 2.22-.48-.37-.54-.8-.19-1.28.09-.68.17-1.36.26-2.04-.21-2.07-.19-4.1 1.01-5.93.38-.87 1.06-1.46 1.9-1.89z" fill="#a29a9b"/><path class="st8" d="M251.21 34.72c-.06-6.76 2.79-13.07 3.06-19.79 19.66 2.56 38.69 7.54 57.07 14.96 10.08 4.07 19.73 8.98 27.71 16.47 12.86 12.07 12.53 25.52-.58 37.32-2.17-2.84-2.87-6.48-5.19-9.29-1.16-1.41.03-3.13.55-4.68 2.01-5.97.02-9.69-6.12-11.5-5.06-.35-9.61-1.21-10.35-7.65-.25-2.17-2.21-3.62-4.21-4.62-6.12-4.98-11.33-11.15-18.92-14.18-1.7-.68-2.14-2.41-2.9-3.87-1.55-3-4.34-3.14-7.24-3.23-2.21-.07-1.44 2.95-3.4 3.01.14 1.22 1.44 1.16 2.05 1.87 1.68 1.95 5.2 2.98 3.3 6.69-2.6 1.16-4.41-.64-6.3-1.82-4.24-2.64-8.33-2.93-12.28.45-2.93 2.51-6.75 2.4-10.12 3.62-2.82.05-4.93-1.12-6.13-3.76z"/><path class="st9" d="M314.09 98.69c-19.99 8.39-40.92 13.33-62.24 16.65-10.14 1.58-20.39 2.39-30.61 3.44-3.95.4-7.92.51-11.89.75-1.98-.45 3.16-1.29-.11-1.75-2.44-.35-4.87-.72-7.35-.76-2.47-.04-4.61-.65-5.11-3.57-.05-1.06.34-1.97.86-2.85 3.89-5.77 7.53-1.58 11.23.28 5.37 3.18 10.69 2.65 16.17.12 3.15-1.46 6.35-2.87 9.67-3.96 3.32 0 6.96.9 8.76-3.22.38-.59.84-1.11 1.35-1.58 1.27-1.11 2.83-1.55 4.41-1.97 1.9-.27 4.21-2.01 4.81 1.82.14.89 2.33.72 3.89 1.33-.94-1.63-3.04-2.54-1.9-4.61 1.77-.8 3.08.76 4.68.89.69.2 1.33.51 1.85 1.02 2.57 4.98 4.23 5.72 9.3 3.89 2.15-.78 4.33-1.52 6.3-2.72.78-.49 1.47-1.15 2.36-1.46 1.77-.23 3.82.1 5.05-1.51 2.19-2.84 4.64-4.59 8.44-3.29 1.01.35 1.92-.25 2.55-1.12 1.5-2.06 3.7-1.92 5.84-1.77 2 .14 3.93.11 5.84-.64 1.63-.64 3.61-1.99 4.96-.11 1.33 1.88 2.95 4.15.89 6.7z"/><path class="st10" d="M93.27 109.76c-1.4-.08-2.92.35-4.06-.91.58-.89.7-1.95 1.1-2.92 1.67-4.52 2.59-9.17 2.64-13.99.84-1.04 2.49-1.37 2.92-2.64 2.48-7.36 8.89-7.11 14.74-7.47 7.51-.46 8.98-2.53 5.79-9.11 2.35-4.05 5.34-4.4 9.63-1.16 1.64 3.85 2.93 7.83 4.1 11.85 1.58 5.59 4.02 10.88 5.89 16.37 2.22 6.49 5.47 7.96 11.75 5.24.61-.26 1.21-.54 1.86-.69 3.52.36 6.31-.01 5.45-4.78-.16-.9.55-1.86 1.6-2.26 4.86 1.79 5.8 3.75 4.37 9.07-1.46 2.53-3.85 2.75-6.39 2.59-4.12-.65-7.51 2.12-11.47 2.48-2.61.24-4.92.39-6.95-1.42-2.22-1.98-4.35-1.45-6.82-.27-6.76 3.22-10.02 2.53-15.51-2.82-1.18-1.62-2.67-2.81-4.67-3.26-1.94-.44 0 1.4-.92 1.6-1.69 1.93-3.77 1.86-5.9 1.06-6.32-2.37-6.31-2.4-9.15 3.44z"/><path d="M154.27 107.81c2.16-.19 4.68.73 5.99-2 3.57.03 3.57.03 6.11 4.64 4.75-3.7 7.55-3.6 12.14.46.62.55 1.19 1.15 1.79 1.72 4.48 4.23 5.1 4.28 10.1.78 1.22-.85 2.37-1.8 3.85-2.2 1.39-.18 2.48.18 2.96 1.64.84 2.36 2.5 3.22 4.98 2.97 2.64-.26 5.26-.03 7.75 1.01.68.28 1.9.4 1.41 1.49-.26.58-1.31.82-2 1.21-21.96.5-43.9.98-65.81-1.47-6.43-.72-12.9-1.12-19.26-2.36-.86-4.05 2.08-4.26 4.33-3.4 9.55 3.65 17.19-2.62 25.66-4.49z" fill="#e7b768"/><path d="M309.32 22.8c-.54-2.16-3.65-4.15-1.95-6.19 1.9-2.28 4.92-.75 7.41.11 9.41 3.25 18.48 7.27 27.13 12.2 5.63 3.21 5.6 4.46.32 7.97-1.37.91-2.6 2.02-3.9 3.03-8.65-4.88-17.04-10.26-26.42-13.69-1.74-.64-1.32-2.61-2.59-3.43z" fill="#fdfdfd"/><path class="st13" d="M314.09 98.69c-.42-5.35-1.62-6.28-6.01-5.02-1.86.53-3.83.42-5.82.28-1.79-.13-4.85-1.63-4.78 2.63.02 1.43-1.64.99-2.8.53-3.15-1.23-5.8-1.3-7.75 2.34-1.3 2.41-3.71 3.24-6.34 1.44-3.88-4.15-2.61-8.98 2.74-10.25 1.75-.42 3.57-.54 5.37-.68 2.56.49 3.73-.56 4.57-3.12 1.95-5.92 6.5-9.31 11.6-9.18 1.83.05 4.1.16 4.16 2.5.04 1.86-2.13 1.61-3.5 1.94-.64.15-1.32.16-1.95.34-1.77.52-3.91 1.09-3.64 3.35.25 2.15 2.47 1.72 4.05 1.88.66.07 1.32-.04 1.98-.06 6.89-.27 6.89-.27 6.92-7.05.02-3.48-.17-6.96.11-10.43.17-2.1.28-4.47 3.41-4.39.37.4.64.86.81 1.38.74 3.77.32 7.57.36 11.35-.04 2.28-.42 4.59.51 7.28 3.07-1.27 4.68-4.11 7.07-5.95 1.16-.89 2.48-2.25 3.9-.94 1.46 1.35.14 2.71-.75 3.88-.7.92-1.48 1.82-2.4 2.5-3.03 2.2-3.9 5.01-2.64 8.51-.37.83-1.1 1.03-1.92 1.08-2.14-.76-3.68-.35-4.14 2.14-1.05.57-2.09 1.14-3.12 1.72z"/><path class="st14" d="M154.27 107.81c-.9 2.35-1.59 4.17-5.15 3.23-2.22-.59-5.78.22-7.43 1.79-4.13 3.94-8.06 2.48-12.25.88-2.34-.89-4.6-1.7-5.16 1.98-10.52-.99-20.86-2.93-31-5.93.07-2.65-.7-5.4 3-6.79 1.84-.69 2.95-.98 4.19.52 2.25 2.74 4.9 2.94 7.85 1.26 2.38-1.92 4.1-.1 5.94 1.04 4.55 4.48 8.07 6.79 15.68 2.21 1.72-1.04 3.91-2.18 5.46-.34 4.68 5.54 9.67 1.83 14.44.62 1.53-.4 2.77-1.68 4.43-.47z"/><path d="M323.25 93.74c-3.73-2.98-2.84-5.63.56-8.14 2.1-1.54 4.16-3.13 5.55-5.42-4.01-.38-5.19 2.88-7.53 4.52-1.39.97-2.15 3.55-4.28 2.55-1.57-.74-.97-2.94-1.31-4.48-.21-.94 0-1.97.02-2.96 5.15-.83 7.49-4.36 8.67-9 3.17-.12 5.76-5.24 4.76-9.29-.38-1.54-1.97-2.69-1.43-4.51 6.73 1.75 9.68 7.01 6.81 13.01-1.3 2.71-1.25 4.41 1.02 6.36 2.19 1.88 2.26 4.66 2.4 7.33-4.84 3.7-9.43 7.8-15.24 10.03z" fill="#f5c976"/><path class="st14" d="M90.36 106.69c.42 1.14.61 2.17-1.15 2.16-5-1.3-10-2.61-15-3.91-.37-.34-.73-.68-1.1-1.02-1-.89-1.88-1.82-1.36-3.33.33-.61.81-1.16 1.51-1.08 4.14.48 7.81-.6 11.12-3.1.53-.4 1.28-.2 1.93-.02 2.74 2.88 5.51 5.76 4.05 10.3z"/><path d="M317.19 96.96c-1.72-1.94-.24-3.63 1.05-4.34 1.53-.85 2.28 1.08 3.09 2.2-1.14 1.18-2.6 1.73-4.14 2.14z" fill="#eec67b"/><path d="M21.31 81.81c2.19-.1 2.26 2.52 3.95 3.06 3.42.8 3.97 4.21 5.85 6.41 2.45 2.45 3.9 5.59 5.9 8.36 2.07 4.08 5.89 7.25 6.42 12.14-3.73-.38-6.46-2.87-9.44-4.71-6.78-4.17-13.37-8.66-19.32-13.97-4.25-3.8-3.93-5.18 1.11-7.95 1.89-1.04 3.69-2.22 5.53-3.34z" fill="#fafafa"/><path d="M43.43 111.78c-2.43-3.94-4.87-7.88-7.3-11.82-.2-1.77-.08-3.33 2.29-3.34 4.28 2.42 8.56 4.85 12.84 7.27-.12 1.85.32 3.56 1.13 5.21.97 1.97 1.79 4.24-.13 5.89-2.19 1.87-4.31.21-6.23-1.04-.93-.61-1.74-1.44-2.6-2.17z" fill="#292526"/><path class="st8" d="M27.35 77.74c-7.09-15.15-4.45-24.33 9.81-34.93 13.27-9.87 28.46-15.43 44.11-20 2.09-.17 2.4 1.58 2.77 2.9 1.25 4.46 2.62 8.93 2.38 13.66-.47 3.33-2.39 5.66-4.91 7.79-2.71 2.28-5.25 2.86-8.66 1.47-6.81-2.78-8.43-1.82-9.72 5.11-.32 1.73-1.01 2.93-2.85 2.69-2.8-.36-5.19.9-7.74 1.59-4.64.53-9.3.17-13.94.28-5.3.12-5.72.48-5.81 5.65-.09 5.31.08 10.63-.28 15.93-.1.53-.3 1.04-.58 1.5-3.52 1.3-3.31-2.11-4.58-3.64z"/><path d="M85.39 40.01c-.66-5.91-1.22-11.84-4.13-17.21 12.12-3.47 24.35-6.42 36.88-8-11.23 4.54-20.19 11.54-24.98 23.05-2.42 1.29-4.92 2.36-7.77 2.16z" fill="#a39a9b"/><path d="M27.35 77.74c1.29 1.34 2.59 2.67 3.88 4.01 2.23 2.61 1.49 5.54.92 8.46-.37.88-.99 1.48-1.95 1.67-1.64-2.34-3.29-4.67-4.93-7.01.68-2.38 1.38-4.76 2.08-7.13z" fill="#b8b1b1"/><path class="st13" d="M125.31 72.8c-3.14-3.32-6.7-2.88-8.16 1.01-2.39-.99-4.18-.73-6.4 1.19-2.92 2.51-6.63 4.33-10.54 1.25-.39-.89.07-1.48.6-2.17.6-.78 2.93-.65 1.8-2.17-.99-1.34-1.18-3.19-2.38-4.09-.83-.63-1.8 1.13-2.94 1.34-2.85-.26-4.27-2.27-5.53-4.49-.14-.49-.19-.99-.18-1.49.11-3.98-2.19-4.98-5.72-5.07-4.1-.1-8.3.81-12.32-.77-.39-3.46 1.75-5.88 5.84-5.2 4.74.79 9.2-.9 13.82-.5 1.83.16 3.53-.77 5.08-1.79.74-.22 1.48-.44 2.22-.65 2.26 1.14 5.66-1.44 7.15 2.2 2.23 3.47 6.11 5.01 9.08 7.62 1.71 1.51 4.3 1.59 6.67.81 1.72-.56 3.44-1.41 5.23-.2 2.42 4.21 3.17 8.94 4.2 13.58-.16.47-.47.82-.92 1.05-2.32.06-4.4-.99-6.6-1.46z"/><path d="M98.27 49.84c-1.71 2.23-3.23 3.32-6.76 3.2-4.54-.15-9.2.7-13.92.34-1.5-.11-4 .84-4.31 3.39-.96 1.26-1.18 2.74-1.27 4.27-.14.45-.35.86-.65 1.22-5.36 3.41-10.82 6.65-16.29 9.88-5.76-3.44-6.42-4.86-4.78-10.24.81-1.78 1.33-3.74 2.99-5.02.14-.08.32-.14.42-.26 2.27-2.55 5.51-.66 7.7-1.55 2.01-.81-.86-4.71 1.27-7.09 2.42-2.71 5.11-2.5 8.14-1.8 2.84.65 5.16 4.69 8.75.84 2.09-2.25 4.95-3.77 5.83-7.02 2.29-1.83 4.91-2.41 7.78-2.16-.37 1.1-.76 2.18-1.1 3.29-2.55 8.49-2.55 8.49 6.2 8.71z" fill="#f3c875"/><path d="M111.25 34.78c.06.3.08.61.05.92.32.34.58.71.79 1.13.56 2.31-.03 4.17-2.3 5.15-1.74.76-2.73 2.12-3.53 3.71-2.42.2-4.71 1.49-7.28.52-1.76-.67-3.48-1.1-3.67-3.39-.19-2.22.59-3.99 2.61-4.87 4.23-1.84 8.62-3.22 13.33-3.17z" fill="#fbc795"/><path class="st23" d="M106.25 45.7c-.81-2.16-.34-3.82 2.07-4.34 2.59-.56 3.25-2.21 3-4.55 5.69-1.01 8.27 0 10.53 4.12-.1 1.09-.91 2.21-1.72 1.94-2.84-.92-4.59 1.36-6.89 1.95-.33-.75.72-2.7-1.38-1.92-1.95.71-3.74 1.84-5.61 2.8z"/><path d="M113.24 44.81c1.11-5.16 4.99-3.03 8.04-3.05 2.73.74 3.3 1.98 1.23 3.24-3.13 1.9-6.3 4.13-10.33 3.75-.48-.27-.83-.65-1.04-1.16.71-.92 1.41-1.85 2.1-2.78z" fill="#fcdead"/><path class="st25" d="M114.46 24.94c-.35.66-.7 1.33-1.05 1.99-1.29.91-2.99-.33-4.27.79-.29 1.56 1.93 2.39 1.18 4.07-1.9-.08-3.42-.99-4.77-2.23-1.25-1.14-1.4-2.42-.67-3.98.85-1.82 2.02-2.85 4.15-2.75 2.08.1 3.64 1.36 5.43 2.11z"/><path d="M110.32 31.79c-.08-.14-.2-.28-.24-.43-.54-1.83-4.37-2.09-2.93-4.36 1.48-2.34 4.13-1.16 6.26-.06-.63 1.94-1.27 3.87-1.9 5.81-.4-.32-.79-.64-1.19-.96z" fill="#f9c391"/><path d="M111.15 47.6c.41.08.83.16 1.24.24-.71 3.39-2.82 4.47-6.07 3.65-.27-2.39-1.99-1.66-3.34-1.46-1.04.15-2.25 1.23-2.49-.84 3.55-.53 7.1-1.06 10.66-1.59z" fill="#93b742"/><path class="st25" d="M117.42 19.84c-.33 1.27-.91 2.39-2.02 3.15-1.26-.89-1.52-2.16-.74-3.34.83-1.27 1.9-.79 2.76.19z"/><path d="M72.25 100.82c.29 1.03.58 2.06.86 3.09-3.29-1.01-6.57-2.02-9.86-3.02-3.05-1.4-6.11-2.79-9.16-4.19-1.02-1.44-.66-2.95.13-4.23 1.1-1.78 1.27-3.02-.51-4.62-1.36-1.23-1.6-3.44 1.06-3.44 3.04 0 3.49-1.99 4.18-4.03.82-2.42 2.04-4.57 4.17-6.06 2.84-1.99 6.56-.6 7.77 2.86-.55.45-1.18.76-1.82 1.04-2.35 1.37-1.1 3.57-1.23 5.44-.06.86.33 1.67 1.3 1.87.95.2 1.32-.49 1.91-1.14 2.47-2.71 8.28-1.65 9.92 1.7.29.6.66 1.62-.01 1.76-3.14.66-4.61 2.05-3.58 5.51.25.85-1.36 1.21-2.38 1.27-1.5.09-2.8-.8-4.62-1.3.76 2.79 1.94 5.01 1.87 7.49z" fill="#faddad"/><path class="st29" d="M70.34 76.99c-4.67-3.56-7.29-3.08-9.5 1.82-.54 1.2-1.02 2.44-1.33 3.71-.77 3.14-1.76 5.62-6.4 2.29 5.65 4.23 1.72 8.07.98 11.89-4.97-1.57-9.04-4.86-13.67-7.09-.35-.35-.49-.78-.48-1.27.15-1.33.64-2.57 1.19-3.78 2.45-5.42 4.12-6.08 9.44-3.77-.43-.51 0 .14-.22-.44-.82-2.18-5.39-2.47-3.52-5.65 1.54-2.6 4.77-2.41 7.61-2.03.83 1.21.85 4.21 3.42 1.48 4.17-4.42 8.89-4.16 13.86-1.54 1.48 1.55 2.49 3.23 1.5 5.46-1.26.48-2.55.98-2.88-1.08z"/><path class="st6" d="M40.35 88.79c.02.28.05.55.08.83-.71 2.05-1.42 4.11-2.13 6.16-4.15.79-5.94-1.63-6.94-5.12-.04-2.97-.09-5.94-.13-8.92l.01-.01c.38-.3.8-.39 1.27-.27 2.81 2.23 5.66 4.42 7.84 7.33z"/><path d="M31.36 91.01c1.71 2.43 3.95 4.16 6.94 4.92.03.27.07.54.12.81-1.39.66-1.63 2.08-2.29 3.21-1.98-2.59-3.95-5.18-5.93-7.77.1-.65.36-1.16 1.16-1.17z" fill="#747273"/><path d="M251.21 34.72c2.01 1.03 4.01 2.06 6.02 3.09 2.23-.04 1.57 1.66 1.49 2.74-.16 2.18-.12 4.29.79 6.31 1.25 2.77 2.64 4.37 5.18 1 1.77-2.35 3.86-2.47 5.64.06 1.25 1.77 2.76 2.17 4.72 1.45 1.27-.46 2.62-.13 3.94-.23 8.96-.66 9.67-1.46 8.79-9.98.94-1.33 2.68-1.11 3.87-2.04 1.24-.97 2.59-2.6 4.35-1.38 1.73 1.21 1.41 3.25 1.01 5.03-.34 1.54-.58 2.69 1.65 2.04 5.55.72 6.33 2.18 3.35 6.41-.77 1.09-1.45 2.23-2.11 3.38-1.1 1.39-2.55 2.24-4.21 2.77-4 2.73-8.59 3.09-13.22 3.3-1.48-.15-2.97-.63-4.44.1-4.31 1.8-7.89 4.65-11.32 7.72-1.45 1.3-2.71 2.92-4.92 2.96-4.19-2.03-8.6-.7-12.92-.81-.45-.74-.75-1.61-.44-2.37 2.99-7.26.1-14.73.82-22.07.4-4.15-3.74-4.48-6.08-6.29-2.85-3.16-6.79-1.62-10.21-2.36-3.21-2.99-5.48-6.52-6.25-10.91.44-.22 1.03-.74 1.3-.61 7.67 3.72 17.86 1.97 23.2 10.69z" fill="#f7ca76"/><path d="M106.32 51.49c2.1-1.08 4.71-1.33 6.07-3.66 3.26-1.18 6.64-2.1 9.71-3.65 1.73-.87.98-2.09-.81-2.42-1.46-5.4-6.72-3.16-9.97-4.96-.01-.37-.02-.73-.02-1.1 2-.67 3.7-2.3 6.04-1.86 2.81-.94 4.33.7 5.57 2.83.68 1.16 1.37 2.28 2.79 2.64 1.42.36 2.13-.5 2.74-1.56 1.03-1.8-.9-1.08-1.37-1.51-2.04-1.85-5.1-3.27-2.04-6.66 4.59 1.07 9.59-.98 13.99 2.12 2.1 1.47 4.7-1.45 7.1-.03 2.22 1.31 3.89-1.56 6.03-.82-.01 2.2 2.65 2.11 3.25 3.78-1.64 4.29-2.97 8.66-2.99 13.31-3.67 1.84-4.59-1.69-6.48-3.31-1.09-1.74-3.58-2.34-3.93-5.02-.71 1.83-2.66 1.68-3.57 2.95-1.62 1.6-2.59 3.85-4.8 4.88-4.25-.58-5.43 1.51-5.02 5.42.24 2.29 1.68 4.77-.46 6.93-3.15-.43-5.5 3.03-9.02 1.54-5.18-2.18-9.43-5.4-12.81-9.84z" fill="#f7cb76"/><path d="M202.87 25.96c.43-2.55.67-5.14 1.33-7.62.67-2.54 2.21-3.99 5.03-2.46.79.49 1.82.14 2.59.71 4.53 3.71 7.74 8.54 11.17 13.19 3.29 5.94 7.12 11.57 9.94 17.77.74 1.64 1.87 3.17 1.63 5.12-3.01 3.26-4.5-.42-6.58-1.44-1.86-2.17-2.55-5.15-4.84-7.03-2.91-1.03-5.82-1.94-8.8-.21-.37.25-.75.48-1.12.72-2.73 1.19-2.7 5.53-6.4 5.61-1.95-.57-2.76-2.21-3.58-3.84-.22-.52-.39-1.04-.53-1.59-1.3-6.31-1.59-12.63.16-18.93z" fill="#3e3a3b"/><path d="M202.87 25.96c.5 6.51-.85 13.13 1.18 19.55-.3.15-.64.39-.91.32-11.73-3.07-23.96-3.82-35.56-7.49-1.19-1.89.5-2.29 1.58-2.61 3.36-.99 5.04-3.4 6.18-6.47 1.26-3.37 3.55-5.46 7.36-5.42 2.58.32 4.53 1.92 6.61 3.28.75.59 1.31 1.34 1.73 2.2.85.92.68 4.14 3.16 1.38.78-.72 1.82-1.2 2.75-.96 3.25.84 4.31-1.22 5.21-3.62.23-.07.47-.12.71-.16z" fill="#e7b667"/><path d="M152.13 47.78c-1.69-5.07-.51-9.43 3.26-13.14.26.09.53.16.8.22.51.36 1.16.41 1.67.78.83.65 1.58 1.38 2.34 2.12 1.99 2.33 3.76 4.82 5.57 7.29.43.51.86 1.01 1.31 1.49 1.66 1.83 3.53 3.43 5.48 4.95 1.87 2.62 4.32 4.72 6.44 7.13.6.87.97 1.79.69 2.88-.24.51-.62.87-1.12 1.11-5.57 1.48-10.86-.14-16.19-1.4-7.3-2.52-10.72-7.01-10.25-13.43z" fill="#e4b923"/><path class="st23" d="M152.14 30.85c-1.96.71-3.1 3.8-5.92 2.06-4.16-4.71-10.32-6.58-15.8-4.63-1.7.6-3.46.93-5.16 1.53-1.86 6.96 4.39 5.12 7.66 6.97-3.21.01-2.99 4.7-6.61 4.13-1.94-.31-3.76-.4-4.08-2.74-.41-2.91-2.83-3.38-4.9-4.33-.38-4.81-.45-10.22 4.95-11.72 4.24-1.18 7.9-2.88 11.69-4.91 2.81-1.51 5.99-.64 7.41 2.82 1.05 2.57 2.48 3.81 5.52 3.93 4.04.16 5.66 2.94 5.24 6.89z"/><path d="M157.26 35.82c-.35-.32-.71-.65-1.06-.97 2.43-1.54 4.99-2.57 7.96-1.95.63.13 1.79.35 1.86.18 2.11-5.01 8.07-5.33 11.08-9.08 5.77-7.2 13.64-7.65 19.11-.39 1.8 2.39 3.88 1.93 5.96 2.5.38 3.21.44 6.04-4.3 4.77-1.18-.31-2.67-.37-3.62.92-2.06.8-2.78-1.1-4-1.99-.35-.61-.69-1.23-1.04-1.84-1.35-2.19-3.16-3.51-5.88-3.19-3.09.04-5.8 1.11-6.58 4.25-1.27 5.13-4.38 7.87-9.47 8.62-3.81 1.96-6.86-.23-10.02-1.83z" fill="#f6ca76"/><path d="M211.07 16.86c-.61-.32-1.22-.65-1.83-.97 2.76-3.34 5.37-3.1 8.61-.32 3.25 2.79 6.13 5.86 8.88 9.09 2.16 3.39 4.33 6.79 6.49 10.19 4.04 4.22 6.2 9.15 5.76 15.08-.52 1.07-1.33 1.59-2.54 1.27-1.41-.93-1.39-2.58-2-3.92-3.24-9.93-9.11-18.33-15.51-26.39-1.97-2.48-4.08-4.98-7.86-4.03z" fill="#504a4b"/><path d="M288.24 38.73c-.24 2.28 2.22 3.57 1.52 6.45-1.54 6.33-6.85 4.08-10.5 5.28-1.8.6-3.92-.17-5.98 1.02-1.66.96-3.13-.81-3.78-2.36-1.43-3.39-2.67-2.72-4.23-.11-2.24 3.74-3.84 3.61-6.3.06s-.95-7.55-1.74-11.26c3.94-2.17 8.45-2.86 12.27-5.69 3.43-2.54 7.6-1.21 11.06 1.28 1.73 1.25 3.34 2.75 5.72 2.49 2.15-.09 2.22 1.26 1.96 2.84z" fill="#fbcf84"/><path d="M288.24 38.73c-.66-.95-1.31-1.89-1.97-2.84-.78-3.9-3.95-5.43-7.02-7.04-.71-.37-1.69-.65-1.47-1.67.22-1.04 1.06-1.04 1.96-.76.6.19 1.79.31 1.63-.32-.35-1.34-2.48-3.48.79-2.97 3.54.55 8.51-1.12 10.16 3.85.91 2.74 2.6 3.76 4.92 4.86 6.4 3.01 11.12 8.23 16.12 13.03 1.32 1.05 2.93 1.93 2.41 4.07-.73 1.62-2.17 1.23-3.44 1.15-2.71-.18-5.25.35-7.68 1.53-1.48.72-3 1.54-4.52-.05.17-1.71 1.79-2.27 2.69-3.37 1.07-1.31 2.27-2.62 1.22-4.37-.98-1.62-2.59-1.03-4.03-.7-.63.14-1.32.15-1.83.65-1.07.23-1.62 2.03-2.94 1.21-1.37-.85-.66-1.92.04-2.94 1.22-1.76 1.79-4.18.33-5.44-1.58-1.37-2.71 1.1-3.82 2.1-1.31 1.19-2.37.68-3.55.02z" fill="#ef9445"/><path d="M315.32 48.74c-.66-1.29-1.31-2.57-1.96-3.85 2.8.45 4.89 2.49 5.01 4.81.35 6.85 5.06 6.97 9.89 7.3 6.23 5.15.74 10.7.55 16.11-1.69-.02-2.17-1.89-3.57-2.33-3.2-.93-6.47-1.72-9.08-4-.02-.29-.01-.57.01-.85-.64-.94-.24-1.87 0-2.8 1.16-3.21.82-6.41-.07-9.61-.5-1.56-.44-3.2-.78-4.78z" fill="#fad089"/><path class="st41" d="M236.21 51.1c.69-.42 1.38-.83 2.07-1.25.94-1.19 2.17-1.84 3.68-1.96 1.99-.21 4.3-1.64 5.31 1.6.83 2.66-.34 3.83-2.71 4.84-2.88 1.23-1.98 3.73-1.36 6.01 1.4 5.14.53 6.17-4.73 5.65 0 1.04.64 1.86.95 2.79.51 1.52.63 2.97-.79 4.05-1.56 1.19-3.08.68-4.58-.28-1.56-1-2.56-3.3-5.04-2.25-.99.47-1.76 1.19-2.43 2.05-1.15 2.07-2.23 4.35-4.98 1.69-.9-.98-1.73-2.01-2.5-3.1-3.59-5.04-5.48-5.59-11.37-3.28-1.09.43-2.13.96-3.35.76-2.75-1.15-4.25.14-5.48 2.53-1.05 2.04-2.36 4.47-5.27 2.77-2.61-1.53-2.82-3.86-1.22-6.25-1.64 1.44-2.35 4.09-5.04 4.54-2.05 3.85-.61 8.03-.97 12.03-.36 3.9.05 7.91.17 11.87.14 4.39 1.75 5.34 6.1 4.35 2.61-.59 4.52-2.79 7.3-2.87.64.21 1.36.51 1.53 1.13 1.36 4.89 5.27 8.46 6.84 13.23-.75-.24-1.83-.24-2.19-.75-2.61-3.75-5.25-2.53-7.97-.23-2.63.79-4.36-1.2-6.3-2.25-2.46-1.33-2.43-2.99 1.08-4.48-2.69.69-4.04 2-5.56 3.03-5.98.93-7.62-.04-7.75-4.58.71-.83 2.38.84 2.66-1.05-.75-1.44-2.32-1.84-3.41-2.82-1.44-1.28-2.09-3.59-.44-4.13 3.62-1.18 1.06-2.6.65-3.98-.62-2.11-2.28-4-.58-6.48 3.63-5.28 3.55-5.34-2.47-6.44-.64-.17-1.26-.39-1.9-.55-1.1-.27-2.6-.27-2.9-1.54-.39-1.63 1.16-2.13 2.3-2.77.46-.26.67-.68.5-1.43-5.73 3.54-11.13 7.63-17.89 8.95-.49-.05-.91-.24-1.26-.58-.78-2.54-.68-5.09-.08-7.64 2.76-.78 5.73-.27 8.43-1.41 2.47-.47 3.89-1.29 1.49-3.74-1.9-1.93-4.51-3.66-2.43-6.99 5.53 1 11.01 2.4 16.71 1.88 1.42-.95 2.82-.3 4.23.01.28.06.51.51.84.15-.73-3.34 1.34-3.77 3.66-3.12 1.92.54 4.16.21 5.66.9 3.76 1.72 6.51-.18 9.56-1.42 2.73-.28 4.73 2.42 7.52 1.8-1.37-2.51-4.31-1.91-6.36-3.11 1.66-4.34 2.77-4.52 7.75-1.25-1.16-2.08-3.97-2.84-4.44-5.49 2.39-1.79 2.03-5.84 5.54-6.72 2.64 1.41 4 5.54 8.34 3.41 1.59-.78 1.78 1.45 2.12 2.62 1.12 3.82-.16 7.8.72 11.69.97-.59 1.38-1.81 2.48-2.23 4.42-2.68 4.42-2.68 1.16-6.43-.19-.73-.09-1.38.51-1.9 2.36-.5 2.79 4.76 5.91 1.97.39-.81.92-1.5 1.98-1.55z"/><path d="M208.33 111.78c-4.06-3.88-6.55-8.68-8.15-13.99-.79-1.19-.26-1.99.77-2.65 1-.44 2.05-.48 3.12-.34 1.76.35 3.43.93 4.83 2.1 2.57 2.76 5.84 3.76 9.51 3.77 1.72.23 3.34.81 5 1.27 2.44.75 4.98.96 7.46 1.53 2.03.84 5.35.4 4.3 4.31-3.78 1.66-7.63 3.19-11.34 5-5.41 2.64-10.52 2.2-15.5-1z" fill="#e2b825"/><path d="M262.16 68.78c5.11-4.5 10.13-9.12 16.58-11.72.12.48.3 1.05.05 1.44-4.66 7.07-8.95 14.4-14.71 20.69-2.26.29-2.76-1.05-2.75-2.78-2.56 3.63 1.02 7.32.23 11.08-.65 4.44.05 9.04-1.68 13.34-1.72.17-2.35-1.32-3.37-2.21-2.45-2.86-2.29-7.36-5.95-9.46-1.66-2.04-1.66-4.18-.39-6.39 3.35-5.22 6.21-10.86 11.99-13.99z" fill="#373131"/><path d="M289.46 90.4c-1.17.47-2.07 1.34-3.54 1.43-6.42.38-7.87 2.97-5.34 9.05-.19.81-.27 1.72-1.4 1.79-6.6-1.41-8.69-4.21-9.45-12.64 3.75-6.53 8-12.19 16.93-9.69 3.59.41 3.64 3.7 4.91 6 .19 1.82-.26 3.31-2.11 4.06z" fill="#464242"/><path d="M270.42 89.86c.35 6.03 3.19 10.35 8.75 12.82-3.07 1.94-6.46 3.21-9.95 3.98-4.37.96-6.58-.99-6.88-5.57-.24-1.21-.21-2.41.27-3.57 2.12-3.05 3.49-6.87 7.81-7.66z" fill="#393433"/><path d="M235.16 107.78c-.29-3.02-2.83-2.67-4.78-3.2.95-2.38.14-4.35-1.14-6.43-1.29-2.09-3.07-3.99-3.34-6.6.37-1.14 1.17-1.34 2.22-1.01 1.87 1.24 2.88 3.21 3.96 5.04 1.59 2.68 3.13 4.74 6.29 1.82.47-.43 1.27-.3 1.94-.22 2.83 1.24 6.25.74 8.73 3l.24.69c-1.3.65-2.61 1.3-3.91 1.95-2 .84-3.26-1.17-4.87-1.3 1.26.72 2.99.95 3.74 2.62-1.36 5.38-5.12 4.75-9.08 3.64z" fill="#f9dda9"/><path d="M251.31 88.77c4.72 1.71 4.25 6.15 5.19 9.85-.77 3.53 3.42 2.95 4.38 5.28-2.8 2.93-6.12-2.41-8.61.8-1.74-1.87 1-2.66.55-4.16-1.2.25-2.33 1.09-3.56.33l-.09-.14c-.56-.71-.75-1.66-.15-2.21 2.87-2.68 2.59-5.9 1.83-9.25.15-.17.3-.34.46-.5z" fill="#f4d8a7"/><path d="M187.29 106.77c1.7-3.9 5.04-3.56 9.06-3.74-1.6 2.52-4.41 1.25-5.37 3.67 2.26 1.29 4.72 2.69 7.19 4.1.04.85-.16 1.59-.96 2.05-.98-.38-1.96-.76-2.94-1.13-2.85-.92-5.73-1.78-6.98-4.95z" fill="#f9dbab"/><path d="M263.28 97.92c-.23 1.08.56 2.46-.93 3.17-.82-.08-1.64-.17-2.46-.25-.91-4.69.05-9.32.45-13.96.59-.62.14-2.21 1.58-1.96 1.11.2 1.23 1.36 1.49 2.29.33 3.57.29 7.14-.13 10.71z" fill="#bdb5ac"/><path d="M244.22 104.13c-1.81-1.01-4.03-1.37-5.58-3.68 2.81-.09 4.53 1.85 6.71 2.36-.38.44-.76.88-1.13 1.32z" fill="#97bf50"/><path class="st14" d="M187.29 106.77c2.09 1.98 5.27 2.42 6.98 4.94-.21.25-.37.57-.62.76-8.04 5.71-7.2 8.24-16.08-.78-4.29-4.35-7.03-3.88-11.81 1.44-1.12-3.02-1.33-6.7-5.5-7.32 1.12-3.9.03-6.69-4-8.02-.71.05-1.49-.18-1.6-.84-1-5.75-1.92-11.53.67-17.15.22-.01.44-.01.66-.01 3.12.52 5.38-3.17 8.68-1.76.96 1.98-.18 3.52-1.09 5.08-1.36 2.34-2.13 4.78-2.06 7.56.2 7.89 5.22 11.39 12.65 8.69 1.07-.39 2.07-1.13 3.3-.52 1.17 1.15 2.98 1.83 2.88 3.92 1.11 3.53 1.11 3.53 6.94 4.01z"/><path d="M73.36 77.55c-.68-1.5-1.36-3.01-2.04-4.51.45-2.16 2.25-2.63 3.99-3.18 2.54.06 15.86 3.42 17.2 4.32 1.91 2.27 1.44 5 1.46 7.63-.15.99-.65 1.78-1.35 2.46-3.51 3.09-3.51 3.09.65 6.2.27.41.31.83.07 1.27-.5 1.91 2.66 3.03 2.02 3.39-4.71 2.68.21 9.34-5 11.57-.26-3.76-2.77-6.57-4.12-9.87-2.57-2.34-3.32-5.53-4.2-8.7-.93-3.39-2.49-5.91-6.8-5.52-1.05.1-6.02 1.49-2.94-3.2.66-.45 1.49-.79 1.06-1.86z" fill="#fadfb0"/><path class="st52" d="M150.29 104.84c-7.98 5.31-12.69 3.57-15.71-5.59-1.7-5.17-4.26-10.04-5.4-15.4 1.55-4.32 4.88-6.3 9.2-6.97 2.11.32 2.78 1.6 2.14 3.53-.94 2.86-.68 5.84-.88 8.75-.48 7.26 3.1 10.95 10.46 11.19.82.03 1.64-.06 2.37.43.6 2.07.39 3.7-2.18 4.06z"/><path d="M93.34 91.73c-.04-.29-.09-.58-.15-.86-2.67-2.04-2.68-4.45-.98-7.09.38-.63.77-1.26 1.15-1.88 1.57-2.89 3.44-5.41 6.99-6 4.08 1.39 7.95.93 10.52-2.64 2.75-3.82 4.47-2.89 6.27.55.44 1.36 4.43-.15 2.52 3.12-1.42 2.44-.49 7.4-5.08 6.49-4.14-.82-7.9.63-11.85.43-3.25-.17-3.73 2.81-4.99 4.85-1.01 1.67-1.13 4.64-4.4 3.03z" fill="#ed9345"/><path class="st10" d="M126.21 88.96c1.24 3.28-1.6 1.43-2.5 1.88-1 .5-1.91 1.15-1.7 2.13.28 1.33 1.7.99 2.44.59 3.11-1.73 3.88-.56 3.99 2.58.09 2.56 2.57 4.13 3.87 7.04-2.34-.94-4.54-2.82-6.15.07-2.35-3.72-4.14.69-6.18.4-1.99-.28-2.8-1.88-2.17-3.7.75-2.17.03-3.48-2.34-4.84 1.54 3.25-1.23 5.55-2.42 5.49-3.17-.16-6.49-1.14-10.58-3.57 4.35-.7 8.03.68 9.89-3.26-1.2-.9-2.74-2.07-5.63-4.25 4.34 1.54 7.32 2.8 8.69-1.63.42-1.37 2 .16 3.06.27 1.96.19 3.93.36 5.9.53.69-.45 1.3-.39 1.83.27z"/><path class="st54" d="M150.29 104.84c1.13-1.03 1.8-2.28 1.81-3.84-.27-.4-.42-.84-.44-1.32.03-.47.09-.93.17-1.39.31-3.28.14-6.57.13-9.85-.02-6.33-.58-6.69-6.99-4.78-.85.41-1.72.79-2.67.89-.83-.05-2.27-.54-1.97-.96 1.95-2.71.57-7.12 5.11-8.68 2.75-.95 5.14-3.21 7.93-4.48 1.06-.16 1.96-.07 2 1.32.42 2.69.51 5.39-.06 8.07.52 5.98-1.28 12.09.93 17.98-.14.94-.54 1.94-.35 2.81.27 1.27 2.32 2.65.51 3.72-1.73 1.02-3.9 2.68-6.11.51z"/><path d="M126.21 88.96c-.61-.09-1.22-.17-1.83-.26-6.11-4.39-12.45-7.62-7.2-16.1.21-3.23 17.06-6.65 10.83 14.09.54 1.5-.5 2.06-1.8 2.27z" fill="#e68c40"/><path d="M138.38 77.68c-4.04.59-6.17 4.06-9.2 6.16l-3.87-11.04c2.4-1.92 4.18-.16 6.06 1.02.56 1.49.79 3.35 3.24 2.06 1.87-.98 3.52-.89 3.77 1.8z" fill="#f3a555"/><path class="st10" d="M114.25 105.79c-1.98-.35-3.96-.69-5.94-1.04-.49-1.18-2.57-.95-2.38-3.36 3 1.37 6.63.72 8.32 4.4z"/><path class="st13" d="M289.46 90.4c.51-1.22 1.02-2.43 1.53-3.65-.95-5.25 1.8-10.01 2.3-15.49-4.49 1.52-6.39 6.88-11.45 6.44-1.19-1.99-1.68-4.24-2.52-6.37-.15-4.68 1.01-9.1 2.68-13.41 4.48-.75 8.98-1.4 13.23-3.1.62 3.76 2.73 6.64 5.64 8.88 1.61 1.23 3.53 2.9 5.32.03 3.66-.55 7.31-1.2 10.97-.02-.33.74-.66 1.47-.99 2.21-2.16.9-1.99 2.74-1.97 4.61.03 4.98-.05 9.95-.07 14.93 0 1.81-.25 3.33-2.61 3.31-3.28-.03-6.56-.06-9.84.06-2.06.07-3.88-.39-4.1-2.6-.19-1.91 1.33-3.31 2.85-4.32 2.39-1.59 5.36-.85 8.35-1.55-6.42-3.34-13.04.44-14.64 8.08-.68 3.22-1.69 4.73-4.68 1.96z"/><path d="M316.15 66.78c3.29.74 6.79 1 9.08 4-.26 7.53-2.24 9.51-8.98 9.03-.03-4.35-.06-8.69-.1-13.03z" fill="#e3b468"/><path d="M73.48 79.63c-.69.59-2.66 1.1-.54 2.06 1.04.47 2.68.17 3.85-.29 2.74-1.09 3.85-.02 4.68 2.52 1.43 4.35 3.17 8.6 4.77 12.89-4.12 3.23-8.75 4.7-13.99 4.01-1.8-2.93-2.93-6.09-3.84-9.69 3.24.27 5.04 3.8 8.21 2.22-2.84-5.06-2.39-5.75 4.18-6.04-1.3-1.79-3.06-2.9-4.89-3.24-.94-.18-4.53-2.98-3.54 1.82.07.35-1.79 1.41-2.85 1.59-1.49.26-3.07-1.4-2.98-2.13.38-2.84-2.32-6.4 1.7-8.48 1.13 2.08 4.32.27 5.24 2.76z" fill="#f3c985"/><path class="st8" d="M32.15 81.85c-.31 0-.61-.04-.92-.11.03-6.99.19-13.99.03-20.98-.07-3.1 1.02-4.06 4.04-3.96 5.99.2 11.99.09 17.98.1-.57 1.69-.57 3.6-1.97 4.95-2.91.94-5.5 2.17-6.15 5.65-.26 1.42-1.46 2.17-2.8 2.5-5.41 1.34-8.53 4.67-9.12 10.28-.08.66-.5 1.2-1.09 1.57z"/><path d="M155.38 71.74c-.38-1.08-1.09-1.49-2.19-1.03-2.81.68-5.44 1.57-8.1 2.92-3.92 1.99-8.44 1.87-12.7.11-2.19-4.41-2.96-9.26-4.23-13.95-.28-2.26-.55-4.52-.83-6.78-.92-7.61-.28-8.18 6.91-6.16 10.76 3.66 20.4 9.02 27.28 18.39 1.34 1.82 2.63 3.87 1.49 6.38-2.54.55-5.04 3.01-7.63.12z" fill="#3d3839"/><path class="st60" d="M92.24 75.03c-2.26-1.43-4.49-3.06-7.3-1.3-1.32.83-2.12.02-3-.79-1.81-1.67-4.02-2.2-6.42-2.09-2.89-2.4-3.48-5.83-4.1-9.24.05-.25.08-.49.1-.74 8.63-5.23 16.14-4.08 20.69 3.18.11.3.2.61.27.92 1.51 2.7 1.05 5.7 1.28 8.59-.13.87-.52 1.48-1.52 1.47z"/><path class="st52" d="M132.39 73.75c4.69-1.21 10 1.74 14.34-2.5 1.6-1.57 4.19-1.75 6.46-.54 0 .49.1 1.39-.03 1.43-2.72.73-4.54 4.27-6.43 4.26-5.87-.04-2.57 5.75-5.43 7.25.32.06.65.12.97.19.21.45.34.93.26 1.43-1.67 10.38-1.33 10.92 8.53 13.68.48.13.85.48 1.18.85-.04.4-.09.8-.13 1.2-6.65 3.17-15.3-3.98-13.85-11.06.73-3.55-.94-7.42 1.64-10.75.55-.71-.75-1.23-1.52-1.5-.97-1.29-1.82-2.24-3.49-.58-.95.95-2.57 1.86-3.94.67-1.53-1.32-.16-2.67.41-3.96.35-.02.69-.05 1.03-.07z"/><path class="st61" d="M92.24 75.03c.33-.38.66-.76.98-1.14.18-2.64 2.36-3.68 4.08-5.09.94-1.59 2.03-3 4.33-3.81.36 3.15.38 6.51 4.45 7.74-2 1.67-4.7.98-5.73 3.16l-6.99 6c-1.51-2.1.23-4.73-1.12-6.86z"/><path class="st13" d="M92.21 64.04c-6.02-6.81-13.33-5.16-20.7-3.18-.38-1.78-2.39-4.28 1.78-4.09 4.8.02 9.6.02 14.39.06 5.01.04 6.11 1.81 4.53 7.21z"/><path d="M97.3 68.8c-.04 2.76-2.94 3.22-4.07 5.09-1.55-2.87-.56-5.95-.75-8.94 2.08.69 3.12 2.69 4.82 3.85z" fill="#45403e"/><path d="M32.15 81.85c.33-8.16 1.96-10.6 9.53-12.84 2.08-.62 2.24-1.64 2.71-3.34.93-3.39 2.98-5.52 6.92-3.81-2.51 4.89 1.11 7.19 4.11 9.75.26.98-.16 1.35-1.11 1.27-.94.31-1.89.59-2.82.92-1.4.51-3.69-.44-4.07 1.73-.51 2.95 2.6.63 2.94 1.6.63 1.81 1.15 3.54 2.69 4.81.15.12-.06 1.03-.36 1.26-.28.22-.9.12-1.33.01-2.36-.64-4-5.21-7.02-1.76-1.79 2.04-2.69 4.86-3.99 7.34-3.52-1.39-5.92-4.09-8.2-6.94z" fill="#f8dca7"/><path class="st60" d="M54.31 72.87c.37-.42.74-.85 1.11-1.27 4.41-4.81 10.3-7.23 15.99-9.99 2.7 2.49 2.71 6.17 4.1 9.24-1.4.73-2.79 1.46-4.19 2.18-.89.18-1.61.89-2.7.04-3.92-3.05-6.98-1.09-9.94 1.83-1.03 1.02-1 3.78-3.35 2.77-2.2-.94-1.37-3.03-1.02-4.8z"/><path d="M73.48 79.63c-1.29-1.78-4.84.71-5.24-2.76l2.1.12c.89.82 1.96.67 3.02.55.87.42 2.61-.3 2.47 1.34-.09 1.16-1.48.69-2.35.75z" fill="#a2c055"/><path class="st65" d="M228.23 90.77c-.91.04-1.82.07-2.45.89-.21.4-.53.69-.93.89-.62.27-1.26.47-1.91.67-.91.31-1.83.59-2.78.73-2.08.23-4.16.22-6.25.23-2.11-.23-4.5.43-5.98-1.83-.18-2.41 1.67-2.5 3.27-2.74 1.79-.26 3.62-.03 5.42-.16 1.71-.13 3.95.66 4.81-1.48.87-2.16-.33-4.12-1.54-5.92-1.11-1.65-3.46-1.99-4.23-4 .4-3.23.85-6.4 5.44-5.42.71 1.24.63 2.73 1.24 4 .73 2.07 2.17 3.68 3.58 5.26 1.71 1.92 3.57 1.06 5.33-.03 2.12-1.31 1.01-2.6.07-4.09-1.54-2.45-3.42-4.82-3.12-8 1.42-2 2.8-2.88 4.5-.18.87 1.39 1.9 2.78 3.69 3.15.89.19 1.71-.19 2.18-.91 1.22-1.85-.6-3.03-1.12-4.5-.43-1.21-1.8-2.52-.75-3.66 1.45-1.58 2.15.5 3.08 1.16.87.62 1.67 1.16 2.64.29.84-.74 1.09-1.74.65-2.72-1.86-4.1-4.89-8.38 2.89-9.77 1.39-.25.34-2.1.16-3.08-.43-2.25-1.39-.91-2.31-.19-.61.47-1.23.15-1.65-.48-2.04-3.09-1.52-6.64-1.68-10.03-.08-1.54.64-3.02 2.78-2.07 2.03 1.04 4.05 2.1 6.1 3.11 1.37.67 2.04 1.81 1.77 3.21-1.67 8.5 1.89 17.36-1.85 25.7.05 1.02-.29 1.87-1.12 2.5-.84.52-1.81.65-2.73.95-5.45 1.73-6.31 3.31-5.44 9.97.02.48-.03.95-.15 1.41-.24.68-.64 1.25-1.12 1.78-2.17 2.03-4.58 3.71-7.3 4.93-.81.29-1.64.48-2.51.48-.26-.01-.47-.03-.68-.05z"/><path d="M248.12 70.72c.37-.64.74-1.28 1.12-1.92 4.3-3.29 8.61-2.41 12.92-.02-3.8 4.62-7.91 9.01-10.9 14.26-3.15-1.61-6.56.34-9.75-.72-.41-.31-.63-.72-.68-1.23 1.62-3.28 3.63-6.28 6.32-8.79 1.11-.57 2.34-.36 3.52-.45-1.01-.05-1.95-.18-2.55-1.13z" fill="#e2b367"/><path d="M306.09 64.82c.18.71.97 1.71-.38 1.92-5.06.79-11.56-6.65-10.48-11.91 1.37-.61 2.27-2.15 4.01-2.04 6.23-2.5 10.74-.27 14.09 5.12-.43 3.68-3.67 3.18-5.97 3.75-2.26.57-2.87 1.28-1.27 3.16z" fill="#fbcf88"/><path d="M282 57.92c1.02 4.85-1.84 9.19-1.81 13.91-4.91-1.43-7.56 1.03-9.39 5.24-1.22 2.82-3.28 4.03-6.28 2.25-.15-.18-.29-.36-.44-.55 4.17-7.72 9.76-14.49 14.66-21.72 1.32-.56 2.24.32 3.26.87z" fill="#9e9899"/><path d="M313.16 58.79c-1.68-1.36-3.34-2.43-4.68-4.49-2-3.09-6.1-.97-9.24-1.52-.2-1.59.34-2.85 1.45-4.03.94-1 2.8-1.79 1.95-3.59-.89-1.86-2.86-1.21-4.45-1.38.95-.63 1.86-1.31 2.84-1.88 1.34-.79 2.62-1.23 3.97.22 1.41 1.5 1.16 2.89.3 4.49-1.04 1.94-2.67 3.3-4.28 5.02 4.52-2.57 9.36-3.02 14.3-2.89 1.14 1.14 1.85 2.47 1.84 4.12-1.06 2.16.43 6.04-4 5.93z" fill="#f9ab59"/><path d="M243.23 36.78c-1.78.2-2.22 1.23-1.64 2.78 1.14 3.06.51 6.2.54 9.31-1.29.32-2.57.65-3.86.97.06-5.59-3.23-10.06-5.06-15.02 3.44.17 7.35-2.12 10.02 1.96z" fill="#e5b566"/><path d="M163.01 71.62c-1.71-6.22-5.65-10.81-10.94-14.18-5.83-3.71-11.88-7.07-17.83-10.59.24-2.56 2.15-3.79 4.03-5.04 2.6.45 5.51-.34 7.68 1.87 2.62.52 2.84 4.67 6.18 4.1 1.74 5.43 3.67 10.71 10.17 12.15-.11 2.49.77 4.49 2.91 5.87 1.39.89 3.26 1.84 2.74 3.67-.65 2.29-2.9 2.31-4.94 2.15z" fill="#e7b767"/><path d="M125.27 29.81c3.75-2.07 7.11-6.25 11.97-2.16 4.13-2.52 6.01 1.47 8.73 3.03 1.11.63 1.35 1.35.26 2.24-1.01-.51-1.97-1.4-3.17-.39-.76.64-1.85 1.75-2.57 1.12-4.46-3.93-10.61-.82-15.22-3.84z" fill="#fddead"/><path d="M145.95 43.68c-1.84-.25-3.65-1.33-5.54-.34-1.81.95-1.39-1.08-2.14-1.53.15-.64-1.57-2.43.36-1.79 3.81 1.26 1.11-1.82 2.35-2.75 1.65 2.13 3.31 4.27 4.97 6.41z" fill="#92b946"/><path d="M203.13 58.86c-4.55 5.21-9.92 2.73-14.89 1.19-2.29-.71-3.31-.68-3.99 1.56-2.24-.15-2.24-.15-2.34-3.12-.71 2.13-.71 2.13-2.7 1.89l-1.26-1.65c-.17-.95.19-1.78.55-2.61.8-1.62.28-3.61 1.38-5.15 2.15-1.24 1.77 1.67 2.8 2.05 2.92-2.37-.26-4.37.04-6.48.14-.46.42-.8.87-.99 3.94 1.26 6.23 5.18 10.36 6.29 1.62.43 3.06 1 4.71.42 3.08-.63 3.35-4.17 5.72-5.53.84 1.34 1.42 2.9 3.06 3.56 3 2.05 5.69 4.39 7.8 7.76-4.19 1.41-6.65-7.43-11.01-1.44.27 2.12.27 2.12-1.1 2.25z" fill="#fbda9e"/><path d="M180.42 50.74c-.61 1.97.68 4.28-1.08 6.05-2.54-2.75-.57-6.39-1.7-9.55-1.96 1.16-2.52 3.87-5.1 3.87-2.22-2.28.7-3.75.91-5.73-2.49.11-4.66 1.89-7.23 1.36-.36-.32-.73-.63-1.09-.95 1.85-4.24 5.91-3.13 8.59-4.19-4.39-1.12-9.9-.81-14.54-3.7-.64-.69-1.28-1.39-1.92-2.08 3.34.62 6.68 1.23 10.02 1.85 12.26 2.62 24.92 3.33 36.77 7.85.11.4.21.8.32 1.21-1.85 4.98-1.85 4.98-5.2 6.14 1.5-6.18 1.51-6.21-5.44-7.61-2.61-.53-5.27-.87-7.82-1.6-2.38-.68-1.79 1.13-2.18 2.17-.25.11-.45.27-.61.48-.43.58-2.12-2.06-1.75.73.16 1.27.1 2.66-.95 3.7z" fill="#faf3c9"/><path d="M228.3 50.73c-.03.63-.07 1.26-.1 1.89 2.78 2.69 2.24 5.01-.77 7.07-2.61.51-1.54 4.38-4.36 4.89-1.09-5.58.24-11.17-1.05-16.57-3.86 2.42-6.49 1.15-9.05-4.42l.07.02c3.64-.84 7.32-.79 11.01-.42 2.27 2.02 3.25 4.78 4.25 7.54z" fill="#fbdead"/><path d="M211.07 16.86c2.14-3.34 4.32-1.62 5.99.26 7.79 8.82 15.02 18.02 18.17 29.7-1.74.53-1.75.54-3.01-1.71-2.98-5.35-6.08-10.61-10.23-15.16-3.64-4.37-7.28-8.73-10.92-13.09z" fill="#a29c9e"/><path d="M221.99 29.95c5.69 3.48 8.2 9.37 11.35 14.8.46.79.13 2.43 1.89 2.07 1.29 1.21.62 2.86.98 4.28-.67.53-1.33 1.07-2 1.6-3.39-7.96-8.29-15.09-12.22-22.75z" fill="#8b8486"/><path class="st41" d="M224.05 43.18c-.66.99-1.37 1.87-2.73 1.08-1.46-.85-2.73-3.03-3.97.67-.5 1.49-2.56-1.6-4.31-1.33 3.55-3.44 7.31-1.32 11.01-.42z"/><path d="M183.32 24.79c3.34-3.21 4.71 1.27 7.01 1.99.93.29-.52.93-1.13 1.19-1.96-1.05-3.92-2.12-5.88-3.18z" fill="#fcdeb0"/><path d="M190.24 29.82c1.77-.22 2.6 1.46 4 1.99.59 1.35.56 2.5-1.29 1.75-1.53-.62-2.75-1.82-2.71-3.74z" fill="#f9daa9"/><path d="M172.16 51.42c1.98-2.4 3.96-4.8 6.26-7.6 1.35 4.53.54 8.81.92 12.97-.46.65-.92 1.29-1.38 1.94-2.16-2.05-4.93-3.57-5.83-6.71 0-.19.01-.4.03-.6z" fill="#f3e74d"/><path d="M159.17 37.91c5.46.92 10.92 1.83 16.97 2.85-3.54 3.17-7.99 2.55-11.02 5.05-1.98-2.64-3.97-5.27-5.95-7.9z" fill="#f3e648"/><path d="M172.16 51.42c.03.2.02.4-.04.6-2.85-.77-4.33-3.08-5.91-5.27 3.13-1.22 6.26-2.44 9.86-3.85-.49 3.67-4.19 5.2-3.91 8.52z" fill="#f2e64b"/><path d="M179.21 60.38c2.25 1.33 1.87-1.55 3.1-1.93 1.74.37-1.09 3.59 1.93 3.16 1 .36 2.31-.41 3.26 1.11-3.04.47-5.83.71-8.48-.91.06-.47.13-.95.19-1.43z" fill="#8abd4e"/><path d="M269.44 41.73c3.63-.27 5.56 1.01 7.54 2.13-2.52.52-4.59-.33-7.54-2.13z" fill="#95bd45"/><path d="M313.16 58.79c2.75-1.02 2.24-4.25 4-5.94.93 3.62 2.27 7.24 0 10.86-3.59 1.39-7.39.57-11.06 1.11-1.57-.35-3.67-.52-3.56-2.53.12-2.08 2.33-1.09 3.61-1.48 2.32-.71 4.67-1.35 7.01-2.02z" fill="#ef9344"/><path class="st14" d="M177.24 99.73c-2.59-.46-4.08 2.15-6.72 2.16-7.92.03-12.81-8.51-9.51-16.77.97-2.43 3.5-4.16 3.17-7.14 3.63-3.92 7.89-1.54 11.94-1.2.82.13 1.9.64 2.41.3 1.48-.98 2.51-1.32 3.62.48 1.01 1.64 1.16 3.44-.18 4.55-5.72 4.75-2.05 8.37 1.18 12.14.29.34.42.82.61 1.21-.34.31-.53.62-.81.72-1.63.65-2.66-3.81-4.29-.79-1.37 2.52 1.77 2.49 2.9 3.62.74.74 3.81.43 1.56 2.84-2.58 1.03-3.96-1.28-5.88-2.12z"/><path class="st87" d="M187.38 71.96c1.46-2.4 3.23-4.5 5.71-6.02.99 1.46-.21 2.29-.52 3.25-.65 2 .28 3.3 1.9 4.01 2 .88 2.34-1.05 3.17-2.2 1.61-2.23 1.77-7.61 6.62-3.23.74.59 1.58 1.09 1.57 2.21-.02 2.45-2.19 4.43-1.52 7.52 2.51-1.63 1.78-5.24 4.4-6.33 1.4-.32 2.51.06 3.23 1.36 1.1 3.82.83 7.39-1.87 10.54-1.88 2.2-2.22 5-2.89 7.67-.18.51-.47.94-.86 1.3-1.68.73-3.05.06-4.33-.98-.32-.39-.57-.83-.74-1.31-2.31-8.5-3.56-9.39-13.24-9.4-2.84-2.58-2.2-5.45-.63-8.39z"/><path class="st41" d="M187.38 71.96c.66 2.63-2.02 6.03 1.84 7.91.67.49 1.3 1.02 1.82 1.68.86.96 1.65 1.96 2.17 3.15.45 1.24 1.38 2.28 1.59 3.63-.09 1.82-1.25 2.12-2.75 1.92-2.28-.31-3.47.57-3.32 3.01 4.44-1.81 4.44-1.81 5.67 3.69 2.71-.47 3.54-2.63 4.51-4.72.59-1.27.51-3.72 3.14-2.32.1.27.18.55.25.83 1.2 2.02.26 3.52-1.18 4.91-.31.71-.63 1.43-.94 2.14-2.56 2.14-5.63 3.43-8.74 4.26-2.55.68-5.95.38-6.06-3.05-.34-10.16-.12-20.34-.12-31.11 2.58 1.13 1.68 2.89 2.12 4.07z"/><path d="M211.29 72.84c-.68-1.2-1.83-1.01-2.93-.98-1.46-.07-2.34-1.02-3.14-2.08l-.96-1.98c3.8-1.16 7.13-4.25 11.69-2 3.49 1.73 4.01 5.48 6.34 7.93-.35.29-.68.29-.99-.05-4.32-1.85-3.42 2.76-5.14 4.14-2.65-.65-2.43-4.12-4.87-4.98z" fill="#e9b566"/><path d="M228.18 69.77c2.32 2.98 2.79 7.07 5.96 9.6 1.38 1.1.04 2.29-.9 2.71-2.37 1.05-4.66 4.34-7.46 1.55-1.89-1.89-4.09-3.89-4.46-6.9 3.98.69 6.25-.31 4.85-4.92.03-1.33.73-1.97 2.01-2.04z" fill="#f6aa5a"/><path d="M176.13 76.79c-3.98.43-8.1-.56-11.94 1.2-2.81.27-5.06 3.04-8.2 1.82 6.57-3.26 13.44-5.97 19.41-11.02-.57 1.95-.69 3.55 1.67 3.95-1.39 1.9-3.93.27-4.94 2.32.91 1.49 3.32-.3 4 1.73z" fill="#8cb946"/><path d="M226.18 71.8c.05 2.23 1.45 3.47 3.39 4.22-2.65 3.61-5.45 2.16-8.25.71-.51-1.02-1.58-2.03-.02-3.06.33.06.66.08.99.05 3.18 3.17 1.8-2.89 3.89-1.92z" fill="#9fb847"/><path d="M203.13 58.86c1.34-.28-.43-2.06 1.09-2.25 3.86.08 6.95 1.84 10.22 4.71-4.45.56-8.07-.04-11.31-2.46z" fill="#8abb44"/><path d="M227.43 59.68c1.69-2.2 1.15-4.64.77-7.07 1.85.35 3.98 1.19 3.61 3.11-.36 1.89-1.79 3.9-4.38 3.96z" fill="#84bb48"/><path d="M177.24 99.73c1.96.71 3.92 1.42 5.88 2.14.21.56.69 1.55.6 1.6-1.3.79-2.35 0-3.39-.71-.78-1.26-3.07-.98-3.09-3.03z" fill="#90b945"/><path d="M223.17 92.06c.68-.06 1.36-.13 2.04-.19 1.82 2.71 1.91 5.42.03 8.15-2.06 1.77-4.82.69-7.06 1.74-3.92.12-7.54-.45-9.87-4.13-.28-4.38 3.54-3.61 5.89-4.7 2.36-.04 4.72-.08 7.09-.13.53 1.4-.77 1.9-1.34 2.77 1.16-1.09 2.28-2.21 3.22-3.51z" fill="#e9de51"/><path d="M224.18 99.9c2.02-2.46.63-5.36 1.03-8.03.18-.1.37-.17.57-.21 2.94 2.32 3.95 6.02 6.25 8.8 2.06 2.5.15 3.25-1.65 4.12-2.42-.65-5.11-.22-7.3-1.83-.44-1.26 1.79-1.49 1.1-2.85z" fill="#f0e453"/><path d="M214.2 92.93c-1.76 1.82-5.03 1.75-5.89 4.7-1.39-.6-2.77-1.19-4.16-1.79-.42-1.91 1.13-2.8 2.06-4.02h.05c.61-.61 1.21-.59 1.79.04 1.78 1.92 4.17.35 6.15 1.07z" fill="#f4e6ac"/><path d="M206.21 91.82c.6 2-1.13 2.8-2.06 4.02l-3.03-.18c.39-1.64.78-3.28 1.18-4.91 1.3.35 2.61.71 3.91 1.07z" fill="#ecc272"/><path d="M224.18 99.9c.53 1.12 2.32.5 2.68 1.94-.94 1.68-2.92-.93-3.78.91-1.63-.33-3.27-.67-4.9-1 1.63-1.81 3.72-2.15 6-1.85z" fill="#a5c93f"/><path d="M262.28 86.64c-.52-1.33-.52-1.33-1.96.23-.74-2.46 1.78-6.73-4.36-6.53 4.52-1.23 3.7-5.35 5.19-7.98 2.95 1.58-1.31 5.73 2.92 6.43l.47.08c2.5 3.5 1.92 5.51-2.26 7.77z" fill="#817d7b"/><path d="M241.28 81.76c3.29.75 7.2-3.39 9.98 1.27-1.7 1.93-.38 3.83.05 5.74l-.14.12c-1.27 2.39.03 6.25-4.02 7.06-.37-.35-.63-.78-.77-1.27-.4-1.8.29-3.41.87-5.04 1.22-5.53 1.09-5.7-4.09-5.06-1.44.18-2.89.52-4.07-.73.14-.31.28-.61.42-.92.24-.92.57-1.71 1.77-1.17z" fill="#eae1be"/><path d="M262.28 86.64c2.61-2.06 2.79-4.82 2.26-7.79 3.46 1.16 4.71-.91 6.03-3.65 2.89-5.98 4.75-6.51 9.61-3.37 1.83 1.52 2.08 3.6 2.02 5.78 1.11 1.27 3.49 1.08 3.78 3.29.28.4.62.78.81 1.22.2.45.14.98-.54.77-7.97-2.44-7.94-2.43-12.85 3.9-.87 1.12-1.98 2.05-2.98 3.08-2.81 2.31-5.04 5.13-7.15 8.06-1.88-3.64-.78-7.52-.99-11.29z" fill="#bab09e"/><path d="M285.99 80.9c-.94-1.46-4.78.41-3.78-3.29 4.01-3.06 8.02-6.11 12.93-9.86-.85 7.23-2.55 13.11-4.16 19-2.08-1.59-1.33-5.61-4.99-5.85z" fill="#3a3533"/><path d="M240.22 97.8c-.16.02-.39-.01-.47.08-5.28 6.13-7.03.54-9.3-2.88-.87-1.31-2.24-2.44-2.21-4.24l-.06.06c5.45-.02 9.99 2.34 14.27 5.42-.15 1.37-1.23 1.42-2.23 1.56z" fill="#ece244"/><path class="st9" d="M240.22 97.8c.52-.9 1.4-.98 2.31-.99 1.47-.81 3.25-.11 4.72-.94 2.28-1.78 1.59-5.24 3.93-6.99 4.04 4.74-.06 8.11-2 11.84-2.81-1.55-6.45-.5-8.96-2.92z"/><path class="st61" d="M92.21 83.78c.29 2.37-.13 4.84.98 7.09-2.46-.02-4.97-1.56-5.3-3.25-.35-1.78 1.97-3.5 4.32-3.84z"/><path d="M81.49 78.6c1.76-.95 3.17-1.11 4.38-.04.56.5.1 1.22-.5 1.57-1.64.99-2.67.03-3.88-1.53z" fill="#c3da91"/><path d="M152.24 99.8c-11.17.13-14.99-5.99-9.96-15.96.65-.39 1.3-.78 1.95-1.16 2.18-.21 3.45 1.05 3.95 2.9.61 2.22-2.04 2.2-2.9 3.85 2.29.9 5.8-.75 6.94 2.69.82 2.51.88 5.1.02 7.65v.03z" fill="#ec9849"/><path class="st54" d="M152.24 99.76c.02-1.49.1-2.99.04-4.48-.14-3.61-2.04-4.93-5.58-4.38-1.4.22-3.43 2.18-4.17-.37-.68-2.33 1.84-2.74 3.39-3.54.53-.27 1.14-.38 1.77-.59-.63-2.01-2.09-2.82-3.46-3.73 1.69-.57 3.35-1.28 5.09-1.68 1.79-.41 3.74.05 3.74 2.14-.01 5.55 1.32 11.19-.82 16.63z"/><path d="M149.29 58.15c1.07 2.96.51 6.72 5.08 7.51-5.88-.27-6.64-1.45-5.08-7.51z" fill="#5c903e"/><path class="st29" d="M48.61 72.47c-.95-.03-1.13-.64-.87-1.31.33-.88.62-2.05 1.86-1.91.8.09 1.6.74 1.31 1.71-.32 1.05-1.42 1.2-2.3 1.51z"/><path d="M248.3 89.88c-.41 1.53-.81 3.05-1.22 4.58-.27 1.04-.97 2.16-1.97 1.81-5.09-1.77-10.65-2.53-14.83-6.42 2.59-1.68 5.18-3.36 7.77-5.05 2.76-.91 5.44-.61 8.09.5 2.12.89 3.21 2.22 2.16 4.58z" fill="#efe44a"/><path class="st87" d="M208.05 91.86c-.6-.01-1.2-.03-1.79-.04-.27-3.98.65-7.65 3.48-10.5 2.57-2.58.88-5.7 1.55-8.48 4.66-1.31 3.35 3.22 4.88 4.98 3.18 1.6 5.91 3.56 6.76 7.35.83 3.69.04 5.62-4.3 5.67-3.51.04-7.27-1.39-10.58 1.02z"/><path class="st65" d="M241.28 81.76l-1.77 1.17c-3.14-7.53-.56-11.19 8.61-12.21 2.12.18 4.52-.24 5.9 2.83-2.59-.24-4.75-.45-6.92-.65-3.49 1.51-5.65 4-5.88 7.93 0 .31.01.62.06.93z"/><path d="M230.27 89.85c4.19 2.29 8.81 3.49 13.23 5.18 1.44.55 2.51.44 3.57-.57.05.47.11.95.16 1.42-.89 3.77-2.96 1.57-4.72.94-4.78-2-9.56-3.99-14.35-5.99.49-.81 1.24-1.04 2.11-.98z" fill="#f7f0c0"/><path d="M248.3 89.88c-1.77-5.02-6.16-4.73-10.25-5.07.35-.32.69-.64 1.04-.96 1.3-.13 2.61-.16 3.89-.4 1.98-.37 4.59-2.23 5.78-.54 1.25 1.78.96 4.71-.46 6.97z" fill="#f7ef85"/><path d="M223.17 92.06c-.71 3.07-3.4 4.37-5.36 6.34.1-2.62 2.74-3.47 3.48-5.59.63-.25 1.25-.5 1.88-.75z" fill="#f3efc1"/><path d="M241.23 80.82c-1.49-5.08-.06-7.01 5.88-7.93-1.51 2.98-2.93 6.02-5.88 7.93z" fill="#e89246"/><path d="M183.73 45.83c-.62-1.13-1.24-2.27-2.15-3.92 6.28.81 11.94 2.11 17.61 3.47 4.36 1.05 3.9 2.93 1.59 5.6-.54.62-1.07 1.25-1.6 1.88-4.91 3.63-7.59-1.81-11.27-2.97-1.66-.51-2.8-2.65-4.18-4.06z" fill="#f5e952"/><path d="M180.42 50.74v-5.98c1.56-.61 1.74 1.15 2.7 1.54 2.58 3.31 4.15 6.48-1.41 8.8-.43-1.43-.86-2.89-1.29-4.36z" fill="#f2e544"/><path d="M163.06 94.8c-2.11-3.84-.53-7.56.97-10.91 1.55-3.46 5.92-3.72 9.69-1.14-.76 2.24-3.05-.12-4.11 1.32 1.09 2.83 3.92 1.04 6.11 2.44-2.16.19-3.86.33-5.7.49 1.11 1.83 3.11 1.99 4.58 2.96 1.05.69 2.76.9 2.43 2.7-.34 1.86-1.86 2.12-3.44 2.16-1.15.03-2.36-.19-3.28.8-1.06.82-2.15.22-2.58-.52-1.52-2.57-3.07-1.14-4.67-.3z" fill="#f5ca84"/><path d="M163.06 94.8c3.08-1.14.33-2.96.23-4.68 3.35.94 3.97 4.76 7.01 5.49 1.45 2.18.23 2.89-1.74 3.21-.9.15-1.17-.11-1.9-1.67-.72-1.51-2.54-1.37-3.6-2.35z" fill="#85b444"/><path class="st41" d="M190.08 81.85c-.29-.66-.57-1.32-.86-1.98 7.28-2.5 11.94 1.14 12.83 10.04-2.79.26-1.52 2.91-2.46 4.3-1.14 1.68-2.15 3.59-4.05 4.19-1.71.54-4.43 1.23-3.35-2.55.26-.92 1.77-2.16-.19-2.8-1.27-.41-1.55.82-1.91 1.76-.37.95-.98 1.98-2.13 1.36-.49-.26-.62-1.41-.7-2.18-.46-4.43.69-5.35 5.5-4.51 1.11.19 1.37-.63 1.52-1.48.95-.99 2.28-.14 3.31-.7.16-5.53-4.06-4.96-7.51-5.45z"/><path d="M205.22 69.77c1.52-.02 2.48.8 3.14 2.08-.52 1.88-.9 3.81-1.6 5.62-.47 1.21-1.46 2.42-2.99 1.88-1.48-.52-1.7-1.89-1.15-3.27.83-2.12 1.73-4.21 2.6-6.31z" fill="#f9c190"/><path d="M190.08 81.85c5.03-1.99 9.49.71 9.57 5.76.02 1.38-.95.97-1.68 1.04-2.09-.92-4.29-1.68-5.61-3.76-.76-1.02-1.52-2.03-2.28-3.04z" fill="#e79043"/><path d="M192.35 84.89c2.07.95 4.09 1.98 5.61 3.76-1.36.49-2.49-.25-3.68-.66-.91-.86-2.61-1.24-1.93-3.1z" fill="#8eb343"/><path d="M214.35 89.09c-1.8-1.16-5.3 1.42-5.54-1.97-.28-3.92 3.04-5.81 6.54-5.95 3.57-.15 5.74 3.11 5.48 5.8-.37 3.93-4.36.8-6.48 2.12z" fill="#eb9748"/><path class="st87" d="M239.35 80.69c3.22 0 3.22-5 0-5-3.21 0-3.22 5 0 5z"/><path class="st54" d="M155.35 110.47c3.22 0 3.22-5 0-5-3.21 0-3.22 5 0 5z"/><path class="st52" d="M244.71 109.14c3.22 0 3.22-5 0-5s-3.22 5 0 5z"/></svg>