<svg version="1.1" id="Layer_1" xmlns="http://www.w3.org/2000/svg" x="0" y="0" viewBox="0 0 187 154.89" xml:space="preserve"><style>.st0{fill:#d4a94f}.st1{fill:#dbb157}.st10{fill:#e1c675}.st13{fill:#e5c377}.st15{fill:#e9c882}.st19{fill:#eacd94}.st22{fill:#c2933d}.st23{fill:#e2b656}.st26{fill:#c28f34}.st31{fill:#673219}.st32{fill:#894521}.st54{fill:#dfb862}.st66{fill:#876b35}.st77{fill:#7c3f27}.st85{fill:#ca9c45}.st104{fill:#d3a44f}.st148{fill:#6a3318}</style><path class="st0" d="M32.2 146.56c-4.91 1.98-9.04 5.37-13.95 7.47-3.74 1.6-5.92 1.02-7.78-2.27.1-.76.52-1.27 1.23-1.54 3.33.67 4.96-.7 5.16-4.1.09-1.48.28-2.97.56-4.44.26-1.13.72-2.2 1.11-3.28.69-3.94 2.67-7.43 3.89-11.19.33-.84.75-1.65 1.21-2.43.71-1.08 1.44-2.17 1.86-3.42.58-1.46 1.3-2.84 2.22-4.11.71-.92 1.4-1.87 2.71-1.97.16.03.32.09.49.09 2.33 0 .5 4.07 2.79 3.29 2.34-.8 5.05-1.73 6.11-4.54.44-1.16 1.31-1.87 2.44-2.29 1.47-1.34 1.49-3.35 2.31-4.99-.89 1.6-.89 3.62-2.3 4.98-1.57.28-2.14-.68-2.16-1.96-.02-1.34.33-2.82 1.16-3.75 3.79-4.23 6.77-8.93 8.7-14.18-1.5 2.68-4.21 4.71-4.98 8.03-.32 1.38-.65 2.66-2.47 2.42-1.45-.19-1.82-1.31-1.89-2.53-.06-1.01-.43-1.93-.67-2.89-.05-2.35 1.9-3.66 2.86-5.49.89-1.15 1.97-2.04 3.36-2.53 1.74-.41 3.45-.99 5.03-1.75 3.13-1.49 4.85-.43 5.81 2.61.64.48 1.15 2.39 1.3 1.75 1.19-4.83 7.16-4.13 8.88-8.1 1.24-1.93 3.2-2.15 5.22-2.17 1.77 1.34 2.67-1.52 4.3-.9 1 .38 1.38 1.2 1.57 2.16.16 1.5-.63 3.47 2.05 3.64 1.31.08 3.08.4 2.88 2.02-.24 1.88-2.17 1.57-3.63 1.62-.59.02-1.21-.05-1.79.33 2.03 0 3.48.56 2.05 2.82-1.92 3.03-4.75 4.68-8.4 4.13-2.27-.35-2.55-.32-3.6 2.41-1.25 3.27-3.65 7.08-6.88 9.71.6.6 2.17.5 2.79 1.76 1.19 2.92-.21 4.7-2.63 6.04-4.18-3.97-6.35 1.62-9.61 2.03-3.08-.8-1.78 2.94-3.56 3.47-1.33 1.88-1.39 4.33-2.8 6.11 3.3.67 4.36-1.83 5.69-3.97.62-.74 1.34-1.3 2.39-1.2 1.47 1.03 2.74 1.38 4.32-.13 1.64-1.57 3.79-1.86 5.95-.8.48.54.74 1.19.9 1.88.21 1.14.6 2.29-.02 3.42l-.01-.01c-4.58 1.91-8.95 4.2-12.93 7.2-4.95 3.71-10.27 6.74-16.15 8.75 0-1.96-3.18-1.86-2.68-4.14.33-1.6 1.37-2.63 2.82-3.19 2.34-.92 2.1-2.63 1.38-4.94-1.09 3.27-4.57 4.73-4.58 8.28-.41 2.28.11 4.53-.03 6.78z"/><path class="st1" d="M104.25 106.65c-.63.42-1.26.83-1.89 1.25-1.48-.15-2.83-.97-4.36.44-4.53 4.17-10.35 6.41-15.34 9.92-2.24-.23-5.47 3.32-6.45-1.69-.3-2.9.98-5.06 3.3-6.63 1.96-1.33 2.98-2.95 2.25-5.36.99-2.7 3.15-4.55 4.92-6.67 1.34-1.6 3.01-1.92 4.71-.38.57 1.06-.22 1.82-.55 2.72 1.24-2.8 5.22-2.93 5.97-6.21.74-.84 1.64-.51 2.52-.36 2.5-.5 4.57-1.56 5.5-4.13.12-.99.23-2.06 1.56-2.08.95-.01 1.43.69 1.71 1.5 1.05 3 1.03 5.8-1.27 7.73.72-1.35 2.84-2.6 2.02-5.13-.36-1.12-.38-2.36.87-3.03 1.54-.83 2.32.14 3.1 1.35.45.7 1.57.3 2.26.78 3.05 3.07 3.78-2.87 6.3-1.83-2.82-1.95-3.67 2.63-6.08 2.03-1.88-.69-3.06-1.95-2.54-4.01.67-2.64 3.28-2.24 5.17-2.95.47-.09.95-.12 1.43-.11 2.01.03 3.65 1.4 5.68-1.69 1.36-2.07 2.95-4.73 5.07-6.58.63-.55 1.45-1.16 2.15-.39.8.89.52 1.82-.56 2.46 1.48-.85 2.43-3.11 4.74-1.93 1.33.68 2.26-.13 3-1.06 1.46-1.83 2.92-3.34 5.34-1.36.88.72.95-.31 1.33-.68 1.78-1.66-.84-.84-.86-1.51-.27-.41-.35-.84-.25-1.3 2.5-1.7 3.15-5.21 6.2-6.37 2.88 1.83.84 3.85.47 5.72 2.67-.97 4.71-4.85 8.65-2.7 1.99 3.06.42 4.81-2.3 6.07-2.53 1.18-5.16 2.25-5.46 5.6-.78 1.01-1.75 1.52-3.04 1.18-1.62-1.91-3.35-.69-5.05-.15-.55-.07-1.18-.62-1.6-.24-.43.39.22.63.56.85 1 .4 2.1.7 2.01 2.11-7.77 8.09-17.89 12.29-27.79 16.87-4.99 1.78-8.76 5.6-13.4 7.95z"/><path d="M145.25 69.83c0 .31 0 .63-.01.94-3.48 1.24-5.39 6.31-10.36 4.08-1.45-.65-2.95-1.07-2.94-2.85.01-1.9 1.65-1.76 2.96-1.78 1.67-.03 2.79-.92 3.68-2.2.76-.77 1.71-.9 2.84-.74-.73-.69-1.84-.47-2.4-1.25-.91-3.43 1.46-4.74 3.93-5.79 1.8-.76 3.8-1 5.67-2.06-.97.15-4.16-1.24-6.59-2.77-1.44-.8-3.92-.28-4.14-2.55-.23-2.25 1.77-2.71 3.5-3.16 2.07-1.79 3.11-4.43 5.12-6.27 1.52-1.25 2.08-3.66 4.52-3.81.39.24.71.55.94.94 2.83 4.26 7.31 3.01 11.3 3.37 2.58 3.23.94 5.74-1.34 8.11 3.09.68 6.41 3.17 8.99-1.01 1.69-2.74-.78-3.69-2.17-5.1-.4-2.08-1.18-3.86-3.37-4.26.55.88.91 2.01.07 3.19-1.21.67-1.65-.41-2.3-1.01-.3-.13-.64-.22-.89-.42-2.04-1.63-4.92-3.42-3.87-6.17 1-2.63 3.79.16 5.76-.31.63-.15 1.31-.07 1.96.03 5.07 2.22 8.18 6.43 11 10.93 1.43.92 2.53 2.01 2.12 3.92 2.44 5.06-.75 8.53-3.44 12.14-.5 1.08-1.11 2.06-2.39 2.35-1.76-.43-3.14.63-4.69 1.12-2.44.78-4.98 1.14-6.23-2.04-4.12-.1-7.52-1.71-10.42-4.6-.3-.3-.05.88-.49 1.2-2.6 2.21-2.91 6.28-6.32 7.83z" fill="#d6aa56"/><path d="M28.4 39.87c8.78-9.94 19.21-17.76 30.87-24.01 7.2 2.75 13.1-1.26 19.26-3.77 1.53-.63 3-1.4 4.6-1.88 5.15-1.55 5.83-1.2 7.35 4.02.41.97 1.49 1.78.75 3.01-.49 2.83 1.81 1.25 2.46 1.25 4.98-.04 9.87.33 14.64 1.88 1.57.51 3.24.74 4.17 2.36-.05 1.98-.11 3.95-3.04 2.84-3.37-2.51-7.48-2.5-11.33-2.94-5.7-.66-11.47-.94-17.2-.11-2.84.45-5.36 1.85-8.05 2.77-2.15-.41-4.3-.7-6.37.38-1.85.69-3.07 2.65-5.28 2.61-2.5-4.37-4.63-.96-6.86.34-1.69 1.79-4.97-.17-6.04 2.12-.94 2.01-.3 4.53-.16 6.82.13 2.25-.14 4.17-3.22 2.84-1.51-.3-2.89-1.47-4.56-.66-2.47 1.13-3.98 3.42-6.09 4.99-1.65.76-2.66 3.59-4.9 2.22-2.85-1.77-1.55-4.58-1-7.08z" fill="#d7b356"/><path d="M89.21 14.86c-.81-5.39-2.6-6.08-8.79-2.33-3.96 2.4-8.4 3.32-12.51 5.19-3.11 1.41-6.42 1.79-8.64-1.86 5.73-2.82 11.64-4.6 17.93-6.15 7.02-1.73 13.78-2.64 20.83-2.67 6.03-.03 11.81 1.23 17.3 3.73.97.95 3.48 1.03 1.96 3.41-2.37 1.53-4.8.94-7.15.03-1.92-.75-3.8-1.13-5.79-.44-5.08-.2-10.13.21-15.14 1.09z" fill="#e6c565"/><path d="M11.38 150.66c-.3.37-.61.74-.91 1.1-2.92-2.87-4.13-6.64-5.22-10.39-2.13-7.39-3.5-14.94-3.65-22.66 2.13-2.7 3.02-1.57 3.43 1.09-1.53 2.49 1.68 2.1 2.1 3.42.32.1.25.93.63.55.26-.26.25-.91.65-1.25.47-.11.93-.08 1.37.13 1.84 2.33 2.72 5.33 5.7 6.89 1.56.81 1.46 2.44-.62 3.13-1.43.39-2.92-.18-4.92.27 2.26 2.61 3.84 4.89.69 8-1.33 1.32 2.22 3.35 1.99 5.63-2.34.78-1.26 2.59-1.24 4.09z" fill="#ab755c"/><path d="M4.4 87.82c2.98-13.9 7.61-27.06 16.82-38.22 1.85 2.29-.65 4.4-.26 6.63-2.75 4.9-2.17 10.76-4.52 15.78-1.69 4.49-5.47 7.52-7.99 11.44-1.29 1.52-1.31 4.21-4.05 4.37z" fill="#cfa66d"/><path d="M149.24 78.81c1-.32 2-.65 3-.97 2.71.13 4.98-2.9 7.92-1.07.39.26.69.61.92 1.01-6.28 4.23-13.58 6.47-20.06 10.41-7.36 4.47-15.24 8.09-22.9 12.05-.57.29-1.24.39-1.86.58-.74-1.35.2-2.11 1.04-2.9 8.91-4.48 18.4-7.98 25.62-15.32.51-.52 1.52-.55 2.29-.8 1.66-.57 2.96-1.63 4.03-2.99z" fill="#efd090"/><path d="M20.44 55.87c-2.15-2.39 1.64-4.04.79-6.26 2.45-3.2 3.68-7.3 7.17-9.73.21.24.6.46.61.71.33 5.91.32 5.91 5.19 3.25 1.33 4.04-2.64 5.73-3.84 8.65-1.97 5.02-5.54 5.41-9.92 3.38z" fill="#d2a153"/><path d="M4.33 120.71c.13-2.09-.26-3.47-2.73-1.99-.49-.88-1.61-1.54-1.05-2.81.91-1.38 2.24-2.55 2.19-4.41.13-1.48.03-3 .7-4.38.95-1.95 2.06-1.91 3.25-.19.37 1.43-.25 3.02 1.08 4.88.77-2.36.57-4.83 2.42-6.32.65-.34 1.32-.39 2.01-.18 2.18 1.27 2.04 3.17 1.04 4.98-1.19 2.14-.84 3.95.59 5.73.31 2.2.02 4.23-1.62 5.88-1-.25-1.98.3-2.99.12-1.39-1.28-2.93-2.09-4.89-1.31z" fill="#a66b4e"/><path class="st10" d="M117.24 13.92c.24-1.58-1.48-1.96-1.91-3.14 4.55 1.54 9.04 3.18 13.04 5.92-.89 1.47 1.31 1.84 1.09 3.08-.61.81-1.66 1.28-1.87 2.41-.3.82-.65 1.61-1.45 2.08-2.6.82-3.11-2.68-5.37-2.58-2.07.1-2.76-2.63-4.91-2.35-1.16-.46-2.89-.53-2.59-2.32.23-1.35 1.54-1.62 2.76-1.29 2.35.62-.43-2.06 1.21-1.81z"/><path d="M3.39 111.8c1.44 3.01-.99 3.35-2.83 4.1-1.68-9.48.71-18.41 3.71-27.25 1.3.94 1.3 2.42 1.62 3.78.21 1.95-.33 4.07 1.28 5.71.31.34.5.74.59 1.19 0 1.39-.38 2.69-1.03 3.91-2.94 2.14-4.71 4.74-3.34 8.56z" fill="#c99e65"/><path d="M161.09 77.78c-.32-.01-.64-.04-.96-.08.77-4.68 4.6-6.29 8.3-7.34 2.68-.76 3.99-2.15 4.82-4.48.63-.7 1.27-1.41 1.9-2.11 2.1-.49 2.24 1.15 2.7 2.44 1.31-1.3.45-4.32 3.41-4.37-.14 8.15-1.19 9.6-9.02 11.1-4.13.8-7.2 3.78-11.15 4.84z" fill="#f0ce8b"/><path class="st13" d="M77.28 115.81c.42 5.55 4.25.35 5.94 1.88.3.17.4.35.31.54-.09.19-.19.28-.28.28-6.41 2.87-12.13 7.13-18.86 9.34-.36-1.01-.71-2.03-1.07-3.04 1.02-1.18.95-3.21 2.87-3.71 3.18-1 6.77-1.22 8.18-5.22.4-1.1 1.9-1.04 2.91-.07z"/><path d="M129.28 19.9c-.83-.92-2.43-1.61-.91-3.2l19.65 4.41c-1.46 3.27-4.41 2.59-7.03 2.51-1.27-.04-2.45-.92-3.8-.82-.72 0-1.44-.07-2.15-.21-2.01-.69-4.4-.59-5.76-2.69z" fill="#a7946f"/><path class="st15" d="M83.26 118.51c0-.27-.01-.55-.03-.82 4.38-4.64 10.68-6.66 15.17-11.19 1.59-1.61 3.18-.65 3.95 1.4-5.87 4.42-12.85 6.85-19.09 10.61z"/><path d="M181.27 61.85c-1.43 1.08-1.38 2.87-1.98 4.33-.51 1.24-.88 2.81-2.54 2.24-2.13-.74.08-1.66.14-2.53.09-1.2-.87-1.63-1.72-2.11-.09-.81-.4-2.29-.25-2.34 5.07-1.61 4.12-5.87 4.33-9.61 2.35 3 2.36 6.47 2.02 10.02z" fill="#eec46d"/><path d="M177.12 47.9c-3.66-3.31-6.45-7.56-10.86-10.06-2.29-.8-4.06-2.02-3.77-4.83.11-.51.37-.93.78-1.26 6.47 3.79 10.81 9.41 13.85 16.15z" fill="#e9cc8b"/><path d="M5.27 92.77c-1.38-1.12-.65-2.75-1.01-4.12-.07-.3-.02-.57.14-.83 1-1.67 2-3.34 3.01-5.01.86-.26 1.32.26 1.75.87 1.07 2.39 1.94 4.85 2.78 7.33.04.49-.04.97-.2 1.43-1.17 1.6-2.78 1.57-4.47 1.23-.89.22-.76-1.87-2-.9z" fill="#cd9b47"/><path class="st19" d="M137.03 21.82c3.67-.08 7.49 2.05 10.99-.72 2.08.65 3.98 2.08 6.45 1.08-.25 1.72-2.56 1.89-2.09 3.68-.5.54-.77 1.31-1.57 1.55-.78.15-1.5 0-2.17-.43-1.73-1.54-3.85-1.77-6.04-1.89-2.38-.13-4.69-.52-5.57-3.27z"/><path d="M151.23 26.86c.38-.33.77-.67 1.15-1 3.87 1.51 8.04 2.47 10.88 5.88-.01.37-.02.75-.03 1.13-1.48 1.27-3.21 1.32-4.32-.09-1.3-1.66-2.52-1.9-4.54-1.62-3.17.44-4.68-.97-3.14-4.3z" fill="#f2d591"/><path class="st15" d="M117.3 97.92c-.35.97-.69 1.93-1.04 2.9-3.87 2.22-7.44 5.07-12.02 5.83 3.88-3.62 7.69-7.34 13.06-8.73z"/><path class="st13" d="M51.45 135.04c3.33-4.16 7.22-7.32 12.93-7.2-3.39 4.06-8.27 5.43-12.93 7.2z"/><path d="M33.36 139.67c-.04 1.7 3.77 1.59 1.94 4.13-1.33.59-1.25 2.76-3.1 2.77-2.28-1.98-1.02-4.41-.88-6.71.63-.71 1.31-.71 2.04-.19z" fill="#e4ba7d"/><path class="st22" d="M99.31 94.81c-.65-.31-1.31-.62-1.96-.93-2.28-1.1-5.84 1.39-7.14-2.68-.28-.88-.64.32-.73.55-.25.64-1.46 1.32.65 1.65 2.87.45 4.07 2.23 1.03 4.52-2.04-.87-3.73.07-4.49 1.69-1.02 2.19-3.16 3.28-4.34 5.22-2.73-.22-2.6-2.04-2.43-4.27-1.11.49-2.14 1.22-3.17 1.95-1.64 1.51-3.81.53-5.64 1.19-3.42 1.22-5.49 3.81-7.12 6.87-.22.08-.44.15-.65.23-1.14-.18-2.37-.15-3.37-.61-.55-.25-.73-1.32-1.08-2.02 5.79.14 2.79-8.89 9.27-7.75-1.15-2.19-2.09-.38-3.58-1.38 2.13-1.53 2.73-4.11 6.58-2.94 3.67 1.11 6.52-1.42 8.55-4.57-2.03-2.09-2.66 2.47-4.61.75 1.17-3.73 4.54-3.41 7.7-3.97-2.64-1.19-7.04-.44-5.45-5.41 1.78-2.44 4.67.68 6.18-1.01 1.43-1.59 1.73-4.26 4.7-4.04 3.46 2.34 3.93 2.45 6.78 1.57 2.26 1.9-.71 3.51-.29 5.3.09 1.04.92 1.45 1.57.99.62-.45-.3-.33-.51-.44-.27-.15-.54-.28-.74-.56 1.47-4.5 1.47-4.5 7.81-2.1.65-.5.45-1.15.35-1.81-.28-1.81-3.2-3.52-1.21-5.11 1.29-1.03 4.04-.53 5.85.32 1.9.89 4.49 1.76 3.47 4.89.22.56.57 1.01 1.11 1.31 1.93.93 5.47-1.75 5.86 2.61-2.53 1.24-7.4 1.33-2.99 6.02l.02-.03c-.95-1.16-3.84 2.65-3.7-1.43 0-.1-.88-.42-1.25-.31-1.12.35-.7 1.21-.54 2.01.84 4.35-2.35 6.49-5.55 10.07 1.03-4.95 5.31-7.98 2.82-12.36-.14-.24-.55-.59-.68-.53-.94.42-.09 1.04-.12 1.58-1.09 1.05-2.34 1.63-3.89 1.37-.77-.34-1.25-.96-1.81-2.09-.26 1.98.11 3.73-.75 5.24-.18.14-.35.29-.51.45z"/><path class="st23" d="M88.26 78.8c-.64.06-1.41-.08-1.9.22-2.16 1.36-.65 5.56-2.99 5.62-1.66.04-3.59-2.36-6.06-1.75-.04-.84-.17-1.63-1.02-2.08-.45-2.08 1.03-2.41 2.5-2.71 2.02-.42 2.81-1.47 1.86-3.45-3.17-.33-4.63-1.48-2.14-4.48 2.33-4.35 5.21-8.4 8.45-12.04 2.12-2.38 5.56-3.27 8.84-3.76 2.31-1.18 3.43-4.89 6.19-4.3 2.44.52 3.14 4.05 5.38 5.53 1.01 2.37.09 4.15-1.79 5.58-1.18.89-2.69 1.55-3.07 3.09-1 4.04-3.69 3.97-6.91 2.85.41 1.97-.31 3.73-.05 5.51.83 2.4-.39 3.36-2.5 4.19-1.59.64-3.18 1.33-4.79 1.98z"/><path d="M79.31 70.79c-.48.8-.97 1.61-1.4 2.32.88 1.93 2.89-2.94 3.4.73-1.9 3.82-5.58 5.66-8.88 7.92-1.21 1.01-3.51-.2-4.12 2.02-2.1 1.22-4.1 2.84-6.77 1.54-.97-.93-1.37-1.93.02-3.28-2.54.74-3.83 2.7-5.73 3.61-2.72 1.3-5.3 1.62-5.55-2.63.1-1 .4-1.9 1.29-2.48.82-.35 1.54.3 2.27.28 2.45-.05 2.47-1.17 1-2.76-.15-.96.24-1.75.76-2.5.82-1.02 1.56-2.1 2.45-3.07 1.15-.94 2.59-1.43 3.73-2.37 1.4-1.03 2.24-2.46 2.89-4.03 2.34-2.49 4.51-5.21 8.13-5.95 1.73.24 3.79-.44 4.81 1.75.06 2.03-1.66 2.63-3.13 3.76 1.9-.41 3.81-1.13 5 .5.98 1.39.48 3.12-.17 4.64z" fill="#dfaf47"/><path d="M76.28 101.75c1.1-2.37 3.77-1.91 5.71-3.22-1.32 2.29-2.36 4.45.33 6.29 3.3 2.63.58 4.14-1.24 5.42-2.05 1.44-4.18 2.59-3.8 5.58-.77.17-2.19.28-2.21.53-.57 5.76-5.24 4.69-8.83 5.39-.62-.63-.88-1.38-.73-2.26-.92.99.44 3.54-2.27 3.31-2.21.14-4.26.23-5.91 2.31-1.85 2.34-3.28 1.13-4.07-1.22.56-1.68 1.5-3.2 2.15-4.85.87-2.21 2.46-3.33 4.93-2.24 1.77-1.62 3.48-3.26 2.96-6l-.01.01c.75-.33 1.58-.38 2.34-.65 2.75-1 3.51-3.61 4.86-5.8 1.27-2.05 5.08 1.05 5.79-2.6z" fill="#ca9d40"/><path class="st26" d="M39.92 96.8c.57.32 1.13.66 1.71.95 1.7.87-1.69 3.88 1.31 3.71 1.53-.09.6-2.72 1.46-4.11 1.37-2.23 3.73-3.66 4.71-6.22.28-.72 1.57-1.11 2.67-.57.94.46 1.09 1.06.7 1.98-.35.81-.17 2.18-1.78 1.24-1.34-.78-1.28.22-1.27 1.1.04 3.51-2.07 5.76-4.39 8.09-2.35 2.35-5.62 4.74-2.69 8.83l-.04-.03c-.36.55-1.05 1.12-1.03 1.66.12 5.43-5.53 4.47-7.9 7.13-.59.66-1.96.42-2.78-.28-1.47-1.23.28-1.53.73-2.18 1.15-1.65-.31-1.93-1.26-2.5.7-4.04 2.5-7.64 4.52-11.15 2.02-2.38 1.97-6.21 5.33-7.65z"/><path d="M9.31 121.87c.67-.13 1.3-1.2 2.03-.1.85.61 1.2 1.88 2.52 1.84 1.64-.4 2.77-1.37 3.38-2.94 3.41-3.1 6.19-.87 9.01 1.05.05 1.49-.8 2.37-2.02 3-1.28.61-2.68.96-3.86 1.73.98.33 2.34-1 3.19.51-1.37 3.98-2.75 7.97-4.12 11.95-1.47-1.26-1.9-3.4-4.68-3.52-4.73-.21-1.91-2.13-.45-3.55 1.16-.21 2.18-1.22.61-1.58-4.33-1-4.47-4.6-5.57-7.69l-.36-.33.32-.37z" fill="#8b5132"/><path d="M39.92 96.8c-1.49 2.69-2.98 5.37-4.47 8.06-.76.67-1.69.92-2.66 1.07-1.61.14-3.21.33-4.83.34-1.65.1-1.53-3.04-3.7-2.02-2.07-.37-3.74-1.13-3.73-3.63.57-3.16 1.65-5.55 5.56-3.72.29.15.57.32.84.52 4.92 3.67 4.92 3.67 5.93-2.27 2.77-2.14 6.35-2.55 9.29-4.35.73-.44 1.62-.01 1.29 1.21-.49 2.1-2.21 3.29-3.52 4.79z" fill="#491d0e"/><path d="M14.32 131.85c-.35.87-.71 1.73-1.23 3.01 4.32-1.89 6.75-.87 6.35 4.07l-1.23 2.76c-1.61 2.02-2.66 4.71-5.81 4.88-.92-1.16-1.95-2.25-2.74-3.49-.51-.8-1.19-2.41-.93-2.63 3.34-2.81 2.84-4.86-.69-7.1-.58-.37 1.05-2.26 2.44-2.27 1.29-.02 2.57.49 3.84.77z" fill="#774430"/><path d="M26.25 121.73c-3.01.65-5.97-3.73-9.02-.11-1.12.54-1.7-.1-2.17-.99.29-1.94 1.9-3.51 1.59-5.62-.03-.43-.03-.86-.04-1.29.2-2.05-2.19-3.97-.33-6.11 2.87.28 4.65 3.85 8.01 2.64 1.65.54 1.25 1.65.77 2.77-1.3 2.68.32 3.2 2.47 3.34.67.25 1.28.54.78 1.42-.67 1.32-1.36 2.63-2.06 3.95z" fill="#4a2111"/><path class="st31" d="M28.33 117.78l-.84-.93c-1.45-1.05-2.23-2.61-3.16-4.06.16-.71 1.11-1.47-.13-2.09-.48-1.13-.09-2.47-.92-3.51-2.52-3.08.37-2.86 2.06-3.37 2.59-1.01 1.07 1.89 2.17 2.29 1.99.98 3.55.35 4.82-1.31 1.04.02 2.09.04 3.13.06-1.83 3.56-2.9 7.5-5.38 10.74-.59.73-1.17 1.45-1.75 2.18z"/><path class="st32" d="M43.45 92.01c-3.38 1.26-6.76 2.52-10.15 3.77-.62.6-1.31.61-2.05.24-1.26-2.92.99-4.47 2.46-6.32 1.09-.82 2.62-.19 3.69-1.12.89-.72 2.1-1.18 2.72-2.04 2.85-3.96 5.63-2.12 8.48-.1-.12 1.65-1.29 2.47-2.54 3.22-.86.78-1.73 1.57-2.61 2.35z"/><path d="M46.07 89.65c.18-1.4 1.17-2.18 2.23-2.9.62-1.29.42-2.93 1.66-3.97.37-.26.76-.3 1.19-.16.53 3.36 1.76 4.63 4.54 1.57.53-.59 1.19-1.11 1.89-1.48 1.2-.64 2.22-2.57 3.69-1.44.62.48.16 2.36.2 3.61-.61 2.82-3.67 3.04-5.18 4.91-1.21-1.71-2.32-2.38-4.73-1.45-1.62.62-3.38 2.23-5.49 1.31z" fill="#c58f30"/><path d="M12.41 146.56c2-1.56 3.12-4.16 5.82-4.88.2 1.81-.09 3.52-.48 5.32-1.25 5.73-1.43 5.92-6.35 3.66-.95-1.25-1.91-2.5-3.13-4.1h4.14z" fill="#a97146"/><path d="M56.28 89.79c-.46-3.94 3.97-2.72 5.18-4.91 2.28-.36 4.57-.73 6.85-1.09-1.83 1.87-1.99 6.07-6.54 4.43-.38-.14-2.26 3.91-3.49 6.07-1.88-1.22-1.96-2.85-2-4.5z" fill="#eabc5b"/><path d="M60.35 116.79c-2.26.34-4.2.96-4.07 3.88.09 2.01-1.14 2.95-3.02 3.21-.65.29-1.29.58-1.93.87-.16-.14-.31-.29-.47-.43-.83-1.7-.3-3.31.29-4.92.05-.2.11-.4.17-.61 1.12-.96 2.26-1.9 3.36-2.88 2.26-2.01 4.37-3.22 5.67.88z" fill="#b68831"/><path d="M33.36 139.67c-.68.06-1.36.12-2.03.19-.36-5.14 4.46-6.73 6.17-10.44 2.23 1.33.15 2.15.69 3.36 1.09 2.46 1.47 5.14-2.9 4.8-.58-.05-1.28 1.36-1.93 2.09z" fill="#ba8b39"/><path d="M51.33 124.74c-1.07 2.45-.31 6.96-5.51 4.75-1.3-.55-1.2 2.48-3.44 1.35 3.12-2.34 2.18-6.61 4.97-9.07.18.11.36.23.55.34.92 1.17 2.05 2.09 3.44 2.65l-.01-.02z" fill="#c09639"/><path d="M72.43 81.77c2.26-3.42 5.83-5.38 8.88-7.92 1.96 3.23 1.26 5.51-1.91 5.38-1.65-.07-2.45.3-3.11 1.59-1.36-.01-1.85 3.57-3.86.95z" fill="#efc164"/><path d="M25.32 132.57c-.88-6.14 2.31-8.09 7.51-8.61-1.34 4.07-4.42 6.15-7.51 8.61z" fill="#bf8e31"/><path d="M61.6 102.39c-1.64 2.9-4.31 3.04-6.81 3.64-1.25-1.21.94-2.47.14-3.51-.81-1.07-1.43-2.18.1-2.64 2.03-.61.89 1.36 1.27 2.13 1.6 3.13 3.64-1.75 5.3.38z" fill="#b78e3a"/><path class="st26" d="M34.92 122.61c2.72-.88 4.22-2.05 5.67-3.33.53-.47 1.24-.35 1.71.24.17.21.17.56.24.84-2.49.26-3.12 5.44-7.62 2.25z"/><path d="M63.24 122.78c1.87-1.34.62-4.27 3-5.57v4.52c-.93 1.07-1.28 2.69-2.93 3.08-.02-.68-.04-1.35-.07-2.03z" fill="#b0812d"/><path d="M23.57 126.97c-1.37.21-2.74.43-5.31.83 2.47-1.71 2.64-5.07 5.97-3.06.3.89.2 1.67-.66 2.23z" fill="#693718"/><path d="M42.35 111.8c.52-2.71 1.16-5.36 3.43-7.29-1.02 2.48-.58 5.62-3.47 7.25.01 0 .04.04.04.04z" fill="#af8130"/><path d="M47.35 121.77c1.36-.94.99-4.19 3.97-2.98l-.01-.01c-.91 5.09-.91 5.09-3.99 2.97l.03.02z" fill="#b1852e"/><path class="st22" d="M139.29 67.98c.07 5.34-3.88 3.41-6.76 3.92 2.72.81 5.12 5.77 8.03.25 1.19-2.26 3.58.57 4.68-1.38h3.79c-2.34 1.56-2.23 5.48-6.16 2.7-1.66-1.17-2.07 2.66-3.97 3.47-1.22.53-1.15 2.17-3.01.04-2.16-2.47-2.74 1.97-4.57 2.5-1.2-1.45 1.31-2.53.32-4.01-1.67.79-1.47 2.97-2.67 3.79-.92.62 1.05 4.98-2.55 2.08-.07-.06-.97.55-.94.78 1.14 8.34-4.02 2.14-6.22 2.71-2.31-2.72.86-5.17.38-7.79.03-.45.13-.89.29-1.31 2.94-.57 2.88-4.95 6.27-4.96 3.23 2.8-.97 4.52-.49 6.94-.28-2.34 3.94-3.78.8-6.7-2.7-.89-4.27 3.18-7.12 1.63.36.96.96 1.9.28 2.95-1.98.55-3.24 2.89-5.68 2.33-3.6-4.37 1.73-5.8 2.87-8.6.4-.99 2.58-1.04.46-3.07-1.67-1.6.42-3.68 2.45-4.31 1.69-.52 3.52-.82 5.35-.59.68.29 1.16.78 1.45 1.45.15 1.32-.57 2.13-1.65 2.78 3.12-.41 5.9-1.87 8.92-2.49 3.9 2.04 1.08 3.1-.63 4.32-.66.39-1.4.66-2.07 1.13 1.02-.23 1.87-.78 2.84-1.04 1.78-.47 3.41-1.97 5.45-.84.24.47.19.91-.14 1.32z"/><path d="M173.26 65.89c.03.98-.11 2.01.14 2.94.57 2.14 1.38 2.89-2.2 2.35-4.56-.69-8.28 2.77-11.07 6.53-1.8-1.27-4.35-.58-4.93.46-1.7 3-2.02-.37-2.95-.33-2.09-4.34 1.94-4.8 4.13-5.75 2.48-1.08 3.93-2.35 3.94-5.06.33-1.58 1.03-2.66 2.9-2.21 1.53 3.33 4.14 2.44 6.19 1.08 1.56-1.05 2.53-1.68 3.85-.01z" fill="#e1ba6c"/><path d="M163.21 64.82c-.97.73-1.94 1.47-2.9 2.2-3.71-1.36-5.57 2.72-8.89 2.7-.99-1.73.61-3.87-.18-5.88-.61-.66-.58-1.33.01-1.99v-3.01c4.02 1.55 6.17 7.13 11.65 4.22.91-.49.49 1.07.31 1.76z" fill="#c69848"/><path d="M91.15 97.9c.47-.99 1.54-1.98.46-3.11-2.03-2.14-3.46.95-5.77.62.92-1.38 1.76-2.64 2.58-3.9 1.31-2.01 1.29-2.01 2.52.19.61 1.09 1.82.47 2.5.78 1.28.6 3.57-1.52 3.9 1.39.15 2.38-.52 4.34-3.13 4.77-1.98.33-2.59 1.78-3.32 3.33-1.36-1.52-.22-2.77.26-4.07z" fill="#b5832e"/><path d="M120.23 76.8c2.6 3.03-2.54 5.12-.98 8.02-.34-.01-.68-.01-1.02-.02-.63-1.29-1.44-2.11-3.05-1.46-1.38.55-2.81.9-3.94-.56 1.92-3.62 5.32-5.01 8.99-5.98z" fill="#d6a64d"/><path d="M149.24 78.81c.24 3.13-.41 5.06-4.03 2.99-.76-1.19-1.99-.89-3.1-1-.15-1.55.5-2.26 2.08-2.03 1.69-.67 3.41-5.55 5.05.04z" fill="#edc170"/><path d="M115.25 90.83c1.65-1.21 2.07-4.11 4.74-3.83 2.24.23 2.35 2.35 3.12 3.85-2.17 1.62-1.37-2.16-2.96-1.19-1.6.97.31 2.47-.8 4.11-.53-2.44-3.97.3-4.07-2.97-.01-.01-.03.03-.03.03z" fill="#c69c42"/><path d="M102.31 90.83c1.22-.7 2.5-1.18 3.95-1-1.19 3.24-3.49 4.92-6.95 4.99l-.03.03c1.18-1.22.86-3.56 3.03-4.02z" fill="#b68b32"/><path class="st22" d="M151.24 61.85c0 .66 0 1.32-.01 1.99-2.25 1.74-2.04 5.94-5.98 6 2.83-2.05 2.77-6.25 5.99-7.99z"/><path d="M144.2 78.78c-.69.68-1.39 1.35-2.08 2.03-3.19-.76-1.22-2.52-.35-3.33 1.37-1.29 2.26-.38 2.43 1.3z" fill="#bf923e"/><path class="st23" d="M77.32 61.84c-1.11-1.24-2.79-.17-4.01-.97-.35-.33-.47-.72-.35-1.19 1.49-2.52 3.89-4.21 5.78-6.37 1.91-1.76 3.57-3.81 5.79-5.23.9-.58 1.72-1.26 2.53-1.96 1.54-1.23 3.38-1.96 4.97-3.1 1.3-.88 2.81-1.35 4.11-2.22 3.68-3.04 8.41-4.42 11.99-7.61 2.92-1.28 6.06-2.01 8.82-3.66 2.3-.66 4.82.14 7.04-1.08 1.3-.18 2.64-.07 3.92-.52 1.83-.42 3.61-1 5.48-1.22 1.44-.12 2.87-.09 4.27.29 2.32 1.62 5.44-.44 7.66 1.66-.17 4.01-4.52 5.26-5.68 8.61.04 1.91.48 1.97 3.14.4 1.62-1.76 3.26-3.45 6-2.41 1.02.83 1.71 2 2.8 2.77.25.68.19 1.31-.36 1.83-1.32 1.34-2.64 2.68-3.97 4.01-4.46.71-8.19 3.3-11.24 4.6-1.76.31-.67.99-.95.38-.07-.15.06-.23.36-.29.95-.2 1.9-.46 2.84.05.7 5.78-4.1 7.31-7.61 9.85-2.47.1-4.91-.13-7.3-.8-2.15-.88-3.71 1-5.63 1.2-1.47.1-2.89.08-3.79-1.38.64-3.1 3.09-3.61 5.61-4.03-3.02-.95-4.17 2.47-6.6 2.93-2.12.17-3.14-.87-3.25-2.93.5-2.03 2.35-2.47 3.91-3.22 1.63-.78 3.27-1.49 3.25-3.69-.09-2 .02-3.88 3.73-4.22-2.97-.31-3.82 1.6-5.42 1.84-.48.04-.89-.11-1.24-.44-.86-2.14-.46-4 1.79-4.77 1.26-.43 1.61-1 .96-1.84-.44-.57-1.62-.62-2.11.26-.71 1.26-1.93 1.71-3.06 2.34-4.4 2.51-9.22 4.17-13.57 6.77-2.86 1.34-6.31 1.43-8.6 4.01-3.24 2.76-7.14 4.83-8.86 9.14-.45 1.13-1.72 2.01-3.15 2.21z"/><path class="st54" d="M151.33 37.91c-.89.11-1.85 1.32-2.6.19-.29-.44.31-1.47.5-2.24-3.31-1.95-.68-5.08-1.5-7.53.1-.98.25-1.89 1.61-1.56.63.03 1.25.06 1.88.09.18 2.62.43 5.05 4 2.66 1.23-.83 3.12-.87 3.28.64.37 3.5 2.76 2.53 4.72 2.71.01 2.26 1.62 3.55 3.02 4.97-2.41.61-4.71.12-7.56-1.39.69 3.62 3.51 4.99 4.54 7.41l-.01.01c-4.54 2.88-8.39.49-12.25-1.64-.12-.07.17-.89.26-1.36.45-.43.93-.84 1.35-1.3.48-.53 1.6-.99.93-1.8-.35-.46-1.37.51-2.17.14z"/><path d="M139.23 66.86c-1.69.65-3.38 1.3-5.06 1.96-.43-.85-2.5-.09-1.92-1.94-.88-1.36 5.62-.57.89-3.05.82-3.27 5-3.64 5.88-6.85.55-1.47 1.08-2.98 3.17-1.96.8-.19 1.59-.37 2.39-.56.95 6.78 3.88 1.66 6.52-.33-.87 4.97-3.68 6.64-6.58 6.97-3.29.38-4.57 1.97-5.25 4.73.25.23.33.46.24.69-.11.23-.2.34-.28.34z" fill="#b9883a"/><path d="M163.24 43.86c.65.35 1.3.7 1.94 1.05.52 3.95 2.84-.1 4.03.91.94 1.45 3.8-1.05 3.88 1.72.06 2.11-.42 4.44-2.1 5.85-1.48 1.25-3.6 2.11-5.53 1.13-1.85-.94-3.59-1.9-5.95-1.67 3.3-2.34 4.93-5.1 3.73-8.99-.01.01 0 0 0 0z" fill="#c49441"/><path d="M142.18 55.01c-.82.57-2.39.39-2.08 2.09-2.84 3.32-6.48 3.88-10.53 3.02-.82-1.07-.28-1.74.66-2.3 3.17-2.54 6.75-4.71 8.23-8.83.74-1.25 1.83-2.05 3.21-1.38 1.5.72 1.33 2 .44 3.22-1.51-.13-3.29-.03-3.44 1.69-.2 2.22 3.55-.14 3.51 2.49z" fill="#bd8a3a"/><path class="st54" d="M142.11 50.82c.63-4.29-2.03-2.04-3.66-1.84-2.49-1.21-4.15 2.67-7.55.9 2.16-.78 3.05-2.37 5.06-2.3.76.02 1.73-.31 2.26-.84 2.48-2.46 5.67-3.56 9.02-2.88-1.71 2.33-3.42 4.64-5.13 6.96zM169.21 45.82c-1.85.86-2.76 2.27-2.15 4.46-3.7-1.07-1.37-3.62-1.88-5.37.66-2.21-1.48-3-2.82-5.18 3.61 1.38 7.73.81 6.85 6.09z"/><path d="M163.02 55.97c-4.17 5.24 2.43 2.64 2.39 4.76-1.29 1.3-2.7-.17-4.08.04-1.39.21-3.56 1.58-3.96-1.14-.39-2.62 1.6-3.13 3.69-3.27.45-.03.89-.17 1.96-.39z" fill="#c0943f"/><path d="M151.33 37.91c1.36-.25 1.39-2.44 2.91-2.16.53.1 1.33 1.39 1.21 1.96-.46 2.13-1.88 3.33-4.2 3.16-.01-.34-.02-.67-.03-1.01.03-.65.07-1.3.11-1.95z" fill="#c2983f"/><path class="st54" d="M152.55 47.29c-.06 1.42-1.16 1.33-2.1 1.53-2.04.42-2.01-1.57-2.35-2.46-.47-1.2 1.02-1.27 1.95-1.47 2.06-.44 1.45 1.81 2.5 2.4z"/><path d="M139.23 66.86c.01-.34.02-.68.02-1.02 1.61.09 3.26.09 4.37 1.62-1.22 2.48-2.96-.15-4.33.52-.02-.38-.04-.75-.06-1.12z" fill="#ba8c38"/><path d="M40.36 38.91c2.52-2.88 3.27.63 4.8 1.33.92.64 1.6 1.49 2.24 2.39.88 2.45 3.39 2.86 5.18 4.17.4.96.25 1.77-.68 2.35-3.83 1.39-2.69 5.64-4.64 8.11-1.18.79-2.57.92-3.88 1.31-3.49-.2-7.01-.48-8.89 3.47-2.02.19-4.48 1.34-4.81-2.18.34-1.57 1.85-1.99 2.83-2.94 1.55-1.62 2.21-3.66 2.75-5.76.41-1.6.62-3.5 1.96-4.47 2.78-2.01 3.1-4.79 3.14-7.78z" fill="#8d301f"/><path d="M89.21 14.86c3.04-3.27 7.17-2.09 10.86-2.57 1.41-.18 2.88.15 4.33.25 6.57.36 7.96 1.56 8.13 7.01-.62 1.07-1.65 1.26-2.76 1.28-4.6-.99-9.17-2.13-13.89-2.44-1.61-.11-3.3-.16-4.42-1.66-.75-.63-1.5-1.25-2.25-1.87z" fill="#a5482d"/><path d="M40.36 38.91c2.2 3.07 1.78 5.38-1.41 7.73-3.61 2.67-2.28 8.03-5.29 11.2-3.6-.32-6.24-1.35-4.3-5.78 1.37-2.88 4.03-5 4.82-8.23 1.91-1.84 3.05-4.63 6.18-4.92z" fill="#a33823"/><path d="M66.34 24.77c1.94-.9 3.86-2.42 5.94-.26.78 2.15.08 4.02-1.08 5.81-1.36 2.49-3.51 4.28-5.49 6.22-1.5 1.15-3.07 2.14-5.05 2.13-1.48-.5-3 .02-4.5-.2-.67-.28-1.1-.74-1.14-1.5 2.15-2.11 3.45-5.02 6.21-6.56 3.6-.16 3.85-3.36 5.11-5.64z" fill="#c7a867"/><path d="M127.36 28.99c-.98 1.36-1.94-.05-2.91-.02-4.14.27-8.01-2.8-12.27-.98-1.09.02-2.12-.16-2.99-.88-.44-1.1-.73-2.14 1.04-2.22 1.77.35 1.34-1.31 1.9-2.07-.19-.81.27-1.26.87-1.65 2.64-1.92 5.51 1.1 8.18-.38 1.5-1.54 2.12-.28 2.69.9.46.97.65 2.17 2.17 1.92 3.37 1.07 1.7 3.39 1.32 5.38z" fill="#5c582e"/><path class="st66" d="M110.22 24.9c-.84.46-.98 1.24-.97 2.09-.42.22-.87.29-1.34.22-2.35-1.09-4.75-2.06-6.87-2.81-.54-.95-.67.53-.15.12.09-.07.18.06.38.29.34.39.48.83.49 1.34-.1.47-.37.82-.78 1.06-2.4-.6-4.66 2.52-7.12.27-.02-1.77.2-3.37-2.64-3.26-2.77.11-5.62.16-8.41-.33-1.02-.28-1.86-.77-2.14-1.88.05-.83.7-1.24 1.31-1.22 9.08.21 18.22-.17 27.03 2.66.52.15.82.95 1.21 1.45z"/><path d="M80.68 22.01c.53.29 1.05.58 1.58.87.6.53.65 1.17.38 1.87-3 1.42-5.57 3.24-6.28 6.78.14.64.32 1.26.29 1.92-.36 1.22-1.16 1.88-2.43 1.97-3.07-.63-2.47-3.82-3.92-5.59.66-1.78 1.31-3.55 1.97-5.33 2.74-1.04 5.06-3.49 8.41-2.49z" fill="#7d7544"/><path d="M112.85 21.7c-.24.38-.49.76-.73 1.13-6.53-2.47-13.3-3.27-20.26-3.03-1.48.05-3.96.88-4.18-1.27-.26-2.55 2.5-1.12 3.77-1.81 6.42.02 12.48 2.09 18.69 3.3.6 1.06 2.97-.76 2.71 1.68z" fill="#ecc483"/><path d="M46.47 42.89c-.43-.88-.87-1.77-1.3-2.65.28-1.11 3.26.37 2.07-2.18-1.29-2.77-.76-5.99-.21-8.46.73-3.3 4.99.37 7.12-1.71.67.49.74 1.14.52 1.87-.29.4-.67.69-1.12.89-1.26.57-3.17.36-3.44 2.21-.3 2.01 1.42 2.7 2.82 3.49.43.25.74.61.96 1.06-.4 4.63-3.39 5.75-7.42 5.48z" fill="#d0aa72"/><path d="M66.34 24.77c.23 5.23-1.28 7.14-4.86 6.16-.94.58-1.79.53-2.52-.36-.85-2.35.34-2.96 2.42-2.82 1.87-.63 2.63-3.1 4.96-2.98z" fill="#78733a"/><path d="M61.38 27.75c-.39.98-2.56.3-2.03 2.16-1.7 1.37-3.32 1.42-4.85-.27-.12-.59-.24-1.18-.35-1.76 2.35-3.05 4.74-4.34 7.23-.13z" fill="#645b2f"/><path d="M112.33 19.06c-.25-5.08-4.63-5.14-7.92-6.52 2.55-1.55 4.66.1 6.99.8 1.84.56 3.89.41 5.85.58 1.51 3.78-1.68 2.46-3.25 2.66-.06 1.89 2.07 1.04 2.27 2.32-1.27 1.16-2.59 1.11-3.94.16z" fill="#efbe7b"/><path d="M9.31 121.87c0 .24.01.48.05.71l-.39.05-.4-.02c-1.15-.32-1.6.87-2.49 1.13-.65-.97-3.2-.85-1.76-3.03 2.68-3.93 3.88-1.59 4.99 1.16z" fill="#764026"/><path d="M6.09 123.74c.32-.84-.16-2.1.9-2.49.96-.35 1.3.61 1.59 1.36.08 1.57.16 3.13.24 4.73-3.22.45-.66-3.3-2.73-3.6z" fill="#d0a07d"/><path d="M29.38 52.06c-.97 3.71 2.42 4.18 4.29 5.78-1.12.65-2.25 1.31-3.37 1.96-1.42 2.89.85 3.05 2.64 3.55.64 1.38 1.79 2.28 2.96 3.17.61.73 1.03 1.53.87 2.53-1.25 2.78-3.48-.38-5.52 1.02-2.52 1.73-2.37 4.48-4.07 6.31-1.52.54-2.81.19-3.91-.96-2.86-4.26-2.86-4.26 3.08-7.25.34-.19.42-.61.07-.68-.92-.2-1.32.59-1.8 1.18-1.12.89-2.57 1.42-3.4 2.61-1.76 2.53-3.68 1.98-5.74.51 2.06-5.18 1.09-11.3 4.95-15.92.78-.21 1.76-.84 2.29-.57 3.75 1.89 5.07-.9 6.66-3.24z" fill="#b6714e"/><path d="M27.29 68.92c-.24.21-.46.6-.71.62-3.39.23-5.11 1.52-3.32 5.1-.11.43-.31.81-.58 1.16-1.31 1.99-4.12.87-5.52 2.66-.82.91-1.11 2.31-2.46 2.74-1.2.08-2.35.27-2.8 1.65-.35.77-.71 1.52-1.35 2.1-1.07.46-1.59-.21-2.06-.99-.36-.38-.73-.76-1.09-1.14 2.46-3.84 6.16-6.78 8.08-11.03 3.95 1 6.11-2.14 8.89-3.85 1.33-.72 2.2-.08 2.92.98z" fill="#c28363"/><path class="st77" d="M17.39 113.8c0 .33-.01.67-.01 1-1.27.72-2.66.95-4.08 1.05-3.03-.74-2.65-2.58-1.63-4.75.79-1.67 2.15-3.34.62-5.3.88-4.24-.96-8.61.6-12.82.34-.33.75-.49 1.23-.47 2.74 1.82 1.99 5.95 5 7.6.31.35.49.75.54 1.22-.67 2.22-2.91 3.43-3.59 5.64-1.83 2.71 1.51 4.43 1.32 6.83z"/><path d="M13.32 92.8c-.62 4.31 2.35 8.9-1.02 12.99-.66 0-1.31.01-1.97.01-1.24-2.18-1.39-4.8-2.86-6.88l-.43-.09c.42-2.01-1.65-3.79-.54-5.86 1.62-.46 3.58.48 4.92-1.19 1.03-.42 1.54.16 1.9 1.02z" fill="#ad7355"/><path d="M7.46 98.92c4.27.91 2.58 4.31 2.86 6.88-.48 2.8-.96 5.6-1.52 8.85-3.02-2.25-4.46-4.47-2.4-7.8 1-1.38-.55-2.71-.08-4.08.06-1.38.22-2.72 1.14-3.85z" fill="#784026"/><path class="st31" d="M13.3 115.84c1.07-1.49 2.41-1.92 4.08-1.05 1.54 2.72-.52 4.21-2.01 5.9-.46 1.43-.89 2.87-1.96 4-2.78.5-1.77-1.67-2.07-2.93 1.51-1.68 1.3-3.94 1.96-5.92z"/><path d="M6.33 102.77c.6 1.35 5.55 2.62.08 4.08-1.24-.7-1.73-.46-2.3 1.02-.52 1.34.88 2.92-.71 3.94-3.72-4.54-.54-6.84 2.93-9.04z" fill="#b67654"/><path d="M127.36 28.99c-2.02-1.4.78-4.01-1.34-5.39.39-.55.78-1.09 1.17-1.64.23.01.47.02.7.03 2.1 1.28 5.15 1.19 6.06 4.19-.02.76-.22 1.39-1.07 1.6-1.76.77-3.58 1.26-5.52 1.21z" fill="#877437"/><path class="st66" d="M112.33 19.06c1.31-.06 2.62-.11 3.93-.17 2.32-1.12 2.69 2.76 4.91 1.91-2.49 2.9-5.6.12-8.32.9-.9-.56-1.8-1.11-2.7-1.67.73-.33 1.45-.65 2.18-.97z"/><path class="st19" d="M129.28 19.9c2.04.78 4.37.59 6.23 1.94-2.74 2.43-5.54 1.19-8.33.12v.02c-.98-2.39.72-2.08 2.1-2.08z"/><path d="M6.5 92.98c1.28 1.85 3.11 3.65.54 5.86-3.39-1.21-2.45-3.67-1.77-6.07l.54-1.11.69 1.32z" fill="#dc9279"/><path class="st10" d="M127.18 21.96c2.77-.04 5.55-.08 8.33-.12.51 0 1.02-.01 1.53-.01 2.17 1.74 4.63 2.36 7.4 2.09 2.24-.22 4.44-.09 4.91 2.86-.79.37-1.09 1.06-1.19 1.87-.86 1.1-1.84 1.06-2.9.29-2.09-1.89-5.25 2.82-7-1.14-.7-2.82-3.38-.79-4.76-1.94-1.91-1.62-5.11-1.14-6.32-3.9z"/><path d="M13.32 92.8c-.64-.34-1.27-.67-1.9-1.01-.08-.31-.13-.62-.15-.93.14-1.55 2.77-2.2 1.52-4.25-.31-.84-.33-1.67.07-2.48 1.04-.83 1.02-2.15 1.45-3.26.66-1.01 1.33-2.02 1.99-3.03 1.49 2.56 3.72 4.68 4.45 7.67-.53 1.23-2.28.85-2.77 2.12-.54 2.02-.17 4.22-1.3 6.1-1.03.8-1.61.12-2.15-.66-.4-.1-.81-.19-1.21-.27z" fill="#a4674e"/><path class="st77" d="M13.27 86.72c2.86 3.09-.57 3.13-2.01 4.14-1.9-1.91-2.31-4.42-2.77-6.9.59.29 1.17.57 1.76.86 1.35.09 1.38 2.27 3.02 1.9z"/><path d="M130.23 57.82c-.33.68-.65 1.36-.98 2.04-.11.2-.23.4-.34.6-1.02.94-2.03 1.94-3.62 1.43-1.19.4-2.55 1.39-3.54 1.1-2.58-.75-4.18.42-3.71 2.51.57 2.53 2.38-.77 4.01.3-1.83 2.85-4.78 4.86-6.86 7.49-1.47 1.85-.97 2.9-1 4.42-.36 2.31-2.14 3.21-4 4.04.38-6.04-4.87-4.25-8.26-6.07.62 1.14.92 1.81 1.31 2.42 1.23 1.91 2.52 4.47 1.18 6.1-1.73 2.1-3.65-.69-4.96-1.62-3.41-2.4-3.16.83-4.17 2.22.15.54-.02 1.08-.55 1.08-.54 0-.68-.54-.47-1.07-1.49-2.04 1.4-3.18 1.01-4.99.28-1.58 1.07-2.6 2.67-3.21 1.86-.71 2.13-2.6 2.94-4.52-2.53.01-4.4 2.1-6.58.77-.88-2.53 1.87-5.12-.54-7.89 3.78 2.46 6.42 3.28 7.99-1.97.84-2.8 5.95-2.95 5.52-7.17.45-1.54.8-3.19 2.99-2.98.07 1.89 1.04 2.89 2.94 2.98.62.06.75.62 1.05 1 1.04 1.48 2.62.87 4.01 1.02 2.11 1.99 2.74-2.92 4.83-1.04 2.38.34 4.75.67 7.13 1.01z" fill="#d6a954"/><path class="st85" d="M94.32 72.85c1.31-.93 3.23-.18 4.36-1.82 1.14-1.66 2.72-1 3.83.07 1.25 1.2-.36 1.91-.79 2.86-1.31 2.91-4.06 4.16-6.43 5.86-2.32.17-2.95 2.88-4.92 3.39-2.63-.66 1.04-4.06-2.1-4.41 2.05-1.13 3.12-3.6 6.01-3.73 1.58-.07-.01-1.44.04-2.22z"/><path class="st0" d="M76.28 101.75c-1.14 3.32-1.13 3.26-3.81 2.55-1.38-.36-1.17.81-1.63 1.65-1.57 2.9-2.51 7.21-7.55 4.84 1.26-7.43 6.96-8.48 12.99-9.04z"/><path d="M110.18 81.76c.97-1.7 2.45-2.91 4-4.04 1.89-.09 2.51-3.59 5.07-1.88.35-.35.67-.33.94.1.02.29.03.57.04.86-2.48 2.77-5.92 4.1-8.99 5.98-.35-.34-.7-.68-1.06-1.02z" fill="#b07d2f"/><path class="st1" d="M102.31 90.83c-.98 1.36-1.21 3.3-3.04 4.02.02-1.15-.12-2.32.09-3.43.28-1.47-1.01-3.93 1.18-4.18 1.97-.24.36 2.72 1.77 3.59z"/><path class="st85" d="M94.27 84.82c.35.73.69.71 1.03-.01.9.25 1.94-.95 2.59.03.24.35-.39 1.87-.85 1.99-1.11.28-2.47.33-3.49-.09-.54-.25-.03-1.44.72-1.92z"/><path d="M110.28 52.85c-1 .99-2 1.99-2.99 2.98-3.39.01-3.76-3.35-5.69-5.1-1.78 1.69-3.57 3.38-5.36 5.08-2.4-2.49-2.01-4.45 1.23-6.09-2.8.14-5.53 2.41-8.2.11 1.63-3.34 5.06-3.12 7.94-3.99 4.75-2.2 10.41-2.59 14.04-7.03 2.01-3.84 4.95-4.12 8.82-2.06-1.88 2.45-6.42 2.79-5.76 7.04-.57 1.89-2.76 2.35-3.57 4.01-1.11 1.1-.36 1.16.63 1.11 2.12-.11 3.07-2.39 5.06-2.74.74-.05 1.37.19 1.88.75-.59 4.79-5.23 4.12-8.03 5.93z" fill="#d7a542"/><path d="M89.26 49.81c3.06.54 5.92-1.9 9.56-.46-2.82 1.53-3.98 3.59-2.59 6.45-6.48-.11-9.79 4.74-13.13 9-1.39 1.77-2.8 3.83-3.79 6-.45-1.43 1-3.34-.99-4.37-2.15-1.1-3.57.22-4.88 2.5-1.31-4.54 2.99-4.74 3.88-7.08 3.49-4.5 5.96-10.01 11.94-12.04z" fill="#c49130"/><path class="st32" d="M27.23 75.77c1.46-1.95-.77-2.83-1.38-4.55 2.02-.8 6.74 1.45 4.67-3.82 2.57-.61 3.6 2.97 6 1.49 1.16-.19 1.4.7 1.75 1.47.34 1.2.89 2.31 1.57 3.35 1.22 1.61 3.12 1.48 4.8 1.88 3.92 1.09 7.25-.59 10.59-2.25 1.64.37 1.87 1.34 1.17 2.71-.35.6-.71 1.19-1.06 1.79-.58 1.44-1.55 2.47-3.09 2.9-.84.35-.98 1.11-1.1 1.88-.28.08-.55.17-.82.27-3.32 2.15-5.58-2.53-8.76-1.35-.46-.03-.91-.13-1.34-.29-2.61-1.44-6.71 1.17-8.32-3.03-.27-1.49-.46-2.97 1.47-4.43-2.19.61-2.39 2.17-3.11 3.28-.25.4-.58.71-.97.97-1.49-.03-1.94-1-2.07-2.27z"/><path d="M73.27 59.88c.02.33.03.66.04.99-3.39 1.02-5.47 3.79-8 5.97-1.7 1.32-3.4 1.46-5.09 0 .61-3.54.05-7.51 3.66-9.96 2.37-.49 4.73-.48 7.09.14 1.18.62 2.67.99 2.3 2.86z" fill="#b79c7f"/><path d="M56.41 76.06c-.1-1.35-.67-2.21-2.17-2.14-2.41-.41-4.95 4.05-7.26-.19.9-3.08 2.9-4.64 6.15-4.54 2.11.8 4.39 1.37 5.39 3.76-.12 1.43-.67 2.57-2.11 3.11z" fill="#70381b"/><path d="M58.51 72.95c-1.65-1.19-3.9-1.38-5.23-3.12.73-1.84 1.45-3.69 3.96-3.56 2.32.9 4.82 1.6 5.15 4.68-1.06 1.12-2.31 1.87-3.88 2z" fill="#ac6b40"/><path d="M62.39 70.94c-1.7-1.34-3.4-2.68-5.11-4.02.1-.73.51-1.22 1.15-1.53.69-.16 1.32-.14 1.7.6 1.56 1.31 3.46.5 5.18.85-.2 1.92-1.32 3.18-2.92 4.1z" fill="#884f27"/><path d="M52.25 80.75c.78-1.23 1.73-2.29 3.09-2.9-.15 1.33 3.79.32 1.61 2.76-1.45 1.63-3.07 2.22-4.7.14z" fill="#c79730"/><path d="M13.41 124.7c.08-1.61-.59-3.6 1.96-4 .62.31 1.24.61 1.86.92.45 3.16-2.18 2.5-3.82 3.08z" fill="#af7452"/><path d="M34.5 89.97c-1.11 1.91-2.21 3.82-3.32 5.73-1.44 1.13-3.82.02-4.88 2.04-3.44-1.98-3.86 1.29-5.18 2.98-.15.35-.41.56-.79.62-.38-.03-.67-.2-.87-.53l-.25-.01c-.69-1.85.02-3.63.25-5.44.58-1.9.18-4.01 1.2-5.82 1.92-1.08 1.85-3.19 2.55-4.91 2.83-1.13 5.06 3.45 8.05.84.47-.09.93-.05 1.38.12 1.51 1.08 1.92 2.63 1.86 4.38z" fill="#ad6b47"/><path d="M26.3 97.74c-.68-6.2 2.9-2.21 4.88-2.04.71.03 1.42.06 2.12.09-.67 1.86 2.45 4.6-.69 5.58-2.75.85-4.88-1.21-6.31-3.63z" fill="#6c3317"/><path d="M20.42 100.89c.23-.07.47-.12.71-.17.29 2.54 2.86 1.99 4.21 3.1-.18 1.04-3.67.99-.98 2.98-2 1.59-4.01 1.51-5.57-.46-1.92-2.41.57-3.78 1.63-5.45z" fill="#8e4d2b"/><path d="M32.32 104.8c-.02 1.69-.26 3.4-2.22 3.77-1.72.33-1.87-1.49-2.6-2.46 1.37-1.3 3.04-1.51 4.82-1.31z" fill="#ac775b"/><path d="M20.42 100.89c-2.29 5.52-2.12 5.78 3.93 5.91 1.82 1.37.52 2.62-.15 3.9-4.2 3.01-5.58-1.11-7.81-3.09-.47-.12-.81-.4-1-.84-.37-3.16 2.83-3.88 4.07-5.95.32.01.64.03.96.07z" fill="#a3613f"/><path d="M24.32 112.79c2.69.08 3.02 2 3.16 4.06-1.74 1.81-3.12.89-4.33-.65-1.3-1.66-.05-2.55 1.17-3.41z" fill="#9e6247"/><path class="st31" d="M15.38 106.76c.33.28.67.56 1 .84-1.2 2.31 2.77 3.79 1.01 6.19-1.09-2.22-3.73-4-2.01-7.03z"/><path d="M41.3 80.85c1.63-.99 3.25-1.52 4.75.22 1.13 1.32 2.58 1.87 4.28 1.82-.14 1.57-.74 2.89-2.02 3.86-5.02-3.73-7.45 1.37-10.85 3.18-1.36-4.14 1.3-6.58 3.84-9.08z" fill="#aa5d35"/><path d="M41.3 80.85c-1.11 3.1-3.27 5.75-3.84 9.08-.98 1.11-1.98-.37-2.96.03-1.53-.98-1.23-2.91-2.19-4.19-.57-.66-.56-1.38-.18-2.12 2.73-.94 4.79-3.71 8.13-2.97.35.06.69.12 1.04.17z" fill="#b67045"/><path class="st0" d="M47.32 121.75c3.92 2.48 2.64-2.01 3.99-2.97 1.66 1.99-.71 3.99.03 5.98-3.47 1.85-3.44-.99-4.02-3.01z"/><path d="M129.25 59.86c3.89.14 7.43-1.06 10.84-2.77-.91 3.7-4.49 4.64-6.96 6.73-2.45 3.2-7.49.84-9.97 5.41-.27-3.48 2.27-4.49 3.09-6.39 1.42-.59 2.64-1.37 3.02-3l-.02.02z" fill="#dbaa57"/><path class="st104" d="M126.26 70.83c1.66.08 3.4 2.19 3.25 2.26-3.03 1.27-.65 6.43-4.8 6.61-.61.03-1.49-.11-1.79-.51-.62-.82.15-1.43.72-2.05 1.61-1.78 3.52-3.47 2.62-6.31zM120.19 75.94c-.31-.05-.62-.08-.94-.1.6-1.58-.99-2.29-1.73-3.71 2.95-.38 5.79-.21 7.84-2.54.39-.45.82.62.89 1.24-2.54 1.08-3.08 4.54-6.06 5.11z"/><path d="M129.27 59.84c.51 1.1 1.01 2.21 1.52 3.3-1.69 1.5-3.03-.53-4.54-.3-.32-.31-.65-.63-.97-.94 1.39-.58 2.19-2.29 3.99-2.06z" fill="#bf903a"/><path class="st104" d="M132.24 66.87c.64.65 1.28 1.3 1.92 1.94-1.68-.09-3.27 1.94-5.3-.04.6-1.48 2.51-.95 3.38-1.9z"/><path d="M108.35 33.98c-2.99 4.22-8.12 5.06-12.15 7.62-2.28-.8-2.63-2.81-3.03-4.79-.1-.75-.13-1.5-.14-2.25 0-1.5-.05-3.01.28-4.5.13-.49.37-.92.7-1.31 2.36-.37 4.34-2.38 6.96-1.67.19-.02.36-.08.52-.18 1.6-1.56 3.39-1.2 5.21-.53 1.89 1.22.63 3.05.9 4.58 0 1.07.5 2.02.75 3.03z" fill="#954323"/><path d="M56.32 37.9c1.38-.14 2.76-.98 4.13.02.79 2.98 4 1.92 5.7 3.4 5.05 1.6 10.11 3.12 15.47 3.21 2.18.17 4.59-.21 5.68 2.46-.65.63-1.3 1.25-1.95 1.88-6.88 1.51-13.2-.74-19.54-2.91-2.8-.96-5.43-2.45-8.46-2.64-.98-.01-1.79-.42-2.49-1.09-1.64-2.17-.61-3.43 1.46-4.33z" fill="#ce9e53"/><path d="M57.32 42.87c.12-.59.19-1.62.99-1.23 8.55 4.16 17.6 6.39 27.04 7.22-1.98 1.68-3.96 3.37-5.94 5.05-.71-.07-1.25-.45-1.7-.97-1.32-2.18-3.72-1.83-5.72-2.42-4.99-1.88-10.31-2.99-14.69-6.28-.33-.46-.32-.92.02-1.37z" fill="#b17e31"/><path d="M145.26 28.93c.97-.1 1.93-.19 2.9-.29 1.07.26 1.68.59 1.24 2-.28.91-4.29 3.63 1.1 3.05.92-.1-.46 1.57-1.26 2.17-2.73-.49-4.56.78-5.87 3.04-1.69-.05-3.37-.12-4.13-2.04-.79-.13-2.1-.63-.91-1.27 3-1.6 4.04-5.07 6.93-6.66z" fill="#d3a84c"/><path d="M87.3 46.98c-1.99-.42-3.99-.84-5.98-1.26-2.21-3.01-.68-5.86.4-8.72 1.88-1.96 3.94-2.77 6.37-.93-.04 1.43 2.87 6.06 4.4 7.09.23.15.12.56-.09.87-1.71.99-3.4 1.97-5.1 2.95z" fill="#5d3d19"/><path d="M92.39 44.04c-.2-.24-.53-.73-.6-.7-2.98 1.49-5.1-1.05-6.62-2.39-1.11-.98 2.68-1.96 2.99-3.94.56-.66 1.25-.74 2.03-.48.85.88 1.37 1.78.26 2.82 1.42-.56.95-4.05 3.78-2.56.65 1.6 1.31 3.2 1.96 4.8-1.26.82-2.53 1.64-3.8 2.45z" fill="#675d32"/><path d="M111.24 38.79c2.93 3.68-1.51 3.48-2.57 3.9-2.9 1.13-6.35.64-8.27 4.18-.68 1.25-2.31-.02-3.2-1.06 4.35-2.98 9.29-4.8 14.04-7.02z" fill="#be8d2e"/><path d="M108.35 33.98c-1.24-.17-2.74-.11-1.8-2.12 2.15-3.72 5.74-3.72 9.37-3.65.98.26 1.95.54 1.58 1.91-2.4 2.83-6.01 2.8-9.15 3.86z" fill="#ecb6b2"/><path d="M117.5 30.13c-.44-.87-1.19-1.23-2.12-1.26-1.24-.33-3.03.29-3.19-1.87 4.57-2.36 8.36.16 12.26 1.98-2.01 2.23-4.46 1.76-6.95 1.15z" fill="#d5c5ae"/><path d="M78.52 53c.3.3.59.61.89.91-1.84 2.2-3.45 4.63-6.14 5.97-.75-.61-1.49-1.22-2.24-1.84-.03-1.31.17-2.55.96-3.64 1.86-1.95 4.13-1.98 6.53-1.4z" fill="#674a1d"/><path d="M118.29 46.9c-.67-.01-1.35-.02-2.02-.03-.74-.59-1.04-1.39-1.08-2.31.02-.22.03-.44.05-.66 1.13-2.33 3.47-2.58 6.18-3.92-.65 2.13 1.51 4.71-2.78 3.81-1.77-.37.19 2.05-.35 3.11z" fill="#ca9244"/><path d="M114.26 56.83c-.35-.33-.7-.67-1.05-1 2.35-2.35 4.56-5.1 8.67-2.8-1.97 2.36-5.74 1.34-7.62 3.8z" fill="#c0943d"/><path d="M133.5 25.85c1.51-1.45 3.38-.84 4.92-.44 2.95.77-.15 1.56-.16 2.38-1.79 0-3.58.01-5.38.01.21-.65.42-1.3.62-1.95z" fill="#e2c595"/><path d="M139.24 36.87c1.23.97 3.13.6 4.13 2.04-1.54 1.85-3.91.03-5.44 1.74-.86-2.11 1.23-2.51 1.31-3.78z" fill="#be8f32"/><path d="M110.27 47.86c-.61-3.29 2.5-2.9 4.03-4.08.31.08.63.12.95.13l-.02-.05c.22 3.65-1.65 4.71-4.96 4z" fill="#bd842f"/><path d="M123.1 56.81c-1.8-.05-1.44 2.14-2.56 2.55-1.05.39-3.33 1.65-2.27-1.51 1.55-.65 2.67-3.25 4.83-1.04z" fill="#ae832f"/><path d="M34.17 61.79c1-6.33 5.25-4.78 9.25-3.8 5.61.79 6.28 3.61 2.21 9.24-1.42.82-2.95.87-4.52.69-2.71-1.21-5.72-1.99-7.36-4.83-.02-.5.11-.93.42-1.3z" fill="#c6bcc4"/><path d="M45.15 66.75c1.87-3.4 4.1-6.87-1.72-8.76.87-1.65 2.49-.94 3.8-1.21 1.49-.56 2.42-1.98 3.91-2.57 1.57-.67 3.14-1.26 4.44.48.15.44.17.9.06 1.36-1.34 3-5.6 4.71-4 9.02-1.77 5.36-2.7 5.6-6.49 1.68z" fill="#5a5226"/><path d="M56.32 37.9c-.43 1.26-2.37 2.15-.93 3.86-.05 1.56-.71 2.91-1.55 4.18-.44.52-.96.88-1.67.89-3.16.51-4.9-1.05-5.71-3.95C49 41.23 53 41.27 53.27 37c.67-.64 1.33-.64 1.98.02.36.29.72.58 1.07.88z" fill="#9d7145"/><path d="M51.52 54.76c-1.55.41-1.71 3.79-4.29 2.01-1.3-3.17 2.12-5.34 1.81-8.41-.06-.62 1.59-.56 2.28.38.9.59 2 .96 2.33 2.16.16 1.77-1.24 2.67-2.13 3.86z" fill="#8f7b4e"/><path d="M53.26 50.88c-.97-.42-1.65-1.1-1.94-2.14.84-.39.96-1.1.86-1.91.38-.31.76-.63 1.14-.94 1.28-.67 2.61-1.07 4.08-.73 1.37.68 3.73.31 3.85 2.27.13 2.17-2.14 2.57-3.77 3.15-1.36.49-2.76 1.1-4.22.3z" fill="#757744"/><path d="M34.17 61.79c.05.3.07.61.07.92-.21.49-.3 1.09-1.03 1.09-1.21-.38-2.56 1.71-3.53.09-.75-1.27-.6-2.87.61-4.08.25 2.7 3.07.39 3.88 1.98z" fill="#93482c"/><path d="M55.26 37.02c-.66-.01-1.32-.02-1.98-.02-3.47.84-4.69-1.69-4.76-4.08-.13-4.27 3.77-2.51 5.98-3.27 1.62.09 3.23.18 4.85.27l2.13 1.02c-1.97 2.12-3.27 4.95-6.22 6.08z" fill="#cab8a5"/><path d="M65.07 42.06c-1.81-.71-3.76-1.18-5.38-2.19-2.2-1.37 1.16-1.02.77-1.95 1.59-.71 3.19-1.42 4.78-2.13.3-.15.57-.34.87-.47 1.36-.6 2.54-3.17 4.1-1.31 1.65 1.96-.57 3.12-1.96 4.21-2.49.08-.54 3.88-3.18 3.84z" fill="#5b3a18"/><path d="M67.33 37.86c.62-1.24 2.71-1.29 2.62-3.22-1.99-1.2-2.93 1.82-4.71 1.15 1.48-2.16 4-3.44 5.07-5.95 3.23.22 1.36 4.42 4 5.11-1.06 4.02-3.68 4.28-6.98 2.91z" fill="#774b2a"/><path d="M112.19 27c1.06.62 2.12 1.24 3.19 1.87-3.11.49-6.07 1.45-8.83 3-.2-1.67-.36-3.33.73-4.8.17-.55.44-.6.81-.17.39.03.78.06 1.17.1h2.93z" fill="#ca9381"/><path d="M82.25 24.84c0-.65.01-1.31.01-1.96 4.43.25 8.97-.73 13.3 1.27-.57 1.14-1.62 2.11-1.37 3.55-.16.19-.31.39-.47.58-.91.58-1.9.6-2.92.44-2.85-1.29-6.57-.67-8.55-3.88z" fill="#463c1e"/><path d="M108.09 26.9c-.26.07-.53.13-.81.16-1.93-.05-3.86-.11-5.79-.16-.22-1.38-1.42-1.99-3.11-2.81 4.28-.59 7.43-.24 9.71 2.81z" fill="#482f15"/><path d="M100.97 27.08c-2.16.74-4.33 1.48-6.49 2.23-.49-.4-.55-.87-.19-1.38l-.11-.22c2.34.53 4.22-3.87 6.79-.63z" fill="#d3b37c"/><path d="M67.33 37.86c2.6-.3 5.27-.44 6.97-2.91.71-.65 1.42-1.3 2.12-1.96 3.03-1.28 1.72 1.7 2.57 2.57 1.02.72 2.56.2 3.34 1.44.19 2.97-1.58 5.71-1.02 8.73-5.64-.22-11.12-1.2-16.25-3.67 1.46-1.03-1.78-4.57 2.27-4.2z" fill="#7d321a"/><path d="M82.25 24.84c3.01 1.03 6.03 2.05 9.04 3.08 1.03 2.32-.84 2.68-2.26 3.39-4.48 2.26-9.02 2.36-13.65.55.66-4.3 3.43-7.14 6.87-7.02z" fill="#d0c6ca"/><path d="M75.37 31.86c4.87.63 9.51-.31 14.09-1.95 1.07-.38 1.74-.84 1.82-1.99h3.01c.06.46.12.92.19 1.38.01.24-.04.47-.15.68-.87 2.77-2.74 4.2-5.65 4.46-3.85.34-7.58 1.39-11.31 2.36-1.29-1.03 1.93-3.18-.95-3.81-.35-.37-.7-.75-1.05-1.13z" fill="#d2a96e"/><path d="M45.15 66.75c3.08 2.86 4.59.37 6.2-1.81 1.95-2.79 3.27-6.31 7.54-6.37 1.55 2.58.97 5-.57 7.34-.34.34-.68.67-1.03 1.01-2.48-.61-1.65 3.34-4 2.91-2.85.16-4.42 2.2-6.06 4.13-.33 1.6-1.79 2.06-2.92 2.86-1.56-1.14-4.78.59-4.98-2.89.3-1.62.78-3.36-1.95-3.07-.02-.77-.09-1.51-.85-1.96l-1.2-1.92c1.71-2.35 3.44.76 5.16-.01 1.55-.08 3.1-.15 4.66-.22z" fill="#523b1d"/><path d="M32.46 83.98l-.15 1.8c-.25.07-.51.13-.77.17-2.91 1.32-5.11-3.18-8.13-.98.33 2.08 1.14 4.43-2.42 4.33-2.95 1.64-2.96-1.88-4.56-2.6.76-2.3 2.56-.62 3.82-1 1.78-3.38 1.35-7.21 2.19-10.77.28-.07.56-.17.83-.28 1.21.77 2.45 1.43 3.97 1.14l2.07 2.22c1.81 1.57 3.16 3.41 3.15 5.97z" fill="#512111"/><path d="M40.48 66.96c-1.72 1.73-3.44-.93-5.16.01-1.11-.79-3.12-.98-2.12-3.18.34-.36.69-.73 1.03-1.09 2.09 1.43 4.17 2.85 6.25 4.26z" fill="#c5aaa7"/><path d="M27.29 68.92c-.97-.33-1.95-.66-2.92-.99-.86-2.25.86-1.96 2.04-1.91.91.04 2.38.27 2.57.79.36 1.03-.81 1.62-1.69 2.11z" fill="#934f2c"/><path d="M22.43 74.92c1.58 4.06.99 7.68-2.19 10.77-1.99-2.28-4.19-4.46-3.94-7.86 1.03-3.11 4.55-.97 6.13-2.91z" fill="#8e4f30"/><path d="M14.31 80.86c.34.98 1.56 1.73.99 2.93-.51 1.07-1.33.02-2.01.09-1.07.38-1.58-.17-1.87-1.11-.47-.85-1.09-1.76-.01-2.53 1.12-.81 2.11-.4 2.9.62z" fill="#68331b"/><path d="M11.43 82.77c.62.37 1.25.74 1.87 1.11-.01.95-.02 1.89-.03 2.84-2.54 1.8-2.21-.95-3.01-1.9.1-.85.33-1.63 1.17-2.05z" fill="#be7f73"/><path d="M20.09 94.9c.06 2.02.88 4.16-.88 5.91-4.67-.71-3.63-4.86-4.67-7.75.6.33 1.2.66 1.8.98 1.39-.36 2.73-.46 3.75.86z" fill="#38170e"/><path d="M20.09 94.9c-1.29-.13-2.75.48-3.76-.86.03-2.45.06-4.9.1-7.35 1.52.87 3.05 1.74 4.57 2.61-.22 1.87.62 3.93-.91 5.6z" fill="#8e5739"/><path d="M104.16 65.99c6.85-6.03 4.14 2.57 6.48 3.28-3.21.65-3.72-2.91-6.48-3.28z" fill="#b98a37"/><path class="st23" d="M112.54 58.93c-.35 1.02-.8 1.88-2.06 1.75-.91-.1-1.69-.63-1.75-1.46-.1-1.43 1.13-1.33 2.08-1.34.76-.01 1.7-.14 1.73 1.05zM110.27 47.86c2.46-.34 4.14-1.63 4.96-4 1.28.68 1 1.9 1.04 3.01-1.75 2.29-3.69 4.14-6.95 3.09-.91-.29-2.16-.35-1.57-1.77.56-1.31 1.62-.63 2.52-.33z"/><path class="st148" d="M32.46 83.98c-1.89-1.56-2.65-3.71-3.16-5.99l.08-.34c1.04-.69 2.02-.69 2.92.26 1.68 1.38 3.11 3.29 5.73 1.27 1.08-.84 2.14.01 2.23 1.51-2.8.6-4.4 4.07-7.8 3.29z"/><path d="M44.3 76.81c.75-1.18 1.58-2.28 2.92-2.86 1.17 1.21 2.41 1.03 3.49-.02 1.24-1.21 2.35-.81 3.53-.01.48.85 1.04 2.43-.22 2.26-3.34-.43-6.4 2.23-9.72.63z" fill="#aa6439"/><path d="M32.31 77.91c-.97-.09-1.95-.17-2.92-.26 1.01-5.08 2.26-5.83 7.03-3.67-2.18.77-4.26 1.4-4.11 3.93z" fill="#b7714d"/><path d="M37.37 70.85c1.11.57 1.87-2.31 2.84-.48.53 1.01 2.04 3.07-.9 3.54-1.32-.58-2.02-1.57-1.94-3.06z" fill="#85643d"/><path d="M58.31 65.91c.04-2.4.08-4.79.12-7.19-.49-2.24.94-2.89 2.7-3.27 1.2.3 2.26.74 2.37 2.21-1.14 2.77-1.18 5.98-3.37 8.33-.6-.03-1.21-.05-1.82-.08z" fill="#a3815f"/><path d="M63.5 57.66c-.69-.61-1.9-.53-2.18-1.67 3.34-3.19 7.03-3.48 11.01-1.32-.08 1.26.1 2.62-1.31 3.37-2.5-.12-5.01-.25-7.52-.38z" fill="#51381b"/><path class="st148" d="M23.41 84.96c3.16-3.37 5.59-.78 8.13.98-1.66 3.8-3.94 1.34-5.79.37-.76-.39-1.19-1.48-2.34-1.35z"/><path d="M77.38 36.8c3.18-3.52 7.82-2.65 11.78-3.68 2.23-.58 3.89-1.35 5.18-3.13l-.09 4.98c-1.22.83-2.47 1.58-3.93 1.91-.71.04-1.43.09-2.14.14-1.94-1.79-3.89-.45-5.83-.02-1.63-1.05-3.41 2.09-4.97-.2z" fill="#a87735"/><path d="M90.31 36.88c.84-1.61 2.13-2.3 3.93-1.91 0 .61 0 1.22-.01 1.83-2.22-.01-1.67 2.55-3.33 3.49-1.03-.99-.53-2.28-.59-3.41z" fill="#4a3418"/><path d="M56.38 45.76c-1.04-.36-1.99 1.3-3.07.13.28-1.59.6-3.15 2.08-4.13.64.37 1.28.74 1.92 1.12.04.3.06.6.07.91.03.83-.35 1.47-1 1.97z" fill="#6e5625"/><path d="M72.34 54.67c-3.78-.47-7.43.14-11.01 1.32-1.43.42-2.27 1.47-2.9 2.74-2.65 1.75-4.12 4.83-7.09 6.22-2.41-.08-2.84-1.14-1.45-3.02 1.63-2.19 2.93-4.66 5.25-6.27 4.42-2.68 8.67-5.93 14.38-4.4 0 0-2.4-.95-2.4-.96 1.5-1.92 3.28-.86 5-.46 2.34.65 6.19-1.74 6.4 3.18-1.79 1.53-4.28.49-6.18 1.65z" fill="#cfac5f"/><path d="M72.12 49.82c-1.71.22-3.51-.12-5.08.89-4.13.71-7.54 3.42-11.65 4.16-1.26-1.03-2.58-.17-3.87-.11-.65-1.85 1.64-2.37 1.74-3.88 2.52-.96 5.05-1.92 8.34-3.18-2.32-.87-3.77-1.41-5.22-1.95-.04-.85.22-1.54 1-1.98 4.92 2.03 9.83 4.04 14.74 6.05z" fill="#483c19"/><path d="M55.39 54.87c3.68-1.96 7.19-4.38 11.65-4.16 1.09.15 2.19.3 3.29.45-4.83.45-9.22 1.76-13.08 4.68-.65.49-1.48.75-2.1-.19.07-.26.15-.52.24-.78z" fill="#e0c07d"/></svg>